<svg xmlns="http://www.w3.org/2000/svg" xmlns:xlink="http://www.w3.org/1999/xlink" contentStyleType="text/css" data-diagram-type="CLASS" height="668px" preserveAspectRatio="none" style="width:514px;height:668px;background:#FFFFFF;" version="1.1" viewBox="0 0 514 668" width="514px" zoomAndPan="magnify"><defs/><g><!--class Cafeteria--><g class="entity" data-entity="Cafeteria" data-source-line="4" data-uid="ent0002" id="entity_Cafeteria"><rect fill="#F1F1F1" height="26.2969" rx="2.5" ry="2.5" style="stroke:#181818;stroke-width:0.5;" width="70.2236" x="284.33" y="7"/><text fill="#000000" font-family="sans-serif" font-size="14" lengthAdjust="spacing" textLength="64.2236" x="287.33" y="24.9951">Cafeteria</text></g><!--class Persona--><g class="entity" data-entity="Persona" data-source-line="4" data-uid="ent0003" id="entity_Persona"><rect fill="#F1F1F1" height="26.2969" rx="2.5" ry="2.5" style="stroke:#181818;stroke-width:0.5;" width="62.123" x="235.38" y="110.29"/><text fill="#000000" font-family="sans-serif" font-size="14" lengthAdjust="spacing" textLength="56.123" x="238.38" y="128.2851">Persona</text></g><!--class Menu--><g class="entity" data-entity="Menu" data-source-line="5" data-uid="ent0005" id="entity_Menu"><rect fill="#F1F1F1" height="26.2969" rx="2.5" ry="2.5" style="stroke:#181818;stroke-width:0.5;" width="44.4385" x="43.22" y="166.59"/><text fill="#000000" font-family="sans-serif" font-size="14" lengthAdjust="spacing" textLength="38.4385" x="46.22" y="184.5851">Menu</text></g><!--class Inventario--><g class="entity" data-entity="Inventario" data-source-line="6" data-uid="ent0007" id="entity_Inventario"><rect fill="#F1F1F1" height="26.2969" rx="2.5" ry="2.5" style="stroke:#181818;stroke-width:0.5;" width="77.0527" x="310.91" y="532.78"/><text fill="#000000" font-family="sans-serif" font-size="14" lengthAdjust="spacing" textLength="71.0527" x="313.91" y="550.7751">Inventario</text></g><!--class Presupuesto--><g class="entity" data-entity="Presupuesto" data-source-line="7" data-uid="ent0009" id="entity_Presupuesto"><rect fill="#F1F1F1" height="26.2969" rx="2.5" ry="2.5" style="stroke:#181818;stroke-width:0.5;" width="92.7002" x="414.09" y="429.48"/><text fill="#000000" font-family="sans-serif" font-size="14" lengthAdjust="spacing" textLength="86.7002" x="417.09" y="447.4751">Presupuesto</text></g><!--class Empleado--><g class="entity" data-entity="Empleado" data-source-line="8" data-uid="ent0011" id="entity_Empleado"><rect fill="#F1F1F1" height="26.2969" rx="2.5" ry="2.5" style="stroke:#181818;stroke-width:0.5;" width="75.9043" x="120.49" y="222.89"/><text fill="#000000" font-family="sans-serif" font-size="14" lengthAdjust="spacing" textLength="69.9043" x="123.49" y="240.8851">Empleado</text></g><!--class Cliente--><g class="entity" data-entity="Cliente" data-source-line="9" data-uid="ent0013" id="entity_Cliente"><rect fill="#F1F1F1" height="26.2969" rx="2.5" ry="2.5" style="stroke:#181818;stroke-width:0.5;" width="55.1436" x="228.87" y="326.18"/><text fill="#000000" font-family="sans-serif" font-size="14" lengthAdjust="spacing" textLength="49.1436" x="231.87" y="344.1751">Cliente</text></g><!--class Producto--><g class="entity" data-entity="Producto" data-source-line="11" data-uid="ent0016" id="entity_Producto"><rect fill="#F1F1F1" height="26.2969" rx="2.5" ry="2.5" style="stroke:#181818;stroke-width:0.5;" width="68.2754" x="60.3" y="429.48"/><text fill="#000000" font-family="sans-serif" font-size="14" lengthAdjust="spacing" textLength="62.2754" x="63.3" y="447.4751">Producto</text></g><!--class Ingrediente--><g class="entity" data-entity="Ingrediente" data-source-line="15" data-uid="ent0021" id="entity_Ingrediente"><rect fill="#F1F1F1" height="26.2969" rx="2.5" ry="2.5" style="stroke:#181818;stroke-width:0.5;" width="86.623" x="306.13" y="636.07"/><text fill="#000000" font-family="sans-serif" font-size="14" lengthAdjust="spacing" textLength="80.623" x="309.13" y="654.0651">Ingrediente</text></g><!--class Receta--><g class="entity" data-entity="Receta" data-source-line="16" data-uid="ent0023" id="entity_Receta"><rect fill="#F1F1F1" height="26.2969" rx="2.5" ry="2.5" style="stroke:#181818;stroke-width:0.5;" width="54.7197" x="65.08" y="532.78"/><text fill="#000000" font-family="sans-serif" font-size="14" lengthAdjust="spacing" textLength="48.7197" x="68.08" y="550.7751">Receta</text></g><!--class Proveedor--><g class="entity" data-entity="Proveedor" data-source-line="17" data-uid="ent0025" id="entity_Proveedor"><rect fill="#F1F1F1" height="26.2969" rx="2.5" ry="2.5" style="stroke:#181818;stroke-width:0.5;" width="77.4834" x="422.7" y="532.78"/><text fill="#000000" font-family="sans-serif" font-size="14" lengthAdjust="spacing" textLength="71.4834" x="425.7" y="550.7751">Proveedor</text></g><!--class Utensilio--><g class="entity" data-entity="Utensilio" data-source-line="20" data-uid="ent0029" id="entity_Utensilio"><rect fill="#F1F1F1" height="26.2969" rx="2.5" ry="2.5" style="stroke:#181818;stroke-width:0.5;" width="66.751" x="143.06" y="636.07"/><text fill="#000000" font-family="sans-serif" font-size="14" lengthAdjust="spacing" textLength="60.751" x="146.06" y="654.0651">Utensilio</text></g><!--class Paso--><g class="entity" data-entity="Paso" data-source-line="21" data-uid="ent0031" id="entity_Paso"><rect fill="#F1F1F1" height="26.2969" rx="2.5" ry="2.5" style="stroke:#181818;stroke-width:0.5;" width="38.8809" x="7" y="636.07"/><text fill="#000000" font-family="sans-serif" font-size="14" lengthAdjust="spacing" textLength="32.8809" x="10" y="654.0651">Paso</text></g><!--link Cafeteria to Persona--><g class="link" data-entity-1="Cafeteria" data-entity-2="Persona" data-source-line="4" data-uid="lnk4" id="link_Cafeteria_Persona"><path codeLine="4" d="M308.97,33.44 C302.45,41.54 294.22,52.58 288.44,63.29 C280.11,78.72 273.6,97.97 269.89,110.23" fill="none" id="Cafeteria-Persona" style="stroke:#181818;stroke-width:1;"/><polygon fill="#000000" points="291.1722,76.3125,297.8939,69.5843,292.6555,66.9183,291.1722,76.3125" style="stroke:#000000;stroke-width:1;"/><text fill="#000000" font-family="sans-serif" font-size="13" lengthAdjust="spacing" textLength="32.9443" x="302.44" y="76.3569">tiene</text></g><!--link Cafeteria to Menu--><g class="link" data-entity-1="Cafeteria" data-entity-2="Menu" data-source-line="5" data-uid="lnk6" id="link_Cafeteria_Menu"><path codeLine="5" d="M287.68,33.71 C269.34,41.41 246.09,51.94 226.44,63.29 C169.85,95.98 108.58,143.74 80.74,166.19" fill="none" id="Cafeteria-Menu" style="stroke:#181818;stroke-width:1;"/><polygon fill="#000000" points="227.229,74.5522,236.4313,72.1506,233.2622,67.2003,227.229,74.5522" style="stroke:#000000;stroke-width:1;"/><text fill="#000000" font-family="sans-serif" font-size="13" lengthAdjust="spacing" textLength="32.9443" x="240.44" y="76.3569">tiene</text></g><!--link Cafeteria to Inventario--><g class="link" data-entity-1="Cafeteria" data-entity-2="Inventario" data-source-line="6" data-uid="lnk8" id="link_Cafeteria_Inventario"><path codeLine="6" d="M328.35,33.57 C340.68,52.01 361.44,88.17 361.44,122.44 C361.44,122.44 361.44,122.44 361.44,443.63 C361.44,475.86 355.38,513.46 351.87,532.51" fill="none" id="Cafeteria-Inventario" style="stroke:#181818;stroke-width:1;"/><polygon fill="#000000" points="366.6754,292.7409,369.1852,283.5674,363.3139,283.8442,366.6754,292.7409" style="stroke:#000000;stroke-width:1;"/><text fill="#000000" font-family="sans-serif" font-size="13" lengthAdjust="spacing" textLength="32.9443" x="375.44" y="292.2469">tiene</text></g><!--link Cafeteria to Presupuesto--><g class="link" data-entity-1="Cafeteria" data-entity-2="Presupuesto" data-source-line="7" data-uid="lnk10" id="link_Cafeteria_Presupuesto"><path codeLine="7" d="M354.82,30.7 C395.11,43.98 455.44,72.24 455.44,122.44 C455.44,122.44 455.44,122.44 455.44,340.33 C455.44,372.38 457.97,410.06 459.43,429.16" fill="none" id="Cafeteria-Presupuesto" style="stroke:#181818;stroke-width:1;"/><polygon fill="#000000" points="461.7097,240.9325,462.2554,231.4376,456.5702,232.9302,461.7097,240.9325" style="stroke:#000000;stroke-width:1;"/><text fill="#000000" font-family="sans-serif" font-size="13" lengthAdjust="spacing" textLength="34.874" x="469.44" y="240.5969">sigue</text></g><!--link Persona to Empleado--><g class="link" data-entity-1="Persona" data-entity-2="Empleado" data-source-line="8" data-uid="lnk12" id="link_Persona_Empleado"><path codeLine="8" d="M247.64,137 C236.54,144.86 222.53,155.56 211.44,166.59 C193.65,184.29 176.52,208.02 166.75,222.39" fill="none" id="Persona-Empleado" style="stroke:#181818;stroke-width:1;"/><polygon fill="#000000" points="213.0014,183.4363,221.3555,178.8909,217.0883,174.8486,213.0014,183.4363" style="stroke:#000000;stroke-width:1;"/><text fill="#000000" font-family="sans-serif" font-size="13" lengthAdjust="spacing" textLength="14.771" x="225.44" y="184.3069">es</text></g><!--link Persona to Cliente--><g class="link" data-entity-1="Persona" data-entity-2="Cliente" data-source-line="9" data-uid="lnk14" id="link_Persona_Cliente"><path codeLine="9" d="M265.86,136.86 C264.09,174.67 258.79,288.02 257.02,325.87" fill="none" id="Persona-Cliente" style="stroke:#181818;stroke-width:1;"/><polygon fill="#000000" points="267.2064,241.0909,270.5647,232.193,264.6933,231.9184,267.2064,241.0909" style="stroke:#000000;stroke-width:1;"/><text fill="#000000" font-family="sans-serif" font-size="13" lengthAdjust="spacing" textLength="14.771" x="276.44" y="240.5969">es</text></g><!--link Empleado to Cliente--><g class="link" data-entity-1="Empleado" data-entity-2="Cliente" data-source-line="10" data-uid="lnk15" id="link_Empleado_Cliente"><path codeLine="10" d="M160.99,249.64 C164.14,262.58 170.61,282.68 182.44,296.18 C194.81,310.31 213.12,320.79 228.43,327.77" fill="none" id="Empleado-Cliente" style="stroke:#181818;stroke-width:1;"/><polygon fill="#000000" points="190.7071,291.5314,187.0216,282.7639,182.5721,286.6047,190.7071,291.5314" style="stroke:#000000;stroke-width:1;"/><text fill="#000000" font-family="sans-serif" font-size="13" lengthAdjust="spacing" textLength="43.5195" x="196.44" y="292.2469">sirve a</text></g><!--link Empleado to Producto--><g class="link" data-entity-1="Empleado" data-entity-2="Producto" data-source-line="11" data-uid="lnk17" id="link_Empleado_Producto"><path codeLine="11" d="M154.53,249.52 C143.11,286.05 109.84,392.39 98.38,429.04" fill="none" id="Empleado-Producto" style="stroke:#181818;stroke-width:1;"/><polygon fill="#000000" points="133.9474,344.1684,139.4525,336.4131,133.8426,334.6584,133.9474,344.1684" style="stroke:#000000;stroke-width:1;"/><text fill="#000000" font-family="sans-serif" font-size="13" lengthAdjust="spacing" textLength="51.124" x="144.44" y="343.8969">prepara</text></g><!--link Cliente to Producto--><g class="link" data-entity-1="Cliente" data-entity-2="Producto" data-source-line="12" data-uid="lnk18" id="link_Cliente_Producto"><path codeLine="12" d="M228.41,347.62 C205.8,354.35 173.85,365.83 149.44,382.48 C130.44,395.44 113.21,416.07 103.28,429.22" fill="none" id="Cliente-Producto" style="stroke:#181818;stroke-width:1;"/><polygon fill="#000000" points="150.2518,393.7776,159.4336,391.2986,156.2229,386.3751,150.2518,393.7776" style="stroke:#000000;stroke-width:1;"/><text fill="#000000" font-family="sans-serif" font-size="13" lengthAdjust="spacing" textLength="59.0142" x="163.44" y="395.5469">consume</text></g><!--link Cliente to Presupuesto--><g class="link" data-entity-1="Cliente" data-entity-2="Presupuesto" data-source-line="13" data-uid="lnk19" id="link_Cliente_Presupuesto"><path codeLine="13" d="M276.1,352.97 C296.13,365.57 328.29,385.07 357.44,399.48 C379.96,410.61 406.17,421.31 426.51,429.14" fill="none" id="Cliente-Presupuesto" style="stroke:#181818;stroke-width:1;"/><polygon fill="#000000" points="366.9006,393.3053,360.159,386.597,357.5035,391.8408,366.9006,393.3053" style="stroke:#000000;stroke-width:1;"/><text fill="#000000" font-family="sans-serif" font-size="13" lengthAdjust="spacing" textLength="57.1543" x="371.44" y="395.5469">alimenta</text></g><!--link Menu to Producto--><g class="link" data-entity-1="Menu" data-entity-2="Producto" data-source-line="14" data-uid="lnk20" id="link_Menu_Producto"><path codeLine="14" d="M66.84,193.32 C71.75,237.5 88.17,385.19 93.06,429.17" fill="none" id="Menu-Producto" style="stroke:#181818;stroke-width:1;"/><polygon fill="#000000" points="83.9925,292.7158,85.914,283.4014,80.0721,284.0508,83.9925,292.7158" style="stroke:#000000;stroke-width:1;"/><text fill="#000000" font-family="sans-serif" font-size="13" lengthAdjust="spacing" textLength="32.9443" x="92.44" y="292.2469">tiene</text></g><!--link Producto to Ingrediente--><g class="link" data-entity-1="Producto" data-entity-2="Ingrediente" data-source-line="15" data-uid="lnk22" id="link_Producto_Ingrediente"><path codeLine="15" d="M114.25,456.23 C125.74,464.02 140.13,474.64 151.44,485.78 C199.79,533.38 190.93,565.66 245.44,606.07 C263.36,619.36 286.05,629.19 305.67,636" fill="none" id="Producto-Ingrediente" style="stroke:#181818;stroke-width:1;"/><polygon fill="#000000" points="211.0847,549.4093,206.5033,541.0749,202.4795,545.3595,211.0847,549.4093" style="stroke:#000000;stroke-width:1;"/><text fill="#000000" font-family="sans-serif" font-size="13" lengthAdjust="spacing" textLength="71.5571" x="216.44" y="550.4869">esta hecha</text></g><!--link Producto to Receta--><g class="link" data-entity-1="Producto" data-entity-2="Receta" data-source-line="16" data-uid="lnk24" id="link_Producto_Receta"><path codeLine="16" d="M94.2,456.05 C93.81,475.49 93.07,512.9 92.69,532.4" fill="none" id="Producto-Receta" style="stroke:#181818;stroke-width:1;"/><polygon fill="#000000" points="99.3411,499.3454,102.4583,490.3602,96.5816,490.244,99.3411,499.3454" style="stroke:#000000;stroke-width:1;"/><text fill="#000000" font-family="sans-serif" font-size="13" lengthAdjust="spacing" textLength="34.874" x="108.44" y="498.8469">sigue</text></g><!--link Presupuesto to Proveedor--><g class="link" data-entity-1="Presupuesto" data-entity-2="Proveedor" data-source-line="17" data-uid="lnk26" id="link_Presupuesto_Proveedor"><path codeLine="17" d="M460.56,456.05 C460.75,475.49 461.12,512.9 461.32,532.4" fill="none" id="Presupuesto-Proveedor" style="stroke:#181818;stroke-width:1;"/><polygon fill="#000000" points="465.4898,499.3462,468.3385,490.2723,462.461,490.3308,465.4898,499.3462" style="stroke:#000000;stroke-width:1;"/><text fill="#000000" font-family="sans-serif" font-size="13" lengthAdjust="spacing" textLength="32.4365" x="474.44" y="498.8469">paga</text></g><!--link Proveedor to Ingrediente--><g class="link" data-entity-1="Proveedor" data-entity-2="Ingrediente" data-source-line="18" data-uid="lnk27" id="link_Proveedor_Ingrediente"><path codeLine="18" d="M450.59,559.23 C439.47,571.57 421.46,590.88 404.44,606.07 C392.6,616.65 378.34,627.53 367.31,635.58" fill="none" id="Proveedor-Ingrediente" style="stroke:#181818;stroke-width:1;"/><polygon fill="#000000" points="421.7544,601.0153,430.4077,597.0692,426.4356,592.7365,421.7544,601.0153" style="stroke:#000000;stroke-width:1;"/><text fill="#000000" font-family="sans-serif" font-size="13" lengthAdjust="spacing" textLength="40.1807" x="434.44" y="602.1369">vende</text></g><!--link Inventario to Ingrediente--><g class="link" data-entity-1="Inventario" data-entity-2="Ingrediente" data-source-line="19" data-uid="lnk28" id="link_Inventario_Ingrediente"><path codeLine="19" d="M349.44,559.35 C349.44,578.79 349.44,616.2 349.44,635.7" fill="none" id="Inventario-Ingrediente" style="stroke:#181818;stroke-width:1;"/><polygon fill="#000000" points="354.44,602.6364,357.3789,593.5913,351.5011,593.5913,354.44,602.6364" style="stroke:#000000;stroke-width:1;"/><text fill="#000000" font-family="sans-serif" font-size="13" lengthAdjust="spacing" textLength="32.9443" x="363.44" y="602.1369">tiene</text></g><!--link Inventario to Utensilio--><g class="link" data-entity-1="Inventario" data-entity-2="Utensilio" data-source-line="20" data-uid="lnk30" id="link_Inventario_Utensilio"><path codeLine="20" d="M327.88,559.55 C294.64,579.01 231.24,616.13 198,635.6" fill="none" id="Inventario-Utensilio" style="stroke:#181818;stroke-width:1;"/><polygon fill="#000000" points="274.1253,600.1629,283.4157,598.1286,280.4457,593.0563,274.1253,600.1629" style="stroke:#000000;stroke-width:1;"/><text fill="#000000" font-family="sans-serif" font-size="13" lengthAdjust="spacing" textLength="32.9443" x="287.44" y="602.1369">tiene</text></g><!--link Receta to Paso--><g class="link" data-entity-1="Receta" data-entity-2="Paso" data-source-line="21" data-uid="lnk32" id="link_Receta_Paso"><path codeLine="21" d="M64.89,556.09 C49.75,562.7 32.3,573.28 23.44,589.07 C15.29,603.6 18.66,623.43 22.23,636.03" fill="none" id="Receta-Paso" style="stroke:#181818;stroke-width:1;"/><polygon fill="#000000" points="26.086,602.0476,32.9373,595.4513,27.7516,592.684,26.086,602.0476" style="stroke:#000000;stroke-width:1;"/><text fill="#000000" font-family="sans-serif" font-size="13" lengthAdjust="spacing" textLength="32.9443" x="37.44" y="602.1369">tiene</text></g><!--link Receta to Utensilio--><g class="link" data-entity-1="Receta" data-entity-2="Utensilio" data-source-line="22" data-uid="lnk33" id="link_Receta_Utensilio"><path codeLine="22" d="M93.69,559.39 C95.51,572.21 99.93,592.22 110.44,606.07 C120.05,618.75 134.67,628.64 147.7,635.65" fill="none" id="Receta-Utensilio" style="stroke:#181818;stroke-width:1;"/><polygon fill="#000000" points="118.3298,601.7167,115.5004,592.6368,110.7037,596.034,118.3298,601.7167" style="stroke:#000000;stroke-width:1;"/><text fill="#000000" font-family="sans-serif" font-size="13" lengthAdjust="spacing" textLength="38.9619" x="124.44" y="602.1369">utiliza</text></g><!--SRC=[TP5DRiCW48NtFWKNo0Mww2Rgeej8LgKUO0glDX9_6i1IUlg2OwVWD3iqtnlUcvbPAmZOaAx2mdw1up3NajGi3ORXJDz8O4tYT19ZmTwHU159mq6yzlW2bv-nTxV09MBjdob6HimX8wOgYNhALR9R5i6R3GQaAaNiqTcK7nDsSbTsA6fU8EZ0H_OgozKpC09n5UnDFPVUnMnnv6riCjhMEOjctKR_mJxtlRGkPcAel_YbTuQSwI3xW4IYTZ6Dxyrb0PJdEWTDM_jMUh0fjr3ra-Og3vezRA_vJ71Hc-wCMxQQWkB_e6tBgJn-Ii9V]--></g></svg>