<svg xmlns="http://www.w3.org/2000/svg" xmlns:xlink="http://www.w3.org/1999/xlink" contentStyleType="text/css" data-diagram-type="ACTIVITY" height="650px" preserveAspectRatio="none" style="width:334px;height:650px;background:#FFFFFF;" version="1.1" viewBox="0 0 334 650" width="334px" zoomAndPan="magnify"><defs/><g><ellipse cx="145.9512" cy="20" fill="#222222" rx="10" ry="10" style="stroke:#222222;stroke-width:1;"/><rect fill="#F1F1F1" height="33.9688" rx="12.5" ry="12.5" style="stroke:#181818;stroke-width:0.5;" width="103.9707" x="93.9658" y="50"/><text fill="#000000" font-family="sans-serif" font-size="12" lengthAdjust="spacing" textLength="83.9707" x="103.9658" y="71.1387">Mostrar menu</text><rect fill="#F1F1F1" height="33.9688" rx="12.5" ry="12.5" style="stroke:#181818;stroke-width:0.5;" width="269.9023" x="11" y="103.9688"/><text fill="#000000" font-family="sans-serif" font-size="12" lengthAdjust="spacing" textLength="249.9023" x="21" y="125.1074">Seleccionar categor&#237;a (Alimento / Bebida)</text><rect fill="#F1F1F1" height="33.9688" rx="12.5" ry="12.5" style="stroke:#181818;stroke-width:0.5;" width="233.75" x="29.0762" y="157.9375"/><text fill="#000000" font-family="sans-serif" font-size="12" lengthAdjust="spacing" textLength="213.75" x="39.0762" y="179.0762">Mostrar productos de esa categor&#237;a</text><rect fill="#F1F1F1" height="33.9688" rx="12.5" ry="12.5" style="stroke:#181818;stroke-width:0.5;" width="147.0547" x="72.4238" y="211.9063"/><text fill="#000000" font-family="sans-serif" font-size="12" lengthAdjust="spacing" textLength="127.0547" x="82.4238" y="233.0449">Seleccionar producto</text><rect fill="#F1F1F1" height="33.9688" rx="12.5" ry="12.5" style="stroke:#181818;stroke-width:0.5;" width="249.9688" x="20.9668" y="265.875"/><text fill="#000000" font-family="sans-serif" font-size="12" lengthAdjust="spacing" textLength="229.9688" x="30.9668" y="287.0137">Mostrar descripci&#243;n, precio, al&#233;rgenos</text><rect fill="#F1F1F1" height="33.9688" rx="12.5" ry="12.5" style="stroke:#181818;stroke-width:0.5;" width="269.9023" x="11" y="412.2461"/><text fill="#000000" font-family="sans-serif" font-size="12" lengthAdjust="spacing" textLength="249.9023" x="21" y="433.3848">Seleccionar categor&#237;a (Alimento / Bebida)</text><polygon fill="#F1F1F1" points="63.9426,363.8438,227.9597,363.8438,239.9597,375.8438,227.9597,387.8438,63.9426,387.8438,51.9426,375.8438,63.9426,363.8438" style="stroke:#181818;stroke-width:0.5;"/><text fill="#000000" font-family="sans-serif" font-size="11" lengthAdjust="spacing" textLength="8.7871" x="149.9512" y="398.0542">si</text><text fill="#000000" font-family="sans-serif" font-size="11" lengthAdjust="spacing" textLength="164.0171" x="63.9426" y="379.6519">Desea a&#241;adir m&#225;s productos?</text><polygon fill="#F1F1F1" points="145.9512,466.2148,157.9512,478.2148,145.9512,490.2148,133.9512,478.2148,145.9512,466.2148" style="stroke:#181818;stroke-width:0.5;"/><polygon fill="#F1F1F1" points="145.9512,319.8438,157.9512,331.8438,145.9512,343.8438,133.9512,331.8438,145.9512,319.8438" style="stroke:#181818;stroke-width:0.5;"/><polygon fill="#F1F1F1" points="63.9426,510.2148,227.9597,510.2148,239.9597,522.2148,227.9597,534.2148,63.9426,534.2148,51.9426,522.2148,63.9426,510.2148" style="stroke:#181818;stroke-width:0.5;"/><text fill="#000000" font-family="sans-serif" font-size="11" lengthAdjust="spacing" textLength="13.7017" x="149.9512" y="544.4253">no</text><text fill="#000000" font-family="sans-serif" font-size="11" lengthAdjust="spacing" textLength="164.0171" x="63.9426" y="526.0229">Desea a&#241;adir m&#225;s productos?</text><text fill="#000000" font-family="sans-serif" font-size="11" lengthAdjust="spacing" textLength="8.7871" x="239.9597" y="519.6206">si</text><rect fill="#F1F1F1" height="33.9688" rx="12.5" ry="12.5" style="stroke:#181818;stroke-width:0.5;" width="124.5195" x="83.6914" y="565.9253"/><text fill="#000000" font-family="sans-serif" font-size="12" lengthAdjust="spacing" textLength="104.5195" x="93.6914" y="587.064">Confirmar pedido</text><ellipse cx="145.9512" cy="629.894" fill="none" rx="10" ry="10" style="stroke:#222222;stroke-width:1.5;"/><line style="stroke:#222222;stroke-width:2.5;" x1="139.764" x2="152.1384" y1="623.7069" y2="636.0812"/><line style="stroke:#222222;stroke-width:2.5;" x1="152.1384" x2="139.764" y1="623.7069" y2="636.0812"/><line style="stroke:#181818;stroke-width:1;" x1="145.9512" x2="145.9512" y1="30" y2="50"/><polygon fill="#181818" points="141.9512,40,145.9512,50,149.9512,40,145.9512,44" style="stroke:#181818;stroke-width:1;"/><line style="stroke:#181818;stroke-width:1;" x1="145.9512" x2="145.9512" y1="83.9688" y2="103.9688"/><polygon fill="#181818" points="141.9512,93.9688,145.9512,103.9688,149.9512,93.9688,145.9512,97.9688" style="stroke:#181818;stroke-width:1;"/><line style="stroke:#181818;stroke-width:1;" x1="145.9512" x2="145.9512" y1="137.9375" y2="157.9375"/><polygon fill="#181818" points="141.9512,147.9375,145.9512,157.9375,149.9512,147.9375,145.9512,151.9375" style="stroke:#181818;stroke-width:1;"/><line style="stroke:#181818;stroke-width:1;" x1="145.9512" x2="145.9512" y1="191.9063" y2="211.9063"/><polygon fill="#181818" points="141.9512,201.9063,145.9512,211.9063,149.9512,201.9063,145.9512,205.9063" style="stroke:#181818;stroke-width:1;"/><line style="stroke:#181818;stroke-width:1;" x1="145.9512" x2="145.9512" y1="245.875" y2="265.875"/><polygon fill="#181818" points="141.9512,255.875,145.9512,265.875,149.9512,255.875,145.9512,259.875" style="stroke:#181818;stroke-width:1;"/><line style="stroke:#181818;stroke-width:1;" x1="145.9512" x2="145.9512" y1="387.8438" y2="412.2461"/><polygon fill="#181818" points="141.9512,402.2461,145.9512,412.2461,149.9512,402.2461,145.9512,406.2461" style="stroke:#181818;stroke-width:1;"/><line style="stroke:#181818;stroke-width:1;" x1="239.9597" x2="290.9023" y1="375.8438" y2="375.8438"/><polygon fill="#181818" points="286.9023,419.2305,290.9023,429.2305,294.9023,419.2305,290.9023,423.2305" style="stroke:#181818;stroke-width:1;"/><line style="stroke:#181818;stroke-width:1;" x1="290.9023" x2="290.9023" y1="375.8438" y2="478.2148"/><line style="stroke:#181818;stroke-width:1;" x1="290.9023" x2="157.9512" y1="478.2148" y2="478.2148"/><polygon fill="#181818" points="167.9512,474.2148,157.9512,478.2148,167.9512,482.2148,163.9512,478.2148" style="stroke:#181818;stroke-width:1;"/><line style="stroke:#181818;stroke-width:1;" x1="145.9512" x2="145.9512" y1="446.2148" y2="466.2148"/><polygon fill="#181818" points="141.9512,456.2148,145.9512,466.2148,149.9512,456.2148,145.9512,460.2148" style="stroke:#181818;stroke-width:1;"/><line style="stroke:#181818;stroke-width:1;" x1="145.9512" x2="145.9512" y1="343.8438" y2="363.8438"/><polygon fill="#181818" points="141.9512,353.8438,145.9512,363.8438,149.9512,353.8438,145.9512,357.8438" style="stroke:#181818;stroke-width:1;"/><line style="stroke:#181818;stroke-width:1;" x1="239.9597" x2="308.9023" y1="522.2148" y2="522.2148"/><polygon fill="#181818" points="304.9023,439.2305,308.9023,429.2305,312.9023,439.2305,308.9023,435.2305" style="stroke:#181818;stroke-width:1;"/><line style="stroke:#181818;stroke-width:1;" x1="308.9023" x2="308.9023" y1="331.8438" y2="522.2148"/><line style="stroke:#181818;stroke-width:1;" x1="308.9023" x2="157.9512" y1="331.8438" y2="331.8438"/><polygon fill="#181818" points="167.9512,327.8438,157.9512,331.8438,167.9512,335.8438,163.9512,331.8438" style="stroke:#181818;stroke-width:1;"/><line style="stroke:#181818;stroke-width:1;" x1="145.9512" x2="145.9512" y1="490.2148" y2="510.2148"/><polygon fill="#181818" points="141.9512,500.2148,145.9512,510.2148,149.9512,500.2148,145.9512,504.2148" style="stroke:#181818;stroke-width:1;"/><line style="stroke:#181818;stroke-width:1;" x1="145.9512" x2="145.9512" y1="299.8438" y2="319.8438"/><polygon fill="#181818" points="141.9512,309.8438,145.9512,319.8438,149.9512,309.8438,145.9512,313.8438" style="stroke:#181818;stroke-width:1;"/><line style="stroke:#181818;stroke-width:1;" x1="145.9512" x2="145.9512" y1="534.2148" y2="565.9253"/><polygon fill="#181818" points="141.9512,555.9253,145.9512,565.9253,149.9512,555.9253,145.9512,559.9253" style="stroke:#181818;stroke-width:1;"/><line style="stroke:#181818;stroke-width:1;" x1="145.9512" x2="145.9512" y1="599.894" y2="619.894"/><polygon fill="#181818" points="141.9512,609.894,145.9512,619.894,149.9512,609.894,145.9512,613.894" style="stroke:#181818;stroke-width:1;"/><!--SRC=[bOynJWD134NxESKlTwL8zBi52j1ISG8puqqiRSQhiQESXp952iGHvc9Ceg14D8ZMUly_VtCg7ePNDIzKiEEy7yFmnZF7A9hRAPBpHaiz4RhrB8rmnGEU-5qIzUCjknHD- -XgI0mskal-glmXxyA9BHPPejIll6e0DtG5ckknR3YhZQ7mmkG1a0dT2niJg7vIalPr_R2R_h67RpcZC-aR3lnh3i0voNJLuR2LcV_qYLrioEheilPXUDOyITcTntAIrAQsscy0]--></g></svg>