<svg xmlns="http://www.w3.org/2000/svg" xmlns:xlink="http://www.w3.org/1999/xlink" contentStyleType="text/css" data-diagram-type="CLASS" height="530px" preserveAspectRatio="none" style="width:580px;height:530px;background:#FFFFFF;" version="1.1" viewBox="0 0 580 530" width="580px" zoomAndPan="magnify"><defs/><g><!--class Menu--><g class="entity" data-entity="Menu" data-source-line="1" data-uid="ent0002" id="entity_Menu"><rect fill="#F1F1F1" height="48" rx="2.5" ry="2.5" style="stroke:#181818;stroke-width:0.5;" width="70.4385" x="371.5" y="7"/><ellipse cx="386.5" cy="23" fill="#ADD1B2" rx="11" ry="11" style="stroke:#181818;stroke-width:1;"/><path d="M389.4688,28.6406 Q388.8906,28.9375 388.25,29.0781 Q387.6094,29.2344 386.9063,29.2344 Q384.4063,29.2344 383.0781,27.5938 Q381.7656,25.9375 381.7656,22.8125 Q381.7656,19.6875 383.0781,18.0313 Q384.4063,16.375 386.9063,16.375 Q387.6094,16.375 388.25,16.5313 Q388.9063,16.6875 389.4688,16.9844 L389.4688,19.7031 Q388.8438,19.125 388.25,18.8594 Q387.6563,18.5781 387.0313,18.5781 Q385.6875,18.5781 385,19.6563 Q384.3125,20.7188 384.3125,22.8125 Q384.3125,24.9063 385,25.9844 Q385.6875,27.0469 387.0313,27.0469 Q387.6563,27.0469 388.25,26.7813 Q388.8438,26.5 389.4688,25.9219 L389.4688,28.6406 Z " fill="#000000"/><text fill="#000000" font-family="sans-serif" font-size="14" lengthAdjust="spacing" textLength="38.4385" x="400.5" y="27.8467">Menu</text><line style="stroke:#181818;stroke-width:0.5;" x1="372.5" x2="440.9385" y1="39" y2="39"/><line style="stroke:#181818;stroke-width:0.5;" x1="372.5" x2="440.9385" y1="47" y2="47"/></g><!--class Producto--><g class="entity" data-entity="Producto" data-source-line="3" data-uid="ent0003" id="entity_Producto"><rect fill="#F1F1F1" height="48" rx="2.5" ry="2.5" style="stroke:#181818;stroke-width:0.5;" width="94.2754" x="359.5" y="132"/><ellipse cx="374.5" cy="148" fill="#ADD1B2" rx="11" ry="11" style="stroke:#181818;stroke-width:1;"/><path d="M377.4688,153.6406 Q376.8906,153.9375 376.25,154.0781 Q375.6094,154.2344 374.9063,154.2344 Q372.4063,154.2344 371.0781,152.5938 Q369.7656,150.9375 369.7656,147.8125 Q369.7656,144.6875 371.0781,143.0313 Q372.4063,141.375 374.9063,141.375 Q375.6094,141.375 376.25,141.5313 Q376.9063,141.6875 377.4688,141.9844 L377.4688,144.7031 Q376.8438,144.125 376.25,143.8594 Q375.6563,143.5781 375.0313,143.5781 Q373.6875,143.5781 373,144.6563 Q372.3125,145.7188 372.3125,147.8125 Q372.3125,149.9063 373,150.9844 Q373.6875,152.0469 375.0313,152.0469 Q375.6563,152.0469 376.25,151.7813 Q376.8438,151.5 377.4688,150.9219 L377.4688,153.6406 Z " fill="#000000"/><text fill="#000000" font-family="sans-serif" font-size="14" lengthAdjust="spacing" textLength="62.2754" x="388.5" y="152.8467">Producto</text><line style="stroke:#181818;stroke-width:0.5;" x1="360.5" x2="452.7754" y1="164" y2="164"/><line style="stroke:#181818;stroke-width:0.5;" x1="360.5" x2="452.7754" y1="172" y2="172"/></g><!--class Categorias--><g class="entity" data-entity="Categorias" data-source-line="5" data-uid="ent0004" id="entity_Categorias"><rect fill="#F1F1F1" height="48" rx="2.5" ry="2.5" style="stroke:#181818;stroke-width:0.5;" width="107.4277" x="207" y="257"/><ellipse cx="222" cy="273" fill="#ADD1B2" rx="11" ry="11" style="stroke:#181818;stroke-width:1;"/><path d="M224.9688,278.6406 Q224.3906,278.9375 223.75,279.0781 Q223.1094,279.2344 222.4063,279.2344 Q219.9063,279.2344 218.5781,277.5938 Q217.2656,275.9375 217.2656,272.8125 Q217.2656,269.6875 218.5781,268.0313 Q219.9063,266.375 222.4063,266.375 Q223.1094,266.375 223.75,266.5313 Q224.4063,266.6875 224.9688,266.9844 L224.9688,269.7031 Q224.3438,269.125 223.75,268.8594 Q223.1563,268.5781 222.5313,268.5781 Q221.1875,268.5781 220.5,269.6563 Q219.8125,270.7188 219.8125,272.8125 Q219.8125,274.9063 220.5,275.9844 Q221.1875,277.0469 222.5313,277.0469 Q223.1563,277.0469 223.75,276.7813 Q224.3438,276.5 224.9688,275.9219 L224.9688,278.6406 Z " fill="#000000"/><text fill="#000000" font-family="sans-serif" font-size="14" lengthAdjust="spacing" textLength="75.4277" x="236" y="277.8467">Categorias</text><line style="stroke:#181818;stroke-width:0.5;" x1="208" x2="313.4277" y1="289" y2="289"/><line style="stroke:#181818;stroke-width:0.5;" x1="208" x2="313.4277" y1="297" y2="297"/></g><!--class Descripcion--><g class="entity" data-entity="Descripcion" data-source-line="9" data-uid="ent0006" id="entity_Descripcion"><rect fill="#F1F1F1" height="48" rx="2.5" ry="2.5" style="stroke:#181818;stroke-width:0.5;" width="113.9424" x="349.5" y="257"/><ellipse cx="364.5" cy="273" fill="#ADD1B2" rx="11" ry="11" style="stroke:#181818;stroke-width:1;"/><path d="M367.4688,278.6406 Q366.8906,278.9375 366.25,279.0781 Q365.6094,279.2344 364.9063,279.2344 Q362.4063,279.2344 361.0781,277.5938 Q359.7656,275.9375 359.7656,272.8125 Q359.7656,269.6875 361.0781,268.0313 Q362.4063,266.375 364.9063,266.375 Q365.6094,266.375 366.25,266.5313 Q366.9063,266.6875 367.4688,266.9844 L367.4688,269.7031 Q366.8438,269.125 366.25,268.8594 Q365.6563,268.5781 365.0313,268.5781 Q363.6875,268.5781 363,269.6563 Q362.3125,270.7188 362.3125,272.8125 Q362.3125,274.9063 363,275.9844 Q363.6875,277.0469 365.0313,277.0469 Q365.6563,277.0469 366.25,276.7813 Q366.8438,276.5 367.4688,275.9219 L367.4688,278.6406 Z " fill="#000000"/><text fill="#000000" font-family="sans-serif" font-size="14" lengthAdjust="spacing" textLength="81.9424" x="378.5" y="277.8467">Descripcion</text><line style="stroke:#181818;stroke-width:0.5;" x1="350.5" x2="462.4424" y1="289" y2="289"/><line style="stroke:#181818;stroke-width:0.5;" x1="350.5" x2="462.4424" y1="297" y2="297"/></g><!--class Precio--><g class="entity" data-entity="Precio" data-source-line="11" data-uid="ent0008" id="entity_Precio"><rect fill="#F1F1F1" height="48" rx="2.5" ry="2.5" style="stroke:#181818;stroke-width:0.5;" width="74.9639" x="499" y="257"/><ellipse cx="514" cy="273" fill="#ADD1B2" rx="11" ry="11" style="stroke:#181818;stroke-width:1;"/><path d="M516.9688,278.6406 Q516.3906,278.9375 515.75,279.0781 Q515.1094,279.2344 514.4063,279.2344 Q511.9063,279.2344 510.5781,277.5938 Q509.2656,275.9375 509.2656,272.8125 Q509.2656,269.6875 510.5781,268.0313 Q511.9063,266.375 514.4063,266.375 Q515.1094,266.375 515.75,266.5313 Q516.4063,266.6875 516.9688,266.9844 L516.9688,269.7031 Q516.3438,269.125 515.75,268.8594 Q515.1563,268.5781 514.5313,268.5781 Q513.1875,268.5781 512.5,269.6563 Q511.8125,270.7188 511.8125,272.8125 Q511.8125,274.9063 512.5,275.9844 Q513.1875,277.0469 514.5313,277.0469 Q515.1563,277.0469 515.75,276.7813 Q516.3438,276.5 516.9688,275.9219 L516.9688,278.6406 Z " fill="#000000"/><text fill="#000000" font-family="sans-serif" font-size="14" lengthAdjust="spacing" textLength="42.9639" x="528" y="277.8467">Precio</text><line style="stroke:#181818;stroke-width:0.5;" x1="500" x2="572.9639" y1="289" y2="289"/><line style="stroke:#181818;stroke-width:0.5;" x1="500" x2="572.9639" y1="297" y2="297"/></g><!--class Alimento--><g class="entity" data-entity="Alimento" data-source-line="15" data-uid="ent0011" id="entity_Alimento"><rect fill="#F1F1F1" height="48" rx="2.5" ry="2.5" style="stroke:#181818;stroke-width:0.5;" width="94.5352" x="213" y="366"/><ellipse cx="228" cy="382" fill="#ADD1B2" rx="11" ry="11" style="stroke:#181818;stroke-width:1;"/><path d="M230.9688,387.6406 Q230.3906,387.9375 229.75,388.0781 Q229.1094,388.2344 228.4063,388.2344 Q225.9063,388.2344 224.5781,386.5938 Q223.2656,384.9375 223.2656,381.8125 Q223.2656,378.6875 224.5781,377.0313 Q225.9063,375.375 228.4063,375.375 Q229.1094,375.375 229.75,375.5313 Q230.4063,375.6875 230.9688,375.9844 L230.9688,378.7031 Q230.3438,378.125 229.75,377.8594 Q229.1563,377.5781 228.5313,377.5781 Q227.1875,377.5781 226.5,378.6563 Q225.8125,379.7188 225.8125,381.8125 Q225.8125,383.9063 226.5,384.9844 Q227.1875,386.0469 228.5313,386.0469 Q229.1563,386.0469 229.75,385.7813 Q230.3438,385.5 230.9688,384.9219 L230.9688,387.6406 Z " fill="#000000"/><text fill="#000000" font-family="sans-serif" font-size="14" lengthAdjust="spacing" textLength="62.5352" x="242" y="386.8467">Alimento</text><line style="stroke:#181818;stroke-width:0.5;" x1="214" x2="306.5352" y1="398" y2="398"/><line style="stroke:#181818;stroke-width:0.5;" x1="214" x2="306.5352" y1="406" y2="406"/></g><!--class Entrada--><g class="entity" data-entity="Entrada" data-source-line="17" data-uid="ent0013" id="entity_Entrada"><rect fill="#F1F1F1" height="48" rx="2.5" ry="2.5" style="stroke:#181818;stroke-width:0.5;" width="87.0088" x="7" y="475"/><ellipse cx="22" cy="491" fill="#ADD1B2" rx="11" ry="11" style="stroke:#181818;stroke-width:1;"/><path d="M24.9688,496.6406 Q24.3906,496.9375 23.75,497.0781 Q23.1094,497.2344 22.4063,497.2344 Q19.9063,497.2344 18.5781,495.5938 Q17.2656,493.9375 17.2656,490.8125 Q17.2656,487.6875 18.5781,486.0313 Q19.9063,484.375 22.4063,484.375 Q23.1094,484.375 23.75,484.5313 Q24.4063,484.6875 24.9688,484.9844 L24.9688,487.7031 Q24.3438,487.125 23.75,486.8594 Q23.1563,486.5781 22.5313,486.5781 Q21.1875,486.5781 20.5,487.6563 Q19.8125,488.7188 19.8125,490.8125 Q19.8125,492.9063 20.5,493.9844 Q21.1875,495.0469 22.5313,495.0469 Q23.1563,495.0469 23.75,494.7813 Q24.3438,494.5 24.9688,493.9219 L24.9688,496.6406 Z " fill="#000000"/><text fill="#000000" font-family="sans-serif" font-size="14" lengthAdjust="spacing" textLength="55.0088" x="36" y="495.8467">Entrada</text><line style="stroke:#181818;stroke-width:0.5;" x1="8" x2="93.0088" y1="507" y2="507"/><line style="stroke:#181818;stroke-width:0.5;" x1="8" x2="93.0088" y1="515" y2="515"/></g><!--class PlatoPrincipal--><g class="entity" data-entity="PlatoPrincipal" data-source-line="18" data-uid="ent0015" id="entity_PlatoPrincipal"><rect fill="#F1F1F1" height="48" rx="2.5" ry="2.5" style="stroke:#181818;stroke-width:0.5;" width="126.8691" x="129" y="475"/><ellipse cx="144" cy="491" fill="#ADD1B2" rx="11" ry="11" style="stroke:#181818;stroke-width:1;"/><path d="M146.9688,496.6406 Q146.3906,496.9375 145.75,497.0781 Q145.1094,497.2344 144.4063,497.2344 Q141.9063,497.2344 140.5781,495.5938 Q139.2656,493.9375 139.2656,490.8125 Q139.2656,487.6875 140.5781,486.0313 Q141.9063,484.375 144.4063,484.375 Q145.1094,484.375 145.75,484.5313 Q146.4063,484.6875 146.9688,484.9844 L146.9688,487.7031 Q146.3438,487.125 145.75,486.8594 Q145.1563,486.5781 144.5313,486.5781 Q143.1875,486.5781 142.5,487.6563 Q141.8125,488.7188 141.8125,490.8125 Q141.8125,492.9063 142.5,493.9844 Q143.1875,495.0469 144.5313,495.0469 Q145.1563,495.0469 145.75,494.7813 Q146.3438,494.5 146.9688,493.9219 L146.9688,496.6406 Z " fill="#000000"/><text fill="#000000" font-family="sans-serif" font-size="14" lengthAdjust="spacing" textLength="94.8691" x="158" y="495.8467">PlatoPrincipal</text><line style="stroke:#181818;stroke-width:0.5;" x1="130" x2="254.8691" y1="507" y2="507"/><line style="stroke:#181818;stroke-width:0.5;" x1="130" x2="254.8691" y1="515" y2="515"/></g><!--class Postre--><g class="entity" data-entity="Postre" data-source-line="19" data-uid="ent0017" id="entity_Postre"><rect fill="#F1F1F1" height="48" rx="2.5" ry="2.5" style="stroke:#181818;stroke-width:0.5;" width="76.1602" x="291.5" y="475"/><ellipse cx="306.5" cy="491" fill="#ADD1B2" rx="11" ry="11" style="stroke:#181818;stroke-width:1;"/><path d="M309.4688,496.6406 Q308.8906,496.9375 308.25,497.0781 Q307.6094,497.2344 306.9063,497.2344 Q304.4063,497.2344 303.0781,495.5938 Q301.7656,493.9375 301.7656,490.8125 Q301.7656,487.6875 303.0781,486.0313 Q304.4063,484.375 306.9063,484.375 Q307.6094,484.375 308.25,484.5313 Q308.9063,484.6875 309.4688,484.9844 L309.4688,487.7031 Q308.8438,487.125 308.25,486.8594 Q307.6563,486.5781 307.0313,486.5781 Q305.6875,486.5781 305,487.6563 Q304.3125,488.7188 304.3125,490.8125 Q304.3125,492.9063 305,493.9844 Q305.6875,495.0469 307.0313,495.0469 Q307.6563,495.0469 308.25,494.7813 Q308.8438,494.5 309.4688,493.9219 L309.4688,496.6406 Z " fill="#000000"/><text fill="#000000" font-family="sans-serif" font-size="14" lengthAdjust="spacing" textLength="44.1602" x="320.5" y="495.8467">Postre</text><line style="stroke:#181818;stroke-width:0.5;" x1="292.5" x2="366.6602" y1="507" y2="507"/><line style="stroke:#181818;stroke-width:0.5;" x1="292.5" x2="366.6602" y1="515" y2="515"/></g><!--class Alergenos--><g class="entity" data-entity="Alergenos" data-source-line="21" data-uid="ent0019" id="entity_Alergenos"><rect fill="#F1F1F1" height="48" rx="2.5" ry="2.5" style="stroke:#181818;stroke-width:0.5;" width="102.0684" x="402.5" y="475"/><ellipse cx="417.5" cy="491" fill="#ADD1B2" rx="11" ry="11" style="stroke:#181818;stroke-width:1;"/><path d="M420.4688,496.6406 Q419.8906,496.9375 419.25,497.0781 Q418.6094,497.2344 417.9063,497.2344 Q415.4063,497.2344 414.0781,495.5938 Q412.7656,493.9375 412.7656,490.8125 Q412.7656,487.6875 414.0781,486.0313 Q415.4063,484.375 417.9063,484.375 Q418.6094,484.375 419.25,484.5313 Q419.9063,484.6875 420.4688,484.9844 L420.4688,487.7031 Q419.8438,487.125 419.25,486.8594 Q418.6563,486.5781 418.0313,486.5781 Q416.6875,486.5781 416,487.6563 Q415.3125,488.7188 415.3125,490.8125 Q415.3125,492.9063 416,493.9844 Q416.6875,495.0469 418.0313,495.0469 Q418.6563,495.0469 419.25,494.7813 Q419.8438,494.5 420.4688,493.9219 L420.4688,496.6406 Z " fill="#000000"/><text fill="#000000" font-family="sans-serif" font-size="14" lengthAdjust="spacing" textLength="70.0684" x="431.5" y="495.8467">Alergenos</text><line style="stroke:#181818;stroke-width:0.5;" x1="403.5" x2="503.5684" y1="507" y2="507"/><line style="stroke:#181818;stroke-width:0.5;" x1="403.5" x2="503.5684" y1="515" y2="515"/></g><!--reverse link Menu to Producto--><g class="link" data-entity-1="Menu" data-entity-2="Producto" data-source-line="7" data-uid="lnk5" id="link_Menu_Producto"><path codeLine="7" d="M406.5,67.14 C406.5,89.13 406.5,110.01 406.5,131.97" fill="none" id="Menu-backto-Producto" style="stroke:#181818;stroke-width:1;"/><polygon fill="#181818" points="406.5,55.14,402.5,61.14,406.5,67.14,410.5,61.14,406.5,55.14" style="stroke:#181818;stroke-width:1;"/><text fill="#000000" font-family="sans-serif" font-size="13" lengthAdjust="spacing" textLength="32.9443" x="407.5" y="98.0669">tiene</text></g><!--reverse link Producto to Descripcion--><g class="link" data-entity-1="Producto" data-entity-2="Descripcion" data-source-line="9" data-uid="lnk7" id="link_Producto_Descripcion"><path codeLine="9" d="M406.5,192.14 C406.5,214.13 406.5,235.01 406.5,256.97" fill="none" id="Producto-backto-Descripcion" style="stroke:#181818;stroke-width:1;"/><polygon fill="none" points="406.5,180.14,402.5,186.14,406.5,192.14,410.5,186.14,406.5,180.14" style="stroke:#181818;stroke-width:1;"/><text fill="#000000" font-family="sans-serif" font-size="13" lengthAdjust="spacing" textLength="41.1836" x="407.5" y="223.0669">tienen</text></g><!--reverse link Producto to Precio--><g class="link" data-entity-1="Producto" data-entity-2="Precio" data-source-line="11" data-uid="lnk9" id="link_Producto_Precio"><path codeLine="11" d="M439.6665,188.3876 C462.9065,210.3776 488.95,235.01 512.16,256.97" fill="none" id="Producto-backto-Precio" style="stroke:#181818;stroke-width:1;"/><polygon fill="none" points="430.95,180.14,432.559,187.1693,439.6665,188.3876,438.0574,181.3583,430.95,180.14" style="stroke:#181818;stroke-width:1;"/><text fill="#000000" font-family="sans-serif" font-size="13" lengthAdjust="spacing" textLength="41.1836" x="479.5" y="223.0669">tienen</text></g><!--reverse link Producto to Categorias--><g class="link" data-entity-1="Producto" data-entity-2="Categorias" data-source-line="13" data-uid="lnk10" id="link_Producto_Categorias"><path codeLine="13" d="M367.6608,187.7054 C356.1708,196.8754 352.32,200.09 340.5,210 C322.26,225.3 302.09,242.95 286.56,256.7" fill="none" id="Producto-backto-Categorias" style="stroke:#181818;stroke-width:1;"/><polygon fill="none" points="377.04,180.22,369.8553,180.8363,367.6608,187.7054,374.8455,187.0891,377.04,180.22" style="stroke:#181818;stroke-width:1;"/><text fill="#000000" font-family="sans-serif" font-size="13" lengthAdjust="spacing" textLength="56.4434" x="341.5" y="223.0669">estan en</text></g><!--link Categorias to Alimento--><g class="link" data-entity-1="Categorias" data-entity-2="Alimento" data-source-line="15" data-uid="lnk12" id="link_Categorias_Alimento"><path codeLine="15" d="M260.5,305.22 C260.5,323.16 260.5,341.89 260.5,359.83" fill="none" id="Categorias-to-Alimento" style="stroke:#181818;stroke-width:1;"/><polygon fill="#181818" points="260.5,365.83,264.5,356.83,260.5,360.83,256.5,356.83,260.5,365.83" style="stroke:#181818;stroke-width:1;"/></g><!--link Alimento to Entrada--><g class="link" data-entity-1="Alimento" data-entity-2="Entrada" data-source-line="17" data-uid="lnk14" id="link_Alimento_Entrada"><path codeLine="17" d="M215.19,414.09 C179.38,432.33 135.0462,454.9263 99.6362,472.9663" fill="none" id="Alimento-to-Entrada" style="stroke:#181818;stroke-width:1;"/><polygon fill="#181818" points="94.29,475.69,104.125,475.1686,98.7451,473.4203,100.4935,468.0404,94.29,475.69" style="stroke:#181818;stroke-width:1;"/></g><!--link Alimento to PlatoPrincipal--><g class="link" data-entity-1="Alimento" data-entity-2="PlatoPrincipal" data-source-line="18" data-uid="lnk16" id="link_Alimento_PlatoPrincipal"><path codeLine="18" d="M245.75,414.22 C234.34,432.16 221.836,451.8247 210.446,469.7647" fill="none" id="Alimento-to-PlatoPrincipal" style="stroke:#181818;stroke-width:1;"/><polygon fill="#181818" points="207.23,474.83,215.4308,469.376,209.91,470.6089,208.677,465.088,207.23,474.83" style="stroke:#181818;stroke-width:1;"/></g><!--link Alimento to Postre--><g class="link" data-entity-1="Alimento" data-entity-2="Postre" data-source-line="19" data-uid="lnk18" id="link_Alimento_Postre"><path codeLine="19" d="M275.47,414.22 C287.05,432.16 299.7381,451.8477 311.3081,469.7877" fill="none" id="Alimento-to-Postre" style="stroke:#181818;stroke-width:1;"/><polygon fill="#181818" points="314.56,474.83,313.0437,465.0986,311.8501,470.6281,306.3206,469.4345,314.56,474.83" style="stroke:#181818;stroke-width:1;"/></g><!--reverse link Alimento to Alergenos--><g class="link" data-entity-1="Alimento" data-entity-2="Alergenos" data-source-line="21" data-uid="lnk20" id="link_Alimento_Alergenos"><path codeLine="21" d="M312.8758,420.037 C345.2458,437.977 379.35,456.89 411.7,474.83" fill="none" id="Alimento-backto-Alergenos" style="stroke:#181818;stroke-width:1;"/><polygon fill="#181818" points="302.38,414.22,305.6889,420.6271,312.8758,420.037,309.5669,413.6299,302.38,414.22" style="stroke:#181818;stroke-width:1;"/></g><!--SRC=[TOz92iCm34NtFeNN1L-WYq98kopu2i8HGU1AGLBktpYGeO7kfFyU6leAPl6DF8VGhtLM6URYilKzE8wY11P2y-8jfLsAz-Y4Z27iYIpuYLQKfaB2cy4N9Iik-1yzbYu6cWF7vfpYb1wng_H1RgTkrHg_s1K6-0rp1PUin8Kcg1ScvegdAUt5hgAEo69V]--></g></svg>