<svg xmlns="http://www.w3.org/2000/svg" xmlns:xlink="http://www.w3.org/1999/xlink" contentStyleType="text/css" data-diagram-type="STATE" height="734px" preserveAspectRatio="none" style="width:482px;height:734px;background:#FFFFFF;" version="1.1" viewBox="0 0 482 734" width="482px" zoomAndPan="magnify"><defs/><g><ellipse cx="245" cy="16" fill="#222222" rx="10" ry="10" style="stroke:#222222;stroke-width:1;"/><g id="Seleccionar"><rect fill="#F1F1F1" height="50" rx="12.5" ry="12.5" style="stroke:#181818;stroke-width:0.5;" width="101.0605" x="194.5" y="87"/><line style="stroke:#181818;stroke-width:0.5;" x1="194.5" x2="295.5605" y1="113.2969" y2="113.2969"/><text fill="#000000" font-family="sans-serif" font-size="14" lengthAdjust="spacing" textLength="81.0605" x="204.5" y="104.9951">Seleccionar</text></g><g id="Verificar"><rect fill="#F1F1F1" height="50" rx="12.5" ry="12.5" style="stroke:#181818;stroke-width:0.5;" width="78.6865" x="115.5" y="214"/><line style="stroke:#181818;stroke-width:0.5;" x1="115.5" x2="194.1865" y1="240.2969" y2="240.2969"/><text fill="#000000" font-family="sans-serif" font-size="14" lengthAdjust="spacing" textLength="58.6865" x="125.5" y="231.9951">Verificar</text></g><g id="Disponible"><rect fill="#F1F1F1" height="50" rx="12.5" ry="12.5" style="stroke:#181818;stroke-width:0.5;" width="93.5684" x="7" y="341"/><line style="stroke:#181818;stroke-width:0.5;" x1="7" x2="100.5684" y1="367.2969" y2="367.2969"/><text fill="#000000" font-family="sans-serif" font-size="14" lengthAdjust="spacing" textLength="73.5684" x="17" y="358.9951">Disponible</text></g><g id="Agotado"><rect fill="#F1F1F1" height="50" rx="12.5" ry="12.5" style="stroke:#181818;stroke-width:0.5;" width="78.5498" x="229.5" y="341"/><line style="stroke:#181818;stroke-width:0.5;" x1="229.5" x2="308.0498" y1="367.2969" y2="367.2969"/><text fill="#000000" font-family="sans-serif" font-size="14" lengthAdjust="spacing" textLength="58.5498" x="239.5" y="358.9951">Agotado</text></g><g id="Pedir"><rect fill="#F1F1F1" height="50" rx="12.5" ry="12.5" style="stroke:#181818;stroke-width:0.5;" width="55.5879" x="26" y="468"/><line style="stroke:#181818;stroke-width:0.5;" x1="26" x2="81.5879" y1="494.2969" y2="494.2969"/><text fill="#000000" font-family="sans-serif" font-size="14" lengthAdjust="spacing" textLength="35.5879" x="36" y="485.9951">Pedir</text></g><g id="Ordenado"><rect fill="#F1F1F1" height="50" rx="12.5" ry="12.5" style="stroke:#181818;stroke-width:0.5;" width="89.1797" x="9.5" y="595"/><line style="stroke:#181818;stroke-width:0.5;" x1="9.5" x2="98.6797" y1="621.2969" y2="621.2969"/><text fill="#000000" font-family="sans-serif" font-size="14" lengthAdjust="spacing" textLength="69.1797" x="19.5" y="612.9951">Ordenado</text></g><ellipse cx="54" cy="717" fill="none" rx="11" ry="11" style="stroke:#222222;stroke-width:1;"/><ellipse cx="54" cy="717" fill="#222222" rx="6" ry="6" style="stroke:#222222;stroke-width:1;"/><!--link *start* to Seleccionar--><g class="link" data-entity-1="*start*" data-entity-2="Seleccionar" data-source-line="1" data-uid="lnk4" id="link_*start*_Seleccionar"><path d="M245,26.01 C245,39.89 245,60.97 245,80.84" fill="none" id="*start*-to-Seleccionar" style="stroke:#181818;stroke-width:1;"/><polygon fill="#181818" points="245,86.84,249,77.84,245,81.84,241,77.84,245,86.84" style="stroke:#181818;stroke-width:1;"/></g><!--link Seleccionar to Verificar--><g class="link" data-entity-1="Seleccionar" data-entity-2="Verificar" data-source-line="2" data-uid="lnk6" id="link_Seleccionar_Verificar"><path d="M194.35,130.44 C177.87,138.81 161.41,150.66 152,167 C143.94,181.01 143.7411,193.385 146.6211,207.885" fill="none" id="Seleccionar-to-Verificar" style="stroke:#181818;stroke-width:1;"/><polygon fill="#181818" points="147.79,213.77,149.96,204.1632,146.8159,208.8658,142.1133,205.7217,147.79,213.77" style="stroke:#181818;stroke-width:1;"/><text fill="#000000" font-family="sans-serif" font-size="13" lengthAdjust="spacing" textLength="155.4478" x="153" y="180.0669">verificarDisponibilidad()</text></g><!--link Verificar to Disponible--><g class="link" data-entity-1="Verificar" data-entity-2="Disponible" data-source-line="3" data-uid="lnk8" id="link_Verificar_Disponible"><path d="M115.25,249.58 C92.16,257.41 64.94,271.05 51,294 C42.54,307.92 42.3985,320.4836 45.4085,335.0836" fill="none" id="Verificar-to-Disponible" style="stroke:#181818;stroke-width:1;"/><polygon fill="#181818" points="46.62,340.96,48.7203,331.3377,45.6104,336.063,40.8851,332.953,46.62,340.96" style="stroke:#181818;stroke-width:1;"/><text fill="#000000" font-family="sans-serif" font-size="13" lengthAdjust="spacing" textLength="107.3452" x="52" y="307.0669">verificarPedido()</text></g><!--link Verificar to Agotado--><g class="link" data-entity-1="Verificar" data-entity-2="Agotado" data-source-line="4" data-uid="lnk10" id="link_Verificar_Agotado"><path d="M167.53,264.12 C175.69,278.57 187.17,296.83 200,311 C209.8,321.82 217.1863,328.4851 228.5463,337.1351" fill="none" id="Verificar-to-Agotado" style="stroke:#181818;stroke-width:1;"/><polygon fill="#181818" points="233.32,340.77,228.5828,332.1353,229.342,337.7409,223.7363,338.5001,233.32,340.77" style="stroke:#181818;stroke-width:1;"/><text fill="#000000" font-family="sans-serif" font-size="13" lengthAdjust="spacing" textLength="107.3452" x="201" y="307.0669">verificarPedido()</text></g><!--link Agotado to Seleccionar--><g class="link" data-entity-1="Agotado" data-entity-2="Seleccionar" data-source-line="5" data-uid="lnk11" id="link_Agotado_Seleccionar"><path d="M294.52,340.9 C301.95,332.27 309.11,321.94 313,311 C334.46,250.7 340.83,224.63 313,167 C307.3,155.19 302.3408,148.8733 292.0408,140.7933" fill="none" id="Agotado-to-Seleccionar" style="stroke:#181818;stroke-width:1;"/><polygon fill="#181818" points="287.32,137.09,291.9323,145.7921,291.254,140.1761,296.87,139.4977,287.32,137.09" style="stroke:#181818;stroke-width:1;"/><text fill="#000000" font-family="sans-serif" font-size="13" lengthAdjust="spacing" textLength="141.7622" x="333" y="243.5669">seleccionarProducto()</text></g><!--link Disponible to Pedir--><g class="link" data-entity-1="Disponible" data-entity-2="Pedir" data-source-line="6" data-uid="lnk13" id="link_Disponible_Pedir"><path d="M54,391.1 C54,413.24 54,439.86 54,461.97" fill="none" id="Disponible-to-Pedir" style="stroke:#181818;stroke-width:1;"/><polygon fill="#181818" points="54,467.97,58,458.97,54,462.97,50,458.97,54,467.97" style="stroke:#181818;stroke-width:1;"/><text fill="#000000" font-family="sans-serif" font-size="13" lengthAdjust="spacing" textLength="119.0693" x="55" y="434.0669">ordenarProducto()</text></g><!--link Pedir to Ordenado--><g class="link" data-entity-1="Pedir" data-entity-2="Ordenado" data-source-line="7" data-uid="lnk15" id="link_Pedir_Ordenado"><path d="M54,518.1 C54,540.24 54,566.86 54,588.97" fill="none" id="Pedir-to-Ordenado" style="stroke:#181818;stroke-width:1;"/><polygon fill="#181818" points="54,594.97,58,585.97,54,589.97,50,585.97,54,594.97" style="stroke:#181818;stroke-width:1;"/><text fill="#000000" font-family="sans-serif" font-size="13" lengthAdjust="spacing" textLength="116.8984" x="55" y="561.0669">confirmarPedido()</text></g><!--link Ordenado to *end*--><g class="link" data-entity-1="Ordenado" data-entity-2="*end*" data-source-line="8" data-uid="lnk17" id="link_Ordenado_*end*"><path d="M54,645.46 C54,665.04 54,685.49 54,699.8" fill="none" id="Ordenado-to-*end*" style="stroke:#181818;stroke-width:1;"/><polygon fill="#181818" points="54,705.8,58,696.8,54,700.8,50,696.8,54,705.8" style="stroke:#181818;stroke-width:1;"/></g><!--SRC=[ROxB2i9034Nt_OfPQg4_u48Gt5iGt9GknYILm3YHjFNxRKQ6ZezTmZatDrtTkwRPkpC50c29NgjYJkn2oWF3iktSCyz77XyI-Sg1qUDcMwsMPJ8EL8PQGaRvaGytcJpANpEphoSNTrotLWLdcCmlYYrYTqmMHVeKtyISKsAf7oGEhFUYFqCJkxf_0G00]--></g></svg>