<svg xmlns="http://www.w3.org/2000/svg" xmlns:xlink="http://www.w3.org/1999/xlink" contentStyleType="text/css" data-diagram-type="CLASS" height="435px" preserveAspectRatio="none" style="width:513px;height:435px;background:#FFFFFF;" version="1.1" viewBox="0 0 513 435" width="513px" zoomAndPan="magnify"><defs/><g><!--class Menu--><g class="entity" data-entity="Menu" data-source-line="4" data-uid="ent0002" id="entity_Menu"><rect fill="#F1F1F1" height="26.2969" rx="2.5" ry="2.5" style="stroke:#181818;stroke-width:0.5;" width="44.4385" x="356.5" y="7"/><text fill="#000000" font-family="sans-serif" font-size="14" lengthAdjust="spacing" textLength="38.4385" x="359.5" y="24.9951">Menu</text></g><!--class Producto--><g class="entity" data-entity="Producto" data-source-line="6" data-uid="ent0003" id="entity_Producto"><rect fill="#F1F1F1" height="26.2969" rx="2.5" ry="2.5" style="stroke:#181818;stroke-width:0.5;" width="68.2754" x="344.5" y="110"/><text fill="#000000" font-family="sans-serif" font-size="14" lengthAdjust="spacing" textLength="62.2754" x="347.5" y="127.9951">Producto</text></g><!--class Categorias--><g class="entity" data-entity="Categorias" data-source-line="8" data-uid="ent0004" id="entity_Categorias"><rect fill="#F1F1F1" height="26.2969" rx="2.5" ry="2.5" style="stroke:#181818;stroke-width:0.5;" width="81.4277" x="216" y="213"/><text fill="#000000" font-family="sans-serif" font-size="14" lengthAdjust="spacing" textLength="75.4277" x="219" y="230.9951">Categorias</text></g><!--class Descripcion--><g class="entity" data-entity="Descripcion" data-source-line="10" data-uid="ent0005" id="entity_Descripcion"><rect fill="#F1F1F1" height="26.2969" rx="2.5" ry="2.5" style="stroke:#181818;stroke-width:0.5;" width="87.9424" x="334.5" y="213"/><text fill="#000000" font-family="sans-serif" font-size="14" lengthAdjust="spacing" textLength="81.9424" x="337.5" y="230.9951">Descripcion</text></g><!--class Precio--><g class="entity" data-entity="Precio" data-source-line="12" data-uid="ent0006" id="entity_Precio"><rect fill="#F1F1F1" height="26.2969" rx="2.5" ry="2.5" style="stroke:#181818;stroke-width:0.5;" width="48.9639" x="458" y="213"/><text fill="#000000" font-family="sans-serif" font-size="14" lengthAdjust="spacing" textLength="42.9639" x="461" y="230.9951">Precio</text></g><!--class Entrada--><g class="entity" data-entity="Entrada" data-source-line="14" data-uid="ent0007" id="entity_Entrada"><rect fill="#F1F1F1" height="26.2969" rx="2.5" ry="2.5" style="stroke:#181818;stroke-width:0.5;" width="61.0088" x="7" y="403"/><text fill="#000000" font-family="sans-serif" font-size="14" lengthAdjust="spacing" textLength="55.0088" x="10" y="420.9951">Entrada</text></g><!--class PlatoPrincipal--><g class="entity" data-entity="PlatoPrincipal" data-source-line="16" data-uid="ent0008" id="entity_PlatoPrincipal"><rect fill="#F1F1F1" height="26.2969" rx="2.5" ry="2.5" style="stroke:#181818;stroke-width:0.5;" width="100.8691" x="103" y="403"/><text fill="#000000" font-family="sans-serif" font-size="14" lengthAdjust="spacing" textLength="94.8691" x="106" y="420.9951">PlatoPrincipal</text></g><!--class Postre--><g class="entity" data-entity="Postre" data-source-line="18" data-uid="ent0009" id="entity_Postre"><rect fill="#F1F1F1" height="26.2969" rx="2.5" ry="2.5" style="stroke:#181818;stroke-width:0.5;" width="50.1602" x="239.5" y="403"/><text fill="#000000" font-family="sans-serif" font-size="14" lengthAdjust="spacing" textLength="44.1602" x="242.5" y="420.9951">Postre</text></g><!--class Alimento--><g class="entity" data-entity="Alimento" data-source-line="20" data-uid="ent0010" id="entity_Alimento"><rect fill="#F1F1F1" height="26.2969" rx="2.5" ry="2.5" style="stroke:#181818;stroke-width:0.5;" width="68.5352" x="174" y="300"/><text fill="#000000" font-family="sans-serif" font-size="14" lengthAdjust="spacing" textLength="62.5352" x="177" y="317.9951">Alimento</text></g><!--class Bebida--><g class="entity" data-entity="Bebida" data-source-line="22" data-uid="ent0011" id="entity_Bebida"><rect fill="#F1F1F1" height="26.2969" rx="2.5" ry="2.5" style="stroke:#181818;stroke-width:0.5;" width="54.46" x="278.5" y="300"/><text fill="#000000" font-family="sans-serif" font-size="14" lengthAdjust="spacing" textLength="48.46" x="281.5" y="317.9951">Bebida</text></g><!--class Alergenos--><g class="entity" data-entity="Alergenos" data-source-line="24" data-uid="ent0012" id="entity_Alergenos"><rect fill="#F1F1F1" height="26.2969" rx="2.5" ry="2.5" style="stroke:#181818;stroke-width:0.5;" width="76.0684" x="324.5" y="403"/><text fill="#000000" font-family="sans-serif" font-size="14" lengthAdjust="spacing" textLength="70.0684" x="327.5" y="420.9951">Alergenos</text></g><!--reverse link Menu to Producto--><g class="link" data-entity-1="Menu" data-entity-2="Producto" data-source-line="26" data-uid="lnk13" id="link_Menu_Producto"><path codeLine="26" d="M378.5,45.38 C378.5,64.87 378.5,90.47 378.5,109.83" fill="none" id="Menu-backto-Producto" style="stroke:#181818;stroke-width:1;"/><polygon fill="#181818" points="378.5,33.38,374.5,39.38,378.5,45.38,382.5,39.38,378.5,33.38" style="stroke:#181818;stroke-width:1;"/><text fill="#000000" font-family="sans-serif" font-size="13" lengthAdjust="spacing" textLength="58.2144" x="379.5" y="76.0669">Contiene</text></g><!--reverse link Producto to Descripcion--><g class="link" data-entity-1="Producto" data-entity-2="Descripcion" data-source-line="28" data-uid="lnk14" id="link_Producto_Descripcion"><path codeLine="28" d="M378.5,148.38 C378.5,167.87 378.5,193.47 378.5,212.83" fill="none" id="Producto-backto-Descripcion" style="stroke:#181818;stroke-width:1;"/><polygon fill="none" points="378.5,136.38,374.5,142.38,378.5,148.38,382.5,142.38,378.5,136.38" style="stroke:#181818;stroke-width:1;"/><text fill="#000000" font-family="sans-serif" font-size="13" lengthAdjust="spacing" textLength="58.2144" x="379.5" y="179.0669">Contiene</text></g><!--reverse link Producto to Categorias--><g class="link" data-entity-1="Producto" data-entity-2="Categorias" data-source-line="29" data-uid="lnk15" id="link_Producto_Categorias"><path codeLine="29" d="M332.9946,138.2913 C314.7646,145.0313 304.19,151.23 288.5,166 C274.59,179.1 265.37,199.63 260.54,212.69" fill="none" id="Producto-backto-Categorias" style="stroke:#181818;stroke-width:1;"/><polygon fill="none" points="344.25,134.13,337.2352,132.4589,332.9946,138.2913,340.0094,139.9625,344.25,134.13" style="stroke:#181818;stroke-width:1;"/><text fill="#000000" font-family="sans-serif" font-size="13" lengthAdjust="spacing" textLength="80.1709" x="289.5" y="179.0669">Se divide en</text></g><!--reverse link Producto to Precio--><g class="link" data-entity-1="Producto" data-entity-2="Precio" data-source-line="30" data-uid="lnk16" id="link_Producto_Precio"><path codeLine="30" d="M414.6705,141.7415 C428.3505,149.0615 434.27,153.7 446.5,166 C460.21,179.78 470.98,199.75 477.05,212.55" fill="none" id="Producto-backto-Precio" style="stroke:#181818;stroke-width:1;"/><polygon fill="none" points="404.09,136.08,407.4931,142.4376,414.6705,141.7415,411.2674,135.3839,404.09,136.08" style="stroke:#181818;stroke-width:1;"/></g><!--link Categorias to Alimento--><g class="link" data-entity-1="Categorias" data-entity-2="Alimento" data-source-line="32" data-uid="lnk17" id="link_Categorias_Alimento"><path codeLine="32" d="M249.62,239.18 C240.5,255.34 227.4317,278.4763 218.3117,294.6163" fill="none" id="Categorias-to-Alimento" style="stroke:#181818;stroke-width:1;"/><polygon fill="#181818" points="215.36,299.84,223.27,293.9722,217.8198,295.4869,216.3051,290.0366,215.36,299.84" style="stroke:#181818;stroke-width:1;"/></g><!--link Categorias to Bebida--><g class="link" data-entity-1="Categorias" data-entity-2="Bebida" data-source-line="33" data-uid="lnk18" id="link_Categorias_Bebida"><path codeLine="33" d="M263.52,239.18 C272.84,255.34 286.182,278.5027 295.492,294.6427" fill="none" id="Categorias-to-Bebida" style="stroke:#181818;stroke-width:1;"/><polygon fill="#181818" points="298.49,299.84,297.4579,290.0454,295.9917,295.5089,290.5282,294.0427,298.49,299.84" style="stroke:#181818;stroke-width:1;"/></g><!--link Alimento to Entrada--><g class="link" data-entity-1="Alimento" data-entity-2="Entrada" data-source-line="35" data-uid="lnk19" id="link_Alimento_Entrada"><path codeLine="35" d="M187.87,326.18 C154.92,345.65 95.9366,380.4894 63.0966,399.8794" fill="none" id="Alimento-to-Entrada" style="stroke:#181818;stroke-width:1;"/><polygon fill="#181818" points="57.93,402.93,67.7137,401.7986,62.2355,400.3879,63.6462,394.9097,57.93,402.93" style="stroke:#181818;stroke-width:1;"/></g><!--link Alimento to PlatoPrincipal--><g class="link" data-entity-1="Alimento" data-entity-2="PlatoPrincipal" data-source-line="36" data-uid="lnk20" id="link_Alimento_PlatoPrincipal"><path codeLine="36" d="M201.76,326.38 C191.14,345.87 173.5389,378.2003 162.9989,397.5603" fill="none" id="Alimento-to-PlatoPrincipal" style="stroke:#181818;stroke-width:1;"/><polygon fill="#181818" points="160.13,402.83,167.9465,396.8381,162.5208,398.4386,160.9203,393.0129,160.13,402.83" style="stroke:#181818;stroke-width:1;"/></g><!--link Alimento to Postre--><g class="link" data-entity-1="Alimento" data-entity-2="Postre" data-source-line="37" data-uid="lnk21" id="link_Alimento_Postre"><path codeLine="37" d="M215.37,326.38 C226.17,345.87 244.1114,378.2221 254.8414,397.5821" fill="none" id="Alimento-to-Postre" style="stroke:#181818;stroke-width:1;"/><polygon fill="#181818" points="257.75,402.83,256.8857,393.0191,255.3262,398.4568,249.8886,396.8972,257.75,402.83" style="stroke:#181818;stroke-width:1;"/></g><!--reverse link Alimento to Alergenos--><g class="link" data-entity-1="Alimento" data-entity-2="Alergenos" data-source-line="38" data-uid="lnk22" id="link_Alimento_Alergenos"><path codeLine="38" d="M237.1134,332.7627 C266.7134,352.1827 314.22,383.33 343.86,402.77" fill="none" id="Alimento-backto-Alergenos" style="stroke:#181818;stroke-width:1;"/><polygon fill="#181818" points="227.08,326.18,229.9024,332.8158,237.1134,332.7627,234.2909,326.1269,227.08,326.18" style="stroke:#181818;stroke-width:1;"/><text fill="#000000" font-family="sans-serif" font-size="13" lengthAdjust="spacing" textLength="41.1836" x="296.5" y="369.0669">tienen</text></g><!--SRC=[NP112i8m44NtFSMiXLwW2q6hIq7m16aws85qfaoYuErjAvFOxZ9lVfB__q0z0evJ-i28OuSQgs51djG7h2eVN8nmGtxP-QxIltmIcrkNy2bABXgvOFHAaoVXSWddqQOh9tMzoylWajoLsDFaGgOIasO7fq0ZSldrZ1sL5qu1zOaiiuN5AXpgEljie1LEX3o_PGna5lpP_DDi92LR0m-4djvhNRnLMRYYXhe-5iixRjPjlqAhP0EtnS1k-UidioLpxg61DGr_0G00]--></g></svg>