<svg xmlns="http://www.w3.org/2000/svg" xmlns:xlink="http://www.w3.org/1999/xlink" contentStyleType="text/css" data-diagram-type="CLASS" height="365px" preserveAspectRatio="none" style="width:440px;height:365px;background:#FFFFFF;" version="1.1" viewBox="0 0 440 365" width="440px" zoomAndPan="magnify"><defs/><g><!--class Menu--><g class="entity" data-entity="Menu" data-source-line="1" data-uid="ent0002" id="entity_Menu"><rect fill="#F1F1F1" height="129.4844" rx="2.5" ry="2.5" style="stroke:#181818;stroke-width:0.5;" width="165.0635" x="140" y="7"/><ellipse cx="199.0625" cy="23" fill="#ADD1B2" rx="11" ry="11" style="stroke:#181818;stroke-width:1;"/><path d="M202.0313,28.6406 Q201.4531,28.9375 200.8125,29.0781 Q200.1719,29.2344 199.4688,29.2344 Q196.9688,29.2344 195.6406,27.5938 Q194.3281,25.9375 194.3281,22.8125 Q194.3281,19.6875 195.6406,18.0313 Q196.9688,16.375 199.4688,16.375 Q200.1719,16.375 200.8125,16.5313 Q201.4688,16.6875 202.0313,16.9844 L202.0313,19.7031 Q201.4063,19.125 200.8125,18.8594 Q200.2188,18.5781 199.5938,18.5781 Q198.25,18.5781 197.5625,19.6563 Q196.875,20.7188 196.875,22.8125 Q196.875,24.9063 197.5625,25.9844 Q198.25,27.0469 199.5938,27.0469 Q200.2188,27.0469 200.8125,26.7813 Q201.4063,26.5 202.0313,25.9219 L202.0313,28.6406 Z " fill="#000000"/><text fill="#000000" font-family="sans-serif" font-size="14" lengthAdjust="spacing" textLength="38.4385" x="219.5625" y="27.8467">Menu</text><line style="stroke:#181818;stroke-width:0.5;" x1="141" x2="304.0635" y1="39" y2="39"/><rect fill="none" height="6" style="stroke:#C82930;stroke-width:1;" width="6" x="148" y="49.6484"/><text fill="#000000" font-family="sans-serif" font-size="14" lengthAdjust="spacing" textLength="87.1445" x="160" y="55.9951">titulo: String</text><rect fill="none" height="6" style="stroke:#C82930;stroke-width:1;" width="6" x="148" y="65.9453"/><text fill="#000000" font-family="sans-serif" font-size="14" lengthAdjust="spacing" textLength="134.1621" x="160" y="72.292">producto: Producto</text><rect fill="none" height="6" style="stroke:#C82930;stroke-width:1;" width="6" x="148" y="82.2422"/><text fill="#000000" font-family="sans-serif" font-size="14" lengthAdjust="spacing" textLength="84.8818" x="160" y="88.5889">estilo: Estilo</text><rect fill="none" height="6" style="stroke:#C82930;stroke-width:1;" width="6" x="148" y="98.5391"/><text fill="#000000" font-family="sans-serif" font-size="14" lengthAdjust="spacing" textLength="139.0635" x="160" y="104.8857">gastronomia: String</text><line style="stroke:#181818;stroke-width:0.5;" x1="141" x2="304.0635" y1="112.1875" y2="112.1875"/><ellipse cx="151" cy="125.8359" fill="#84BE84" rx="3" ry="3" style="stroke:#038048;stroke-width:1;"/><text fill="#000000" font-family="sans-serif" font-size="14" lengthAdjust="spacing" textLength="72.3516" x="160" y="129.1826">getMenu()</text></g><!--class Producto--><g class="entity" data-entity="Producto" data-source-line="9" data-uid="ent0003" id="entity_Producto"><rect fill="#F1F1F1" height="113.1875" rx="2.5" ry="2.5" style="stroke:#181818;stroke-width:0.5;" width="201.2324" x="7" y="229.5"/><ellipse cx="72.2285" cy="245.5" fill="#ADD1B2" rx="11" ry="11" style="stroke:#181818;stroke-width:1;"/><path d="M75.1973,251.1406 Q74.6191,251.4375 73.9785,251.5781 Q73.3379,251.7344 72.6348,251.7344 Q70.1348,251.7344 68.8066,250.0938 Q67.4941,248.4375 67.4941,245.3125 Q67.4941,242.1875 68.8066,240.5313 Q70.1348,238.875 72.6348,238.875 Q73.3379,238.875 73.9785,239.0313 Q74.6348,239.1875 75.1973,239.4844 L75.1973,242.2031 Q74.5723,241.625 73.9785,241.3594 Q73.3848,241.0781 72.7598,241.0781 Q71.416,241.0781 70.7285,242.1563 Q70.041,243.2188 70.041,245.3125 Q70.041,247.4063 70.7285,248.4844 Q71.416,249.5469 72.7598,249.5469 Q73.3848,249.5469 73.9785,249.2813 Q74.5723,249 75.1973,248.4219 L75.1973,251.1406 Z " fill="#000000"/><text fill="#000000" font-family="sans-serif" font-size="14" lengthAdjust="spacing" textLength="62.2754" x="92.7285" y="250.3467">Producto</text><line style="stroke:#181818;stroke-width:0.5;" x1="8" x2="207.2324" y1="261.5" y2="261.5"/><rect fill="none" height="6" style="stroke:#C82930;stroke-width:1;" width="6" x="15" y="272.1484"/><text fill="#000000" font-family="sans-serif" font-size="14" lengthAdjust="spacing" textLength="105.2803" x="27" y="278.4951">nombre: String</text><rect fill="none" height="6" style="stroke:#C82930;stroke-width:1;" width="6" x="15" y="288.4453"/><text fill="#000000" font-family="sans-serif" font-size="14" lengthAdjust="spacing" textLength="84.0273" x="27" y="294.792">precio: float</text><rect fill="none" height="6" style="stroke:#C82930;stroke-width:1;" width="6" x="15" y="304.7422"/><text fill="#000000" font-family="sans-serif" font-size="14" lengthAdjust="spacing" textLength="175.2324" x="27" y="311.0889">bebidaAlcolica: booleano</text><line style="stroke:#181818;stroke-width:0.5;" x1="8" x2="207.2324" y1="318.3906" y2="318.3906"/><ellipse cx="18" cy="332.0391" fill="#84BE84" rx="3" ry="3" style="stroke:#038048;stroke-width:1;"/><text fill="#000000" font-family="sans-serif" font-size="14" lengthAdjust="spacing" textLength="96.1885" x="27" y="335.3857">getProducto()</text></g><!--class Estilo--><g class="entity" data-entity="Estilo" data-source-line="16" data-uid="ent0004" id="entity_Estilo"><rect fill="#F1F1F1" height="145.7813" rx="2.5" ry="2.5" style="stroke:#181818;stroke-width:0.5;" width="190.042" x="243.5" y="213"/><ellipse cx="315.2842" cy="229" fill="#ADD1B2" rx="11" ry="11" style="stroke:#181818;stroke-width:1;"/><path d="M318.2529,234.6406 Q317.6748,234.9375 317.0342,235.0781 Q316.3936,235.2344 315.6904,235.2344 Q313.1904,235.2344 311.8623,233.5938 Q310.5498,231.9375 310.5498,228.8125 Q310.5498,225.6875 311.8623,224.0313 Q313.1904,222.375 315.6904,222.375 Q316.3936,222.375 317.0342,222.5313 Q317.6904,222.6875 318.2529,222.9844 L318.2529,225.7031 Q317.6279,225.125 317.0342,224.8594 Q316.4404,224.5781 315.8154,224.5781 Q314.4717,224.5781 313.7842,225.6563 Q313.0967,226.7188 313.0967,228.8125 Q313.0967,230.9063 313.7842,231.9844 Q314.4717,233.0469 315.8154,233.0469 Q316.4404,233.0469 317.0342,232.7813 Q317.6279,232.5 318.2529,231.9219 L318.2529,234.6406 Z " fill="#000000"/><text fill="#000000" font-family="sans-serif" font-size="14" lengthAdjust="spacing" textLength="37.9736" x="335.7842" y="233.8467">Estilo</text><line style="stroke:#181818;stroke-width:0.5;" x1="244.5" x2="432.542" y1="245" y2="245"/><rect fill="none" height="6" style="stroke:#C82930;stroke-width:1;" width="6" x="251.5" y="255.6484"/><text fill="#000000" font-family="sans-serif" font-size="14" lengthAdjust="spacing" textLength="143.9375" x="263.5" y="261.9951">colorPrimario: String</text><rect fill="none" height="6" style="stroke:#C82930;stroke-width:1;" width="6" x="251.5" y="271.9453"/><text fill="#000000" font-family="sans-serif" font-size="14" lengthAdjust="spacing" textLength="164.042" x="263.5" y="278.292">colorSecundario: String</text><rect fill="none" height="6" style="stroke:#C82930;stroke-width:1;" width="6" x="251.5" y="288.2422"/><text fill="#000000" font-family="sans-serif" font-size="14" lengthAdjust="spacing" textLength="144.0059" x="263.5" y="294.5889">colorTernario: String</text><rect fill="none" height="6" style="stroke:#C82930;stroke-width:1;" width="6" x="251.5" y="304.5391"/><text fill="#000000" font-family="sans-serif" font-size="14" lengthAdjust="spacing" textLength="106.4697" x="263.5" y="310.8857">formato: String</text><line style="stroke:#181818;stroke-width:0.5;" x1="244.5" x2="432.542" y1="318.1875" y2="318.1875"/><ellipse cx="254.5" cy="331.8359" fill="#84BE84" rx="3" ry="3" style="stroke:#038048;stroke-width:1;"/><text fill="#000000" font-family="sans-serif" font-size="14" lengthAdjust="spacing" textLength="86.3721" x="263.5" y="335.1826">getColores()</text><ellipse cx="254.5" cy="348.1328" fill="#84BE84" rx="3" ry="3" style="stroke:#038048;stroke-width:1;"/><text fill="#000000" font-family="sans-serif" font-size="14" lengthAdjust="spacing" textLength="92.5586" x="263.5" y="351.4795">getFormato()</text></g><!--link Menu to Producto--><g class="link" data-entity-1="Menu" data-entity-2="Producto" data-source-line="25" data-uid="lnk5" id="link_Menu_Producto"><path codeLine="25" d="M188,136.26 C171.99,165.84 155.9857,195.4132 140.5457,223.9432" fill="none" id="Menu-to-Producto" style="stroke:#181818;stroke-width:1;"/><polygon fill="#181818" points="137.69,229.22,145.4915,223.2086,140.0698,224.8227,138.4557,219.401,137.69,229.22" style="stroke:#181818;stroke-width:1;"/><text fill="#000000" font-family="sans-serif" font-size="13" lengthAdjust="spacing" textLength="56.2847" x="173.5" y="179.0669">contiene</text></g><!--link Menu to Estilo--><g class="link" data-entity-1="Menu" data-entity-2="Estilo" data-source-line="26" data-uid="lnk6" id="link_Menu_Estilo"><path codeLine="26" d="M257.3,136.26 C270.45,160.34 282.6257,182.6433 296.1657,207.4533" fill="none" id="Menu-to-Estilo" style="stroke:#181818;stroke-width:1;"/><polygon fill="#181818" points="299.04,212.72,298.2397,202.9037,296.6447,208.3311,291.2174,206.7361,299.04,212.72" style="stroke:#181818;stroke-width:1;"/><text fill="#000000" font-family="sans-serif" font-size="13" lengthAdjust="spacing" textLength="32.9443" x="281.5" y="179.0669">tiene</text></g><!--SRC=[RP1D2i8m48NtFSNGbIAzG1U2YEu4eLuWJSSoa6PaCbs9TpTDMgW_guJtCkzx4-jC2711FyAp0AX0IKV7DJGgvFiaFOIxqMeKh_CjoHYKffUdT2QfDq65FGzaLWaxw54dn6PRl8h29kGIbQbnf1NyegAb67ztR3GfBRRKcOEpxCX6GCliq7XU44la6fFBPKYSOxaA3KReSyFaD6X7t_ttRYZ-nxcp34RvUzFZD80XjfY5StwNQvNJHvHGLNieby9b7IbU2Jr- -BbyT9Fr1W00]--></g></svg>