<svg xmlns="http://www.w3.org/2000/svg" xmlns:xlink="http://www.w3.org/1999/xlink" contentStyleType="text/css" data-diagram-type="STATE" height="1653px" preserveAspectRatio="none" style="width:673px;height:1653px;background:#FFFFFF;" version="1.1" viewBox="0 0 673 1653" width="673px" zoomAndPan="magnify"><title>Diagrama de estados &#8212; Cafeter&#237;a</title><defs/><g><g class="title" data-source-line="1"><text fill="#000000" font-family="sans-serif" font-size="14" font-weight="bold" lengthAdjust="spacing" textLength="263.874" x="194.4606" y="22.9951">Diagrama de estados &#8212; Cafeter&#237;a</text></g><path d="M78.64,44.2969 L647.2953,44.2969 A12.5,12.5 0 0 1 659.7953,56.7969 L659.7953,70.5938 L66.14,70.5938 L66.14,56.7969 A12.5,12.5 0 0 1 78.64,44.2969" fill="#F1F1F1"/><rect fill="none" height="760.5969" rx="12.5" ry="12.5" style="stroke:#181818;stroke-width:0.5;" width="593.6553" x="66.14" y="44.2969"/><line style="stroke:#181818;stroke-width:0.5;" x1="66.14" x2="659.7953" y1="70.5938" y2="70.5938"/><text fill="#000000" font-family="sans-serif" font-size="14" lengthAdjust="spacing" textLength="69.0977" x="328.4188" y="62.292">Operativa</text><path d="M90.64,138.5938 L638.2953,138.5938 A12.5,12.5 0 0 1 650.7953,151.0938 L650.7953,164.8906 L78.14,164.8906 L78.14,151.0938 A12.5,12.5 0 0 1 90.64,138.5938" fill="#F1F1F1"/><rect fill="none" height="553.2969" rx="12.5" ry="12.5" style="stroke:#181818;stroke-width:0.5;" width="572.6553" x="78.14" y="138.5938"/><line style="stroke:#181818;stroke-width:0.5;" x1="78.14" x2="650.7953" y1="164.8906" y2="164.8906"/><text fill="#000000" font-family="sans-serif" font-size="14" lengthAdjust="spacing" textLength="55.583" x="336.6761" y="156.5889">Servicio</text><!--cluster Preparando--><g class="cluster" data-entity="Preparando" data-source-line="24" data-uid="ent0004" id="cluster_Preparando"><path d="M102.64,176.8906 L244.64,176.8906 A12.5,12.5 0 0 1 257.14,189.3906 L257.14,198.1875 L90.14,198.1875 L90.14,189.3906 A12.5,12.5 0 0 1 102.64,176.8906" fill="#F1F1F1"/><rect fill="none" height="396" rx="12.5" ry="12.5" style="stroke:#181818;stroke-width:0.5;" width="167" x="90.14" y="176.8906"/><line style="stroke:#181818;stroke-width:0.5;" x1="90.14" x2="257.14" y1="198.1875" y2="198.1875"/><text fill="#000000" font-family="sans-serif" font-size="14" lengthAdjust="spacing" textLength="80.9375" x="133.1713" y="193.8857">Preparando</text></g><ellipse cx="143.14" cy="229.8906" fill="#222222" rx="10" ry="10" style="stroke:#222222;stroke-width:1;"/><g id="Operativa.Servicio.Preparando.Barra"><rect fill="#F1F1F1" height="50" rx="12.5" ry="12.5" style="stroke:#181818;stroke-width:0.5;" width="58.2744" x="114" y="292.8906"/><line style="stroke:#181818;stroke-width:0.5;" x1="114" x2="172.2744" y1="319.1875" y2="319.1875"/><text fill="#000000" font-family="sans-serif" font-size="14" lengthAdjust="spacing" textLength="38.2744" x="124" y="310.8857">Barra</text></g><g id="Operativa.Servicio.Preparando.Cocina"><rect fill="#F1F1F1" height="50" rx="12.5" ry="12.5" style="stroke:#181818;stroke-width:0.5;" width="67.3799" x="114.45" y="395.8906"/><line style="stroke:#181818;stroke-width:0.5;" x1="114.45" x2="181.8299" y1="422.1875" y2="422.1875"/><text fill="#000000" font-family="sans-serif" font-size="14" lengthAdjust="spacing" textLength="47.3799" x="124.45" y="413.8857">Cocina</text></g><g id="Operativa.Servicio.Preparando.Listo"><rect fill="#F1F1F1" height="50" rx="12.5" ry="12.5" style="stroke:#181818;stroke-width:0.5;" width="53.0381" x="143.62" y="498.8906"/><line style="stroke:#181818;stroke-width:0.5;" x1="143.62" x2="196.6581" y1="525.1875" y2="525.1875"/><text fill="#000000" font-family="sans-serif" font-size="14" lengthAdjust="spacing" textLength="33.0381" x="153.62" y="516.8857">Listo</text></g><ellipse cx="429.14" cy="420.8906" fill="#222222" rx="10" ry="10" style="stroke:#222222;stroke-width:1;"/><g id="Operativa.Servicio.TomandoPedidos"><rect fill="#F1F1F1" height="50" rx="12.5" ry="12.5" style="stroke:#181818;stroke-width:0.5;" width="140.2373" x="363.02" y="498.8906"/><line style="stroke:#181818;stroke-width:0.5;" x1="363.02" x2="503.2573" y1="525.1875" y2="525.1875"/><text fill="#000000" font-family="sans-serif" font-size="14" lengthAdjust="spacing" textLength="120.2373" x="373.02" y="516.8857">TomandoPedidos</text></g><g id="Operativa.Servicio.FueraDeStock"><rect fill="#F1F1F1" height="50" rx="12.5" ry="12.5" style="stroke:#181818;stroke-width:0.5;" width="118.0137" x="374.13" y="631.8906"/><line style="stroke:#181818;stroke-width:0.5;" x1="374.13" x2="492.1437" y1="658.1875" y2="658.1875"/><text fill="#000000" font-family="sans-serif" font-size="14" lengthAdjust="spacing" textLength="98.0137" x="384.13" y="649.8857">FueraDeStock</text></g><g id="Operativa.Servicio.Entregando"><rect fill="#F1F1F1" height="50" rx="12.5" ry="12.5" style="stroke:#181818;stroke-width:0.5;" width="101.3682" x="281.46" y="292.8906"/><line style="stroke:#181818;stroke-width:0.5;" x1="281.46" x2="382.8282" y1="319.1875" y2="319.1875"/><text fill="#000000" font-family="sans-serif" font-size="14" lengthAdjust="spacing" textLength="81.3682" x="291.46" y="310.8857">Entregando</text></g><g id="Operativa.Servicio.Cobro"><rect fill="#F1F1F1" height="50" rx="12.5" ry="12.5" style="stroke:#181818;stroke-width:0.5;" width="61.5488" x="284.37" y="395.8906"/><line style="stroke:#181818;stroke-width:0.5;" x1="284.37" x2="345.9188" y1="422.1875" y2="422.1875"/><text fill="#000000" font-family="sans-serif" font-size="14" lengthAdjust="spacing" textLength="41.5488" x="294.37" y="413.8857">Cobro</text></g><!--link *start*Servicio to TomandoPedidos--><g class="link" data-entity-1=".start.Servicio" data-entity-2="TomandoPedidos" data-source-line="17" data-uid="lnk16" id="link_.start.Servicio_TomandoPedidos"><path d="M429.51,431.2106 C430.11,446.3506 431.0717,470.7754 431.9317,492.4154" fill="none" id="*start*Servicio-to-TomandoPedidos" style="stroke:#181818;stroke-width:1;"/><polygon fill="#181818" points="432.17,498.4106,435.8095,489.2589,431.9715,493.4146,427.8158,489.5766,432.17,498.4106" style="stroke:#181818;stroke-width:1;"/></g><!--link TomandoPedidos to Preparando--><g class="link" data-entity-1="TomandoPedidos" data-entity-2="Preparando" data-source-line="19" data-uid="lnk17" id="link_TomandoPedidos_Preparando"><path d="M441.08,498.4206 C450.27,465.9206 462.11,407.2306 445.14,360.8906 C425.85,308.2006 418.91,288.8806 372.14,257.8906 C349.175,242.6756 319.02,235.8981 294.3162,232.9381 C281.9644,231.4581 270.9753,230.9325 262.9292,230.7838 C260.9177,230.7466 259.0901,230.7329 257.4711,230.7338 C257.37,230.7339 263.2696,230.7239 263.17,230.7241" fill="none" id="TomandoPedidos-to-Preparando" style="stroke:#181818;stroke-width:1;"/><polygon fill="#181818" points="257.17,230.7342,266.1768,234.719,262.17,230.7258,266.1633,226.719,257.17,230.7342" style="stroke:#181818;stroke-width:1;"/><text fill="#000000" font-family="sans-serif" font-size="13" lengthAdjust="spacing" textLength="166.2388" x="450.14" y="373.9575">pedido_creado [stock_ok]</text></g><!--link TomandoPedidos to FueraDeStock--><g class="link" data-entity-1="TomandoPedidos" data-entity-2="FueraDeStock" data-source-line="20" data-uid="lnk19" id="link_TomandoPedidos_FueraDeStock"><path d="M362.68,546.0906 C324.18,561.4906 288.22,584.7106 309.14,613.8906 C323.97,634.5806 343.7057,643.8864 367.8057,649.2964" fill="none" id="TomandoPedidos-to-FueraDeStock" style="stroke:#181818;stroke-width:1;"/><polygon fill="#181818" points="373.66,650.6106,365.7547,644.7365,368.7814,649.5155,364.0024,652.5422,373.66,650.6106" style="stroke:#181818;stroke-width:1;"/><text fill="#000000" font-family="sans-serif" font-size="13" lengthAdjust="spacing" textLength="225.9004" x="310.14" y="609.9575">pedido_creado [stock_insuficiente]</text></g><!--link FueraDeStock to TomandoPedidos--><g class="link" data-entity-1="FueraDeStock" data-entity-2="TomandoPedidos" data-source-line="22" data-uid="lnk20" id="link_FueraDeStock_TomandoPedidos"><path d="M492.51,644.8206 C509.44,638.6206 526.01,628.9606 536.14,613.8906 C553.48,588.1006 531.1575,568.0806 500.1575,552.0206" fill="none" id="FueraDeStock-to-TomandoPedidos" style="stroke:#181818;stroke-width:1;"/><polygon fill="#181818" points="494.83,549.2606,500.9813,556.9523,499.2696,551.5606,504.6613,549.8489,494.83,549.2606" style="stroke:#181818;stroke-width:1;"/><text fill="#000000" font-family="sans-serif" font-size="13" lengthAdjust="spacing" textLength="98.6553" x="542.14" y="609.9575">stock_repuesto</text></g><!--link *start*Preparando to Barra--><g class="link" data-entity-1=".start.Preparando" data-entity-2="Barra" data-source-line="25" data-uid="lnk23" id="link_.start.Preparando_Barra"><path d="M143.14,240.0906 C143.14,252.4906 143.14,269.0006 143.14,286.4506" fill="none" id="*start*Preparando-to-Barra" style="stroke:#181818;stroke-width:1;"/><polygon fill="#181818" points="143.14,292.4506,147.14,283.4506,143.14,287.4506,139.14,283.4506,143.14,292.4506" style="stroke:#181818;stroke-width:1;"/><text fill="#000000" font-family="sans-serif" font-size="13" lengthAdjust="spacing" textLength="51.105" x="144.14" y="270.9575">bebidas</text></g><!--link Barra to Cocina--><g class="link" data-entity-1="Barra" data-entity-2="Cocina" data-source-line="26" data-uid="lnk25" id="link_Barra_Cocina"><path d="M139.59,343.3306 C138.53,353.9606 137.94,366.5606 139.14,377.8906 C139.75,383.6706 139.6083,383.9563 140.8083,389.7263" fill="none" id="Barra-to-Cocina" style="stroke:#181818;stroke-width:1;"/><polygon fill="#181818" points="142.03,395.6006,144.1137,385.9747,141.0119,390.7054,136.2813,387.6036,142.03,395.6006" style="stroke:#181818;stroke-width:1;"/><text fill="#000000" font-family="sans-serif" font-size="13" lengthAdjust="spacing" textLength="91.438" x="140.14" y="373.9575">bebidas_listas</text></g><!--link Cocina to Listo--><g class="link" data-entity-1="Cocina" data-entity-2="Listo" data-source-line="27" data-uid="lnk27" id="link_Cocina_Listo"><path d="M146.14,446.3106 C145.88,457.0606 146.41,469.7506 149.14,480.8906 C150.61,486.9106 150.4649,487.6409 153.1849,493.3109" fill="none" id="Cocina-to-Listo" style="stroke:#181818;stroke-width:1;"/><polygon fill="#181818" points="155.78,498.7206,155.4938,488.8759,153.6174,494.2125,148.2808,492.3361,155.78,498.7206" style="stroke:#181818;stroke-width:1;"/><text fill="#000000" font-family="sans-serif" font-size="13" lengthAdjust="spacing" textLength="81.1548" x="150.14" y="476.9575">comida_lista</text></g><!--link Preparando to Entregando--><g class="link" data-entity-1="Preparando" data-entity-2="Entregando" data-source-line="30" data-uid="lnk29" id="link_Preparando_Entregando"><path d="M257.3049,239.3498 C257.8197,239.8832 258.3545,240.4374 258.9079,241.0109 C260.0148,242.1578 261.1963,243.3822 262.4421,244.6732 C264.9338,247.2552 267.6828,250.1038 270.6063,253.1331 C282.3,265.2506 292.6187,275.943 304.5937,288.353" fill="none" id="Preparando-to-Entregando" style="stroke:#181818;stroke-width:1;"/><polygon fill="#181818" points="308.76,292.6706,305.389,283.4166,305.2881,289.0726,299.6321,288.9717,308.76,292.6706" style="stroke:#181818;stroke-width:1;"/><text fill="#000000" font-family="sans-serif" font-size="13" lengthAdjust="spacing" textLength="76.4639" x="291.14" y="270.9575">items_listos</text></g><!--link Listo to Entregando--><g class="link" data-entity-1="Listo" data-entity-2="Entregando" data-source-line="31" data-uid="lnk30" id="link_Listo_Entregando"><path d="M196.86,508.9106 C208.75,501.7306 222.26,492.1106 232.14,480.8906 C260.12,449.1106 252.91,431.9206 275.14,395.8906 C286.49,377.4906 297.3202,362.6519 308.8702,347.8419" fill="none" id="Listo-to-Entregando" style="stroke:#181818;stroke-width:1;"/><polygon fill="#181818" points="312.56,343.1106,303.8711,347.7477,309.4851,347.0534,310.1794,352.6675,312.56,343.1106" style="stroke:#181818;stroke-width:1;"/></g><!--link Entregando to Cobro--><g class="link" data-entity-1="Entregando" data-entity-2="Cobro" data-source-line="33" data-uid="lnk32" id="link_Entregando_Cobro"><path d="M328.02,343.3406 C325.35,359.2206 322.8737,373.9135 320.2137,389.7535" fill="none" id="Entregando-to-Cobro" style="stroke:#181818;stroke-width:1;"/><polygon fill="#181818" points="319.22,395.6706,324.6553,387.4573,320.0481,390.7397,316.7657,386.1325,319.22,395.6706" style="stroke:#181818;stroke-width:1;"/><text fill="#000000" font-family="sans-serif" font-size="13" lengthAdjust="spacing" textLength="117.9204" x="325.14" y="373.9575">pedido_entregado</text></g><!--link Cobro to TomandoPedidos--><g class="link" data-entity-1="Cobro" data-entity-2="TomandoPedidos" data-source-line="34" data-uid="lnk33" id="link_Cobro_TomandoPedidos"><path d="M307.35,446.2406 C305.21,457.7206 305.12,471.0306 312.14,480.8906 C324.06,497.6506 337.4434,505.99 356.9834,512.1" fill="none" id="Cobro-to-TomandoPedidos" style="stroke:#181818;stroke-width:1;"/><polygon fill="#181818" points="362.71,513.8906,355.3139,507.3869,357.9379,512.3984,352.9264,515.0224,362.71,513.8906" style="stroke:#181818;stroke-width:1;"/><text fill="#000000" font-family="sans-serif" font-size="13" lengthAdjust="spacing" textLength="112.6328" x="313.14" y="476.9575">pago_confirmado</text></g><ellipse cx="364.47" cy="91.5938" fill="#222222" rx="10" ry="10" style="stroke:#222222;stroke-width:1;"/><g id="Operativa.Pausa"><rect fill="#F1F1F1" height="50" rx="12.5" ry="12.5" style="stroke:#181818;stroke-width:0.5;" width="61.7676" x="193.58" y="744.8938"/><line style="stroke:#181818;stroke-width:0.5;" x1="193.58" x2="255.3476" y1="771.1906" y2="771.1906"/><text fill="#000000" font-family="sans-serif" font-size="14" lengthAdjust="spacing" textLength="41.7676" x="203.58" y="762.8889">Pausa</text></g><g id="Operativa.CierreParcial"><rect fill="#F1F1F1" height="50" rx="12.5" ry="12.5" style="stroke:#181818;stroke-width:0.5;" width="109.2363" x="438.85" y="744.8938"/><line style="stroke:#181818;stroke-width:0.5;" x1="438.85" x2="548.0863" y1="771.1906" y2="771.1906"/><text fill="#000000" font-family="sans-serif" font-size="14" lengthAdjust="spacing" textLength="89.2363" x="448.85" y="762.8889">CierreParcial</text></g><!--link *start*Operativa to Servicio--><g class="link" data-entity-1=".start.Operativa" data-entity-2="Servicio" data-source-line="10" data-uid="lnk10" id="link_.start.Operativa_Servicio"><path d="M364.47,101.8737 C364.47,109.8037 364.47,116.4137 364.47,132.1237" fill="none" id="*start*Operativa-to-Servicio" style="stroke:#181818;stroke-width:1;"/><polygon fill="#181818" points="364.47,138.1237,368.47,129.1237,364.47,133.1237,360.47,129.1237,364.47,138.1237" style="stroke:#181818;stroke-width:1;"/></g><!--link Servicio to Pausa--><g class="link" data-entity-1="Servicio" data-entity-2="Pausa" data-source-line="12" data-uid="lnk12" id="link_Servicio_Pausa"><path d="M146,692.1837 C143.66,698.0637 141.48,703.9637 139.47,709.8938 C137.04,717.0537 135.48,720.4738 139.47,726.8938 C151.19,745.7638 168.4525,754.6583 187.5725,760.5083" fill="none" id="Servicio-to-Pausa" style="stroke:#181818;stroke-width:1;"/><polygon fill="#181818" points="193.31,762.2638,185.8741,755.8056,188.5288,760.8009,183.5335,763.4556,193.31,762.2638" style="stroke:#181818;stroke-width:1;"/><text fill="#000000" font-family="sans-serif" font-size="13" lengthAdjust="spacing" textLength="147.5513" x="140.47" y="722.9606">descanso_programado</text></g><!--link Pausa to Servicio--><g class="link" data-entity-1="Pausa" data-entity-2="Servicio" data-source-line="13" data-uid="lnk13" id="link_Pausa_Servicio"><path d="M255.6,754.7638 C267.5,747.9237 280.19,738.6138 288.47,726.8938 C296.24,715.8938 300.4621,709.5275 306.7321,697.3575" fill="none" id="Pausa-to-Servicio" style="stroke:#181818;stroke-width:1;"/><polygon fill="#181818" points="309.48,692.0238,301.8022,698.1924,307.19,696.4685,308.9139,701.8563,309.48,692.0238" style="stroke:#181818;stroke-width:1;"/><text fill="#000000" font-family="sans-serif" font-size="13" lengthAdjust="spacing" textLength="84.0303" x="299.47" y="722.9606">fin_descanso</text></g><!--link Servicio to CierreParcial--><g class="link" data-entity-1="Servicio" data-entity-2="CierreParcial" data-source-line="37" data-uid="lnk35" id="link_Servicio_CierreParcial"><path d="M400.24,692.3438 C406.11,704.4337 412.82,716.0238 420.47,726.8938 C425.27,733.7037 426.6979,736.0443 433.5579,741.0343" fill="none" id="Servicio-to-CierreParcial" style="stroke:#181818;stroke-width:1;"/><polygon fill="#181818" points="438.41,744.5637,433.4848,736.0348,434.3666,741.6225,428.7789,742.5043,438.41,744.5637" style="stroke:#181818;stroke-width:1;"/><text fill="#000000" font-family="sans-serif" font-size="13" lengthAdjust="spacing" textLength="123.4619" x="421.47" y="722.9606">fin_servicio_parcial</text></g><!--link CierreParcial to Servicio--><g class="link" data-entity-1="CierreParcial" data-entity-2="Servicio" data-source-line="38" data-uid="lnk36" id="link_CierreParcial_Servicio"><path d="M532.2,744.5238 C537.57,739.3838 542.32,733.4938 545.47,726.8938 C548.72,720.0738 547.53,717.1637 545.47,709.8938 C543.79,703.9838 543.8632,703.7739 541.8932,697.8839" fill="none" id="CierreParcial-to-Servicio" style="stroke:#181818;stroke-width:1;"/><polygon fill="#181818" points="539.99,692.1937,539.0513,701.9978,541.576,696.9356,546.6382,699.4602,539.99,692.1937" style="stroke:#181818;stroke-width:1;"/><text fill="#000000" font-family="sans-serif" font-size="13" lengthAdjust="spacing" textLength="79.6377" x="548.47" y="722.9606">reabrir_area</text></g><path d="M19.5,1135.8869 L296.4397,1135.8869 A12.5,12.5 0 0 1 308.9397,1148.3869 L308.9397,1162.1838 L7,1162.1838 L7,1148.3869 A12.5,12.5 0 0 1 19.5,1135.8869" fill="#F1F1F1"/><rect fill="none" height="257.2969" rx="12.5" ry="12.5" style="stroke:#181818;stroke-width:0.5;" width="301.9397" x="7" y="1135.8869"/><line style="stroke:#181818;stroke-width:0.5;" x1="7" x2="308.9397" y1="1162.1838" y2="1162.1838"/><text fill="#000000" font-family="sans-serif" font-size="14" lengthAdjust="spacing" textLength="71.0527" x="122.4435" y="1153.882">Inventario</text><ellipse cx="119.2024" cy="1183.1838" fill="#222222" rx="10" ry="10" style="stroke:#222222;stroke-width:1;"/><g id="Inventario.Chequeo"><rect fill="#F1F1F1" height="50" rx="12.5" ry="12.5" style="stroke:#181818;stroke-width:0.5;" width="82.2002" x="78.1024" y="1230.1838"/><line style="stroke:#181818;stroke-width:0.5;" x1="78.1024" x2="160.3026" y1="1256.4806" y2="1256.4806"/><text fill="#000000" font-family="sans-serif" font-size="14" lengthAdjust="spacing" textLength="62.2002" x="88.1024" y="1248.1789">Chequeo</text></g><g id="Inventario.Reposicion"><rect fill="#F1F1F1" height="50" rx="12.5" ry="12.5" style="stroke:#181818;stroke-width:0.5;" width="96.002" x="24.2024" y="1333.1838"/><line style="stroke:#181818;stroke-width:0.5;" x1="24.2024" x2="120.2043" y1="1359.4806" y2="1359.4806"/><text fill="#000000" font-family="sans-serif" font-size="14" lengthAdjust="spacing" textLength="76.002" x="34.2024" y="1351.1789">Reposicion</text></g><ellipse cx="232.2024" cy="1358.1838" fill="none" rx="11" ry="11" style="stroke:#222222;stroke-width:1;"/><ellipse cx="232.2024" cy="1358.1838" fill="#222222" rx="6" ry="6" style="stroke:#222222;stroke-width:1;"/><!--link *start*Inventario to Chequeo--><g class="link" data-entity-1=".start.Inventario" data-entity-2="Chequeo" data-source-line="47" data-uid="lnk44" id="link_.start.Inventario_Chequeo"><path d="M119.2024,1193.6238 C119.2024,1202.8838 119.2024,1211.3738 119.2024,1223.8638" fill="none" id="*start*Inventario-to-Chequeo" style="stroke:#181818;stroke-width:1;"/><polygon fill="#181818" points="119.2024,1229.8638,123.2024,1220.8638,119.2024,1224.8638,115.2024,1220.8638,119.2024,1229.8638" style="stroke:#181818;stroke-width:1;"/></g><!--link Chequeo to Reposicion--><g class="link" data-entity-1="Chequeo" data-entity-2="Reposicion" data-source-line="48" data-uid="lnk46" id="link_Chequeo_Reposicion"><path d="M78.0624,1264.2938 C59.1724,1270.2938 38.5024,1280.6038 27.2024,1298.1838 C19.6124,1309.9938 22.3635,1318.2377 32.9435,1328.6377" fill="none" id="Chequeo-to-Reposicion" style="stroke:#181818;stroke-width:1;"/><polygon fill="#181818" points="37.2224,1332.8438,33.6081,1323.682,33.6566,1329.3387,28,1329.3872,37.2224,1332.8438" style="stroke:#181818;stroke-width:1;"/><text fill="#000000" font-family="sans-serif" font-size="13" lengthAdjust="spacing" textLength="68.7832" x="28.2024" y="1311.2506">bajo_stock</text></g><!--link Reposicion to Chequeo--><g class="link" data-entity-1="Reposicion" data-entity-2="Chequeo" data-source-line="49" data-uid="lnk47" id="link_Reposicion_Chequeo"><path d="M87.7624,1332.7138 C91.0824,1327.0638 94.4124,1321.0038 97.2024,1315.1838 C102.5424,1304.0438 105.4566,1296.9021 109.2766,1286.0721" fill="none" id="Reposicion-to-Chequeo" style="stroke:#181818;stroke-width:1;"/><polygon fill="#181818" points="111.2724,1280.4138,104.5064,1287.5707,109.6092,1285.129,112.0509,1290.2318,111.2724,1280.4138" style="stroke:#181818;stroke-width:1;"/><text fill="#000000" font-family="sans-serif" font-size="13" lengthAdjust="spacing" textLength="88.8672" x="105.2024" y="1311.2506">reposicion_ok</text></g><!--link Chequeo to *end*Inventario--><g class="link" data-entity-1="Chequeo" data-entity-2=".end.Inventario" data-source-line="50" data-uid="lnk49" id="link_Chequeo_.end.Inventario"><path d="M160.6424,1272.7538 C173.6924,1279.3238 187.4824,1287.8238 198.2024,1298.1838 C212.9924,1312.4838 221.1329,1329.0314 226.2729,1341.7414" fill="none" id="Chequeo-to-*end*Inventario" style="stroke:#181818;stroke-width:1;"/><polygon fill="#181818" points="228.5224,1347.3038,228.8564,1337.4606,226.6478,1342.6684,221.44,1340.4598,228.5224,1347.3038" style="stroke:#181818;stroke-width:1;"/><text fill="#000000" font-family="sans-serif" font-size="13" lengthAdjust="spacing" textLength="87.7373" x="211.2024" y="1311.2506">inventario_ok</text></g><ellipse cx="353.97" cy="1264.5369" fill="#222222" rx="10" ry="10" style="stroke:#222222;stroke-width:1;"/><g id="Cerrada"><rect fill="#F1F1F1" height="50" rx="12.5" ry="12.5" style="stroke:#181818;stroke-width:0.5;" width="75.9453" x="226" y="1470.1869"/><line style="stroke:#181818;stroke-width:0.5;" x1="226" x2="301.9453" y1="1496.4838" y2="1496.4838"/><text fill="#000000" font-family="sans-serif" font-size="14" lengthAdjust="spacing" textLength="55.9453" x="236" y="1488.182">Cerrada</text></g><g id="Apertura"><rect fill="#F1F1F1" height="50" rx="12.5" ry="12.5" style="stroke:#181818;stroke-width:0.5;" width="81.5303" x="259.2" y="1597.1869"/><line style="stroke:#181818;stroke-width:0.5;" x1="259.2" x2="340.7303" y1="1623.4838" y2="1623.4838"/><text fill="#000000" font-family="sans-serif" font-size="14" lengthAdjust="spacing" textLength="61.5303" x="269.2" y="1615.182">Apertura</text></g><g id="Cierre"><rect fill="#F1F1F1" height="50" rx="12.5" ry="12.5" style="stroke:#181818;stroke-width:0.5;" width="62.4033" x="273.77" y="881.8869"/><line style="stroke:#181818;stroke-width:0.5;" x1="273.77" x2="336.1733" y1="908.1838" y2="908.1838"/><text fill="#000000" font-family="sans-serif" font-size="14" lengthAdjust="spacing" textLength="42.4033" x="283.77" y="899.882">Cierre</text></g><g id="Limpieza"><rect fill="#F1F1F1" height="50" rx="12.5" ry="12.5" style="stroke:#181818;stroke-width:0.5;" width="82.6445" x="258.65" y="1008.8869"/><line style="stroke:#181818;stroke-width:0.5;" x1="258.65" x2="341.2945" y1="1035.1838" y2="1035.1838"/><text fill="#000000" font-family="sans-serif" font-size="14" lengthAdjust="spacing" textLength="62.6445" x="268.65" y="1026.882">Limpieza</text></g><!--link *start* to Cerrada--><g class="link" data-entity-1=".start." data-entity-2="Cerrada" data-source-line="3" data-uid="lnk4" id="link_.start._Cerrada"><path d="M353.01,1274.8269 C350.56,1296.3269 343.02,1350.8969 325.97,1393.1869 C314.74,1421.0469 299.6068,1445.0727 285.7068,1464.7927" fill="none" id="*start*-to-Cerrada" style="stroke:#181818;stroke-width:1;"/><polygon fill="#181818" points="282.25,1469.6969,290.7046,1464.6452,285.1306,1465.6101,284.1657,1460.0361,282.25,1469.6969" style="stroke:#181818;stroke-width:1;"/></g><!--link Cerrada to Apertura--><g class="link" data-entity-1="Cerrada" data-entity-2="Apertura" data-source-line="5" data-uid="lnk6" id="link_Cerrada_Apertura"><path d="M271,1520.5869 C277.34,1542.6069 284.9585,1569.0815 291.2985,1591.0815" fill="none" id="Cerrada-to-Apertura" style="stroke:#181818;stroke-width:1;"/><polygon fill="#181818" points="292.96,1596.8469,294.3114,1587.0912,291.5754,1592.0424,286.6242,1589.3065,292.96,1596.8469" style="stroke:#181818;stroke-width:1;"/><text fill="#000000" font-family="sans-serif" font-size="13" lengthAdjust="spacing" textLength="92.2124" x="284.97" y="1563.2538">hora_apertura</text></g><!--link Apertura to Cerrada--><g class="link" data-entity-1="Apertura" data-entity-2="Cerrada" data-source-line="7" data-uid="lnk8" id="link_Apertura_Cerrada"><path d="M258.98,1619.8969 C221.39,1616.2769 167.63,1604.3969 140.97,1567.1869 C116.13,1532.5169 175.1603,1513.5204 219.8603,1504.0504" fill="none" id="Apertura-to-Cerrada" style="stroke:#181818;stroke-width:1;"/><polygon fill="#181818" points="225.73,1502.8069,216.0964,1500.759,220.8386,1503.8432,217.7544,1508.5853,225.73,1502.8069" style="stroke:#181818;stroke-width:1;"/><text fill="#000000" font-family="sans-serif" font-size="13" lengthAdjust="spacing" textLength="128.5337" x="141.97" y="1563.2538">incidencia_apertura</text></g><!--link Apertura to Operativa--><g class="link" data-entity-1="Apertura" data-entity-2="Operativa" data-source-line="6" data-uid="lnk7" id="link_Apertura_Operativa"><path d="M340.95,1602.1269 C356.62,1593.2569 373.66,1581.4769 385.97,1567.1869 C408.44,1541.0969 416.97,1530.6169 416.97,1496.1869 C416.97,905.8869 416.97,905.8869 416.97,905.8869 C416.97,873.1669 416.0956,845.2551 413.9656,811.2951" fill="none" id="Apertura-to-Operativa" style="stroke:#181818;stroke-width:1;"/><polygon fill="#181818" points="413.59,805.3069,410.1612,814.5396,413.903,810.2971,418.1455,814.0388,413.59,805.3069" style="stroke:#181818;stroke-width:1;"/><text fill="#000000" font-family="sans-serif" font-size="13" lengthAdjust="spacing" textLength="125.8359" x="417.97" y="1101.9538">tareas_apertura_ok</text></g><!--link Operativa to Cierre--><g class="link" data-entity-1="Operativa" data-entity-2="Cierre" data-source-line="41" data-uid="lnk38" id="link_Operativa_Cierre"><path d="M317.13,805.2069 C313.29,836.9569 310.7805,857.7803 308.6105,875.7203" fill="none" id="Operativa-to-Cierre" style="stroke:#181818;stroke-width:1;"/><polygon fill="#181818" points="307.89,881.6769,312.9418,873.2223,308.4904,876.7131,304.9997,872.2617,307.89,881.6769" style="stroke:#181818;stroke-width:1;"/><text fill="#000000" font-family="sans-serif" font-size="13" lengthAdjust="spacing" textLength="73.4487" x="313.97" y="847.9538">hora_cierre</text></g><!--link Cierre to Limpieza--><g class="link" data-entity-1="Cierre" data-entity-2="Limpieza" data-source-line="43" data-uid="lnk40" id="link_Cierre_Limpieza"><path d="M300.58,932.2669 C299.12,941.5069 297.69,952.1569 296.97,961.8869 C295.83,977.3969 296.0992,988.8531 297.1092,1002.5631" fill="none" id="Cierre-to-Limpieza" style="stroke:#181818;stroke-width:1;"/><polygon fill="#181818" points="297.55,1008.5469,300.878,999.2773,297.1827,1003.5604,292.8996,999.8651,297.55,1008.5469" style="stroke:#181818;stroke-width:1;"/><text fill="#000000" font-family="sans-serif" font-size="13" lengthAdjust="spacing" textLength="92.6187" x="297.97" y="974.9538">cierre_caja_ok</text></g><!--link Limpieza to Inventario--><g class="link" data-entity-1="Limpieza" data-entity-2="Inventario" data-source-line="44" data-uid="lnk41" id="link_Limpieza_Inventario"><path d="M284.77,1059.3569 C272.97,1078.3669 258.7647,1101.2294 240.6547,1130.3994" fill="none" id="Limpieza-to-Inventario" style="stroke:#181818;stroke-width:1;"/><polygon fill="#181818" points="237.49,1135.4969,245.6354,1129.9605,240.1273,1131.249,238.8388,1125.7408,237.49,1135.4969" style="stroke:#181818;stroke-width:1;"/><text fill="#000000" font-family="sans-serif" font-size="13" lengthAdjust="spacing" textLength="76.521" x="265.97" y="1101.9538">limpieza_ok</text></g><!--link Inventario to Cerrada--><g class="link" data-entity-1="Inventario" data-entity-2="Cerrada" data-source-line="53" data-uid="lnk50" id="link_Inventario_Cerrada"><path d="M204.63,1393.4469 C211.59,1409.4269 219.09,1425.3569 226.97,1440.1869 C232.36,1450.3269 235.7929,1455.963 242.1729,1465.013" fill="none" id="Inventario-to-Cerrada" style="stroke:#181818;stroke-width:1;"/><polygon fill="#181818" points="245.63,1469.9169,243.7136,1460.2563,242.7491,1465.8303,237.175,1464.8658,245.63,1469.9169" style="stroke:#181818;stroke-width:1;"/><text fill="#000000" font-family="sans-serif" font-size="13" lengthAdjust="spacing" textLength="65.5078" x="227.97" y="1436.2538">fin_de_dia</text></g><!--SRC=[TLHBZXCn4DttARpZ8-K2MI111YGa92A6tIYoAjsLJCrqsutjpW8q4eVW6fo2ct0Igbpkn3t3P17PLQ-UN_qwKUhHN14S0mnWEZGO4tG-chy_VvaD731X-FCRckRczSwiLc_C1aE0ZWtba8rlHmnf2c3MvjO7i53kpTaXgCzyWKGdWIK82F4CjFv-YPtPruPSIntoNqNRiCY45U6FnfXPuJM64xNa6xRDv-pOmXI5iSFOWelUZi7dl3lFKFNM10mzaBCpNFXUhFXt0RpKQfdM3-F4Py_SlM69phyo0kKGbNeE4QKNhL_z0AxpM-o8YzvatzAcoWEE4CJAciRii2qNaEyt_6fxp_NRFHVyOU8gNU6ru9uB9nUd0-j3bt2dCXPXJxKoauQoj9owHccsbLxDzvBnE-36cl9RcptkgODOGEhC_VSjELY2R4zCFsCBGi2VI4glM6u5OnMQaGygh98a8UzT2dWi5QM4Wx9xPLV29KvfgZYLkGzLJr2zUPvCSVwtT2CSkGNU7IYKyNjuCguRuXt0BGGU_RxCOYm0EwgPOvQmH_FBJTu72bQshU4dBXjpUM5UsZRVUB7LgeKTHiBliZJgjItSvMKzUmJsqPquSmZvoRvu15NsjFBNYxgvnMyJIlBbbArVSFHHv3lfFDnvc-UCKPMd2izPpWvvT4adZyb7P5OW22v49MdvkT6Djnt1Fm00]--></g></svg>