<?xml version="1.0" encoding="us-ascii" standalone="no"?><svg xmlns="http://www.w3.org/2000/svg" xmlns:xlink="http://www.w3.org/1999/xlink" contentStyleType="text/css" height="516px" preserveAspectRatio="none" style="width:748px;height:516px;background:#FFFFFF;" version="1.1" viewBox="0 0 748 516" width="748px" zoomAndPan="magnify"><defs/><g><text fill="#000000" font-family="sans-serif" font-size="14" font-weight="bold" lengthAdjust="spacing" textLength="215" x="259.5" y="24.5332">Diagrama de Clases - Cafeter&#237;a</text><!--cluster Inventario--><g id="cluster_Inventario"><path d="M8.5,157.6094 L81.5,157.6094 A3.75,3.75 0 0 1 84,160.1094 L91,181.2188 L361.5,181.2188 A2.5,2.5 0 0 1 364,183.7188 L364,507.1094 A2.5,2.5 0 0 1 361.5,509.6094 L8.5,509.6094 A2.5,2.5 0 0 1 6,507.1094 L6,160.1094 A2.5,2.5 0 0 1 8.5,157.6094 " fill="none" style="stroke:#000000;stroke-width:1.5;"/><line style="stroke:#000000;stroke-width:1.5;" x1="6" x2="91" y1="181.2188" y2="181.2188"/><text fill="#000000" font-family="sans-serif" font-size="14" font-weight="bold" lengthAdjust="spacing" textLength="72" x="10" y="174.1426">Inventario</text></g><!--class Inventario--><g id="elem_Inventario"><rect codeLine="8" fill="#F1F1F1" height="48" id="Inventario" rx="2.5" ry="2.5" style="stroke:#181818;stroke-width:0.5;" width="94" x="230" y="193.6094"/><ellipse cx="245" cy="209.6094" fill="#ADD1B2" rx="11" ry="11" style="stroke:#181818;stroke-width:1.0;"/><path d="M247.7656,205.4844 Q247.9219,205.2656 248.1094,205.1563 Q248.2969,205.0469 248.5156,205.0469 Q248.8906,205.0469 249.125,205.3125 Q249.3594,205.5625 249.3594,206.1719 L249.3594,207.625 Q249.3594,208.2344 249.125,208.5 Q248.8906,208.7656 248.5156,208.7656 Q248.1719,208.7656 247.9688,208.5625 Q247.7656,208.375 247.6563,207.8594 Q247.6094,207.5 247.4219,207.3125 Q247.0938,206.9375 246.4844,206.7188 Q245.875,206.5 245.25,206.5 Q244.4844,206.5 243.8438,206.8281 Q243.2188,207.1563 242.7188,207.9063 Q242.2344,208.6563 242.2344,209.6875 L242.2344,210.7813 Q242.2344,212.0156 243.125,212.8438 Q244.0156,213.6563 245.6094,213.6563 Q246.5469,213.6563 247.2031,213.4063 Q247.5938,213.25 248.0156,212.8125 Q248.2813,212.5469 248.4219,212.4688 Q248.5781,212.3906 248.7813,212.3906 Q249.1094,212.3906 249.3594,212.6563 Q249.625,212.9063 249.625,213.25 Q249.625,213.5938 249.2813,214 Q248.7813,214.5781 247.9844,214.9063 Q246.9063,215.3594 245.6094,215.3594 Q244.0938,215.3594 242.8906,214.7344 Q241.9063,214.2344 241.2188,213.1719 Q240.5313,212.0938 240.5313,210.8125 L240.5313,209.6563 Q240.5313,208.3281 241.1406,207.1875 Q241.7656,206.0313 242.8594,205.4219 Q243.9531,204.7969 245.1875,204.7969 Q245.9219,204.7969 246.5625,204.9688 Q247.2188,205.125 247.7656,205.4844 Z " fill="#000000"/><text fill="#000000" font-family="sans-serif" font-size="14" lengthAdjust="spacing" textLength="62" x="259" y="215.3379">Inventario</text><line style="stroke:#181818;stroke-width:0.5;" x1="231" x2="323" y1="225.6094" y2="225.6094"/><line style="stroke:#181818;stroke-width:0.5;" x1="231" x2="323" y1="233.6094" y2="233.6094"/></g><!--class Categoria--><g id="elem_Categoria"><rect codeLine="11" fill="#F1F1F1" height="48" id="Categoria" rx="2.5" ry="2.5" style="stroke:#181818;stroke-width:0.5;" width="94" x="22" y="319.6094"/><ellipse cx="37" cy="335.6094" fill="#ADD1B2" rx="11" ry="11" style="stroke:#181818;stroke-width:1.0;"/><path d="M39.7656,331.4844 Q39.9219,331.2656 40.1094,331.1563 Q40.2969,331.0469 40.5156,331.0469 Q40.8906,331.0469 41.125,331.3125 Q41.3594,331.5625 41.3594,332.1719 L41.3594,333.625 Q41.3594,334.2344 41.125,334.5 Q40.8906,334.7656 40.5156,334.7656 Q40.1719,334.7656 39.9688,334.5625 Q39.7656,334.375 39.6563,333.8594 Q39.6094,333.5 39.4219,333.3125 Q39.0938,332.9375 38.4844,332.7188 Q37.875,332.5 37.25,332.5 Q36.4844,332.5 35.8438,332.8281 Q35.2188,333.1563 34.7188,333.9063 Q34.2344,334.6563 34.2344,335.6875 L34.2344,336.7813 Q34.2344,338.0156 35.125,338.8438 Q36.0156,339.6563 37.6094,339.6563 Q38.5469,339.6563 39.2031,339.4063 Q39.5938,339.25 40.0156,338.8125 Q40.2813,338.5469 40.4219,338.4688 Q40.5781,338.3906 40.7813,338.3906 Q41.1094,338.3906 41.3594,338.6563 Q41.625,338.9063 41.625,339.25 Q41.625,339.5938 41.2813,340 Q40.7813,340.5781 39.9844,340.9063 Q38.9063,341.3594 37.6094,341.3594 Q36.0938,341.3594 34.8906,340.7344 Q33.9063,340.2344 33.2188,339.1719 Q32.5313,338.0938 32.5313,336.8125 L32.5313,335.6563 Q32.5313,334.3281 33.1406,333.1875 Q33.7656,332.0313 34.8594,331.4219 Q35.9531,330.7969 37.1875,330.7969 Q37.9219,330.7969 38.5625,330.9688 Q39.2188,331.125 39.7656,331.4844 Z " fill="#000000"/><text fill="#000000" font-family="sans-serif" font-size="14" lengthAdjust="spacing" textLength="62" x="51" y="341.3379">Categoria</text><line style="stroke:#181818;stroke-width:0.5;" x1="23" x2="115" y1="351.6094" y2="351.6094"/><line style="stroke:#181818;stroke-width:0.5;" x1="23" x2="115" y1="359.6094" y2="359.6094"/></g><!--class Producto--><g id="elem_Producto"><rect codeLine="14" fill="#F1F1F1" height="48" id="Producto" rx="2.5" ry="2.5" style="stroke:#181818;stroke-width:0.5;" width="89" x="258.5" y="445.6094"/><ellipse cx="273.5" cy="461.6094" fill="#ADD1B2" rx="11" ry="11" style="stroke:#181818;stroke-width:1.0;"/><path d="M276.2656,457.4844 Q276.4219,457.2656 276.6094,457.1563 Q276.7969,457.0469 277.0156,457.0469 Q277.3906,457.0469 277.625,457.3125 Q277.8594,457.5625 277.8594,458.1719 L277.8594,459.625 Q277.8594,460.2344 277.625,460.5 Q277.3906,460.7656 277.0156,460.7656 Q276.6719,460.7656 276.4688,460.5625 Q276.2656,460.375 276.1563,459.8594 Q276.1094,459.5 275.9219,459.3125 Q275.5938,458.9375 274.9844,458.7188 Q274.375,458.5 273.75,458.5 Q272.9844,458.5 272.3438,458.8281 Q271.7188,459.1563 271.2188,459.9063 Q270.7344,460.6563 270.7344,461.6875 L270.7344,462.7813 Q270.7344,464.0156 271.625,464.8438 Q272.5156,465.6563 274.1094,465.6563 Q275.0469,465.6563 275.7031,465.4063 Q276.0938,465.25 276.5156,464.8125 Q276.7813,464.5469 276.9219,464.4688 Q277.0781,464.3906 277.2813,464.3906 Q277.6094,464.3906 277.8594,464.6563 Q278.125,464.9063 278.125,465.25 Q278.125,465.5938 277.7813,466 Q277.2813,466.5781 276.4844,466.9063 Q275.4063,467.3594 274.1094,467.3594 Q272.5938,467.3594 271.3906,466.7344 Q270.4063,466.2344 269.7188,465.1719 Q269.0313,464.0938 269.0313,462.8125 L269.0313,461.6563 Q269.0313,460.3281 269.6406,459.1875 Q270.2656,458.0313 271.3594,457.4219 Q272.4531,456.7969 273.6875,456.7969 Q274.4219,456.7969 275.0625,456.9688 Q275.7188,457.125 276.2656,457.4844 Z " fill="#000000"/><text fill="#000000" font-family="sans-serif" font-size="14" lengthAdjust="spacing" textLength="57" x="287.5" y="467.3379">Producto</text><line style="stroke:#181818;stroke-width:0.5;" x1="259.5" x2="346.5" y1="477.6094" y2="477.6094"/><line style="stroke:#181818;stroke-width:0.5;" x1="259.5" x2="346.5" y1="485.6094" y2="485.6094"/></g><!--class Pedido--><g id="elem_Pedido"><rect codeLine="17" fill="#F1F1F1" height="48" id="Pedido" rx="2.5" ry="2.5" style="stroke:#181818;stroke-width:0.5;" width="76" x="272" y="319.6094"/><ellipse cx="287" cy="335.6094" fill="#ADD1B2" rx="11" ry="11" style="stroke:#181818;stroke-width:1.0;"/><path d="M289.7656,331.4844 Q289.9219,331.2656 290.1094,331.1563 Q290.2969,331.0469 290.5156,331.0469 Q290.8906,331.0469 291.125,331.3125 Q291.3594,331.5625 291.3594,332.1719 L291.3594,333.625 Q291.3594,334.2344 291.125,334.5 Q290.8906,334.7656 290.5156,334.7656 Q290.1719,334.7656 289.9688,334.5625 Q289.7656,334.375 289.6563,333.8594 Q289.6094,333.5 289.4219,333.3125 Q289.0938,332.9375 288.4844,332.7188 Q287.875,332.5 287.25,332.5 Q286.4844,332.5 285.8438,332.8281 Q285.2188,333.1563 284.7188,333.9063 Q284.2344,334.6563 284.2344,335.6875 L284.2344,336.7813 Q284.2344,338.0156 285.125,338.8438 Q286.0156,339.6563 287.6094,339.6563 Q288.5469,339.6563 289.2031,339.4063 Q289.5938,339.25 290.0156,338.8125 Q290.2813,338.5469 290.4219,338.4688 Q290.5781,338.3906 290.7813,338.3906 Q291.1094,338.3906 291.3594,338.6563 Q291.625,338.9063 291.625,339.25 Q291.625,339.5938 291.2813,340 Q290.7813,340.5781 289.9844,340.9063 Q288.9063,341.3594 287.6094,341.3594 Q286.0938,341.3594 284.8906,340.7344 Q283.9063,340.2344 283.2188,339.1719 Q282.5313,338.0938 282.5313,336.8125 L282.5313,335.6563 Q282.5313,334.3281 283.1406,333.1875 Q283.7656,332.0313 284.8594,331.4219 Q285.9531,330.7969 287.1875,330.7969 Q287.9219,330.7969 288.5625,330.9688 Q289.2188,331.125 289.7656,331.4844 Z " fill="#000000"/><text fill="#000000" font-family="sans-serif" font-size="14" lengthAdjust="spacing" textLength="44" x="301" y="341.3379">Pedido</text><line style="stroke:#181818;stroke-width:0.5;" x1="273" x2="347" y1="351.6094" y2="351.6094"/><line style="stroke:#181818;stroke-width:0.5;" x1="273" x2="347" y1="359.6094" y2="359.6094"/></g><!--class Cafeteria--><g id="elem_Cafeteria"><rect codeLine="4" fill="#F1F1F1" height="48" id="Cafeteria" rx="2.5" ry="2.5" style="stroke:#181818;stroke-width:0.5;" width="90" x="512" y="45.6094"/><ellipse cx="527" cy="61.6094" fill="#ADD1B2" rx="11" ry="11" style="stroke:#181818;stroke-width:1.0;"/><path d="M529.7656,57.4844 Q529.9219,57.2656 530.1094,57.1563 Q530.2969,57.0469 530.5156,57.0469 Q530.8906,57.0469 531.125,57.3125 Q531.3594,57.5625 531.3594,58.1719 L531.3594,59.625 Q531.3594,60.2344 531.125,60.5 Q530.8906,60.7656 530.5156,60.7656 Q530.1719,60.7656 529.9688,60.5625 Q529.7656,60.375 529.6563,59.8594 Q529.6094,59.5 529.4219,59.3125 Q529.0938,58.9375 528.4844,58.7188 Q527.875,58.5 527.25,58.5 Q526.4844,58.5 525.8438,58.8281 Q525.2188,59.1563 524.7188,59.9063 Q524.2344,60.6563 524.2344,61.6875 L524.2344,62.7813 Q524.2344,64.0156 525.125,64.8438 Q526.0156,65.6563 527.6094,65.6563 Q528.5469,65.6563 529.2031,65.4063 Q529.5938,65.25 530.0156,64.8125 Q530.2813,64.5469 530.4219,64.4688 Q530.5781,64.3906 530.7813,64.3906 Q531.1094,64.3906 531.3594,64.6563 Q531.625,64.9063 531.625,65.25 Q531.625,65.5938 531.2813,66 Q530.7813,66.5781 529.9844,66.9063 Q528.9063,67.3594 527.6094,67.3594 Q526.0938,67.3594 524.8906,66.7344 Q523.9063,66.2344 523.2188,65.1719 Q522.5313,64.0938 522.5313,62.8125 L522.5313,61.6563 Q522.5313,60.3281 523.1406,59.1875 Q523.7656,58.0313 524.8594,57.4219 Q525.9531,56.7969 527.1875,56.7969 Q527.9219,56.7969 528.5625,56.9688 Q529.2188,57.125 529.7656,57.4844 Z " fill="#000000"/><text fill="#000000" font-family="sans-serif" font-size="14" lengthAdjust="spacing" textLength="58" x="541" y="67.3379">Cafeteria</text><line style="stroke:#181818;stroke-width:0.5;" x1="513" x2="601" y1="77.6094" y2="77.6094"/><line style="stroke:#181818;stroke-width:0.5;" x1="513" x2="601" y1="85.6094" y2="85.6094"/></g><!--class Proveedor--><g id="elem_Proveedor"><rect codeLine="28" fill="#F1F1F1" height="48" id="Proveedor" rx="2.5" ry="2.5" style="stroke:#181818;stroke-width:0.5;" width="98" x="380" y="193.6094"/><ellipse cx="395" cy="209.6094" fill="#ADD1B2" rx="11" ry="11" style="stroke:#181818;stroke-width:1.0;"/><path d="M397.7656,205.4844 Q397.9219,205.2656 398.1094,205.1563 Q398.2969,205.0469 398.5156,205.0469 Q398.8906,205.0469 399.125,205.3125 Q399.3594,205.5625 399.3594,206.1719 L399.3594,207.625 Q399.3594,208.2344 399.125,208.5 Q398.8906,208.7656 398.5156,208.7656 Q398.1719,208.7656 397.9688,208.5625 Q397.7656,208.375 397.6563,207.8594 Q397.6094,207.5 397.4219,207.3125 Q397.0938,206.9375 396.4844,206.7188 Q395.875,206.5 395.25,206.5 Q394.4844,206.5 393.8438,206.8281 Q393.2188,207.1563 392.7188,207.9063 Q392.2344,208.6563 392.2344,209.6875 L392.2344,210.7813 Q392.2344,212.0156 393.125,212.8438 Q394.0156,213.6563 395.6094,213.6563 Q396.5469,213.6563 397.2031,213.4063 Q397.5938,213.25 398.0156,212.8125 Q398.2813,212.5469 398.4219,212.4688 Q398.5781,212.3906 398.7813,212.3906 Q399.1094,212.3906 399.3594,212.6563 Q399.625,212.9063 399.625,213.25 Q399.625,213.5938 399.2813,214 Q398.7813,214.5781 397.9844,214.9063 Q396.9063,215.3594 395.6094,215.3594 Q394.0938,215.3594 392.8906,214.7344 Q391.9063,214.2344 391.2188,213.1719 Q390.5313,212.0938 390.5313,210.8125 L390.5313,209.6563 Q390.5313,208.3281 391.1406,207.1875 Q391.7656,206.0313 392.8594,205.4219 Q393.9531,204.7969 395.1875,204.7969 Q395.9219,204.7969 396.5625,204.9688 Q397.2188,205.125 397.7656,205.4844 Z " fill="#000000"/><text fill="#000000" font-family="sans-serif" font-size="14" lengthAdjust="spacing" textLength="66" x="409" y="215.3379">Proveedor</text><line style="stroke:#181818;stroke-width:0.5;" x1="381" x2="477" y1="225.6094" y2="225.6094"/><line style="stroke:#181818;stroke-width:0.5;" x1="381" x2="477" y1="233.6094" y2="233.6094"/></g><!--class Presupuesto--><g id="elem_Presupuesto"><rect codeLine="40" fill="#F1F1F1" height="48" id="Presupuesto" rx="2.5" ry="2.5" style="stroke:#181818;stroke-width:0.5;" width="112" x="515" y="319.6094"/><ellipse cx="530" cy="335.6094" fill="#ADD1B2" rx="11" ry="11" style="stroke:#181818;stroke-width:1.0;"/><path d="M532.7656,331.4844 Q532.9219,331.2656 533.1094,331.1563 Q533.2969,331.0469 533.5156,331.0469 Q533.8906,331.0469 534.125,331.3125 Q534.3594,331.5625 534.3594,332.1719 L534.3594,333.625 Q534.3594,334.2344 534.125,334.5 Q533.8906,334.7656 533.5156,334.7656 Q533.1719,334.7656 532.9688,334.5625 Q532.7656,334.375 532.6563,333.8594 Q532.6094,333.5 532.4219,333.3125 Q532.0938,332.9375 531.4844,332.7188 Q530.875,332.5 530.25,332.5 Q529.4844,332.5 528.8438,332.8281 Q528.2188,333.1563 527.7188,333.9063 Q527.2344,334.6563 527.2344,335.6875 L527.2344,336.7813 Q527.2344,338.0156 528.125,338.8438 Q529.0156,339.6563 530.6094,339.6563 Q531.5469,339.6563 532.2031,339.4063 Q532.5938,339.25 533.0156,338.8125 Q533.2813,338.5469 533.4219,338.4688 Q533.5781,338.3906 533.7813,338.3906 Q534.1094,338.3906 534.3594,338.6563 Q534.625,338.9063 534.625,339.25 Q534.625,339.5938 534.2813,340 Q533.7813,340.5781 532.9844,340.9063 Q531.9063,341.3594 530.6094,341.3594 Q529.0938,341.3594 527.8906,340.7344 Q526.9063,340.2344 526.2188,339.1719 Q525.5313,338.0938 525.5313,336.8125 L525.5313,335.6563 Q525.5313,334.3281 526.1406,333.1875 Q526.7656,332.0313 527.8594,331.4219 Q528.9531,330.7969 530.1875,330.7969 Q530.9219,330.7969 531.5625,330.9688 Q532.2188,331.125 532.7656,331.4844 Z " fill="#000000"/><text fill="#000000" font-family="sans-serif" font-size="14" lengthAdjust="spacing" textLength="80" x="544" y="341.3379">Presupuesto</text><line style="stroke:#181818;stroke-width:0.5;" x1="516" x2="626" y1="351.6094" y2="351.6094"/><line style="stroke:#181818;stroke-width:0.5;" x1="516" x2="626" y1="359.6094" y2="359.6094"/></g><!--class Menu--><g id="elem_Menu"><rect codeLine="36" fill="#F1F1F1" height="48" id="Menu" rx="2.5" ry="2.5" style="stroke:#181818;stroke-width:0.5;" width="67" x="643.5" y="193.6094"/><ellipse cx="658.5" cy="209.6094" fill="#ADD1B2" rx="11" ry="11" style="stroke:#181818;stroke-width:1.0;"/><path d="M661.2656,205.4844 Q661.4219,205.2656 661.6094,205.1563 Q661.7969,205.0469 662.0156,205.0469 Q662.3906,205.0469 662.625,205.3125 Q662.8594,205.5625 662.8594,206.1719 L662.8594,207.625 Q662.8594,208.2344 662.625,208.5 Q662.3906,208.7656 662.0156,208.7656 Q661.6719,208.7656 661.4688,208.5625 Q661.2656,208.375 661.1563,207.8594 Q661.1094,207.5 660.9219,207.3125 Q660.5938,206.9375 659.9844,206.7188 Q659.375,206.5 658.75,206.5 Q657.9844,206.5 657.3438,206.8281 Q656.7188,207.1563 656.2188,207.9063 Q655.7344,208.6563 655.7344,209.6875 L655.7344,210.7813 Q655.7344,212.0156 656.625,212.8438 Q657.5156,213.6563 659.1094,213.6563 Q660.0469,213.6563 660.7031,213.4063 Q661.0938,213.25 661.5156,212.8125 Q661.7813,212.5469 661.9219,212.4688 Q662.0781,212.3906 662.2813,212.3906 Q662.6094,212.3906 662.8594,212.6563 Q663.125,212.9063 663.125,213.25 Q663.125,213.5938 662.7813,214 Q662.2813,214.5781 661.4844,214.9063 Q660.4063,215.3594 659.1094,215.3594 Q657.5938,215.3594 656.3906,214.7344 Q655.4063,214.2344 654.7188,213.1719 Q654.0313,212.0938 654.0313,210.8125 L654.0313,209.6563 Q654.0313,208.3281 654.6406,207.1875 Q655.2656,206.0313 656.3594,205.4219 Q657.4531,204.7969 658.6875,204.7969 Q659.4219,204.7969 660.0625,204.9688 Q660.7188,205.125 661.2656,205.4844 Z " fill="#000000"/><text fill="#000000" font-family="sans-serif" font-size="14" lengthAdjust="spacing" textLength="35" x="672.5" y="215.3379">Menu</text><line style="stroke:#181818;stroke-width:0.5;" x1="644.5" x2="709.5" y1="225.6094" y2="225.6094"/><line style="stroke:#181818;stroke-width:0.5;" x1="644.5" x2="709.5" y1="233.6094" y2="233.6094"/></g><!--class Receta--><g id="elem_Receta"><rect codeLine="46" fill="#F1F1F1" height="48" id="Receta" rx="2.5" ry="2.5" style="stroke:#181818;stroke-width:0.5;" width="77" x="662.5" y="319.6094"/><ellipse cx="677.5" cy="335.6094" fill="#ADD1B2" rx="11" ry="11" style="stroke:#181818;stroke-width:1.0;"/><path d="M680.2656,331.4844 Q680.4219,331.2656 680.6094,331.1563 Q680.7969,331.0469 681.0156,331.0469 Q681.3906,331.0469 681.625,331.3125 Q681.8594,331.5625 681.8594,332.1719 L681.8594,333.625 Q681.8594,334.2344 681.625,334.5 Q681.3906,334.7656 681.0156,334.7656 Q680.6719,334.7656 680.4688,334.5625 Q680.2656,334.375 680.1563,333.8594 Q680.1094,333.5 679.9219,333.3125 Q679.5938,332.9375 678.9844,332.7188 Q678.375,332.5 677.75,332.5 Q676.9844,332.5 676.3438,332.8281 Q675.7188,333.1563 675.2188,333.9063 Q674.7344,334.6563 674.7344,335.6875 L674.7344,336.7813 Q674.7344,338.0156 675.625,338.8438 Q676.5156,339.6563 678.1094,339.6563 Q679.0469,339.6563 679.7031,339.4063 Q680.0938,339.25 680.5156,338.8125 Q680.7813,338.5469 680.9219,338.4688 Q681.0781,338.3906 681.2813,338.3906 Q681.6094,338.3906 681.8594,338.6563 Q682.125,338.9063 682.125,339.25 Q682.125,339.5938 681.7813,340 Q681.2813,340.5781 680.4844,340.9063 Q679.4063,341.3594 678.1094,341.3594 Q676.5938,341.3594 675.3906,340.7344 Q674.4063,340.2344 673.7188,339.1719 Q673.0313,338.0938 673.0313,336.8125 L673.0313,335.6563 Q673.0313,334.3281 673.6406,333.1875 Q674.2656,332.0313 675.3594,331.4219 Q676.4531,330.7969 677.6875,330.7969 Q678.4219,330.7969 679.0625,330.9688 Q679.7188,331.125 680.2656,331.4844 Z " fill="#000000"/><text fill="#000000" font-family="sans-serif" font-size="14" lengthAdjust="spacing" textLength="45" x="691.5" y="341.3379">Receta</text><line style="stroke:#181818;stroke-width:0.5;" x1="663.5" x2="738.5" y1="351.6094" y2="351.6094"/><line style="stroke:#181818;stroke-width:0.5;" x1="663.5" x2="738.5" y1="359.6094" y2="359.6094"/></g><!--reverse link Cafeteria to Inventario--><g id="link_Cafeteria_Inventario"><path codeLine="20" d="M500.4854,88.9017 C460.0954,102.7117 411.32,121.6694 363,149.6094 C341.37,162.1194 319.18,179.5394 302.76,193.4794 " fill="none" id="Cafeteria-backto-Inventario" style="stroke:#181818;stroke-width:1.0;"/><polygon fill="#181818" points="511.84,85.0194,504.8686,83.1757,500.4854,88.9017,507.4568,90.7454,511.84,85.0194" style="stroke:#181818;stroke-width:1.0;"/><text fill="#000000" font-family="sans-serif" font-size="13" lengthAdjust="spacing" textLength="49" x="409" y="138.1045">contiene</text></g><!--reverse link Categoria to Producto--><g id="link_Categoria_Producto"><path codeLine="21" d="M89.8041,377.7617 C100.3741,393.3517 109.44,403.2894 128,415.6094 C167.68,441.9294 220.94,455.6094 258.25,462.4094 " fill="none" id="Categoria-backto-Producto" style="stroke:#181818;stroke-width:1.0;"/><polygon fill="none" points="83.07,367.8294,83.1263,375.0403,89.8041,377.7617,89.7478,370.5508,83.07,367.8294" style="stroke:#181818;stroke-width:1.0;"/><text fill="#000000" font-family="sans-serif" font-size="13" lengthAdjust="spacing" textLength="47" x="129" y="412.1045">clasifica</text></g><!--link Inventario to Producto--><g id="link_Inventario_Producto"><path codeLine="22" d="M252.29,241.6494 C224.43,270.5494 185.32,321.8694 204,367.6094 C217.18,399.8894 246.2,427.4294 269.43,445.5594 " fill="none" id="Inventario-Producto" style="stroke:#181818;stroke-width:1.0;"/><text fill="#000000" font-family="sans-serif" font-size="13" lengthAdjust="spacing" textLength="49" x="205" y="349.1045">contiene</text></g><!--link Inventario to Pedido--><g id="link_Inventario_Pedido"><path codeLine="23" d="M272.15,241.8094 C270.15,255.9294 269.25,274.1594 274,289.6094 C277.27,300.2394 279.9559,305.7934 286.3059,314.5434 " fill="none" id="Inventario-to-Pedido" style="stroke:#181818;stroke-width:1.0;"/><polygon fill="#181818" points="289.83,319.3994,287.7812,309.766,286.8933,315.3527,281.3065,314.4647,289.83,319.3994" style="stroke:#181818;stroke-width:1.0;"/><text fill="#000000" font-family="sans-serif" font-size="13" lengthAdjust="spacing" textLength="39" x="275" y="286.1045">genera</text></g><!--link Pedido to Producto--><g id="link_Pedido_Producto"><path codeLine="24" d="M308.7,367.6394 C307.45,389.7794 305.9068,417.0588 304.6568,439.2888 " fill="none" id="Pedido-to-Producto" style="stroke:#181818;stroke-width:1.0;"/><polygon fill="#181818" points="304.32,445.2794,308.819,436.5181,304.6007,440.2873,300.8316,436.069,304.32,445.2794" style="stroke:#181818;stroke-width:1.0;"/><text fill="#000000" font-family="sans-serif" font-size="13" lengthAdjust="spacing" textLength="41" x="307" y="412.1045">incluye</text></g><!--link Proveedor to Pedido--><g id="link_Proveedor_Pedido"><path codeLine="31" d="M391,241.6594 C378.7,250.1594 365.53,260.4694 355,271.6094 C341.57,285.8194 332.7687,299.356 324.6687,314.036 " fill="none" id="Proveedor-to-Pedido" style="stroke:#181818;stroke-width:1.0;"/><polygon fill="#181818" points="321.77,319.2894,329.6202,313.3418,324.1855,314.9116,322.6157,309.4769,321.77,319.2894" style="stroke:#181818;stroke-width:1.0;"/><text fill="#000000" font-family="sans-serif" font-size="13" lengthAdjust="spacing" textLength="35" x="356" y="286.1045">recibe</text></g><!--link Proveedor to Producto--><g id="link_Proveedor_Producto"><path codeLine="32" d="M424.1,241.6594 C415.19,280.0594 393.79,358.5294 357,415.6094 C349.95,426.5394 344.6535,432.8318 335.4435,441.4818 " fill="none" id="Proveedor-to-Producto" style="stroke:#181818;stroke-width:1.0;"/><polygon fill="#181818" points="331.07,445.5894,340.3687,442.3437,334.7146,442.1664,334.8919,436.5123,331.07,445.5894" style="stroke:#181818;stroke-width:1.0;"/><text fill="#000000" font-family="sans-serif" font-size="13" lengthAdjust="spacing" textLength="60" x="402" y="349.1045">suministra</text></g><!--link Proveedor to Presupuesto--><g id="link_Proveedor_Presupuesto"><path codeLine="33" d="M447.99,241.9294 C460.34,256.4194 477.23,275.0194 494,289.6094 C506.24,300.2594 515.6859,307.3388 528.7259,316.0788 " fill="none" id="Proveedor-to-Presupuesto" style="stroke:#181818;stroke-width:1.0;"/><polygon fill="#181818" points="533.71,319.4194,528.4609,311.0859,529.5566,316.6356,524.0069,317.7313,533.71,319.4194" style="stroke:#181818;stroke-width:1.0;"/><text fill="#000000" font-family="sans-serif" font-size="13" lengthAdjust="spacing" textLength="35" x="495" y="286.1045">ajusta</text></g><!--link Menu to Presupuesto--><g id="link_Menu_Presupuesto"><path codeLine="42" d="M657.31,241.6394 C638.39,263.7794 613.8495,292.4893 594.8395,314.7193 " fill="none" id="Menu-to-Presupuesto" style="stroke:#181818;stroke-width:1.0;"/><polygon fill="#181818" points="590.94,319.2794,599.8293,315.039,594.1896,315.4794,593.7492,309.8397,590.94,319.2794" style="stroke:#181818;stroke-width:1.0;"/><text fill="#000000" font-family="sans-serif" font-size="13" lengthAdjust="spacing" textLength="35" x="631" y="286.1045">ajusta</text></g><!--reverse link Cafeteria to Presupuesto--><g id="link_Cafeteria_Presupuesto"><path codeLine="43" d="M558.808,105.7835 C561.458,157.1735 567.17,268.1394 569.81,319.4794 " fill="none" id="Cafeteria-backto-Presupuesto" style="stroke:#181818;stroke-width:1.0;"/><polygon fill="#181818" points="558.19,93.7994,554.5043,99.9974,558.808,105.7835,562.4937,99.5854,558.19,93.7994" style="stroke:#181818;stroke-width:1.0;"/><text fill="#000000" font-family="sans-serif" font-size="13" lengthAdjust="spacing" textLength="49" x="566" y="223.1045">gestiona</text></g><!--reverse link Cafeteria to Menu--><g id="link_Cafeteria_Menu"><path codeLine="49" d="M583.6293,103.0101 C606.0993,130.3501 635.64,166.2894 658.07,193.5794 " fill="none" id="Cafeteria-backto-Menu" style="stroke:#181818;stroke-width:1.0;"/><polygon fill="#181818" points="576.01,93.7394,576.7294,100.9145,583.6293,103.0101,582.9099,95.8349,576.01,93.7394" style="stroke:#181818;stroke-width:1.0;"/><text fill="#000000" font-family="sans-serif" font-size="13" lengthAdjust="spacing" textLength="35" x="614" y="138.1045">ofrece</text></g><!--reverse link Menu to Receta--><g id="link_Menu_Receta"><path codeLine="50" d="M683.7376,253.4212 C688.0176,275.5612 692.18,297.0494 696.48,319.2794 " fill="none" id="Menu-backto-Receta" style="stroke:#181818;stroke-width:1.0;"/><polygon fill="#181818" points="681.46,241.6394,678.6715,248.2895,683.7376,253.4212,686.5261,246.7711,681.46,241.6394" style="stroke:#181818;stroke-width:1.0;"/><text fill="#000000" font-family="sans-serif" font-size="13" lengthAdjust="spacing" textLength="49" x="691" y="286.1045">contiene</text></g><!--link Receta to Producto--><g id="link_Receta_Producto"><path codeLine="51" d="M662.34,361.0894 C656.56,363.3794 650.65,365.6194 645,367.6094 C539.88,404.6094 419.3091,437.9699 353.5391,455.4299 " fill="none" id="Receta-to-Producto" style="stroke:#181818;stroke-width:1.0;"/><polygon fill="#181818" points="347.74,456.9694,357.465,458.5262,352.5726,455.6865,355.4124,450.794,347.74,456.9694" style="stroke:#181818;stroke-width:1.0;"/><text fill="#000000" font-family="sans-serif" font-size="13" lengthAdjust="spacing" textLength="34" x="553" y="412.1045">utiliza</text></g><!--SRC=[TL9BJiCm4Dtx5ACkaNA1BDY43GkaYXiCpYGQIEtAdqe5zKWz1HV3TfpO2P2DfVVUl3UVE7OJmHFZQF24q1Dq4rgoq4270paottSKGWRGBWWZV8cR46UK7pWI79xLXPH3m_eG60ZVh2zuXaDHOJjqDEhPxHTvDBhtqlrPUAIU-nrJMdjecZgu1QcLOrAKTKiew20iEMqovu4b9c5b0NjXRLZfckOHbkPQ68F2p5uPYtnbmqfE_afnas8T-aBKQvFs6oj5WLBrOcv8yXljsU9j_OaLMnSQs6l8-hCdcsJuxgt3DV-5b9zFkpPKr15FWdzjjZVOIiRmibObwvKakVmZRGldDbhGGvYIqXOI4hbSLTqW8xlvlUE9FsFQ3m00]--></g></svg>