<?xml version="1.0" encoding="us-ascii" standalone="no"?><svg xmlns="http://www.w3.org/2000/svg" xmlns:xlink="http://www.w3.org/1999/xlink" contentStyleType="text/css" height="1444px" preserveAspectRatio="none" style="width:778px;height:1444px;background:#FFFFFF;" version="1.1" viewBox="0 0 778 1444" width="778px" zoomAndPan="magnify"><defs/><g><text fill="#000000" font-family="sans-serif" font-size="14" font-weight="bold" lengthAdjust="spacing" textLength="283" x="237.5" y="24.5332">Diagrama de Estados - Gesti&#243;n Cafeter&#237;a</text><ellipse cx="360" cy="54.6094" fill="#222222" rx="10" ry="10" style="stroke:#222222;stroke-width:1.0;"/><path d="M215.5,142.6094 L504.5,142.6094 A12.5,12.5 0 0 1 517,155.1094 L517,170.2188 L203,170.2188 L203,155.1094 A12.5,12.5 0 0 1 215.5,142.6094 " fill="#F1F1F1" style="stroke:#F1F1F1;stroke-width:1.0;"/><rect fill="none" height="215.6094" rx="12.5" ry="12.5" style="stroke:#181818;stroke-width:0.5;" width="314" x="203" y="142.6094"/><line style="stroke:#181818;stroke-width:0.5;" x1="203" x2="517" y1="170.2188" y2="170.2188"/><text fill="#000000" font-family="sans-serif" font-size="14" lengthAdjust="spacing" textLength="77" x="321.5" y="162.1426">Preparacion</text><ellipse cx="361.5" cy="191.2188" fill="#222222" rx="10" ry="10" style="stroke:#222222;stroke-width:1.0;"/><g id="Preparacion.Inicializacion"><rect fill="#F1F1F1" height="52.7031" rx="12.5" ry="12.5" style="stroke:#181818;stroke-width:0.5;" width="293" x="215" y="237.2188"/><line style="stroke:#181818;stroke-width:0.5;" x1="215" x2="508" y1="264.8281" y2="264.8281"/><text fill="#000000" font-family="sans-serif" font-size="14" lengthAdjust="spacing" textLength="78" x="322.5" y="256.752">Inicializacion</text><text fill="#000000" font-family="sans-serif" font-size="12" lengthAdjust="spacing" textLength="273" x="220" y="282.2852">Inicializar inventario, men&#250;, recetas y presupuesto</text></g><ellipse cx="361.5" cy="337.2188" fill="none" rx="11" ry="11" style="stroke:#222222;stroke-width:1.0;"/><ellipse cx="361.5" cy="337.2188" fill="#222222" rx="6" ry="6" style="stroke:#222222;stroke-width:1.0;"/><!--link *start*Preparacion to Inicializacion--><g id="link_*start*Preparacion_Inicializacion"><path d="M361.5,201.4388 C361.5,210.4688 361.5,218.6488 361.5,231.0988 " fill="none" id="*start*Preparacion-to-Inicializacion" style="stroke:#181818;stroke-width:1.0;"/><polygon fill="#181818" points="361.5,237.0988,365.5,228.0988,361.5,232.0988,357.5,228.0988,361.5,237.0988" style="stroke:#181818;stroke-width:1.0;"/></g><!--link Inicializacion to *end*Preparacion--><g id="link_Inicializacion_*end*Preparacion"><path d="M361.5,290.5288 C361.5,302.8488 361.5,310.8787 361.5,320.1088 " fill="none" id="Inicializacion-to-*end*Preparacion" style="stroke:#181818;stroke-width:1.0;"/><polygon fill="#181818" points="361.5,326.1088,365.5,317.1088,361.5,321.1088,357.5,317.1088,361.5,326.1088" style="stroke:#181818;stroke-width:1.0;"/></g><path d="M211.5,436.6094 L508.5,436.6094 A12.5,12.5 0 0 1 521,449.1094 L521,464.2188 L199,464.2188 L199,449.1094 A12.5,12.5 0 0 1 211.5,436.6094 " fill="#F1F1F1" style="stroke:#F1F1F1;stroke-width:1.0;"/><rect fill="none" height="324.6094" rx="12.5" ry="12.5" style="stroke:#181818;stroke-width:0.5;" width="322" x="199" y="436.6094"/><line style="stroke:#181818;stroke-width:0.5;" x1="199" x2="521" y1="464.2188" y2="464.2188"/><text fill="#000000" font-family="sans-serif" font-size="14" lengthAdjust="spacing" textLength="64" x="328" y="456.1426">Operando</text><ellipse cx="361.5" cy="485.2188" fill="#222222" rx="10" ry="10" style="stroke:#222222;stroke-width:1.0;"/><g id="Operando.AtendiendoPedidos"><rect fill="#F1F1F1" height="52.7031" rx="12.5" ry="12.5" style="stroke:#181818;stroke-width:0.5;" width="301" x="211" y="532.2188"/><line style="stroke:#181818;stroke-width:0.5;" x1="211" x2="512" y1="559.8281" y2="559.8281"/><text fill="#000000" font-family="sans-serif" font-size="14" lengthAdjust="spacing" textLength="123" x="300" y="551.752">AtendiendoPedidos</text><text fill="#000000" font-family="sans-serif" font-size="12" lengthAdjust="spacing" textLength="281" x="216" y="577.2852">Atender pedidos del men&#250; y actualizar presupuesto</text></g><g id="Operando.VerificandoStock"><rect fill="#F1F1F1" height="52.7031" rx="12.5" ry="12.5" style="stroke:#181818;stroke-width:0.5;" width="126" x="298.5" y="639.2188"/><line style="stroke:#181818;stroke-width:0.5;" x1="298.5" x2="424.5" y1="666.8281" y2="666.8281"/><text fill="#000000" font-family="sans-serif" font-size="14" lengthAdjust="spacing" textLength="106" x="308.5" y="658.752">VerificandoStock</text><text fill="#000000" font-family="sans-serif" font-size="12" lengthAdjust="spacing" textLength="100" x="303.5" y="684.2852">Verificar inventario</text></g><ellipse cx="361.5" cy="740.2188" fill="none" rx="11" ry="11" style="stroke:#222222;stroke-width:1.0;"/><ellipse cx="361.5" cy="740.2188" fill="#222222" rx="6" ry="6" style="stroke:#222222;stroke-width:1.0;"/><!--link *start*Operando to AtendiendoPedidos--><g id="link_*start*Operando_AtendiendoPedidos"><path d="M361.5,495.2788 C361.5,504.5188 361.5,513.2988 361.5,526.1488 " fill="none" id="*start*Operando-to-AtendiendoPedidos" style="stroke:#181818;stroke-width:1.0;"/><polygon fill="#181818" points="361.5,532.1488,365.5,523.1488,361.5,527.1488,357.5,523.1488,361.5,532.1488" style="stroke:#181818;stroke-width:1.0;"/></g><!--link AtendiendoPedidos to VerificandoStock--><g id="link_AtendiendoPedidos_VerificandoStock"><path d="M361.5,585.4088 C361.5,601.6788 361.5,616.6488 361.5,632.9388 " fill="none" id="AtendiendoPedidos-to-VerificandoStock" style="stroke:#181818;stroke-width:1.0;"/><polygon fill="#181818" points="361.5,638.9388,365.5,629.9388,361.5,633.9388,357.5,629.9388,361.5,638.9388" style="stroke:#181818;stroke-width:1.0;"/><text fill="#000000" font-family="sans-serif" font-size="13" lengthAdjust="spacing" textLength="78" x="362.5" y="617.7139">Fin de pedido</text></g><!--link VerificandoStock to *end*Operando--><g id="link_VerificandoStock_*end*Operando"><path d="M361.5,692.4788 C361.5,705.1788 361.5,713.7588 361.5,723.2088 " fill="none" id="VerificandoStock-to-*end*Operando" style="stroke:#181818;stroke-width:1.0;"/><polygon fill="#181818" points="361.5,729.2088,365.5,720.2088,361.5,724.2088,357.5,720.2088,361.5,729.2088" style="stroke:#181818;stroke-width:1.0;"/></g><path d="M19.5,839.6094 L248.5,839.6094 A12.5,12.5 0 0 1 261,852.1094 L261,867.2188 L7,867.2188 L7,852.1094 A12.5,12.5 0 0 1 19.5,839.6094 " fill="#F1F1F1" style="stroke:#F1F1F1;stroke-width:1.0;"/><rect fill="none" height="304.6094" rx="12.5" ry="12.5" style="stroke:#181818;stroke-width:0.5;" width="254" x="7" y="839.6094"/><line style="stroke:#181818;stroke-width:0.5;" x1="7" x2="261" y1="867.2188" y2="867.2188"/><text fill="#000000" font-family="sans-serif" font-size="14" lengthAdjust="spacing" textLength="135" x="66.5" y="859.1426">SolicitandoProveedor</text><ellipse cx="135.5" cy="888.2188" fill="#222222" rx="10" ry="10" style="stroke:#222222;stroke-width:1.0;"/><g id="SolicitandoProveedor.GenerandoOrden"><rect fill="#F1F1F1" height="52.7031" rx="12.5" ry="12.5" style="stroke:#181818;stroke-width:0.5;" width="233" x="19" y="934.2188"/><line style="stroke:#181818;stroke-width:0.5;" x1="19" x2="252" y1="961.8281" y2="961.8281"/><text fill="#000000" font-family="sans-serif" font-size="14" lengthAdjust="spacing" textLength="112" x="79.5" y="953.752">GenerandoOrden</text><text fill="#000000" font-family="sans-serif" font-size="12" lengthAdjust="spacing" textLength="213" x="24" y="979.2852">Generar orden de compra al proveedor</text></g><g id="SolicitandoProveedor.EsperandoEntrega"><rect fill="#F1F1F1" height="52.7031" rx="12.5" ry="12.5" style="stroke:#181818;stroke-width:0.5;" width="191" x="40" y="1023.2188"/><line style="stroke:#181818;stroke-width:0.5;" x1="40" x2="231" y1="1050.8281" y2="1050.8281"/><text fill="#000000" font-family="sans-serif" font-size="14" lengthAdjust="spacing" textLength="119" x="76" y="1042.752">EsperandoEntrega</text><text fill="#000000" font-family="sans-serif" font-size="12" lengthAdjust="spacing" textLength="171" x="45" y="1068.2852">Esperar confirmaci&#243;n y entrega</text></g><ellipse cx="135.5" cy="1123.2188" fill="none" rx="11" ry="11" style="stroke:#222222;stroke-width:1.0;"/><ellipse cx="135.5" cy="1123.2188" fill="#222222" rx="6" ry="6" style="stroke:#222222;stroke-width:1.0;"/><!--link *start*SolicitandoProveedor to GenerandoOrden--><g id="link_*start*SolicitandoProveedor_GenerandoOrden"><path d="M135.5,898.4388 C135.5,907.4688 135.5,915.6488 135.5,928.0988 " fill="none" id="*start*SolicitandoProveedor-to-GenerandoOrden" style="stroke:#181818;stroke-width:1.0;"/><polygon fill="#181818" points="135.5,934.0988,139.5,925.0988,135.5,929.0988,131.5,925.0988,135.5,934.0988" style="stroke:#181818;stroke-width:1.0;"/></g><!--link GenerandoOrden to EsperandoEntrega--><g id="link_GenerandoOrden_EsperandoEntrega"><path d="M135.5,987.3488 C135.5,998.5788 135.5,1005.7288 135.5,1016.9688 " fill="none" id="GenerandoOrden-to-EsperandoEntrega" style="stroke:#181818;stroke-width:1.0;"/><polygon fill="#181818" points="135.5,1022.9688,139.5,1013.9688,135.5,1017.9688,131.5,1013.9688,135.5,1022.9688" style="stroke:#181818;stroke-width:1.0;"/></g><!--link EsperandoEntrega to *end*SolicitandoProveedor--><g id="link_EsperandoEntrega_*end*SolicitandoProveedor"><path d="M135.5,1076.5288 C135.5,1088.8488 135.5,1096.8788 135.5,1106.1087 " fill="none" id="EsperandoEntrega-to-*end*SolicitandoProveedor" style="stroke:#181818;stroke-width:1.0;"/><polygon fill="#181818" points="135.5,1112.1087,139.5,1103.1087,135.5,1107.1087,131.5,1103.1087,135.5,1112.1087" style="stroke:#181818;stroke-width:1.0;"/></g><path d="M493.5,884.1094 L752.5,884.1094 A12.5,12.5 0 0 1 765,896.6094 L765,911.7188 L481,911.7188 L481,896.6094 A12.5,12.5 0 0 1 493.5,884.1094 " fill="#F1F1F1" style="stroke:#F1F1F1;stroke-width:1.0;"/><rect fill="none" height="215.6094" rx="12.5" ry="12.5" style="stroke:#181818;stroke-width:0.5;" width="284" x="481" y="884.1094"/><line style="stroke:#181818;stroke-width:0.5;" x1="481" x2="765" y1="911.7188" y2="911.7188"/><text fill="#000000" font-family="sans-serif" font-size="14" lengthAdjust="spacing" textLength="76" x="585" y="903.6426">CierreDiario</text><ellipse cx="624.5" cy="932.7188" fill="#222222" rx="10" ry="10" style="stroke:#222222;stroke-width:1.0;"/><g id="CierreDiario.CalculandoGanancias"><rect fill="#F1F1F1" height="52.7031" rx="12.5" ry="12.5" style="stroke:#181818;stroke-width:0.5;" width="263" x="493" y="978.7188"/><line style="stroke:#181818;stroke-width:0.5;" x1="493" x2="756" y1="1006.3281" y2="1006.3281"/><text fill="#000000" font-family="sans-serif" font-size="14" lengthAdjust="spacing" textLength="139" x="555" y="998.252">CalculandoGanancias</text><text fill="#000000" font-family="sans-serif" font-size="12" lengthAdjust="spacing" textLength="243" x="498" y="1023.7852">Calcular ganancias y actualizar presupuesto</text></g><ellipse cx="624.5" cy="1078.7188" fill="none" rx="11" ry="11" style="stroke:#222222;stroke-width:1.0;"/><ellipse cx="624.5" cy="1078.7188" fill="#222222" rx="6" ry="6" style="stroke:#222222;stroke-width:1.0;"/><!--link *start*CierreDiario to CalculandoGanancias--><g id="link_*start*CierreDiario_CalculandoGanancias"><path d="M624.5,942.9388 C624.5,951.9688 624.5,960.1488 624.5,972.5988 " fill="none" id="*start*CierreDiario-to-CalculandoGanancias" style="stroke:#181818;stroke-width:1.0;"/><polygon fill="#181818" points="624.5,978.5988,628.5,969.5988,624.5,973.5988,620.5,969.5988,624.5,978.5988" style="stroke:#181818;stroke-width:1.0;"/></g><!--link CalculandoGanancias to *end*CierreDiario--><g id="link_CalculandoGanancias_*end*CierreDiario"><path d="M624.5,1032.0288 C624.5,1044.3488 624.5,1052.3788 624.5,1061.6087 " fill="none" id="CalculandoGanancias-to-*end*CierreDiario" style="stroke:#181818;stroke-width:1.0;"/><polygon fill="#181818" points="624.5,1067.6087,628.5,1058.6087,624.5,1062.6087,620.5,1058.6087,624.5,1067.6087" style="stroke:#181818;stroke-width:1.0;"/></g><path d="M146.5,1222.6094 L351.5,1222.6094 A12.5,12.5 0 0 1 364,1235.1094 L364,1250.2188 L134,1250.2188 L134,1235.1094 A12.5,12.5 0 0 1 146.5,1222.6094 " fill="#F1F1F1" style="stroke:#F1F1F1;stroke-width:1.0;"/><rect fill="none" height="215.6094" rx="12.5" ry="12.5" style="stroke:#181818;stroke-width:0.5;" width="230" x="134" y="1222.6094"/><line style="stroke:#181818;stroke-width:0.5;" x1="134" x2="364" y1="1250.2188" y2="1250.2188"/><text fill="#000000" font-family="sans-serif" font-size="14" lengthAdjust="spacing" textLength="165" x="166.5" y="1242.1426">ReabasteciendoInventario</text><ellipse cx="250.5" cy="1271.2188" fill="#222222" rx="10" ry="10" style="stroke:#222222;stroke-width:1.0;"/><g id="ReabasteciendoInventario.ActualizandoStock"><rect fill="#F1F1F1" height="52.7031" rx="12.5" ry="12.5" style="stroke:#181818;stroke-width:0.5;" width="209" x="146" y="1317.2188"/><line style="stroke:#181818;stroke-width:0.5;" x1="146" x2="355" y1="1344.8281" y2="1344.8281"/><text fill="#000000" font-family="sans-serif" font-size="14" lengthAdjust="spacing" textLength="115" x="193" y="1336.752">ActualizandoStock</text><text fill="#000000" font-family="sans-serif" font-size="12" lengthAdjust="spacing" textLength="189" x="151" y="1362.2852">Actualizar inventario y presupuesto</text></g><ellipse cx="250.5" cy="1417.2188" fill="none" rx="11" ry="11" style="stroke:#222222;stroke-width:1.0;"/><ellipse cx="250.5" cy="1417.2188" fill="#222222" rx="6" ry="6" style="stroke:#222222;stroke-width:1.0;"/><!--link *start*ReabasteciendoInventario to ActualizandoStock--><g id="link_*start*ReabasteciendoInventario_ActualizandoStock"><path d="M250.5,1281.4388 C250.5,1290.4688 250.5,1298.6488 250.5,1311.0988 " fill="none" id="*start*ReabasteciendoInventario-to-ActualizandoStock" style="stroke:#181818;stroke-width:1.0;"/><polygon fill="#181818" points="250.5,1317.0988,254.5,1308.0988,250.5,1312.0988,246.5,1308.0988,250.5,1317.0988" style="stroke:#181818;stroke-width:1.0;"/></g><!--link ActualizandoStock to *end*ReabasteciendoInventario--><g id="link_ActualizandoStock_*end*ReabasteciendoInventario"><path d="M250.5,1370.5288 C250.5,1382.8488 250.5,1390.8788 250.5,1400.1087 " fill="none" id="ActualizandoStock-to-*end*ReabasteciendoInventario" style="stroke:#181818;stroke-width:1.0;"/><polygon fill="#181818" points="250.5,1406.1087,254.5,1397.1087,250.5,1401.1087,246.5,1397.1087,250.5,1406.1087" style="stroke:#181818;stroke-width:1.0;"/></g><path d="M570,1222.6094 L676,1222.6094 A12.5,12.5 0 0 1 688.5,1235.1094 L688.5,1250.2188 L557.5,1250.2188 L557.5,1235.1094 A12.5,12.5 0 0 1 570,1222.6094 " fill="#F1F1F1" style="stroke:#F1F1F1;stroke-width:1.0;"/><rect fill="none" height="215.6094" rx="12.5" ry="12.5" style="stroke:#181818;stroke-width:0.5;" width="131" x="557.5" y="1222.6094"/><line style="stroke:#181818;stroke-width:0.5;" x1="557.5" x2="688.5" y1="1250.2188" y2="1250.2188"/><text fill="#000000" font-family="sans-serif" font-size="14" lengthAdjust="spacing" textLength="64" x="591" y="1242.1426">Finalizado</text><ellipse cx="624.5" cy="1271.2188" fill="#222222" rx="10" ry="10" style="stroke:#222222;stroke-width:1.0;"/><g id="Finalizado.Inactivo"><rect fill="#F1F1F1" height="52.7031" rx="12.5" ry="12.5" style="stroke:#181818;stroke-width:0.5;" width="110" x="569.5" y="1317.2188"/><line style="stroke:#181818;stroke-width:0.5;" x1="569.5" x2="679.5" y1="1344.8281" y2="1344.8281"/><text fill="#000000" font-family="sans-serif" font-size="14" lengthAdjust="spacing" textLength="48" x="600.5" y="1336.752">Inactivo</text><text fill="#000000" font-family="sans-serif" font-size="12" lengthAdjust="spacing" textLength="90" x="574.5" y="1362.2852">Sistema inactivo</text></g><ellipse cx="624.5" cy="1417.2188" fill="none" rx="11" ry="11" style="stroke:#222222;stroke-width:1.0;"/><ellipse cx="624.5" cy="1417.2188" fill="#222222" rx="6" ry="6" style="stroke:#222222;stroke-width:1.0;"/><!--link *start*Finalizado to Inactivo--><g id="link_*start*Finalizado_Inactivo"><path d="M624.5,1281.4388 C624.5,1290.4688 624.5,1298.6488 624.5,1311.0988 " fill="none" id="*start*Finalizado-to-Inactivo" style="stroke:#181818;stroke-width:1.0;"/><polygon fill="#181818" points="624.5,1317.0988,628.5,1308.0988,624.5,1312.0988,620.5,1308.0988,624.5,1317.0988" style="stroke:#181818;stroke-width:1.0;"/></g><!--link Inactivo to *end*Finalizado--><g id="link_Inactivo_*end*Finalizado"><path d="M624.5,1370.5288 C624.5,1382.8488 624.5,1390.8788 624.5,1400.1087 " fill="none" id="Inactivo-to-*end*Finalizado" style="stroke:#181818;stroke-width:1.0;"/><polygon fill="#181818" points="624.5,1406.1087,628.5,1397.1087,624.5,1401.1087,620.5,1397.1087,624.5,1406.1087" style="stroke:#181818;stroke-width:1.0;"/></g><!--link *start* to Preparacion--><g id="link_*start*_Preparacion"><path d="M360,64.7094 C360,79.4594 360,104.2394 360,136.5194 " fill="none" id="*start*-to-Preparacion" style="stroke:#181818;stroke-width:1.0;"/><polygon fill="#181818" points="360,142.5194,364,133.5194,360,137.5194,356,133.5194,360,142.5194" style="stroke:#181818;stroke-width:1.0;"/><text fill="#000000" font-family="sans-serif" font-size="13" lengthAdjust="spacing" textLength="101" x="361" y="109.1045">Inicio del sistema</text></g><!--link Preparacion to Operando--><g id="link_Preparacion_Operando"><path d="M360,358.8694 C360,383.4194 360,404.0394 360,430.3094 " fill="none" id="Preparacion-to-Operando" style="stroke:#181818;stroke-width:1.0;"/><polygon fill="#181818" points="360,436.3094,364,427.3094,360,431.3094,356,427.3094,360,436.3094" style="stroke:#181818;stroke-width:1.0;"/><text fill="#000000" font-family="sans-serif" font-size="13" lengthAdjust="spacing" textLength="111" x="361" y="403.1045">Inventario verificado</text></g><!--link Operando to SolicitandoProveedor--><g id="link_Operando_SolicitandoProveedor"><path d="M239.04,761.7494 C232.73,771.7094 226.66,781.7094 221,791.6094 C212.28,806.8594 206.4581,817.7559 198.5181,834.2059 " fill="none" id="Operando-to-SolicitandoProveedor" style="stroke:#181818;stroke-width:1.0;"/><polygon fill="#181818" points="195.91,839.6094,203.4245,833.2429,198.0834,835.1065,196.2199,829.7654,195.91,839.6094" style="stroke:#181818;stroke-width:1.0;"/><text fill="#000000" font-family="sans-serif" font-size="13" lengthAdjust="spacing" textLength="82" x="222" y="806.1045">Inventario bajo</text></g><!--link Operando to CierreDiario--><g id="link_Operando_CierreDiario"><path d="M438.56,761.8694 C447.96,778.2994 457.85,794.4894 468,809.6094 C484.86,834.7194 500.8656,855.6628 520.6356,879.3528 " fill="none" id="Operando-to-CierreDiario" style="stroke:#181818;stroke-width:1.0;"/><polygon fill="#181818" points="524.48,883.9594,521.7845,874.4865,521.2764,880.1205,515.6424,879.6124,524.48,883.9594" style="stroke:#181818;stroke-width:1.0;"/><text fill="#000000" font-family="sans-serif" font-size="13" lengthAdjust="spacing" textLength="82" x="469" y="806.1045">Fin de jornada</text></g><!--link CierreDiario to Operando--><g id="link_CierreDiario_Operando"><path d="M597.24,883.8894 C587.1,852.7494 573.58,819.6194 556,791.6094 C545.76,775.2894 537.7012,763.9403 524.9112,748.6603 " fill="none" id="CierreDiario-to-Operando" style="stroke:#181818;stroke-width:1.0;"/><polygon fill="#181818" points="521.06,744.0594,523.7695,753.5282,524.2693,747.8935,529.904,748.3933,521.06,744.0594" style="stroke:#181818;stroke-width:1.0;"/><text fill="#000000" font-family="sans-serif" font-size="13" lengthAdjust="spacing" textLength="75" x="565" y="806.1045">D&#237;a siguiente</text></g><!--link SolicitandoProveedor to ReabasteciendoInventario--><g id="link_SolicitandoProveedor_ReabasteciendoInventario"><path d="M179.98,1144.8694 C185.23,1161.0394 190.63,1177.1994 196,1192.6094 C199.4,1202.3594 200.9696,1206.8316 204.6996,1216.9216 " fill="none" id="SolicitandoProveedor-to-ReabasteciendoInventario" style="stroke:#181818;stroke-width:1.0;"/><polygon fill="#181818" points="206.78,1222.5494,207.4112,1212.7208,205.0463,1217.8596,199.9075,1215.4947,206.78,1222.5494" style="stroke:#181818;stroke-width:1.0;"/><text fill="#000000" font-family="sans-serif" font-size="13" lengthAdjust="spacing" textLength="107" x="197" y="1189.1045">Pedido confirmado</text></g><!--link ReabasteciendoInventario to Operando--><g id="link_ReabasteciendoInventario_Operando"><path d="M299.86,1222.3294 C303.37,1212.4294 306.5,1202.4194 309,1192.6094 C329.01,1114.0094 343.3298,914.6797 351.6698,767.8097 " fill="none" id="ReabasteciendoInventario-to-Operando" style="stroke:#181818;stroke-width:1.0;"/><polygon fill="#181818" points="352.01,761.8194,347.5062,770.5781,351.7265,766.8113,355.4933,771.0317,352.01,761.8194" style="stroke:#181818;stroke-width:1.0;"/><text fill="#000000" font-family="sans-serif" font-size="13" lengthAdjust="spacing" textLength="113" x="348" y="997.6045">Inventario suficiente</text></g><!--link CierreDiario to Finalizado--><g id="link_CierreDiario_Finalizado"><path d="M623,1100.5094 C623,1139.4594 623,1177.4294 623,1216.3694 " fill="none" id="CierreDiario-to-Finalizado" style="stroke:#181818;stroke-width:1.0;"/><polygon fill="#181818" points="623,1222.3694,627,1213.3694,623,1217.3694,619,1213.3694,623,1222.3694" style="stroke:#181818;stroke-width:1.0;"/><text fill="#000000" font-family="sans-serif" font-size="13" lengthAdjust="spacing" textLength="110" x="624" y="1189.1045">Fin de operaciones</text></g><!--SRC=[VLInZjim3Dtz5PoBom_SKA38fK6d2ngWIz61Pp61hhPaK7A0Qz5FwjIjQtwib6JPLknq2E0yaOzyrAEyzWt1ayOpOukW27REex8EDh0dv_NrZu4jdiWJNtzZLNrzzmqsc_TmOEgGiTRMm2DyCbg-9Bq1fvsdLYA5nrCHzxC2oFan0nlz8nx9GGbapWWmQ7CXuv6rVO2MpFNl0p3LvD716tHChkzwwTOkUK8jgLdzgkQT1FIv8qQZR2oLwU52h4-wbX5a1MFSlFqFdepIyhC7Kbhc9MSBJ9WZHWpTW8G9HG7IDzQ-7_IL4fP4eUINeJE1ZzxMtuNzepRXoXAv9Aw4P6W-mxN8QKwZtW0TRIFZzE7_WUs5I5ak1_Q2hxRCsMfY9l5KE1wRVBLiK8s-M2MUJtXF9d4-iw9Wa18GuWGmsFXVIjIsxHW16vddGBdC2zmxD_IxCvxfZ19r2mb_WbXepKbpAyu9o_06T3zfckAgld3ycV05PKNgUC6pGJv2kksntcJ1kpc59RETyfq69zrYmPAJxIPBBDPecJbfkzlE_RLolRXDmZrbJOLBvZgssDHz4oZsQD38CeVbMa6bme0od4VmFtkrnZ6fAXgwKV8aRv-yRES-ILY4YiTZHJKpl0tfuRKXbpNFmigtK5hMb_HwfK-XEQQ7L2vfUJfr_Gy0]--></g></svg>