<?xml version="1.0" encoding="us-ascii" standalone="no"?><svg xmlns="http://www.w3.org/2000/svg" xmlns:xlink="http://www.w3.org/1999/xlink" contentStyleType="text/css" height="613px" preserveAspectRatio="none" style="width:570px;height:613px;background:#FFFFFF;" version="1.1" viewBox="0 0 570 613" width="570px" zoomAndPan="magnify"><defs/><g><!--class Producto--><g id="elem_Producto"><rect codeLine="2" fill="#F1F1F1" height="188.875" id="Producto" rx="2.5" ry="2.5" style="stroke:#181818;stroke-width:0.5;" width="187" x="207.5" y="239"/><ellipse cx="268.25" cy="255" fill="#ADD1B2" rx="11" ry="11" style="stroke:#181818;stroke-width:1.0;"/><path d="M271.0156,250.875 Q271.1719,250.6563 271.3594,250.5469 Q271.5469,250.4375 271.7656,250.4375 Q272.1406,250.4375 272.375,250.7031 Q272.6094,250.9531 272.6094,251.5625 L272.6094,253.0156 Q272.6094,253.625 272.375,253.8906 Q272.1406,254.1563 271.7656,254.1563 Q271.4219,254.1563 271.2188,253.9531 Q271.0156,253.7656 270.9063,253.25 Q270.8594,252.8906 270.6719,252.7031 Q270.3438,252.3281 269.7344,252.1094 Q269.125,251.8906 268.5,251.8906 Q267.7344,251.8906 267.0938,252.2188 Q266.4688,252.5469 265.9688,253.2969 Q265.4844,254.0469 265.4844,255.0781 L265.4844,256.1719 Q265.4844,257.4063 266.375,258.2344 Q267.2656,259.0469 268.8594,259.0469 Q269.7969,259.0469 270.4531,258.7969 Q270.8438,258.6406 271.2656,258.2031 Q271.5313,257.9375 271.6719,257.8594 Q271.8281,257.7813 272.0313,257.7813 Q272.3594,257.7813 272.6094,258.0469 Q272.875,258.2969 272.875,258.6406 Q272.875,258.9844 272.5313,259.3906 Q272.0313,259.9688 271.2344,260.2969 Q270.1563,260.75 268.8594,260.75 Q267.3438,260.75 266.1406,260.125 Q265.1563,259.625 264.4688,258.5625 Q263.7813,257.4844 263.7813,256.2031 L263.7813,255.0469 Q263.7813,253.7188 264.3906,252.5781 Q265.0156,251.4219 266.1094,250.8125 Q267.2031,250.1875 268.4375,250.1875 Q269.1719,250.1875 269.8125,250.3594 Q270.4688,250.5156 271.0156,250.875 Z " fill="#000000"/><text fill="#000000" font-family="sans-serif" font-size="14" lengthAdjust="spacing" textLength="57" x="288.75" y="260.7285">Producto</text><line style="stroke:#181818;stroke-width:0.5;" x1="208.5" x2="393.5" y1="271" y2="271"/><ellipse cx="218.5" cy="285.3047" fill="none" rx="3" ry="3" style="stroke:#038048;stroke-width:1.0;"/><text fill="#000000" font-family="sans-serif" font-size="14" lengthAdjust="spacing" textLength="93" x="227.5" y="289.5332">nombre: String</text><ellipse cx="218.5" cy="302.9141" fill="none" rx="3" ry="3" style="stroke:#038048;stroke-width:1.0;"/><text fill="#000000" font-family="sans-serif" font-size="14" lengthAdjust="spacing" textLength="67" x="227.5" y="307.1426">sku: String</text><ellipse cx="218.5" cy="320.5234" fill="none" rx="3" ry="3" style="stroke:#038048;stroke-width:1.0;"/><text fill="#000000" font-family="sans-serif" font-size="14" lengthAdjust="spacing" textLength="117" x="227.5" y="324.752">descripcion: String</text><ellipse cx="218.5" cy="338.1328" fill="none" rx="3" ry="3" style="stroke:#038048;stroke-width:1.0;"/><text fill="#000000" font-family="sans-serif" font-size="14" lengthAdjust="spacing" textLength="137" x="227.5" y="342.3613">precioUnitario: Money</text><ellipse cx="218.5" cy="355.7422" fill="none" rx="3" ry="3" style="stroke:#038048;stroke-width:1.0;"/><text fill="#000000" font-family="sans-serif" font-size="14" lengthAdjust="spacing" textLength="95" x="227.5" y="359.9707">stockActual: int</text><ellipse cx="218.5" cy="373.3516" fill="none" rx="3" ry="3" style="stroke:#038048;stroke-width:1.0;"/><text fill="#000000" font-family="sans-serif" font-size="14" lengthAdjust="spacing" textLength="100" x="227.5" y="377.5801">stockMinimo: int</text><ellipse cx="218.5" cy="390.9609" fill="none" rx="3" ry="3" style="stroke:#038048;stroke-width:1.0;"/><text fill="#000000" font-family="sans-serif" font-size="14" lengthAdjust="spacing" textLength="152" x="227.5" y="395.1895">estado: EstadoProducto</text><ellipse cx="218.5" cy="408.5703" fill="none" rx="3" ry="3" style="stroke:#038048;stroke-width:1.0;"/><text fill="#000000" font-family="sans-serif" font-size="14" lengthAdjust="spacing" textLength="161" x="227.5" y="412.7988">fechaCreacion: DateTime</text><line style="stroke:#181818;stroke-width:0.5;" x1="208.5" x2="393.5" y1="419.875" y2="419.875"/></g><!--class Categoria--><g id="elem_Categoria"><rect codeLine="13" fill="#F1F1F1" height="83.2188" id="Categoria" rx="2.5" ry="2.5" style="stroke:#181818;stroke-width:0.5;" width="143" x="218.5" y="42.5"/><ellipse cx="255.55" cy="58.5" fill="#ADD1B2" rx="11" ry="11" style="stroke:#181818;stroke-width:1.0;"/><path d="M258.3156,54.375 Q258.4719,54.1563 258.6594,54.0469 Q258.8469,53.9375 259.0656,53.9375 Q259.4406,53.9375 259.675,54.2031 Q259.9094,54.4531 259.9094,55.0625 L259.9094,56.5156 Q259.9094,57.125 259.675,57.3906 Q259.4406,57.6563 259.0656,57.6563 Q258.7219,57.6563 258.5188,57.4531 Q258.3156,57.2656 258.2063,56.75 Q258.1594,56.3906 257.9719,56.2031 Q257.6438,55.8281 257.0344,55.6094 Q256.425,55.3906 255.8,55.3906 Q255.0344,55.3906 254.3938,55.7188 Q253.7688,56.0469 253.2688,56.7969 Q252.7844,57.5469 252.7844,58.5781 L252.7844,59.6719 Q252.7844,60.9063 253.675,61.7344 Q254.5656,62.5469 256.1594,62.5469 Q257.0969,62.5469 257.7531,62.2969 Q258.1438,62.1406 258.5656,61.7031 Q258.8313,61.4375 258.9719,61.3594 Q259.1281,61.2813 259.3313,61.2813 Q259.6594,61.2813 259.9094,61.5469 Q260.175,61.7969 260.175,62.1406 Q260.175,62.4844 259.8313,62.8906 Q259.3313,63.4688 258.5344,63.7969 Q257.4563,64.25 256.1594,64.25 Q254.6438,64.25 253.4406,63.625 Q252.4563,63.125 251.7688,62.0625 Q251.0813,60.9844 251.0813,59.7031 L251.0813,58.5469 Q251.0813,57.2188 251.6906,56.0781 Q252.3156,54.9219 253.4094,54.3125 Q254.5031,53.6875 255.7375,53.6875 Q256.4719,53.6875 257.1125,53.8594 Q257.7688,54.0156 258.3156,54.375 Z " fill="#000000"/><text fill="#000000" font-family="sans-serif" font-size="14" lengthAdjust="spacing" textLength="62" x="274.45" y="64.2285">Categoria</text><line style="stroke:#181818;stroke-width:0.5;" x1="219.5" x2="360.5" y1="74.5" y2="74.5"/><ellipse cx="229.5" cy="88.8047" fill="none" rx="3" ry="3" style="stroke:#038048;stroke-width:1.0;"/><text fill="#000000" font-family="sans-serif" font-size="14" lengthAdjust="spacing" textLength="93" x="238.5" y="93.0332">nombre: String</text><ellipse cx="229.5" cy="106.4141" fill="none" rx="3" ry="3" style="stroke:#038048;stroke-width:1.0;"/><text fill="#000000" font-family="sans-serif" font-size="14" lengthAdjust="spacing" textLength="117" x="238.5" y="110.6426">descripcion: String</text><line style="stroke:#181818;stroke-width:0.5;" x1="219.5" x2="360.5" y1="117.7188" y2="117.7188"/></g><!--class Proveedor--><g id="elem_Proveedor"><rect codeLine="18" fill="#F1F1F1" height="153.6563" id="Proveedor" rx="2.5" ry="2.5" style="stroke:#181818;stroke-width:0.5;" width="166" x="397" y="7"/><ellipse cx="442.75" cy="23" fill="#ADD1B2" rx="11" ry="11" style="stroke:#181818;stroke-width:1.0;"/><path d="M445.5156,18.875 Q445.6719,18.6563 445.8594,18.5469 Q446.0469,18.4375 446.2656,18.4375 Q446.6406,18.4375 446.875,18.7031 Q447.1094,18.9531 447.1094,19.5625 L447.1094,21.0156 Q447.1094,21.625 446.875,21.8906 Q446.6406,22.1563 446.2656,22.1563 Q445.9219,22.1563 445.7188,21.9531 Q445.5156,21.7656 445.4063,21.25 Q445.3594,20.8906 445.1719,20.7031 Q444.8438,20.3281 444.2344,20.1094 Q443.625,19.8906 443,19.8906 Q442.2344,19.8906 441.5938,20.2188 Q440.9688,20.5469 440.4688,21.2969 Q439.9844,22.0469 439.9844,23.0781 L439.9844,24.1719 Q439.9844,25.4063 440.875,26.2344 Q441.7656,27.0469 443.3594,27.0469 Q444.2969,27.0469 444.9531,26.7969 Q445.3438,26.6406 445.7656,26.2031 Q446.0313,25.9375 446.1719,25.8594 Q446.3281,25.7813 446.5313,25.7813 Q446.8594,25.7813 447.1094,26.0469 Q447.375,26.2969 447.375,26.6406 Q447.375,26.9844 447.0313,27.3906 Q446.5313,27.9688 445.7344,28.2969 Q444.6563,28.75 443.3594,28.75 Q441.8438,28.75 440.6406,28.125 Q439.6563,27.625 438.9688,26.5625 Q438.2813,25.4844 438.2813,24.2031 L438.2813,23.0469 Q438.2813,21.7188 438.8906,20.5781 Q439.5156,19.4219 440.6094,18.8125 Q441.7031,18.1875 442.9375,18.1875 Q443.6719,18.1875 444.3125,18.3594 Q444.9688,18.5156 445.5156,18.875 Z " fill="#000000"/><text fill="#000000" font-family="sans-serif" font-size="14" lengthAdjust="spacing" textLength="66" x="463.25" y="28.7285">Proveedor</text><line style="stroke:#181818;stroke-width:0.5;" x1="398" x2="562" y1="39" y2="39"/><ellipse cx="408" cy="53.3047" fill="none" rx="3" ry="3" style="stroke:#038048;stroke-width:1.0;"/><text fill="#000000" font-family="sans-serif" font-size="14" lengthAdjust="spacing" textLength="93" x="417" y="57.5332">nombre: String</text><ellipse cx="408" cy="70.9141" fill="none" rx="3" ry="3" style="stroke:#038048;stroke-width:1.0;"/><text fill="#000000" font-family="sans-serif" font-size="14" lengthAdjust="spacing" textLength="60" x="417" y="75.1426">nif: String</text><ellipse cx="408" cy="88.5234" fill="none" rx="3" ry="3" style="stroke:#038048;stroke-width:1.0;"/><text fill="#000000" font-family="sans-serif" font-size="14" lengthAdjust="spacing" textLength="96" x="417" y="92.752">telefono: String</text><ellipse cx="408" cy="106.1328" fill="none" rx="3" ry="3" style="stroke:#038048;stroke-width:1.0;"/><text fill="#000000" font-family="sans-serif" font-size="14" lengthAdjust="spacing" textLength="78" x="417" y="110.3613">email: String</text><ellipse cx="408" cy="123.7422" fill="none" rx="3" ry="3" style="stroke:#038048;stroke-width:1.0;"/><text fill="#000000" font-family="sans-serif" font-size="14" lengthAdjust="spacing" textLength="102" x="417" y="127.9707">direccion: String</text><ellipse cx="408" cy="141.3516" fill="none" rx="3" ry="3" style="stroke:#038048;stroke-width:1.0;"/><text fill="#000000" font-family="sans-serif" font-size="14" lengthAdjust="spacing" textLength="140" x="417" y="145.5801">estado: EstadoComun</text><line style="stroke:#181818;stroke-width:0.5;" x1="398" x2="562" y1="152.6563" y2="152.6563"/></g><!--class Pedido--><g id="elem_Pedido"><rect codeLine="27" fill="#F1F1F1" height="136.0469" id="Pedido" rx="2.5" ry="2.5" style="stroke:#181818;stroke-width:0.5;" width="165" x="7.5" y="265.5"/><ellipse cx="63.75" cy="281.5" fill="#ADD1B2" rx="11" ry="11" style="stroke:#181818;stroke-width:1.0;"/><path d="M66.5156,277.375 Q66.6719,277.1563 66.8594,277.0469 Q67.0469,276.9375 67.2656,276.9375 Q67.6406,276.9375 67.875,277.2031 Q68.1094,277.4531 68.1094,278.0625 L68.1094,279.5156 Q68.1094,280.125 67.875,280.3906 Q67.6406,280.6563 67.2656,280.6563 Q66.9219,280.6563 66.7188,280.4531 Q66.5156,280.2656 66.4063,279.75 Q66.3594,279.3906 66.1719,279.2031 Q65.8438,278.8281 65.2344,278.6094 Q64.625,278.3906 64,278.3906 Q63.2344,278.3906 62.5938,278.7188 Q61.9688,279.0469 61.4688,279.7969 Q60.9844,280.5469 60.9844,281.5781 L60.9844,282.6719 Q60.9844,283.9063 61.875,284.7344 Q62.7656,285.5469 64.3594,285.5469 Q65.2969,285.5469 65.9531,285.2969 Q66.3438,285.1406 66.7656,284.7031 Q67.0313,284.4375 67.1719,284.3594 Q67.3281,284.2813 67.5313,284.2813 Q67.8594,284.2813 68.1094,284.5469 Q68.375,284.7969 68.375,285.1406 Q68.375,285.4844 68.0313,285.8906 Q67.5313,286.4688 66.7344,286.7969 Q65.6563,287.25 64.3594,287.25 Q62.8438,287.25 61.6406,286.625 Q60.6563,286.125 59.9688,285.0625 Q59.2813,283.9844 59.2813,282.7031 L59.2813,281.5469 Q59.2813,280.2188 59.8906,279.0781 Q60.5156,277.9219 61.6094,277.3125 Q62.7031,276.6875 63.9375,276.6875 Q64.6719,276.6875 65.3125,276.8594 Q65.9688,277.0156 66.5156,277.375 Z " fill="#000000"/><text fill="#000000" font-family="sans-serif" font-size="14" lengthAdjust="spacing" textLength="44" x="84.25" y="287.2285">Pedido</text><line style="stroke:#181818;stroke-width:0.5;" x1="8.5" x2="171.5" y1="297.5" y2="297.5"/><ellipse cx="18.5" cy="311.8047" fill="none" rx="3" ry="3" style="stroke:#038048;stroke-width:1.0;"/><text fill="#000000" font-family="sans-serif" font-size="14" lengthAdjust="spacing" textLength="103" x="27.5" y="316.0332">tipo: TipoPedido</text><ellipse cx="18.5" cy="329.4141" fill="none" rx="3" ry="3" style="stroke:#038048;stroke-width:1.0;"/><text fill="#000000" font-family="sans-serif" font-size="14" lengthAdjust="spacing" textLength="139" x="27.5" y="333.6426">estado: EstadoPedido</text><ellipse cx="18.5" cy="347.0234" fill="none" rx="3" ry="3" style="stroke:#038048;stroke-width:1.0;"/><text fill="#000000" font-family="sans-serif" font-size="14" lengthAdjust="spacing" textLength="104" x="27.5" y="351.252">fecha: DateTime</text><ellipse cx="18.5" cy="364.6328" fill="none" rx="3" ry="3" style="stroke:#038048;stroke-width:1.0;"/><text fill="#000000" font-family="sans-serif" font-size="14" lengthAdjust="spacing" textLength="137" x="27.5" y="368.8613">observaciones: String</text><line style="stroke:#181818;stroke-width:0.5;" x1="8.5" x2="171.5" y1="375.9375" y2="375.9375"/><ellipse cx="18.5" cy="390.2422" fill="#84BE84" rx="3" ry="3" style="stroke:#038048;stroke-width:1.0;"/><text fill="#000000" font-family="sans-serif" font-size="14" lengthAdjust="spacing" textLength="87" x="27.5" y="394.4707">total(): Money</text></g><!--class ItemPedido--><g id="elem_ItemPedido"><rect codeLine="35" fill="#F1F1F1" height="100.8281" id="ItemPedido" rx="2.5" ry="2.5" style="stroke:#181818;stroke-width:0.5;" width="163" x="113.5" y="506"/><ellipse cx="155.95" cy="522" fill="#ADD1B2" rx="11" ry="11" style="stroke:#181818;stroke-width:1.0;"/><path d="M158.7156,517.875 Q158.8719,517.6563 159.0594,517.5469 Q159.2469,517.4375 159.4656,517.4375 Q159.8406,517.4375 160.075,517.7031 Q160.3094,517.9531 160.3094,518.5625 L160.3094,520.0156 Q160.3094,520.625 160.075,520.8906 Q159.8406,521.1563 159.4656,521.1563 Q159.1219,521.1563 158.9188,520.9531 Q158.7156,520.7656 158.6063,520.25 Q158.5594,519.8906 158.3719,519.7031 Q158.0438,519.3281 157.4344,519.1094 Q156.825,518.8906 156.2,518.8906 Q155.4344,518.8906 154.7938,519.2188 Q154.1688,519.5469 153.6688,520.2969 Q153.1844,521.0469 153.1844,522.0781 L153.1844,523.1719 Q153.1844,524.4063 154.075,525.2344 Q154.9656,526.0469 156.5594,526.0469 Q157.4969,526.0469 158.1531,525.7969 Q158.5438,525.6406 158.9656,525.2031 Q159.2313,524.9375 159.3719,524.8594 Q159.5281,524.7813 159.7313,524.7813 Q160.0594,524.7813 160.3094,525.0469 Q160.575,525.2969 160.575,525.6406 Q160.575,525.9844 160.2313,526.3906 Q159.7313,526.9688 158.9344,527.2969 Q157.8563,527.75 156.5594,527.75 Q155.0438,527.75 153.8406,527.125 Q152.8563,526.625 152.1688,525.5625 Q151.4813,524.4844 151.4813,523.2031 L151.4813,522.0469 Q151.4813,520.7188 152.0906,519.5781 Q152.7156,518.4219 153.8094,517.8125 Q154.9031,517.1875 156.1375,517.1875 Q156.8719,517.1875 157.5125,517.3594 Q158.1688,517.5156 158.7156,517.875 Z " fill="#000000"/><text fill="#000000" font-family="sans-serif" font-size="14" lengthAdjust="spacing" textLength="70" x="176.05" y="527.7285">ItemPedido</text><line style="stroke:#181818;stroke-width:0.5;" x1="114.5" x2="275.5" y1="538" y2="538"/><ellipse cx="124.5" cy="552.3047" fill="none" rx="3" ry="3" style="stroke:#038048;stroke-width:1.0;"/><text fill="#000000" font-family="sans-serif" font-size="14" lengthAdjust="spacing" textLength="77" x="133.5" y="556.5332">cantidad: int</text><ellipse cx="124.5" cy="569.9141" fill="none" rx="3" ry="3" style="stroke:#038048;stroke-width:1.0;"/><text fill="#000000" font-family="sans-serif" font-size="14" lengthAdjust="spacing" textLength="137" x="133.5" y="574.1426">precioUnitario: Money</text><line style="stroke:#181818;stroke-width:0.5;" x1="114.5" x2="275.5" y1="581.2188" y2="581.2188"/><ellipse cx="124.5" cy="595.5234" fill="#84BE84" rx="3" ry="3" style="stroke:#038048;stroke-width:1.0;"/><text fill="#000000" font-family="sans-serif" font-size="14" lengthAdjust="spacing" textLength="110" x="133.5" y="599.752">subtotal(): Money</text></g><!--class Cliente--><g id="elem_Cliente"><rect codeLine="41" fill="#F1F1F1" height="118.4375" id="Cliente" rx="2.5" ry="2.5" style="stroke:#181818;stroke-width:0.5;" width="166" x="7" y="25"/><ellipse cx="63.75" cy="41" fill="#ADD1B2" rx="11" ry="11" style="stroke:#181818;stroke-width:1.0;"/><path d="M66.5156,36.875 Q66.6719,36.6563 66.8594,36.5469 Q67.0469,36.4375 67.2656,36.4375 Q67.6406,36.4375 67.875,36.7031 Q68.1094,36.9531 68.1094,37.5625 L68.1094,39.0156 Q68.1094,39.625 67.875,39.8906 Q67.6406,40.1563 67.2656,40.1563 Q66.9219,40.1563 66.7188,39.9531 Q66.5156,39.7656 66.4063,39.25 Q66.3594,38.8906 66.1719,38.7031 Q65.8438,38.3281 65.2344,38.1094 Q64.625,37.8906 64,37.8906 Q63.2344,37.8906 62.5938,38.2188 Q61.9688,38.5469 61.4688,39.2969 Q60.9844,40.0469 60.9844,41.0781 L60.9844,42.1719 Q60.9844,43.4063 61.875,44.2344 Q62.7656,45.0469 64.3594,45.0469 Q65.2969,45.0469 65.9531,44.7969 Q66.3438,44.6406 66.7656,44.2031 Q67.0313,43.9375 67.1719,43.8594 Q67.3281,43.7813 67.5313,43.7813 Q67.8594,43.7813 68.1094,44.0469 Q68.375,44.2969 68.375,44.6406 Q68.375,44.9844 68.0313,45.3906 Q67.5313,45.9688 66.7344,46.2969 Q65.6563,46.75 64.3594,46.75 Q62.8438,46.75 61.6406,46.125 Q60.6563,45.625 59.9688,44.5625 Q59.2813,43.4844 59.2813,42.2031 L59.2813,41.0469 Q59.2813,39.7188 59.8906,38.5781 Q60.5156,37.4219 61.6094,36.8125 Q62.7031,36.1875 63.9375,36.1875 Q64.6719,36.1875 65.3125,36.3594 Q65.9688,36.5156 66.5156,36.875 Z " fill="#000000"/><text fill="#000000" font-family="sans-serif" font-size="14" lengthAdjust="spacing" textLength="44" x="84.25" y="46.7285">Cliente</text><line style="stroke:#181818;stroke-width:0.5;" x1="8" x2="172" y1="57" y2="57"/><ellipse cx="18" cy="71.3047" fill="none" rx="3" ry="3" style="stroke:#038048;stroke-width:1.0;"/><text fill="#000000" font-family="sans-serif" font-size="14" lengthAdjust="spacing" textLength="93" x="27" y="75.5332">nombre: String</text><ellipse cx="18" cy="88.9141" fill="none" rx="3" ry="3" style="stroke:#038048;stroke-width:1.0;"/><text fill="#000000" font-family="sans-serif" font-size="14" lengthAdjust="spacing" textLength="78" x="27" y="93.1426">email: String</text><ellipse cx="18" cy="106.5234" fill="none" rx="3" ry="3" style="stroke:#038048;stroke-width:1.0;"/><text fill="#000000" font-family="sans-serif" font-size="14" lengthAdjust="spacing" textLength="93" x="27" y="110.752">rol: RolUsuario</text><ellipse cx="18" cy="124.1328" fill="none" rx="3" ry="3" style="stroke:#038048;stroke-width:1.0;"/><text fill="#000000" font-family="sans-serif" font-size="14" lengthAdjust="spacing" textLength="140" x="27" y="128.3613">estado: EstadoComun</text><line style="stroke:#181818;stroke-width:0.5;" x1="8" x2="172" y1="135.4375" y2="135.4375"/></g><!--reverse link Categoria to Producto--><g id="link_Categoria_Producto"><path codeLine="48" d="M292.3346,137.5781 C293.7046,168.2981 295.1,199.75 296.84,238.91 " fill="none" id="Categoria-backto-Producto" style="stroke:#181818;stroke-width:1.0;"/><polygon fill="none" points="291.8,125.59,288.0713,131.7623,292.3346,137.5781,296.0633,131.4058,291.8,125.59" style="stroke:#181818;stroke-width:1.0;"/><text fill="#000000" font-family="sans-serif" font-size="13" lengthAdjust="spacing" textLength="47" x="297" y="205.4951">clasifica</text><text fill="#000000" font-family="sans-serif" font-size="13" lengthAdjust="spacing" textLength="7" x="284.5184" y="147.3095">1</text><text fill="#000000" font-family="sans-serif" font-size="13" lengthAdjust="spacing" textLength="20" x="275.7116" y="228.249">0..*</text></g><!--reverse link Producto to ItemPedido--><g id="link_Producto_ItemPedido"><path codeLine="49" d="M250.8608,439.04 C238.0508,465.75 229.79,482.97 218.78,505.92 " fill="none" id="Producto-backto-ItemPedido" style="stroke:#181818;stroke-width:1.0;"/><polygon fill="none" points="256.05,428.22,249.8487,431.9003,250.8608,439.04,257.0621,435.3597,256.05,428.22" style="stroke:#181818;stroke-width:1.0;"/><text fill="#000000" font-family="sans-serif" font-size="13" lengthAdjust="spacing" textLength="70" x="243" y="472.4951">se utiliza en</text><text fill="#000000" font-family="sans-serif" font-size="13" lengthAdjust="spacing" textLength="7" x="245.492" y="449.2761">1</text><text fill="#000000" font-family="sans-serif" font-size="13" lengthAdjust="spacing" textLength="20" x="200.7178" y="495.2141">0..*</text></g><!--reverse link Pedido to ItemPedido--><g id="link_Pedido_ItemPedido"><path codeLine="50" d="M127.0808,412.5483 C143.0108,446.0683 156.79,475.07 171.39,505.8 " fill="none" id="Pedido-backto-ItemPedido" style="stroke:#181818;stroke-width:1.0;"/><polygon fill="#181818" points="121.93,401.71,120.8926,408.8461,127.0808,412.5483,128.1182,405.4122,121.93,401.71" style="stroke:#181818;stroke-width:1.0;"/><text fill="#000000" font-family="sans-serif" font-size="13" lengthAdjust="spacing" textLength="49" x="156" y="472.4951">contiene</text><text fill="#000000" font-family="sans-serif" font-size="13" lengthAdjust="spacing" textLength="7" x="117.8618" y="423.08">1</text><text fill="#000000" font-family="sans-serif" font-size="13" lengthAdjust="spacing" textLength="20" x="146.6636" y="495.0772">1..*</text></g><!--link Cliente to Pedido--><g id="link_Cliente_Pedido"><path codeLine="51" d="M90,143.03 C90,179.6 90,226.97 90,265.2 " fill="none" id="Cliente-Pedido" style="stroke:#181818;stroke-width:1.0;"/><text fill="#000000" font-family="sans-serif" font-size="13" lengthAdjust="spacing" textLength="38" x="91" y="205.4951">realiza</text><text fill="#000000" font-family="sans-serif" font-size="13" lengthAdjust="spacing" textLength="7" x="82.5516" y="165.1078">1</text><text fill="#000000" font-family="sans-serif" font-size="13" lengthAdjust="spacing" textLength="20" x="68.9688" y="254.8424">0..*</text></g><!--link Proveedor to Producto--><g id="link_Proveedor_Producto"><path codeLine="52" d="M424.83,161.28 C407.17,185.71 387.39,213.05 368.92,238.58 " fill="none" id="Proveedor-Producto" style="stroke:#181818;stroke-width:1.0;"/><text fill="#000000" font-family="sans-serif" font-size="13" lengthAdjust="spacing" textLength="60" x="403" y="205.4951">suministra</text><text fill="#000000" font-family="sans-serif" font-size="13" lengthAdjust="spacing" textLength="7" x="412.788" y="182.1337">1</text><text fill="#000000" font-family="sans-serif" font-size="13" lengthAdjust="spacing" textLength="20" x="353.3545" y="228.2135">0..*</text></g><!--SRC=[VLFBJiCm4BpdAwoUeAWLlUQ60WSEbH2q7-3QcxAguwtiTIL0_3jssYJk8rmIxMJ7CplhA2Ez5s-ET51CugSGui5Iit5GYWzsQBS9yRkGbngyShXNI3Q7zmuYjBR8qY6LOaaMlbewazezAGxIb08jzzWIBJRKO-1PwbY-jE_ELFfIW_gKbGDvr7oM32jieFWj2jLEK4LaImxbs0YtFFViA7K0qEJ6s1Rhl6GmK9Eb78D6eZbJn9Z7PKRd8rRK19lP08twj0J6VMnRnUSHlP5FZxVfPAb4Y3OUtA6D2_oPTM9fxkwxxVJQhmnDhg-aPTHIzyiPtsxOZ1rQ6GJBC9RgLMIEOlbEPkr34ladi67VayL4q6mc9e_p-NGoNELI90zOev953ruqPqENmeC8Z0Q_fG1RdE14c2R2ufgWA4O45efkpDISEUdwuhLDfnR3BRje72pxqCHVmhEJVm00]--></g></svg>