<?xml version="1.0" encoding="us-ascii" standalone="no"?><svg xmlns="http://www.w3.org/2000/svg" xmlns:xlink="http://www.w3.org/1999/xlink" contentStyleType="text/css" height="794px" preserveAspectRatio="none" style="width:203px;height:794px;background:#FFFFFF;" version="1.1" viewBox="0 0 203 794" width="203px" zoomAndPan="magnify"><defs/><g><!--class Presupuesto--><g id="elem_Presupuesto"><rect codeLine="2" fill="#F1F1F1" height="83.2188" id="Presupuesto" rx="2.5" ry="2.5" style="stroke:#181818;stroke-width:0.5;" width="125" x="71.5" y="7"/><ellipse cx="92.35" cy="23" fill="#ADD1B2" rx="11" ry="11" style="stroke:#181818;stroke-width:1.0;"/><path d="M95.1156,18.875 Q95.2719,18.6563 95.4594,18.5469 Q95.6469,18.4375 95.8656,18.4375 Q96.2406,18.4375 96.475,18.7031 Q96.7094,18.9531 96.7094,19.5625 L96.7094,21.0156 Q96.7094,21.625 96.475,21.8906 Q96.2406,22.1563 95.8656,22.1563 Q95.5219,22.1563 95.3188,21.9531 Q95.1156,21.7656 95.0063,21.25 Q94.9594,20.8906 94.7719,20.7031 Q94.4438,20.3281 93.8344,20.1094 Q93.225,19.8906 92.6,19.8906 Q91.8344,19.8906 91.1938,20.2188 Q90.5688,20.5469 90.0688,21.2969 Q89.5844,22.0469 89.5844,23.0781 L89.5844,24.1719 Q89.5844,25.4063 90.475,26.2344 Q91.3656,27.0469 92.9594,27.0469 Q93.8969,27.0469 94.5531,26.7969 Q94.9438,26.6406 95.3656,26.2031 Q95.6313,25.9375 95.7719,25.8594 Q95.9281,25.7813 96.1313,25.7813 Q96.4594,25.7813 96.7094,26.0469 Q96.975,26.2969 96.975,26.6406 Q96.975,26.9844 96.6313,27.3906 Q96.1313,27.9688 95.3344,28.2969 Q94.2563,28.75 92.9594,28.75 Q91.4438,28.75 90.2406,28.125 Q89.2563,27.625 88.5688,26.5625 Q87.8813,25.4844 87.8813,24.2031 L87.8813,23.0469 Q87.8813,21.7188 88.4906,20.5781 Q89.1156,19.4219 90.2094,18.8125 Q91.3031,18.1875 92.5375,18.1875 Q93.2719,18.1875 93.9125,18.3594 Q94.5688,18.5156 95.1156,18.875 Z " fill="#000000"/><text fill="#000000" font-family="sans-serif" font-size="14" lengthAdjust="spacing" textLength="80" x="107.65" y="28.7285">Presupuesto</text><line style="stroke:#181818;stroke-width:0.5;" x1="72.5" x2="195.5" y1="39" y2="39"/><text fill="#000000" font-family="sans-serif" font-size="14" lengthAdjust="spacing" textLength="113" x="77.5" y="57.5332">periodoDeTiempo</text><text fill="#000000" font-family="sans-serif" font-size="14" lengthAdjust="spacing" textLength="66" x="77.5" y="75.1426">costoTotal</text><line style="stroke:#181818;stroke-width:0.5;" x1="72.5" x2="195.5" y1="82.2188" y2="82.2188"/></g><!--class Proveedor--><g id="elem_Proveedor"><rect codeLine="7" fill="#F1F1F1" height="118.4375" id="Proveedor" rx="2.5" ry="2.5" style="stroke:#181818;stroke-width:0.5;" width="98" x="10" y="168"/><ellipse cx="25" cy="184" fill="#ADD1B2" rx="11" ry="11" style="stroke:#181818;stroke-width:1.0;"/><path d="M27.7656,179.875 Q27.9219,179.6563 28.1094,179.5469 Q28.2969,179.4375 28.5156,179.4375 Q28.8906,179.4375 29.125,179.7031 Q29.3594,179.9531 29.3594,180.5625 L29.3594,182.0156 Q29.3594,182.625 29.125,182.8906 Q28.8906,183.1563 28.5156,183.1563 Q28.1719,183.1563 27.9688,182.9531 Q27.7656,182.7656 27.6563,182.25 Q27.6094,181.8906 27.4219,181.7031 Q27.0938,181.3281 26.4844,181.1094 Q25.875,180.8906 25.25,180.8906 Q24.4844,180.8906 23.8438,181.2188 Q23.2188,181.5469 22.7188,182.2969 Q22.2344,183.0469 22.2344,184.0781 L22.2344,185.1719 Q22.2344,186.4063 23.125,187.2344 Q24.0156,188.0469 25.6094,188.0469 Q26.5469,188.0469 27.2031,187.7969 Q27.5938,187.6406 28.0156,187.2031 Q28.2813,186.9375 28.4219,186.8594 Q28.5781,186.7813 28.7813,186.7813 Q29.1094,186.7813 29.3594,187.0469 Q29.625,187.2969 29.625,187.6406 Q29.625,187.9844 29.2813,188.3906 Q28.7813,188.9688 27.9844,189.2969 Q26.9063,189.75 25.6094,189.75 Q24.0938,189.75 22.8906,189.125 Q21.9063,188.625 21.2188,187.5625 Q20.5313,186.4844 20.5313,185.2031 L20.5313,184.0469 Q20.5313,182.7188 21.1406,181.5781 Q21.7656,180.4219 22.8594,179.8125 Q23.9531,179.1875 25.1875,179.1875 Q25.9219,179.1875 26.5625,179.3594 Q27.2188,179.5156 27.7656,179.875 Z " fill="#000000"/><text fill="#000000" font-family="sans-serif" font-size="14" lengthAdjust="spacing" textLength="66" x="39" y="189.7285">Proveedor</text><line style="stroke:#181818;stroke-width:0.5;" x1="11" x2="107" y1="200" y2="200"/><text fill="#000000" font-family="sans-serif" font-size="14" lengthAdjust="spacing" textLength="48" x="16" y="218.5332">nombre</text><text fill="#000000" font-family="sans-serif" font-size="14" lengthAdjust="spacing" textLength="51" x="16" y="236.1426">telefono</text><text fill="#000000" font-family="sans-serif" font-size="14" lengthAdjust="spacing" textLength="57" x="16" y="253.752">direccion</text><text fill="#000000" font-family="sans-serif" font-size="14" lengthAdjust="spacing" textLength="63" x="16" y="271.3613">productos</text><line style="stroke:#181818;stroke-width:0.5;" x1="11" x2="107" y1="278.4375" y2="278.4375"/></g><!--class Inventario--><g id="elem_Inventario"><rect codeLine="14" fill="#F1F1F1" height="65.6094" id="Inventario" rx="2.5" ry="2.5" style="stroke:#181818;stroke-width:0.5;" width="94" x="7" y="364"/><ellipse cx="22" cy="380" fill="#ADD1B2" rx="11" ry="11" style="stroke:#181818;stroke-width:1.0;"/><path d="M24.7656,375.875 Q24.9219,375.6563 25.1094,375.5469 Q25.2969,375.4375 25.5156,375.4375 Q25.8906,375.4375 26.125,375.7031 Q26.3594,375.9531 26.3594,376.5625 L26.3594,378.0156 Q26.3594,378.625 26.125,378.8906 Q25.8906,379.1563 25.5156,379.1563 Q25.1719,379.1563 24.9688,378.9531 Q24.7656,378.7656 24.6563,378.25 Q24.6094,377.8906 24.4219,377.7031 Q24.0938,377.3281 23.4844,377.1094 Q22.875,376.8906 22.25,376.8906 Q21.4844,376.8906 20.8438,377.2188 Q20.2188,377.5469 19.7188,378.2969 Q19.2344,379.0469 19.2344,380.0781 L19.2344,381.1719 Q19.2344,382.4063 20.125,383.2344 Q21.0156,384.0469 22.6094,384.0469 Q23.5469,384.0469 24.2031,383.7969 Q24.5938,383.6406 25.0156,383.2031 Q25.2813,382.9375 25.4219,382.8594 Q25.5781,382.7813 25.7813,382.7813 Q26.1094,382.7813 26.3594,383.0469 Q26.625,383.2969 26.625,383.6406 Q26.625,383.9844 26.2813,384.3906 Q25.7813,384.9688 24.9844,385.2969 Q23.9063,385.75 22.6094,385.75 Q21.0938,385.75 19.8906,385.125 Q18.9063,384.625 18.2188,383.5625 Q17.5313,382.4844 17.5313,381.2031 L17.5313,380.0469 Q17.5313,378.7188 18.1406,377.5781 Q18.7656,376.4219 19.8594,375.8125 Q20.9531,375.1875 22.1875,375.1875 Q22.9219,375.1875 23.5625,375.3594 Q24.2188,375.5156 24.7656,375.875 Z " fill="#000000"/><text fill="#000000" font-family="sans-serif" font-size="14" lengthAdjust="spacing" textLength="62" x="36" y="385.7285">Inventario</text><line style="stroke:#181818;stroke-width:0.5;" x1="8" x2="100" y1="396" y2="396"/><text fill="#000000" font-family="sans-serif" font-size="14" lengthAdjust="spacing" textLength="63" x="13" y="414.5332">productos</text><line style="stroke:#181818;stroke-width:0.5;" x1="8" x2="100" y1="421.6094" y2="421.6094"/></g><!--class Receta--><g id="elem_Receta"><rect codeLine="18" fill="#F1F1F1" height="118.4375" id="Receta" rx="2.5" ry="2.5" style="stroke:#181818;stroke-width:0.5;" width="131" x="39.5" y="508"/><ellipse cx="78.8" cy="524" fill="#ADD1B2" rx="11" ry="11" style="stroke:#181818;stroke-width:1.0;"/><path d="M81.5656,519.875 Q81.7219,519.6563 81.9094,519.5469 Q82.0969,519.4375 82.3156,519.4375 Q82.6906,519.4375 82.925,519.7031 Q83.1594,519.9531 83.1594,520.5625 L83.1594,522.0156 Q83.1594,522.625 82.925,522.8906 Q82.6906,523.1563 82.3156,523.1563 Q81.9719,523.1563 81.7688,522.9531 Q81.5656,522.7656 81.4563,522.25 Q81.4094,521.8906 81.2219,521.7031 Q80.8938,521.3281 80.2844,521.1094 Q79.675,520.8906 79.05,520.8906 Q78.2844,520.8906 77.6438,521.2188 Q77.0188,521.5469 76.5188,522.2969 Q76.0344,523.0469 76.0344,524.0781 L76.0344,525.1719 Q76.0344,526.4063 76.925,527.2344 Q77.8156,528.0469 79.4094,528.0469 Q80.3469,528.0469 81.0031,527.7969 Q81.3938,527.6406 81.8156,527.2031 Q82.0813,526.9375 82.2219,526.8594 Q82.3781,526.7813 82.5813,526.7813 Q82.9094,526.7813 83.1594,527.0469 Q83.425,527.2969 83.425,527.6406 Q83.425,527.9844 83.0813,528.3906 Q82.5813,528.9688 81.7844,529.2969 Q80.7063,529.75 79.4094,529.75 Q77.8938,529.75 76.6906,529.125 Q75.7063,528.625 75.0188,527.5625 Q74.3313,526.4844 74.3313,525.2031 L74.3313,524.0469 Q74.3313,522.7188 74.9406,521.5781 Q75.5656,520.4219 76.6594,519.8125 Q77.7531,519.1875 78.9875,519.1875 Q79.7219,519.1875 80.3625,519.3594 Q81.0188,519.5156 81.5656,519.875 Z " fill="#000000"/><text fill="#000000" font-family="sans-serif" font-size="14" lengthAdjust="spacing" textLength="45" x="98.2" y="529.7285">Receta</text><line style="stroke:#181818;stroke-width:0.5;" x1="40.5" x2="169.5" y1="540" y2="540"/><text fill="#000000" font-family="sans-serif" font-size="14" lengthAdjust="spacing" textLength="48" x="45.5" y="558.5332">nombre</text><text fill="#000000" font-family="sans-serif" font-size="14" lengthAdjust="spacing" textLength="103" x="45.5" y="576.1426">listaIngredientes</text><text fill="#000000" font-family="sans-serif" font-size="14" lengthAdjust="spacing" textLength="119" x="45.5" y="593.752">tiempoPreparacion</text><text fill="#000000" font-family="sans-serif" font-size="14" lengthAdjust="spacing" textLength="38" x="45.5" y="611.3613">pasos</text><line style="stroke:#181818;stroke-width:0.5;" x1="40.5" x2="169.5" y1="618.4375" y2="618.4375"/></g><!--class Menu--><g id="elem_Menu"><rect codeLine="25" fill="#F1F1F1" height="83.2188" id="Menu" rx="2.5" ry="2.5" style="stroke:#181818;stroke-width:0.5;" width="67" x="71.5" y="704"/><ellipse cx="86.5" cy="720" fill="#ADD1B2" rx="11" ry="11" style="stroke:#181818;stroke-width:1.0;"/><path d="M89.2656,715.875 Q89.4219,715.6563 89.6094,715.5469 Q89.7969,715.4375 90.0156,715.4375 Q90.3906,715.4375 90.625,715.7031 Q90.8594,715.9531 90.8594,716.5625 L90.8594,718.0156 Q90.8594,718.625 90.625,718.8906 Q90.3906,719.1563 90.0156,719.1563 Q89.6719,719.1563 89.4688,718.9531 Q89.2656,718.7656 89.1563,718.25 Q89.1094,717.8906 88.9219,717.7031 Q88.5938,717.3281 87.9844,717.1094 Q87.375,716.8906 86.75,716.8906 Q85.9844,716.8906 85.3438,717.2188 Q84.7188,717.5469 84.2188,718.2969 Q83.7344,719.0469 83.7344,720.0781 L83.7344,721.1719 Q83.7344,722.4063 84.625,723.2344 Q85.5156,724.0469 87.1094,724.0469 Q88.0469,724.0469 88.7031,723.7969 Q89.0938,723.6406 89.5156,723.2031 Q89.7813,722.9375 89.9219,722.8594 Q90.0781,722.7813 90.2813,722.7813 Q90.6094,722.7813 90.8594,723.0469 Q91.125,723.2969 91.125,723.6406 Q91.125,723.9844 90.7813,724.3906 Q90.2813,724.9688 89.4844,725.2969 Q88.4063,725.75 87.1094,725.75 Q85.5938,725.75 84.3906,725.125 Q83.4063,724.625 82.7188,723.5625 Q82.0313,722.4844 82.0313,721.2031 L82.0313,720.0469 Q82.0313,718.7188 82.6406,717.5781 Q83.2656,716.4219 84.3594,715.8125 Q85.4531,715.1875 86.6875,715.1875 Q87.4219,715.1875 88.0625,715.3594 Q88.7188,715.5156 89.2656,715.875 Z " fill="#000000"/><text fill="#000000" font-family="sans-serif" font-size="14" lengthAdjust="spacing" textLength="35" x="100.5" y="725.7285">Menu</text><line style="stroke:#181818;stroke-width:0.5;" x1="72.5" x2="137.5" y1="736" y2="736"/><text fill="#000000" font-family="sans-serif" font-size="14" lengthAdjust="spacing" textLength="45" x="77.5" y="754.5332">comida</text><text fill="#000000" font-family="sans-serif" font-size="14" lengthAdjust="spacing" textLength="39" x="77.5" y="772.1426">precio</text><line style="stroke:#181818;stroke-width:0.5;" x1="72.5" x2="137.5" y1="779.2188" y2="779.2188"/></g><!--reverse link Presupuesto to Proveedor--><g id="link_Presupuesto_Proveedor"><path codeLine="30" d="M111.9101,101.4856 C102.1401,124.4956 94.46,142.56 83.69,167.9 " fill="none" id="Presupuesto-backto-Proveedor" style="stroke:#181818;stroke-width:1.0;"/><polygon fill="#181818" points="116.6,90.44,110.5732,94.3995,111.9101,101.4856,117.9369,97.5261,116.6,90.44" style="stroke:#181818;stroke-width:1.0;"/><text fill="#000000" font-family="sans-serif" font-size="13" lengthAdjust="spacing" textLength="28" x="105" y="134.4951">paga</text></g><!--reverse link Proveedor to Inventario--><g id="link_Proveedor_Inventario"><path codeLine="31" d="M56.9096,298.2846 C56.1296,324.2446 55.61,341.85 54.96,363.75 " fill="none" id="Proveedor-backto-Inventario" style="stroke:#181818;stroke-width:1.0;"/><polygon fill="#181818" points="57.27,286.29,53.0916,292.1672,56.9096,298.2846,61.088,292.4074,57.27,286.29" style="stroke:#181818;stroke-width:1.0;"/><text fill="#000000" font-family="sans-serif" font-size="13" lengthAdjust="spacing" textLength="60" x="58" y="330.4951">suministra</text></g><!--reverse link Inventario to Receta--><g id="link_Inventario_Receta"><path codeLine="32" d="M40.5651,441.7904 C37.1851,456.6304 38.13,462.63 43,478 C46.22,488.15 51.08,498.15 56.69,507.55 " fill="none" id="Inventario-backto-Receta" style="stroke:#181818;stroke-width:1.0;"/><polygon fill="#181818" points="43.23,430.09,37.9974,435.0519,40.5651,441.7904,45.7977,436.8285,43.23,430.09" style="stroke:#181818;stroke-width:1.0;"/><text fill="#000000" font-family="sans-serif" font-size="13" lengthAdjust="spacing" textLength="94" x="44" y="474.4951">permite preparar</text></g><!--reverse link Receta to Menu--><g id="link_Receta_Menu"><path codeLine="33" d="M105,638.28 C105,663.69 105,680.85 105,703.85 " fill="none" id="Receta-backto-Menu" style="stroke:#181818;stroke-width:1.0;"/><polygon fill="#181818" points="105,626.28,101,632.28,105,638.28,109,632.28,105,626.28" style="stroke:#181818;stroke-width:1.0;"/><text fill="#000000" font-family="sans-serif" font-size="13" lengthAdjust="spacing" textLength="25" x="106" y="670.4951">crea</text></g><!--reverse link Receta to Presupuesto--><g id="link_Receta_Presupuesto"><path codeLine="34" d="M138.2601,496.6992 C141.9901,486.9292 140.95,487.94 143,478 C144.62,470.17 143.01,468 143,460 C142.78,308.89 150.75,270.86 142,120 C141.44,110.29 140.46,99.85 139.38,90.07 " fill="none" id="Receta-backto-Presupuesto" style="stroke:#181818;stroke-width:1.0;"/><polygon fill="#181818" points="133.98,507.91,139.8569,503.7313,138.2601,496.6992,132.3831,500.8779,133.98,507.91" style="stroke:#181818;stroke-width:1.0;"/><text fill="#000000" font-family="sans-serif" font-size="13" lengthAdjust="spacing" textLength="46" x="146" y="330.4951">ajusta a</text></g><!--SRC=[PL1BYWCX4Drx2jU1NC1rDbaC324NgEYRO6YjfjHiGku-QXjQY2kfUj-o2wMaVmMfh0KfitufNTyAyUpuXAj7MBdFBDVzbJCjwgsK7Kn-0evby2A7cw1_CnRySToupWkizHmtTM5NREQq2vtZ4p5JTVqa-CPSO97fssdnATCvtWNELn6apRydhzLM4jgjASsIFuXb25eEtj7mHYKqr7oPm_4uzJLLwavg7xJrrCBeL8AFDPgGckODzcbYsfs3psYEBQQeiUce7iveAw1vFcSocXwbjjVq3m00]--></g></svg>