<?xml version="1.0" encoding="us-ascii" standalone="no"?><svg xmlns="http://www.w3.org/2000/svg" xmlns:xlink="http://www.w3.org/1999/xlink" contentStyleType="text/css" height="660px" preserveAspectRatio="none" style="width:545px;height:660px;background:#FFFFFF;" version="1.1" viewBox="0 0 545 660" width="545px" zoomAndPan="magnify"><defs/><g><!--cluster GestionInventario--><g id="cluster_GestionInventario"><path d="M19.5,272 L266.5,272 A12.5,12.5 0 0 1 279,284.5 L279,294.6094 L7,294.6094 L7,284.5 A12.5,12.5 0 0 1 19.5,272 " fill="#F1F1F1" style="stroke:#F1F1F1;stroke-width:1.0;"/><rect fill="none" height="230" rx="12.5" ry="12.5" style="stroke:#181818;stroke-width:0.5;" width="272" x="7" y="272"/><line style="stroke:#181818;stroke-width:0.5;" x1="7" x2="279" y1="294.6094" y2="294.6094"/><text fill="#000000" font-family="sans-serif" font-size="14" lengthAdjust="spacing" textLength="111" x="87.5" y="290.5332">GestionInventario</text></g><!--cluster GestionProveedor--><g id="cluster_GestionProveedor"><path d="M69.5,552 L202.5,552 A12.5,12.5 0 0 1 215,564.5 L215,574.6094 L57,574.6094 L57,564.5 A12.5,12.5 0 0 1 69.5,552 " fill="#F1F1F1" style="stroke:#F1F1F1;stroke-width:1.0;"/><rect fill="none" height="102" rx="12.5" ry="12.5" style="stroke:#181818;stroke-width:0.5;" width="158" x="57" y="552"/><line style="stroke:#181818;stroke-width:0.5;" x1="57" x2="215" y1="574.6094" y2="574.6094"/><text fill="#000000" font-family="sans-serif" font-size="14" lengthAdjust="spacing" textLength="115" x="78.5" y="570.5332">GestionProveedor</text></g><!--cluster GestionMenu--><g id="cluster_GestionMenu"><path d="M382.5,7 L509.5,7 A12.5,12.5 0 0 1 522,19.5 L522,29.6094 L370,29.6094 L370,19.5 A12.5,12.5 0 0 1 382.5,7 " fill="#F1F1F1" style="stroke:#F1F1F1;stroke-width:1.0;"/><rect fill="none" height="215" rx="12.5" ry="12.5" style="stroke:#181818;stroke-width:0.5;" width="152" x="370" y="7"/><line style="stroke:#181818;stroke-width:0.5;" x1="370" x2="522" y1="29.6094" y2="29.6094"/><text fill="#000000" font-family="sans-serif" font-size="14" lengthAdjust="spacing" textLength="84" x="404" y="25.5332">GestionMenu</text></g><!--cluster GestionReceta--><g id="cluster_GestionReceta"><path d="M372.5,272 L519.5,272 A12.5,12.5 0 0 1 532,284.5 L532,294.6094 L360,294.6094 L360,284.5 A12.5,12.5 0 0 1 372.5,272 " fill="#F1F1F1" style="stroke:#F1F1F1;stroke-width:1.0;"/><rect fill="none" height="368" rx="12.5" ry="12.5" style="stroke:#181818;stroke-width:0.5;" width="172" x="360" y="272"/><line style="stroke:#181818;stroke-width:0.5;" x1="360" x2="532" y1="294.6094" y2="294.6094"/><text fill="#000000" font-family="sans-serif" font-size="14" lengthAdjust="spacing" textLength="94" x="399" y="290.5332">GestionReceta</text></g><g id="GestionInventario.RevisandoStock"><rect fill="#F1F1F1" height="50" rx="12.5" ry="12.5" style="stroke:#181818;stroke-width:0.5;" width="122" x="84" y="308"/><line style="stroke:#181818;stroke-width:0.5;" x1="84" x2="206" y1="335.6094" y2="335.6094"/><text fill="#000000" font-family="sans-serif" font-size="14" lengthAdjust="spacing" textLength="102" x="94" y="327.5332">RevisandoStock</text></g><g id="GestionInventario.FaltaStock"><rect fill="#F1F1F1" height="50" rx="12.5" ry="12.5" style="stroke:#181818;stroke-width:0.5;" width="87" x="23.5" y="436"/><line style="stroke:#181818;stroke-width:0.5;" x1="23.5" x2="110.5" y1="463.6094" y2="463.6094"/><text fill="#000000" font-family="sans-serif" font-size="14" lengthAdjust="spacing" textLength="67" x="33.5" y="455.5332">FaltaStock</text></g><g id="GestionInventario.SuficienteStock"><rect fill="#F1F1F1" height="50" rx="12.5" ry="12.5" style="stroke:#181818;stroke-width:0.5;" width="117" x="145.5" y="436"/><line style="stroke:#181818;stroke-width:0.5;" x1="145.5" x2="262.5" y1="463.6094" y2="463.6094"/><text fill="#000000" font-family="sans-serif" font-size="14" lengthAdjust="spacing" textLength="97" x="155.5" y="455.5332">SuficienteStock</text></g><g id="GestionProveedor.PedidoRealizado"><rect fill="#F1F1F1" height="50" rx="12.5" ry="12.5" style="stroke:#181818;stroke-width:0.5;" width="126" x="73" y="588"/><line style="stroke:#181818;stroke-width:0.5;" x1="73" x2="199" y1="615.6094" y2="615.6094"/><text fill="#000000" font-family="sans-serif" font-size="14" lengthAdjust="spacing" textLength="106" x="83" y="607.5332">PedidoRealizado</text></g><ellipse cx="433" cy="53" fill="#222222" rx="10" ry="10" style="stroke:#222222;stroke-width:1.0;"/><g id="GestionMenu.ClientePidiendo"><rect fill="#F1F1F1" height="50" rx="12.5" ry="12.5" style="stroke:#181818;stroke-width:0.5;" width="119" x="386.5" y="156"/><line style="stroke:#181818;stroke-width:0.5;" x1="386.5" x2="505.5" y1="183.6094" y2="183.6094"/><text fill="#000000" font-family="sans-serif" font-size="14" lengthAdjust="spacing" textLength="99" x="396.5" y="175.5332">ClientePidiendo</text></g><g id="GestionReceta.PreparandoReceta"><rect fill="#F1F1F1" height="50" rx="12.5" ry="12.5" style="stroke:#181818;stroke-width:0.5;" width="140" x="376" y="308"/><line style="stroke:#181818;stroke-width:0.5;" x1="376" x2="516" y1="335.6094" y2="335.6094"/><text fill="#000000" font-family="sans-serif" font-size="14" lengthAdjust="spacing" textLength="120" x="386" y="327.5332">PreparandoReceta</text></g><g id="GestionReceta.EntregandoReceta"><rect fill="#F1F1F1" height="50" rx="12.5" ry="12.5" style="stroke:#181818;stroke-width:0.5;" width="139" x="376.5" y="436"/><line style="stroke:#181818;stroke-width:0.5;" x1="376.5" x2="515.5" y1="463.6094" y2="463.6094"/><text fill="#000000" font-family="sans-serif" font-size="14" lengthAdjust="spacing" textLength="119" x="386.5" y="455.5332">EntregandoReceta</text></g><ellipse cx="414" cy="613" fill="none" rx="11" ry="11" style="stroke:#222222;stroke-width:1.0;"/><ellipse cx="414" cy="613" fill="#222222" rx="6" ry="6" style="stroke:#222222;stroke-width:1.0;"/><ellipse cx="145" cy="53" fill="#222222" rx="10" ry="10" style="stroke:#222222;stroke-width:1.0;"/><g id="Abierta"><rect fill="#F1F1F1" height="50" rx="12.5" ry="12.5" style="stroke:#181818;stroke-width:0.5;" width="65" x="112.5" y="156"/><line style="stroke:#181818;stroke-width:0.5;" x1="112.5" x2="177.5" y1="183.6094" y2="183.6094"/><text fill="#000000" font-family="sans-serif" font-size="14" lengthAdjust="spacing" textLength="45" x="122.5" y="175.5332">Abierta</text></g><g id="GestionPresupuesto"><rect fill="#F1F1F1" height="50" rx="12.5" ry="12.5" style="stroke:#181818;stroke-width:0.5;" width="149" x="195.5" y="28"/><line style="stroke:#181818;stroke-width:0.5;" x1="195.5" x2="344.5" y1="55.6094" y2="55.6094"/><text fill="#000000" font-family="sans-serif" font-size="14" lengthAdjust="spacing" textLength="129" x="205.5" y="47.5332">GestionPresupuesto</text></g><!--link *start* to Abierta--><g id="link_*start*_Abierta"><path d="M145,63.06 C145,82.25 145,121.52 145,149.77 " fill="none" id="*start*-to-Abierta" style="stroke:#181818;stroke-width:1.0;"/><polygon fill="#181818" points="145,155.77,149,146.77,145,150.77,141,146.77,145,155.77" style="stroke:#181818;stroke-width:1.0;"/></g><!--link Abierta to RevisandoStock--><g id="link_Abierta_RevisandoStock"><path d="M145,206.1 C145,234.09 145,273.99 145,301.96 " fill="none" id="Abierta-to-RevisandoStock" style="stroke:#181818;stroke-width:1.0;"/><polygon fill="#181818" points="145,307.96,149,298.96,145,302.96,141,298.96,145,307.96" style="stroke:#181818;stroke-width:1.0;"/><text fill="#000000" font-family="sans-serif" font-size="13" lengthAdjust="spacing" textLength="79" x="146" y="252.4951">IniciarJornada</text></g><!--link RevisandoStock to FaltaStock--><g id="link_RevisandoStock_FaltaStock"><path d="M122.48,358.22 C114.8,367.18 106.51,377.68 100,388 C90.47,403.12 84.3941,415.9018 78.4741,430.2818 " fill="none" id="RevisandoStock-to-FaltaStock" style="stroke:#181818;stroke-width:1.0;"/><polygon fill="#181818" points="76.19,435.83,83.315,429.0304,78.0934,431.2065,75.9173,425.9849,76.19,435.83" style="stroke:#181818;stroke-width:1.0;"/><text fill="#000000" font-family="sans-serif" font-size="13" lengthAdjust="spacing" textLength="60" x="101" y="402.4951">StockBajo</text></g><!--link RevisandoStock to SuficienteStock--><g id="link_RevisandoStock_SuficienteStock"><path d="M156.38,358.29 C166.82,380.61 179.6751,408.0565 190.1151,430.3465 " fill="none" id="RevisandoStock-to-SuficienteStock" style="stroke:#181818;stroke-width:1.0;"/><polygon fill="#181818" points="192.66,435.78,192.465,425.9331,190.5392,431.252,185.2203,429.3263,192.66,435.78" style="stroke:#181818;stroke-width:1.0;"/><text fill="#000000" font-family="sans-serif" font-size="13" lengthAdjust="spacing" textLength="51" x="179" y="402.4951">StockOk</text></g><!--link FaltaStock to PedidoRealizado--><g id="link_FaltaStock_PedidoRealizado"><path d="M66.23,486.17 C66.56,501.06 68.48,520.24 75,536 C83.02,555.39 93.4956,569.4248 106.3756,583.2848 " fill="none" id="FaltaStock-to-PedidoRealizado" style="stroke:#181818;stroke-width:1.0;"/><polygon fill="#181818" points="110.46,587.68,107.2635,578.3643,107.0563,584.0174,101.4033,583.8102,110.46,587.68" style="stroke:#181818;stroke-width:1.0;"/><text fill="#000000" font-family="sans-serif" font-size="13" lengthAdjust="spacing" textLength="87" x="76" y="532.4951">RealizarPedido</text></g><!--link PedidoRealizado to SuficienteStock--><g id="link_PedidoRealizado_SuficienteStock"><path d="M146.9,587.96 C159.58,559.99 177.9141,519.5553 190.5941,491.5653 " fill="none" id="PedidoRealizado-to-SuficienteStock" style="stroke:#181818;stroke-width:1.0;"/><polygon fill="#181818" points="193.07,486.1,185.7126,492.6474,191.0067,490.6544,192.9997,495.9486,193.07,486.1" style="stroke:#181818;stroke-width:1.0;"/><text fill="#000000" font-family="sans-serif" font-size="13" lengthAdjust="spacing" textLength="90" x="179" y="532.4951">PedidoRecibido</text></g><!--link *start*GestionMenu to ClientePidiendo--><g id="link_*start*GestionMenu_ClientePidiendo"><path d="M433.93,63.06 C435.91,82.25 439.9752,121.5516 442.8852,149.8016 " fill="none" id="*start*GestionMenu-to-ClientePidiendo" style="stroke:#181818;stroke-width:1.0;"/><polygon fill="#181818" points="443.5,155.77,446.5567,146.4075,442.9877,150.7963,438.5989,147.2272,443.5,155.77" style="stroke:#181818;stroke-width:1.0;"/><text fill="#000000" font-family="sans-serif" font-size="13" lengthAdjust="spacing" textLength="71" x="441" y="122.4951">ClienteLlega</text></g><!--link ClientePidiendo to PreparandoReceta--><g id="link_ClientePidiendo_PreparandoReceta"><path d="M446,206.1 C446,234.09 446,273.99 446,301.96 " fill="none" id="ClientePidiendo-to-PreparandoReceta" style="stroke:#181818;stroke-width:1.0;"/><polygon fill="#181818" points="446,307.96,450,298.96,446,302.96,442,298.96,446,307.96" style="stroke:#181818;stroke-width:1.0;"/><text fill="#000000" font-family="sans-serif" font-size="13" lengthAdjust="spacing" textLength="74" x="447" y="252.4951">HacerPedido</text></g><!--link PreparandoReceta to EntregandoReceta--><g id="link_PreparandoReceta_EntregandoReceta"><path d="M446,358.29 C446,380.61 446,407.49 446,429.78 " fill="none" id="PreparandoReceta-to-EntregandoReceta" style="stroke:#181818;stroke-width:1.0;"/><polygon fill="#181818" points="446,435.78,450,426.78,446,430.78,442,426.78,446,435.78" style="stroke:#181818;stroke-width:1.0;"/><text fill="#000000" font-family="sans-serif" font-size="13" lengthAdjust="spacing" textLength="69" x="447" y="402.4951">RecetaLista</text></g><!--link EntregandoReceta to *end*GestionReceta--><g id="link_EntregandoReceta_*end*GestionReceta"><path d="M440.86,486.1 C433.72,519.56 422.3703,572.7317 417.3803,596.1517 " fill="none" id="EntregandoReceta-to-*end*GestionReceta" style="stroke:#181818;stroke-width:1.0;"/><polygon fill="#181818" points="416.13,602.02,421.9177,594.0511,417.1719,597.1298,414.0933,592.384,416.13,602.02" style="stroke:#181818;stroke-width:1.0;"/><text fill="#000000" font-family="sans-serif" font-size="13" lengthAdjust="spacing" textLength="100" x="434" y="532.4951">RecetaEntregada</text></g><!--SRC=[TP91Ky8m48Nl-HLxL6Tme8A77Xm50SKoTa2zC1wMPi58JPWqwOmw_dStfOnQjPUqoVVUljrqSVG8hTOPN2mLMOT250uTmPWAfuo-rYLfXrOPU1V0JurLaXcLga0jpToPR0CnN6kLARGJOpLAhFW64sGZp1tk9TNQnsVp7pttApRb4FH3ShiH7usigJKbaJIsZlgjJZ1AIIffPeIvUaDfsAX-jxkJIjE4_awmfpAr3C9ca2bfNsTOrDCTv9L1gYIlLV5w9ybfZRySs9fuo3kFfhPgnj8MRPXKZSPmXHdzQAM91DrGEyi5l-jsBudY09Nk5n9qeOyzMWCI_xW1AlpMyqVuNVZud0CBaUQetVqqWP9imHXqZgDsr3q-ERXxyZ2Y9NHw4BNZRZjkzs0ml8DmV2WEncbIHb0ORpC2oGcjMlfGw51Ci4IOUUtK2yLmkoKzkRpPRt0FfR96l_3SnEHX-WMSTbjzvM1EbhF0mrHSqWfzxbYH6QdqcYzcsubwaKXGhpsksPmACJ1iR5zZ6Cu_0G00]--></g></svg>