<svg xmlns="http://www.w3.org/2000/svg" xmlns:xlink="http://www.w3.org/1999/xlink" contentStyleType="text/css" data-diagram-type="CLASS" height="550px" preserveAspectRatio="none" style="width:280px;height:550px;background:#FFFFFF;" version="1.1" viewBox="0 0 280 550" width="280px" zoomAndPan="magnify"><defs/><g><!--class Menu--><g class="entity" data-entity="Menu" data-source-line="3" data-uid="ent0002" id="entity_Menu"><rect fill="#F1F1F1" height="26.4883" rx="2.5" ry="2.5" style="stroke:#181818;stroke-width:0.5;" width="43.2354" x="109.92" y="207.47"/><text fill="#000000" font-family="sans-serif" font-size="14" lengthAdjust="spacing" textLength="37.2354" x="112.92" y="226.0052">Menu</text></g><!--class ElementoMenu--><g class="entity" data-entity="ElementoMenu" data-source-line="4" data-uid="ent0003" id="entity_ElementoMenu"><rect fill="#F1F1F1" height="26.4883" rx="2.5" ry="2.5" style="stroke:#181818;stroke-width:0.5;" width="106.0645" x="78.51" y="310.96"/><text fill="#000000" font-family="sans-serif" font-size="14" lengthAdjust="spacing" textLength="100.0645" x="81.51" y="329.4952">ElementoMenu</text></g><!--class Precio--><g class="entity" data-entity="Precio" data-source-line="5" data-uid="ent0004" id="entity_Precio"><rect fill="#F1F1F1" height="26.4883" rx="2.5" ry="2.5" style="stroke:#181818;stroke-width:0.5;" width="47.084" x="7" y="414.44"/><text fill="#000000" font-family="sans-serif" font-size="14" lengthAdjust="spacing" textLength="41.084" x="10" y="432.9752">Precio</text></g><!--class Descripcion--><g class="entity" data-entity="Descripcion" data-source-line="6" data-uid="ent0005" id="entity_Descripcion"><rect fill="#F1F1F1" height="26.4883" rx="2.5" ry="2.5" style="stroke:#181818;stroke-width:0.5;" width="85.6865" x="88.7" y="414.44"/><text fill="#000000" font-family="sans-serif" font-size="14" lengthAdjust="spacing" textLength="79.6865" x="91.7" y="432.9752">Descripcion</text></g><!--class Ingredientes--><g class="entity" data-entity="Ingredientes" data-source-line="7" data-uid="ent0006" id="entity_Ingredientes"><rect fill="#F1F1F1" height="26.4883" rx="2.5" ry="2.5" style="stroke:#181818;stroke-width:0.5;" width="90.499" x="142.29" y="517.93"/><text fill="#000000" font-family="sans-serif" font-size="14" lengthAdjust="spacing" textLength="84.499" x="145.29" y="536.4652">Ingredientes</text></g><!--class Persona--><g class="entity" data-entity="Persona" data-source-line="8" data-uid="ent0007" id="entity_Persona"><rect fill="#F1F1F1" height="26.4883" rx="2.5" ry="2.5" style="stroke:#181818;stroke-width:0.5;" width="59.4229" x="35.83" y="7"/><text fill="#000000" font-family="sans-serif" font-size="14" lengthAdjust="spacing" textLength="53.4229" x="38.83" y="25.5352">Persona</text></g><!--class Chef--><g class="entity" data-entity="Chef" data-source-line="9" data-uid="ent0008" id="entity_Chef"><rect fill="#F1F1F1" height="26.4883" rx="2.5" ry="2.5" style="stroke:#181818;stroke-width:0.5;" width="37.3223" x="13.88" y="150.98"/><text fill="#000000" font-family="sans-serif" font-size="14" lengthAdjust="spacing" textLength="31.3223" x="16.88" y="169.5152">Chef</text></g><!--class Cliente--><g class="entity" data-entity="Cliente" data-source-line="10" data-uid="ent0009" id="entity_Cliente"><rect fill="#F1F1F1" height="26.4883" rx="2.5" ry="2.5" style="stroke:#181818;stroke-width:0.5;" width="53.3047" x="104.89" y="94.49"/><text fill="#000000" font-family="sans-serif" font-size="14" lengthAdjust="spacing" textLength="47.3047" x="107.89" y="113.0252">Cliente</text></g><!--link Menu to ElementoMenu--><g class="link" data-entity-1="Menu" data-entity-2="ElementoMenu" data-source-line="15" data-uid="lnk10" id="link_Menu_ElementoMenu"><path codeLine="15" d="M131.54,234.16 C131.54,253.63 131.54,279.11 131.54,298.65" fill="none" id="Menu-to-ElementoMenu" style="stroke:#181818;stroke-width:1;"/><polygon fill="#181818" points="131.54,310.65,135.54,304.65,131.54,298.65,127.54,304.65,131.54,310.65" style="stroke:#181818;stroke-width:1;"/><text fill="#000000" font-family="sans-serif" font-size="13" lengthAdjust="spacing" textLength="56.2212" x="132.54" y="277.5284">Contiene</text></g><!--link ElementoMenu to Precio--><g class="link" data-entity-1="ElementoMenu" data-entity-2="Precio" data-source-line="17" data-uid="lnk11" id="link_ElementoMenu_Precio"><path codeLine="17" d="M118.32,337.63 C109.51,345.98 97.73,357.27 87.54,367.44 C71.59,383.38 65.9702,389.1247 54.5502,401.2147" fill="none" id="ElementoMenu-to-Precio" style="stroke:#181818;stroke-width:1;"/><polygon fill="none" points="42.19,414.3,58.912,405.3347,50.1884,397.0946,42.19,414.3" style="stroke:#181818;stroke-width:1;"/><text fill="#000000" font-family="sans-serif" font-size="13" lengthAdjust="spacing" textLength="34.5313" x="88.54" y="381.0084">Tiene</text></g><!--link ElementoMenu to Descripcion--><g class="link" data-entity-1="ElementoMenu" data-entity-2="Descripcion" data-source-line="18" data-uid="lnk12" id="link_ElementoMenu_Descripcion"><path codeLine="18" d="M131.54,337.64 C131.54,357.12 131.54,376.6 131.54,396.14" fill="none" id="ElementoMenu-to-Descripcion" style="stroke:#181818;stroke-width:1;"/><polygon fill="none" points="131.54,414.14,137.54,396.14,125.54,396.14,131.54,414.14" style="stroke:#181818;stroke-width:1;"/><text fill="#000000" font-family="sans-serif" font-size="13" lengthAdjust="spacing" textLength="44.332" x="132.54" y="381.0084">Incluye</text></g><!--link ElementoMenu to Ingredientes--><g class="link" data-entity-1="ElementoMenu" data-entity-2="Ingredientes" data-source-line="19" data-uid="lnk13" id="link_ElementoMenu_Ingredientes"><path codeLine="19" d="M153.44,337.77 C164.5,345.13 177.29,355.35 185.54,367.44 C212.61,407.1 209.58,423.43 216.54,470.93 C217.64,478.41 218.78,480.72 216.54,487.93 C213.12,498.98 217.1228,495.7971 210.6428,503.6771" fill="none" id="ElementoMenu-to-Ingredientes" style="stroke:#181818;stroke-width:1;"/><polygon fill="none" points="199.21,517.58,215.2771,507.4881,206.0085,499.8662,199.21,517.58" style="stroke:#181818;stroke-width:1;"/><text fill="#000000" font-family="sans-serif" font-size="13" lengthAdjust="spacing" textLength="59.0459" x="213.64" y="432.7584">Hecho de</text></g><!--link Descripcion to Ingredientes--><g class="link" data-entity-1="Descripcion" data-entity-2="Ingredientes" data-source-line="21" data-uid="lnk14" id="link_Descripcion_Ingredientes"><path codeLine="21" d="M138.41,441.13 C149.16,460.61 161.145,482.3294 171.925,501.8694" fill="none" id="Descripcion-to-Ingredientes" style="stroke:#181818;stroke-width:1;"/><polygon fill="none" points="180.62,517.63,177.1786,498.971,166.6715,504.7677,180.62,517.63" style="stroke:#181818;stroke-width:1;"/><text fill="#000000" font-family="sans-serif" font-size="13" lengthAdjust="spacing" textLength="44.332" x="163.89" y="484.4984">Incluye</text></g><!--link Persona to Chef--><g class="link" data-entity-1="Persona" data-entity-2="Chef" data-source-line="23" data-uid="lnk15" id="link_Persona_Chef"><path codeLine="23" d="M62.61,33.85 C56.34,60.86 43.0086,118.2058 36.7786,145.0058" fill="none" id="Persona-to-Chef" style="stroke:#181818;stroke-width:1;"/><polygon fill="#181818" points="35.42,150.85,41.3539,142.9894,36.5521,145.9799,33.5617,141.178,35.42,150.85" style="stroke:#181818;stroke-width:1;"/></g><!--link Persona to Cliente--><g class="link" data-entity-1="Persona" data-entity-2="Cliente" data-source-line="24" data-uid="lnk16" id="link_Persona_Cliente"><path codeLine="24" d="M75.28,33.86 C87.76,50.02 105.6051,73.1294 118.0951,89.3194" fill="none" id="Persona-to-Cliente" style="stroke:#181818;stroke-width:1;"/><polygon fill="#181818" points="121.76,94.07,119.4297,84.5008,118.7059,90.1112,113.0955,89.3874,121.76,94.07" style="stroke:#181818;stroke-width:1;"/></g><!--link Chef to ElementoMenu--><g class="link" data-entity-1="Chef" data-entity-2="ElementoMenu" data-source-line="26" data-uid="lnk17" id="link_Chef_ElementoMenu"><path codeLine="26" d="M32.3,177.84 C32.52,192.19 34.43,215.95 43.54,233.96 C60.15,266.77 88.3915,291.5347 108.9215,307.0347" fill="none" id="Chef-to-ElementoMenu" style="stroke:#181818;stroke-width:1;"/><polygon fill="#181818" points="113.71,310.65,108.9374,302.0347,109.7196,307.6373,104.1171,308.4194,113.71,310.65" style="stroke:#181818;stroke-width:1;"/><text fill="#000000" font-family="sans-serif" font-size="13" lengthAdjust="spacing" textLength="47.6074" x="44.54" y="225.7784">Prepara</text></g><!--link Cliente to Menu--><g class="link" data-entity-1="Cliente" data-entity-2="Menu" data-source-line="27" data-uid="lnk18" id="link_Cliente_Menu"><path codeLine="27" d="M131.54,121.46 C131.54,142.87 131.54,179.82 131.54,201.13" fill="none" id="Cliente-to-Menu" style="stroke:#181818;stroke-width:1;"/><polygon fill="#181818" points="131.54,207.13,135.54,198.13,131.54,202.13,127.54,198.13,131.54,207.13" style="stroke:#181818;stroke-width:1;"/><text fill="#000000" font-family="sans-serif" font-size="13" lengthAdjust="spacing" textLength="36.0103" x="132.54" y="169.2884">Busca</text></g><!--link Cliente to ElementoMenu--><g class="link" data-entity-1="Cliente" data-entity-2="ElementoMenu" data-source-line="28" data-uid="lnk19" id="link_Cliente_ElementoMenu"><path codeLine="28" d="M150.46,121.44 C160.08,128.91 171.08,139.19 177.54,150.98 C202.06,195.69 193.08,213.16 197.54,263.96 C198.2,271.48 201.17,274.33 197.54,280.96 C190.36,294.08 182.4625,300.9223 169.7525,307.6523" fill="none" id="Cliente-to-ElementoMenu" style="stroke:#181818;stroke-width:1;"/><polygon fill="#181818" points="164.45,310.46,174.2756,309.7835,168.8688,308.1202,170.532,302.7134,164.45,310.46" style="stroke:#181818;stroke-width:1;"/><text fill="#000000" font-family="sans-serif" font-size="13" lengthAdjust="spacing" textLength="26.3682" x="197.02" y="225.7784">Pide</text></g><!--SRC=[RP0z3i8m38Ntd28pKY-GeGC52GQa3boWk8P6oa-Lj4Cb3e-R7oa1DkVvi_EUGGtUynkQbK4epmerciKMKkyGf4sF4tfmSYR19ELgNWv7IKFeymGwRysGNjs4progm34soH4vwddPk4Rz83vA81qewk_VywOvL7u4xwnPQ0C1fKxWkqqs1Ry7uBTVE1Ta6jIw_SFAE89V42RBH_gm68_W5vatiXIUe3P6huHyWBqJbCg1s5FCWnjO0WCIinzN3xLUtwQd-x4F]--></g></svg>