<svg xmlns="http://www.w3.org/2000/svg" xmlns:xlink="http://www.w3.org/1999/xlink" contentStyleType="text/css" data-diagram-type="STATE" height="734px" preserveAspectRatio="none" style="width:490px;height:734px;background:#FFFFFF;" version="1.1" viewBox="0 0 490 734" width="490px" zoomAndPan="magnify"><defs/><g><ellipse cx="294.0134" cy="16" fill="#222222" rx="10" ry="10" style="stroke:#222222;stroke-width:1;"/><g id="Borrador"><rect fill="#F1F1F1" height="50" rx="12.5" ry="12.5" style="stroke:#181818;stroke-width:0.5;" width="81.4688" x="253.2834" y="87"/><line style="stroke:#181818;stroke-width:0.5;" x1="253.2834" x2="334.7521" y1="113.2969" y2="113.2969"/><text fill="#000000" font-family="sans-serif" font-size="14" lengthAdjust="spacing" textLength="61.4688" x="263.2834" y="104.9951">Borrador</text></g><g id="Revisando"><rect fill="#F1F1F1" height="50" rx="12.5" ry="12.5" style="stroke:#181818;stroke-width:0.5;" width="92.7139" x="209.6534" y="214"/><line style="stroke:#181818;stroke-width:0.5;" x1="209.6534" x2="302.3672" y1="240.2969" y2="240.2969"/><text fill="#000000" font-family="sans-serif" font-size="14" lengthAdjust="spacing" textLength="72.7139" x="219.6534" y="231.9951">Revisando</text></g><g id="Publicada"><rect fill="#F1F1F1" height="50" rx="12.5" ry="12.5" style="stroke:#181818;stroke-width:0.5;" width="87.7236" x="99.1534" y="341"/><line style="stroke:#181818;stroke-width:0.5;" x1="99.1534" x2="186.877" y1="367.2969" y2="367.2969"/><text fill="#000000" font-family="sans-serif" font-size="14" lengthAdjust="spacing" textLength="67.7236" x="109.1534" y="358.9951">Publicada</text></g><g id="Archivada"><rect fill="#F1F1F1" height="50" rx="12.5" ry="12.5" style="stroke:#181818;stroke-width:0.5;" width="90.123" x="183.9534" y="468"/><line style="stroke:#181818;stroke-width:0.5;" x1="183.9534" x2="274.0764" y1="494.2969" y2="494.2969"/><text fill="#000000" font-family="sans-serif" font-size="14" lengthAdjust="spacing" textLength="70.123" x="193.9534" y="485.9951">Archivada</text></g><g id="Eliminada"><rect fill="#F1F1F1" height="50" rx="12.5" ry="12.5" style="stroke:#181818;stroke-width:0.5;" width="89.0703" x="184.4734" y="595"/><line style="stroke:#181818;stroke-width:0.5;" x1="184.4734" x2="273.5437" y1="621.2969" y2="621.2969"/><text fill="#000000" font-family="sans-serif" font-size="14" lengthAdjust="spacing" textLength="69.0703" x="194.4734" y="612.9951">Eliminada</text></g><ellipse cx="17.0134" cy="717" fill="none" rx="11" ry="11" style="stroke:#222222;stroke-width:1;"/><ellipse cx="17.0134" cy="717" fill="#222222" rx="6" ry="6" style="stroke:#222222;stroke-width:1;"/><!--link *start* to Borrador--><g class="link" data-entity-1=".start." data-entity-2="Borrador" data-source-line="1" data-uid="lnk4" id="link_.start._Borrador"><path d="M294.0134,26.36 C294.0134,40.29 294.0134,60.95 294.0134,80.65" fill="none" id="*start*-to-Borrador" style="stroke:#181818;stroke-width:1;"/><polygon fill="#181818" points="294.0134,86.65,298.0134,77.65,294.0134,81.65,290.0134,77.65,294.0134,86.65" style="stroke:#181818;stroke-width:1;"/></g><!--link Borrador to Revisando--><g class="link" data-entity-1="Borrador" data-entity-2="Revisando" data-source-line="3" data-uid="lnk6" id="link_Borrador_Revisando"><path d="M253.1534,112.81 C212.0134,115.08 150.4034,125.75 120.0134,167 C93.4734,203.03 154.4321,221.2661 203.5421,230.2861" fill="none" id="Borrador-to-Revisando" style="stroke:#181818;stroke-width:1;"/><polygon fill="#181818" points="209.4434,231.37,201.314,225.81,204.5256,230.4668,199.8688,233.6784,209.4434,231.37" style="stroke:#181818;stroke-width:1;"/><text fill="#000000" font-family="sans-serif" font-size="13" lengthAdjust="spacing" textLength="129.873" x="121.0134" y="180.0669">enviar para revisi&#243;n</text></g><!--link Revisando to Borrador--><g class="link" data-entity-1="Revisando" data-entity-2="Borrador" data-source-line="5" data-uid="lnk9" id="link_Revisando_Borrador"><path d="M263.4134,213.66 C270.1034,191.66 278.1592,165.1609 284.8492,143.1409" fill="none" id="Revisando-to-Borrador" style="stroke:#181818;stroke-width:1;"/><polygon fill="#181818" points="286.5934,137.4,280.1498,144.8486,285.1399,142.1841,287.8044,147.1741,286.5934,137.4" style="stroke:#181818;stroke-width:1;"/><text fill="#000000" font-family="sans-serif" font-size="13" lengthAdjust="spacing" textLength="109.6177" x="279.0134" y="180.0669">solicitar cambios</text></g><!--link Revisando to Publicada--><g class="link" data-entity-1="Revisando" data-entity-2="Publicada" data-source-line="4" data-uid="lnk8" id="link_Revisando_Publicada"><path d="M233.9534,264.4 C214.0434,286.42 188.9272,314.2093 169.0372,336.2093" fill="none" id="Revisando-to-Publicada" style="stroke:#181818;stroke-width:1;"/><polygon fill="#181818" points="165.0134,340.66,174.0162,336.6665,168.3666,336.9511,168.082,331.3014,165.0134,340.66" style="stroke:#181818;stroke-width:1;"/><text fill="#000000" font-family="sans-serif" font-size="13" lengthAdjust="spacing" textLength="51.0796" x="208.0134" y="307.0669">aprobar</text></g><!--link Publicada to Archivada--><g class="link" data-entity-1="Publicada" data-entity-2="Archivada" data-source-line="7" data-uid="lnk11" id="link_Publicada_Archivada"><path d="M135.8934,391.18 C133.0534,405.65 132.0834,423.92 140.0134,438 C149.5834,455.01 161.5664,464.5777 178.4164,473.0777" fill="none" id="Publicada-to-Archivada" style="stroke:#181818;stroke-width:1;"/><polygon fill="#181818" points="183.7734,475.78,177.5394,468.1552,179.3092,473.5281,173.9363,475.2978,183.7734,475.78" style="stroke:#181818;stroke-width:1;"/><text fill="#000000" font-family="sans-serif" font-size="13" lengthAdjust="spacing" textLength="53.314" x="141.0134" y="434.0669">archivar</text></g><!--link Archivada to Publicada--><g class="link" data-entity-1="Archivada" data-entity-2="Publicada" data-source-line="8" data-uid="lnk12" id="link_Archivada_Publicada"><path d="M221.5234,467.75 C216.4434,453.43 208.8634,435.34 199.0134,421 C191.6734,410.31 186.3478,404.1459 177.0778,395.4859" fill="none" id="Archivada-to-Publicada" style="stroke:#181818;stroke-width:1;"/><polygon fill="#181818" points="172.6934,391.39,176.5394,400.4569,176.3471,394.8033,182.0006,394.6109,172.6934,391.39" style="stroke:#181818;stroke-width:1;"/><text fill="#000000" font-family="sans-serif" font-size="13" lengthAdjust="spacing" textLength="60.0742" x="210.0134" y="434.0669">restaurar</text></g><!--link Borrador to Eliminada--><g class="link" data-entity-1="Borrador" data-entity-2="Eliminada" data-source-line="10" data-uid="lnk14" id="link_Borrador_Eliminada"><path d="M335.0834,126.97 C355.8534,135.76 380.1534,148.9 397.0134,167 C420.4834,192.2 428.0134,203.57 428.0134,238 C428.0134,238 428.0134,238 428.0134,494 C428.0134,566.42 338.204,597.2244 279.534,610.0944" fill="none" id="Borrador-to-Eliminada" style="stroke:#181818;stroke-width:1;"/><polygon fill="#181818" points="273.6734,611.38,283.3214,613.3587,278.5572,610.3087,281.6073,605.5445,273.6734,611.38" style="stroke:#181818;stroke-width:1;"/><text fill="#000000" font-family="sans-serif" font-size="13" lengthAdjust="spacing" textLength="53.0474" x="429.0134" y="370.5669">eliminar</text></g><!--link Revisando to Eliminada--><g class="link" data-entity-1="Revisando" data-entity-2="Eliminada" data-source-line="11" data-uid="lnk15" id="link_Revisando_Eliminada"><path d="M266.8834,264.2 C290.3034,320.1 339.6934,461.33 292.0134,565 C286.7134,576.52 282.2016,582.6337 272.5416,590.7737" fill="none" id="Revisando-to-Eliminada" style="stroke:#181818;stroke-width:1;"/><polygon fill="#181818" points="267.9534,594.64,277.4132,591.8994,271.7769,591.4181,272.2582,585.7818,267.9534,594.64" style="stroke:#181818;stroke-width:1;"/><text fill="#000000" font-family="sans-serif" font-size="13" lengthAdjust="spacing" textLength="53.0474" x="313.0134" y="434.0669">eliminar</text></g><!--link Publicada to Eliminada--><g class="link" data-entity-1="Publicada" data-entity-2="Eliminada" data-source-line="12" data-uid="lnk16" id="link_Publicada_Eliminada"><path d="M128.8534,391.31 C112.9334,422.05 91.6834,476.01 111.0134,518 C126.1834,550.95 152.9578,573.8722 179.7278,591.3322" fill="none" id="Publicada-to-Eliminada" style="stroke:#181818;stroke-width:1;"/><polygon fill="#181818" points="184.7534,594.61,179.4002,586.343,180.5654,591.8785,175.0298,593.0437,184.7534,594.61" style="stroke:#181818;stroke-width:1;"/><text fill="#000000" font-family="sans-serif" font-size="13" lengthAdjust="spacing" textLength="53.0474" x="112.0134" y="497.5669">eliminar</text></g><!--link Archivada to Eliminada--><g class="link" data-entity-1="Archivada" data-entity-2="Eliminada" data-source-line="13" data-uid="lnk17" id="link_Archivada_Eliminada"><path d="M229.0134,518.4 C229.0134,540.42 229.0134,566.66 229.0134,588.66" fill="none" id="Archivada-to-Eliminada" style="stroke:#181818;stroke-width:1;"/><polygon fill="#181818" points="229.0134,594.66,233.0134,585.66,229.0134,589.66,225.0134,585.66,229.0134,594.66" style="stroke:#181818;stroke-width:1;"/><text fill="#000000" font-family="sans-serif" font-size="13" lengthAdjust="spacing" textLength="53.0474" x="230.0134" y="561.0669">eliminar</text></g><!--link Publicada to *end*--><g class="link" data-entity-1="Publicada" data-entity-2=".end." data-source-line="15" data-uid="lnk19" id="link_Publicada_.end."><path d="M121.5634,391.27 C114.5534,400.15 107.2434,410.58 102.0134,421 C49.6734,525.33 25.6216,661.1238 19.4816,699.9038" fill="none" id="Publicada-to-*end*" style="stroke:#181818;stroke-width:1;"/><polygon fill="#181818" points="18.5434,705.83,23.9016,697.5663,19.3253,700.8915,16,696.3152,18.5434,705.83" style="stroke:#181818;stroke-width:1;"/></g><!--link Eliminada to *end*--><g class="link" data-entity-1="Eliminada" data-entity-2=".end." data-source-line="16" data-uid="lnk20" id="link_Eliminada_.end."><path d="M184.0534,641.15 C133.4934,663.8 60.2992,696.6074 32.5692,709.0274" fill="none" id="Eliminada-to-*end*" style="stroke:#181818;stroke-width:1;"/><polygon fill="#181818" points="27.0934,711.48,36.9422,711.4517,31.6566,709.4362,33.6721,704.1506,27.0934,711.48" style="stroke:#181818;stroke-width:1;"/></g><!--SRC=[RS_12eCm30RWUvuYPy4Ny33OOFUngtY8jh20Df9gNsoFu8jDfrknz1P-llvDwgB1ihpWJLJ9Y0Byfc_yj84zEIDOeNM1IN4a9TGjv-Nj88hDF-QsvuuChPv6bPOq4V_w2hsibgUriwEXPV40yVrchzgzE1nj-wmGm_H3jNwYMIazujxpm6utTf_JhRBal4oMd9V9agIcBXg8xaW-]--></g></svg>