<?xml version="1.0" encoding="us-ascii" standalone="no"?><svg xmlns="http://www.w3.org/2000/svg" xmlns:xlink="http://www.w3.org/1999/xlink" contentStyleType="text/css" height="921px" preserveAspectRatio="none" style="width:819px;height:921px;background:#FFFFFF;" version="1.1" viewBox="0 0 819 921" width="819px" zoomAndPan="magnify"><defs/><g><text fill="#000000" font-family="sans-serif" font-size="14" font-weight="bold" lengthAdjust="spacing" textLength="213" x="296" y="24.5332">Modelo de Dominio - Cafeter&#237;a</text><g id="elem_Menu"><rect fill="#F1F1F1" height="37.6094" style="stroke:#181818;stroke-width:0.5;" width="49" x="193.5" y="45.6094"/><text fill="#000000" font-family="sans-serif" font-size="14" lengthAdjust="spacing" textLength="35" x="200.5" y="62.1426">Menu</text><line style="stroke:#181818;stroke-width:0.5;" x1="194.5" x2="241.5" y1="67.2188" y2="67.2188"/></g><g id="elem_Plato"><rect fill="#F1F1F1" height="37.6094" style="stroke:#181818;stroke-width:0.5;" width="46" x="195" y="161.6094"/><text fill="#000000" font-family="sans-serif" font-size="14" lengthAdjust="spacing" textLength="32" x="202" y="178.1426">Plato</text><line style="stroke:#181818;stroke-width:0.5;" x1="196" x2="240" y1="183.2188" y2="183.2188"/></g><g id="elem_Categoria"><rect fill="#F1F1F1" height="37.6094" style="stroke:#181818;stroke-width:0.5;" width="76" x="308" y="277.6094"/><text fill="#000000" font-family="sans-serif" font-size="14" lengthAdjust="spacing" textLength="62" x="315" y="294.1426">Categoria</text><line style="stroke:#181818;stroke-width:0.5;" x1="309" x2="383" y1="299.2188" y2="299.2188"/></g><g id="elem_PrecioVenta"><rect fill="#F1F1F1" height="37.6094" style="stroke:#181818;stroke-width:0.5;" width="91" x="74.5" y="277.6094"/><text fill="#000000" font-family="sans-serif" font-size="14" lengthAdjust="spacing" textLength="77" x="81.5" y="294.1426">PrecioVenta</text><line style="stroke:#181818;stroke-width:0.5;" x1="75.5" x2="164.5" y1="299.2188" y2="299.2188"/></g><g id="elem_Receta"><rect fill="#F1F1F1" height="37.6094" style="stroke:#181818;stroke-width:0.5;" width="59" x="200.5" y="277.6094"/><text fill="#000000" font-family="sans-serif" font-size="14" lengthAdjust="spacing" textLength="45" x="207.5" y="294.1426">Receta</text><line style="stroke:#181818;stroke-width:0.5;" x1="201.5" x2="258.5" y1="299.2188" y2="299.2188"/></g><g id="elem_Ingrediente"><rect fill="#F1F1F1" height="37.6094" style="stroke:#181818;stroke-width:0.5;" width="85" x="296.5" y="413.6094"/><text fill="#000000" font-family="sans-serif" font-size="14" lengthAdjust="spacing" textLength="71" x="303.5" y="430.1426">Ingrediente</text><line style="stroke:#181818;stroke-width:0.5;" x1="297.5" x2="380.5" y1="435.2188" y2="435.2188"/></g><g id="elem_Paso"><rect fill="#F1F1F1" height="37.6094" style="stroke:#181818;stroke-width:0.5;" width="46" x="7" y="413.6094"/><text fill="#000000" font-family="sans-serif" font-size="14" lengthAdjust="spacing" textLength="32" x="14" y="430.1426">Paso</text><line style="stroke:#181818;stroke-width:0.5;" x1="8" x2="52" y1="435.2188" y2="435.2188"/></g><g id="elem_Porcion"><rect fill="#F1F1F1" height="37.6094" style="stroke:#181818;stroke-width:0.5;" width="62" x="199" y="413.6094"/><text fill="#000000" font-family="sans-serif" font-size="14" lengthAdjust="spacing" textLength="48" x="206" y="430.1426">Porcion</text><line style="stroke:#181818;stroke-width:0.5;" x1="200" x2="260" y1="435.2188" y2="435.2188"/></g><g id="elem_Inventario"><rect fill="#F1F1F1" height="37.6094" style="stroke:#181818;stroke-width:0.5;" width="76" x="88" y="413.6094"/><text fill="#000000" font-family="sans-serif" font-size="14" lengthAdjust="spacing" textLength="62" x="95" y="430.1426">Inventario</text><line style="stroke:#181818;stroke-width:0.5;" x1="89" x2="163" y1="435.2188" y2="435.2188"/></g><g id="elem_Producto"><rect fill="#F1F1F1" height="37.6094" style="stroke:#181818;stroke-width:0.5;" width="71" x="393.5" y="529.6094"/><text fill="#000000" font-family="sans-serif" font-size="14" lengthAdjust="spacing" textLength="57" x="400.5" y="546.1426">Producto</text><line style="stroke:#181818;stroke-width:0.5;" x1="394.5" x2="463.5" y1="551.2188" y2="551.2188"/></g><g id="elem_Stock"><rect fill="#F1F1F1" height="37.6094" style="stroke:#181818;stroke-width:0.5;" width="49" x="542.5" y="645.6094"/><text fill="#000000" font-family="sans-serif" font-size="14" lengthAdjust="spacing" textLength="35" x="549.5" y="662.1426">Stock</text><line style="stroke:#181818;stroke-width:0.5;" x1="543.5" x2="590.5" y1="667.2188" y2="667.2188"/></g><g id="elem_Lote"><rect fill="#F1F1F1" height="37.6094" style="stroke:#181818;stroke-width:0.5;" width="42" x="549" y="761.6094"/><text fill="#000000" font-family="sans-serif" font-size="14" lengthAdjust="spacing" textLength="28" x="556" y="778.1426">Lote</text><line style="stroke:#181818;stroke-width:0.5;" x1="550" x2="590" y1="783.2188" y2="783.2188"/></g><g id="elem_Almacen"><rect fill="#F1F1F1" height="37.6094" style="stroke:#181818;stroke-width:0.5;" width="68" x="365" y="645.6094"/><text fill="#000000" font-family="sans-serif" font-size="14" lengthAdjust="spacing" textLength="54" x="372" y="662.1426">Almacen</text><line style="stroke:#181818;stroke-width:0.5;" x1="366" x2="432" y1="667.2188" y2="667.2188"/></g><g id="elem_Proveedor"><rect fill="#F1F1F1" height="37.6094" style="stroke:#181818;stroke-width:0.5;" width="80" x="541" y="277.6094"/><text fill="#000000" font-family="sans-serif" font-size="14" lengthAdjust="spacing" textLength="66" x="548" y="294.1426">Proveedor</text><line style="stroke:#181818;stroke-width:0.5;" x1="542" x2="620" y1="299.2188" y2="299.2188"/></g><g id="elem_Contacto"><rect fill="#F1F1F1" height="37.6094" style="stroke:#181818;stroke-width:0.5;" width="71" x="533.5" y="413.6094"/><text fill="#000000" font-family="sans-serif" font-size="14" lengthAdjust="spacing" textLength="57" x="540.5" y="430.1426">Contacto</text><line style="stroke:#181818;stroke-width:0.5;" x1="534.5" x2="603.5" y1="435.2188" y2="435.2188"/></g><g id="elem_Pedido"><rect fill="#F1F1F1" height="37.6094" style="stroke:#181818;stroke-width:0.5;" width="58" x="585" y="877.6094"/><text fill="#000000" font-family="sans-serif" font-size="14" lengthAdjust="spacing" textLength="44" x="592" y="894.1426">Pedido</text><line style="stroke:#181818;stroke-width:0.5;" x1="586" x2="642" y1="899.2188" y2="899.2188"/></g><g id="elem_Cotizacion"><rect fill="#F1F1F1" height="37.6094" style="stroke:#181818;stroke-width:0.5;" width="79" x="419.5" y="413.6094"/><text fill="#000000" font-family="sans-serif" font-size="14" lengthAdjust="spacing" textLength="65" x="426.5" y="430.1426">Cotizacion</text><line style="stroke:#181818;stroke-width:0.5;" x1="420.5" x2="497.5" y1="435.2188" y2="435.2188"/></g><g id="elem_Presupuesto"><rect fill="#F1F1F1" height="37.6094" style="stroke:#181818;stroke-width:0.5;" width="94" x="653" y="45.6094"/><text fill="#000000" font-family="sans-serif" font-size="14" lengthAdjust="spacing" textLength="80" x="660" y="62.1426">Presupuesto</text><line style="stroke:#181818;stroke-width:0.5;" x1="654" x2="746" y1="67.2188" y2="67.2188"/></g><g id="elem_Partida"><rect fill="#F1F1F1" height="37.6094" style="stroke:#181818;stroke-width:0.5;" width="59" x="621.5" y="161.6094"/><text fill="#000000" font-family="sans-serif" font-size="14" lengthAdjust="spacing" textLength="45" x="628.5" y="178.1426">Partida</text><line style="stroke:#181818;stroke-width:0.5;" x1="622.5" x2="679.5" y1="183.2188" y2="183.2188"/></g><g id="elem_Gasto"><rect fill="#F1F1F1" height="37.6094" style="stroke:#181818;stroke-width:0.5;" width="52" x="695" y="345.6094"/><text fill="#000000" font-family="sans-serif" font-size="14" lengthAdjust="spacing" textLength="38" x="702" y="362.1426">Gasto</text><line style="stroke:#181818;stroke-width:0.5;" x1="696" x2="746" y1="367.2188" y2="367.2188"/></g><g id="elem_Periodo"><rect fill="#F1F1F1" height="37.6094" style="stroke:#181818;stroke-width:0.5;" width="63" x="715.5" y="161.6094"/><text fill="#000000" font-family="sans-serif" font-size="14" lengthAdjust="spacing" textLength="49" x="722.5" y="178.1426">Periodo</text><line style="stroke:#181818;stroke-width:0.5;" x1="716.5" x2="777.5" y1="183.2188" y2="183.2188"/></g><!--link Menu to Plato--><g id="link_Menu_Plato"><path codeLine="9" d="M218,83.6694 C218,104.8894 218,133.9094 218,155.2494 " fill="none" id="Menu-to-Plato" style="stroke:#181818;stroke-width:1.0;"/><polygon fill="#181818" points="218,161.2494,222,152.2494,218,156.2494,214,152.2494,218,161.2494" style="stroke:#181818;stroke-width:1.0;"/><text fill="#000000" font-family="sans-serif" font-size="13" lengthAdjust="spacing" textLength="49" x="219" y="128.1045">contiene</text></g><!--link Plato to Categoria--><g id="link_Plato_Categoria"><path codeLine="10" d="M241.38,190.0994 C260.73,198.0094 288.02,211.3594 307,229.6094 C321.2,243.2594 329.5072,257.7363 336.1072,272.1163 " fill="none" id="Plato-to-Categoria" style="stroke:#181818;stroke-width:1.0;"/><polygon fill="#181818" points="338.61,277.5694,338.4912,267.7212,336.5243,273.0251,331.2204,271.0583,338.61,277.5694" style="stroke:#181818;stroke-width:1.0;"/><text fill="#000000" font-family="sans-serif" font-size="13" lengthAdjust="spacing" textLength="68" x="322" y="244.1045">pertenece a</text></g><!--link Plato to PrecioVenta--><g id="link_Plato_PrecioVenta"><path codeLine="11" d="M201.51,199.7094 C193.44,208.6394 183.63,219.6194 175,229.6094 C161.15,245.6394 149.5493,259.5537 138.5793,272.9037 " fill="none" id="Plato-to-PrecioVenta" style="stroke:#181818;stroke-width:1.0;"/><polygon fill="#181818" points="134.77,277.5394,143.5743,273.1253,137.9444,273.6763,137.3934,268.0463,134.77,277.5394" style="stroke:#181818;stroke-width:1.0;"/><text fill="#000000" font-family="sans-serif" font-size="13" lengthAdjust="spacing" textLength="28" x="176" y="244.1045">tiene</text></g><!--link Receta to Ingrediente--><g id="link_Receta_Ingrediente"><path codeLine="19" d="M254.38,315.7394 C264.8,324.1594 276.68,334.7094 286,345.6094 C304.23,366.9394 317.5944,389.8852 327.1344,408.0852 " fill="none" id="Receta-to-Ingrediente" style="stroke:#181818;stroke-width:1.0;"/><polygon fill="#181818" points="329.92,413.3994,329.2844,403.571,327.5987,408.9709,322.1989,407.2851,329.92,413.3994" style="stroke:#181818;stroke-width:1.0;"/><text fill="#000000" font-family="sans-serif" font-size="13" lengthAdjust="spacing" textLength="46" x="312" y="370.1045">requiere</text></g><!--link Receta to Paso--><g id="link_Receta_Paso"><path codeLine="20" d="M203.03,315.6794 C163.47,342.1894 95.3745,387.8094 58.1245,412.7694 " fill="none" id="Receta-to-Paso" style="stroke:#181818;stroke-width:1.0;"/><polygon fill="#181818" points="53.14,416.1094,62.8433,414.4225,57.2937,413.3261,58.3901,407.7765,53.14,416.1094" style="stroke:#181818;stroke-width:1.0;"/><text fill="#000000" font-family="sans-serif" font-size="13" lengthAdjust="spacing" textLength="34" x="154" y="370.1045">define</text></g><!--link Receta to Porcion--><g id="link_Receta_Porcion"><path codeLine="21" d="M230,315.6794 C230,341.2594 230,381.7394 230,407.3994 " fill="none" id="Receta-to-Porcion" style="stroke:#181818;stroke-width:1.0;"/><polygon fill="#181818" points="230,413.3994,234,404.3994,230,408.3994,226,404.3994,230,413.3994" style="stroke:#181818;stroke-width:1.0;"/><text fill="#000000" font-family="sans-serif" font-size="13" lengthAdjust="spacing" textLength="46" x="231" y="370.1045">produce</text></g><!--link Inventario to Producto--><g id="link_Inventario_Producto"><path codeLine="30" d="M164.05,450.6194 C195.63,464.4894 241.87,484.2294 283,499.6094 C320.24,513.5294 357.8609,525.7269 387.5909,534.9769 " fill="none" id="Inventario-to-Producto" style="stroke:#181818;stroke-width:1.0;"/><polygon fill="#181818" points="393.32,536.7594,385.9147,530.2662,388.5457,535.2739,383.538,537.905,393.32,536.7594" style="stroke:#181818;stroke-width:1.0;"/><text fill="#000000" font-family="sans-serif" font-size="13" lengthAdjust="spacing" textLength="49" x="284" y="496.1045">gestiona</text></g><!--link Producto to Stock--><g id="link_Producto_Stock"><path codeLine="31" d="M464.78,566.3394 C480.44,574.5594 498.51,585.3494 513,597.6094 C529.62,611.6694 541.4854,626.4407 551.5354,640.6507 " fill="none" id="Producto-to-Stock" style="stroke:#181818;stroke-width:1.0;"/><polygon fill="#181818" points="555,645.5494,553.0689,635.8917,552.1129,641.4672,546.5374,640.5111,555,645.5494" style="stroke:#181818;stroke-width:1.0;"/><text fill="#000000" font-family="sans-serif" font-size="13" lengthAdjust="spacing" textLength="28" x="530" y="612.1045">tiene</text></g><!--link Stock to Lote--><g id="link_Stock_Lote"><path codeLine="32" d="M567.48,683.6694 C568.03,704.8894 568.8026,733.9114 569.3626,755.2514 " fill="none" id="Stock-to-Lote" style="stroke:#181818;stroke-width:1.0;"/><polygon fill="#181818" points="569.52,761.2494,573.2825,752.1475,569.3888,756.2511,565.2853,752.3574,569.52,761.2494" style="stroke:#181818;stroke-width:1.0;"/><text fill="#000000" font-family="sans-serif" font-size="13" lengthAdjust="spacing" textLength="39" x="569" y="728.1045">agrupa</text></g><!--link Producto to Almacen--><g id="link_Producto_Almacen"><path codeLine="33" d="M412.61,567.8194 C406.1,576.2494 399.36,586.7894 396,597.6094 C391.13,613.2694 391.6415,626.113 393.9215,639.623 " fill="none" id="Producto-to-Almacen" style="stroke:#181818;stroke-width:1.0;"/><polygon fill="#181818" points="394.92,645.5394,397.3665,635.9992,394.0879,640.6091,389.4781,637.3305,394.92,645.5394" style="stroke:#181818;stroke-width:1.0;"/><text fill="#000000" font-family="sans-serif" font-size="13" lengthAdjust="spacing" textLength="63" x="397" y="612.1045">ubicado en</text></g><!--link Proveedor to Contacto--><g id="link_Proveedor_Contacto"><path codeLine="41" d="M579.38,315.6794 C577.09,341.2594 573.4657,381.7633 571.1657,407.4233 " fill="none" id="Proveedor-to-Contacto" style="stroke:#181818;stroke-width:1.0;"/><polygon fill="#181818" points="570.63,413.3994,575.4175,404.7924,571.0764,408.4193,567.4495,404.0782,570.63,413.3994" style="stroke:#181818;stroke-width:1.0;"/><text fill="#000000" font-family="sans-serif" font-size="13" lengthAdjust="spacing" textLength="28" x="577" y="370.1045">tiene</text></g><!--link Proveedor to Pedido--><g id="link_Proveedor_Pedido"><path codeLine="42" d="M599.64,315.6794 C622.43,339.7994 658,384.9194 658,431.6094 C658,431.6094 658,431.6094 658,781.6094 C658,817.4594 641.8962,850.508 628.8662,872.328 " fill="none" id="Proveedor-to-Pedido" style="stroke:#181818;stroke-width:1.0;"/><polygon fill="#181818" points="625.79,877.4794,633.8386,871.8031,628.3535,873.1865,626.97,867.7015,625.79,877.4794" style="stroke:#181818;stroke-width:1.0;"/><text fill="#000000" font-family="sans-serif" font-size="13" lengthAdjust="spacing" textLength="35" x="659" y="612.1045">recibe</text></g><!--link Proveedor to Cotizacion--><g id="link_Proveedor_Cotizacion"><path codeLine="43" d="M561.04,315.8194 C551.69,324.5994 540.53,335.4094 531,345.6094 C510,368.0894 491.2301,390.8877 477.0801,408.6377 " fill="none" id="Proveedor-to-Cotizacion" style="stroke:#181818;stroke-width:1.0;"/><polygon fill="#181818" points="473.34,413.3294,482.0779,408.7853,476.4568,409.4197,475.8224,403.7985,473.34,413.3294" style="stroke:#181818;stroke-width:1.0;"/><text fill="#000000" font-family="sans-serif" font-size="13" lengthAdjust="spacing" textLength="32" x="532" y="370.1045">emite</text></g><!--link Presupuesto to Partida--><g id="link_Presupuesto_Partida"><path codeLine="51" d="M681.48,83.6494 C673.94,92.0494 665.86,102.6094 661,113.6094 C654.25,128.8694 652.2541,141.8581 651.5141,155.5381 " fill="none" id="Presupuesto-to-Partida" style="stroke:#181818;stroke-width:1.0;"/><polygon fill="#181818" points="651.19,161.5294,655.6703,152.7586,651.4601,156.5367,647.682,152.3265,651.19,161.5294" style="stroke:#181818;stroke-width:1.0;"/><text fill="#000000" font-family="sans-serif" font-size="13" lengthAdjust="spacing" textLength="49" x="662" y="128.1045">contiene</text></g><!--link Partida to Gasto--><g id="link_Partida_Gasto"><path codeLine="52" d="M661.43,199.9794 C666.2,208.7794 671.73,219.5794 676,229.6094 C693.19,270.0294 706.6689,313.6768 714.2289,339.7468 " fill="none" id="Partida-to-Gasto" style="stroke:#181818;stroke-width:1.0;"/><polygon fill="#181818" points="715.9,345.5094,717.2351,335.7514,714.5074,340.7072,709.5516,337.9795,715.9,345.5094" style="stroke:#181818;stroke-width:1.0;"/><text fill="#000000" font-family="sans-serif" font-size="13" lengthAdjust="spacing" textLength="43" x="684" y="244.1045">registra</text></g><!--link Presupuesto to Periodo--><g id="link_Presupuesto_Periodo"><path codeLine="53" d="M707.45,83.6694 C716.2,104.8894 728.3426,134.3625 737.1426,155.7025 " fill="none" id="Presupuesto-to-Periodo" style="stroke:#181818;stroke-width:1.0;"/><polygon fill="#181818" points="739.43,161.2494,739.6969,151.4041,737.5239,156.627,732.301,154.454,739.43,161.2494" style="stroke:#181818;stroke-width:1.0;"/><text fill="#000000" font-family="sans-serif" font-size="13" lengthAdjust="spacing" textLength="58" x="727" y="128.1045">vigente en</text></g><!--link Plato to Receta--><g id="link_Plato_Receta"><path codeLine="56" d="M215.28,199.6394 C213.73,212.9594 212.54,231.5094 215,247.6094 C216.53,257.6194 217.7756,262.7535 220.8456,271.5635 " fill="none" id="Plato-to-Receta" style="stroke:#181818;stroke-width:1.0;"/><polygon fill="#181818" points="222.82,277.2294,223.6357,267.4144,221.1747,272.5078,216.0812,270.0468,222.82,277.2294" style="stroke:#181818;stroke-width:1.0;"/><text fill="#000000" font-family="sans-serif" font-size="13" lengthAdjust="spacing" textLength="86" x="216" y="244.1045">se prepara con</text></g><!--link Ingrediente to Producto--><g id="link_Ingrediente_Producto"><path codeLine="57" d="M338.08,451.6294 C338.22,465.8094 340.43,485.4694 350,499.6094 C360.43,515.0294 372.2505,523.6722 387.9405,531.4222 " fill="none" id="Ingrediente-to-Producto" style="stroke:#181818;stroke-width:1.0;"/><polygon fill="#181818" points="393.32,534.0794,387.0222,526.5072,388.8371,531.865,383.4792,533.6799,393.32,534.0794" style="stroke:#181818;stroke-width:1.0;"/><text fill="#000000" font-family="sans-serif" font-size="13" lengthAdjust="spacing" textLength="82" x="351" y="496.1045">corresponde a</text></g><!--link Pedido to Producto--><g id="link_Pedido_Producto"><path codeLine="58" d="M586.79,877.4894 C575.93,869.2994 563.91,858.9194 555,847.6094 C481.91,754.8494 519.73,702.2494 465,597.6094 C459.5,587.0894 455.5148,581.0993 448.6148,572.4993 " fill="none" id="Pedido-to-Producto" style="stroke:#181818;stroke-width:1.0;"/><polygon fill="#181818" points="444.86,567.8194,447.3723,577.3424,447.989,571.7193,453.6121,572.336,444.86,567.8194" style="stroke:#181818;stroke-width:1.0;"/><text fill="#000000" font-family="sans-serif" font-size="13" lengthAdjust="spacing" textLength="41" x="504" y="728.1045">solicita</text></g><!--link Cotizacion to Producto--><g id="link_Cotizacion_Producto"><path codeLine="59" d="M454.25,451.6694 C448.66,472.8894 440.978,502.1072 435.358,523.4472 " fill="none" id="Cotizacion-to-Producto" style="stroke:#181818;stroke-width:1.0;"/><polygon fill="#181818" points="433.83,529.2494,439.9902,521.5648,435.1034,524.4142,432.2539,519.5274,433.83,529.2494" style="stroke:#181818;stroke-width:1.0;"/><text fill="#000000" font-family="sans-serif" font-size="13" lengthAdjust="spacing" textLength="35" x="446" y="496.1045">cotiza</text></g><!--link Gasto to Pedido--><g id="link_Gasto_Pedido"><path codeLine="60" d="M724.39,384.0194 C728.53,408.1794 735,451.9094 735,489.6094 C735,489.6094 735,489.6094 735,781.6094 C735,831.8294 684.5191,863.8738 648.7091,880.8938 " fill="none" id="Gasto-to-Pedido" style="stroke:#181818;stroke-width:1.0;"/><polygon fill="#181818" points="643.29,883.4694,653.1357,883.2187,647.8059,881.323,649.7015,875.9933,643.29,883.4694" style="stroke:#181818;stroke-width:1.0;"/><text fill="#000000" font-family="sans-serif" font-size="13" lengthAdjust="spacing" textLength="75" x="736" y="612.1045">generado por</text></g><!--link Partida to Proveedor--><g id="link_Partida_Proveedor"><path codeLine="61" d="M631.27,199.8994 C622.97,208.3394 613.71,218.8694 607,229.6094 C597.6,244.6494 592.3673,257.9312 587.9973,271.6812 " fill="none" id="Partida-to-Proveedor" style="stroke:#181818;stroke-width:1.0;"/><polygon fill="#181818" points="586.18,277.3994,592.7181,270.0337,587.6944,272.6342,585.0939,267.6106,586.18,277.3994" style="stroke:#181818;stroke-width:1.0;"/><text fill="#000000" font-family="sans-serif" font-size="13" lengthAdjust="spacing" textLength="63" x="608" y="244.1045">asignada a</text></g><!--link Lote to Pedido--><g id="link_Lote_Pedido"><path codeLine="62" d="M565.2,799.6694 C562.49,813.3494 560.76,832.3194 567,847.6094 C571.67,859.0594 576.1,865.2028 584.88,873.2228 " fill="none" id="Lote-to-Pedido" style="stroke:#181818;stroke-width:1.0;"/><polygon fill="#181818" points="589.31,877.2694,585.3627,868.2462,585.6183,873.8972,579.9672,874.1529,589.31,877.2694" style="stroke:#181818;stroke-width:1.0;"/><text fill="#000000" font-family="sans-serif" font-size="13" lengthAdjust="spacing" textLength="63" x="568" y="844.1045">recibido de</text></g><!--SRC=[PLD1hjiW4Drp2dPTvG9_KIbAK6NfnxRi97i2yorQ1roCi-YTUefUh0FO6CSxmvltU3Fpx9JhWLwCXDvG2VHidaehGm_qnB_0WVttbnFoBTrZoOMLDs8UFq4uUW4zBTzrpvrP3YVke3DMyOHQ4ChSGJlKypHwE7oF7Ff1XT5EWGOIBpoK510Um3f41L2ULMIIM1FvMwiDEx7hSR7Ge81BXWhTMP18Sf0yyZ4rK1kBufgGo0eFPXHyqCBlIO65lC8h82JXI-aj4ELyBzR8IRmxBSexAw_7fgXMVo_VcLMhfS1SPzmw8tujXq-pzd7idrm0Ubyrve550NJHmUZG3uvpkVC5GJ7DCfxylHV7QzxPQNYZp6yXEZsKuD9G__2cjxgfxeoTgoPhv0KWZKrfmVNphBCQfopNB1cd_l2uZKID6PbvoV8MZZ9XLK8zO4TUPB42dih1pZThR_MDjTSgI_4u3HCER_NAhLConUe7pp70qMCZ9EFDEGcaJVBdAmy7aU2xKwEpVC-FmbZoKbt8OvnwmpwFfw8gMKinJWsZv-fIb4NLPh_DdCeFEWA64GPkkNT1ydI_fKKOYmO6esNu0-DOtsf6qokXyF_AvhgJyGY9tMqMX3s0zU4PC1Jv9DQLOVn6rMcE02SXaFiL-qy9v3y0]--></g></svg>