<svg xmlns="http://www.w3.org/2000/svg" xmlns:xlink="http://www.w3.org/1999/xlink" contentStyleType="text/css" data-diagram-type="DESCRIPTION" height="502px" preserveAspectRatio="none" style="width:358px;height:502px;background:#FFFFFF;" version="1.1" viewBox="0 0 358 502" width="358px" zoomAndPan="magnify"><defs/><g><!--entity Receta--><g class="entity" data-entity="Receta" data-source-line="1" data-uid="ent0002" id="entity_Receta"><rect fill="#F1F1F1" height="36.2969" rx="2.5" ry="2.5" style="stroke:#181818;stroke-width:0.5;" width="68.7197" x="63.6" y="7"/><text fill="#000000" font-family="sans-serif" font-size="14" lengthAdjust="spacing" textLength="48.7197" x="73.6" y="29.9951">Receta</text></g><!--entity Resultado--><g class="entity" data-entity="Resultado" data-source-line="2" data-uid="ent0003" id="entity_Resultado"><rect fill="#F1F1F1" height="36.2969" rx="2.5" ry="2.5" style="stroke:#181818;stroke-width:0.5;" width="89.918" x="7" y="120.29"/><text fill="#000000" font-family="sans-serif" font-size="14" lengthAdjust="spacing" textLength="69.918" x="17" y="143.2851">Resultado</text></g><!--entity Ingredientes--><g class="entity" data-entity="Ingredientes" data-source-line="3" data-uid="ent0004" id="entity_Ingredientes"><rect fill="#F1F1F1" height="36.2969" rx="2.5" ry="2.5" style="stroke:#181818;stroke-width:0.5;" width="107.917" x="14" y="460.18"/><text fill="#000000" font-family="sans-serif" font-size="14" lengthAdjust="spacing" textLength="87.917" x="24" y="483.1751">Ingredientes</text></g><!--entity Procedimiento--><g class="entity" data-entity="Procedimiento" data-source-line="4" data-uid="ent0005" id="entity_Procedimiento"><rect fill="#F1F1F1" height="36.2969" rx="2.5" ry="2.5" style="stroke:#181818;stroke-width:0.5;" width="120.9189" x="131.5" y="120.29"/><text fill="#000000" font-family="sans-serif" font-size="14" lengthAdjust="spacing" textLength="100.9189" x="141.5" y="143.2851">Procedimiento</text></g><!--entity Utensilios--><g class="entity" data-entity="Utensilios" data-source-line="5" data-uid="ent0006" id="entity_Utensilios"><rect fill="#F1F1F1" height="36.2969" rx="2.5" ry="2.5" style="stroke:#181818;stroke-width:0.5;" width="88.0449" x="183.94" y="460.18"/><text fill="#000000" font-family="sans-serif" font-size="14" lengthAdjust="spacing" textLength="68.0449" x="193.94" y="483.1751">Utensilios</text></g><!--entity Pasos--><g class="entity" data-entity="Pasos" data-source-line="6" data-uid="ent0007" id="entity_Pasos"><rect fill="#F1F1F1" height="36.2969" rx="2.5" ry="2.5" style="stroke:#181818;stroke-width:0.5;" width="60.1748" x="161.87" y="233.59"/><text fill="#000000" font-family="sans-serif" font-size="14" lengthAdjust="spacing" textLength="40.1748" x="171.87" y="256.5851">Pasos</text></g><!--entity Condiciones--><g class="entity" data-entity="Condiciones" data-source-line="7" data-uid="ent0008" id="entity_Condiciones"><rect fill="#F1F1F1" height="36.2969" rx="2.5" ry="2.5" style="stroke:#181818;stroke-width:0.5;" width="104.9229" x="189.5" y="346.89"/><text fill="#000000" font-family="sans-serif" font-size="14" lengthAdjust="spacing" textLength="84.9229" x="199.5" y="369.8851">Condiciones</text></g><!--entity Actividad--><g class="entity" data-entity="Actividad" data-source-line="8" data-uid="ent0009" id="entity_Actividad"><rect fill="#F1F1F1" height="36.2969" rx="2.5" ry="2.5" style="stroke:#181818;stroke-width:0.5;" width="85.1807" x="69.37" y="346.89"/><text fill="#000000" font-family="sans-serif" font-size="14" lengthAdjust="spacing" textLength="65.1807" x="79.37" y="369.8851">Actividad</text></g><!--link Receta to Resultado--><g class="link" data-entity-1="Receta" data-entity-2="Resultado" data-source-line="10" data-uid="lnk10" id="link_Receta_Resultado"><path d="M87.21,43.63 C82.15,52.34 76.29,63.15 71.96,73.29 C65.42,88.64 59.94,106.86 56.38,119.95" fill="none" id="Receta-Resultado" style="stroke:#181818;stroke-width:1;"/><polygon fill="#000000" points="75.0872,86.4924,81.2001,79.2066,75.7501,77.005,75.0872,86.4924" style="stroke:#000000;stroke-width:1;"/><text fill="#000000" font-family="sans-serif" font-size="13" lengthAdjust="spacing" textLength="38.3779" x="85.96" y="86.3569">busca</text></g><!--link Receta to Procedimiento--><g class="link" data-entity-1="Receta" data-entity-2="Procedimiento" data-source-line="11" data-uid="lnk11" id="link_Receta_Procedimiento"><path d="M112.65,43.53 C130.2,64.32 159.42,98.91 177.06,119.81" fill="none" id="Receta-Procedimiento" style="stroke:#181818;stroke-width:1;"/><polygon fill="#000000" points="159.1858,85.6767,155.5958,76.8697,151.1048,80.6618,159.1858,85.6767" style="stroke:#000000;stroke-width:1;"/><text fill="#000000" font-family="sans-serif" font-size="13" lengthAdjust="spacing" textLength="14.771" x="164.96" y="86.3569">es</text></g><!--link Procedimiento to Pasos--><g class="link" data-entity-1="Procedimiento" data-entity-2="Pasos" data-source-line="12" data-uid="lnk12" id="link_Procedimiento_Pasos"><path d="M191.96,156.83 C191.96,177.62 191.96,212.21 191.96,233.1" fill="none" id="Procedimiento-Pasos" style="stroke:#181818;stroke-width:1;"/><polygon fill="#000000" points="196.96,200.1564,199.8989,191.1113,194.0211,191.1113,196.96,200.1564" style="stroke:#000000;stroke-width:1;"/><text fill="#000000" font-family="sans-serif" font-size="13" lengthAdjust="spacing" textLength="22.9658" x="205.96" y="199.6569">son</text></g><!--link Procedimiento to Ingredientes--><g class="link" data-entity-1="Procedimiento" data-entity-2="Ingredientes" data-source-line="13" data-uid="lnk13" id="link_Procedimiento_Ingredientes"><path d="M174.66,156.9 C142.91,190.31 76.36,267.11 51.96,346.89 C39.95,386.16 52.74,434.7 61.39,460.05" fill="none" id="Procedimiento-Ingredientes" style="stroke:#181818;stroke-width:1;"/><polygon fill="#000000" points="74.21,313.1401,80.1288,305.6958,74.6228,303.6385,74.21,313.1401" style="stroke:#000000;stroke-width:1;"/><text fill="#000000" font-family="sans-serif" font-size="13" lengthAdjust="spacing" textLength="32.9443" x="84.96" y="312.9569">tiene</text></g><!--link Procedimiento to Utensilios--><g class="link" data-entity-1="Procedimiento" data-entity-2="Utensilios" data-source-line="14" data-uid="lnk14" id="link_Procedimiento_Utensilios"><path d="M211.41,157.04 C219.96,165.43 229.68,175.94 236.96,186.59 C281.36,251.51 294.89,270.11 311.96,346.89 C315.46,362.63 317.71,368.11 311.96,383.18 C299.86,414.91 271.62,442.73 251.22,459.75" fill="none" id="Procedimiento-Utensilios" style="stroke:#181818;stroke-width:1;"/><polygon fill="#000000" points="309.6119,313.4137,311.3464,304.0627,305.5187,304.8291,309.6119,313.4137" style="stroke:#000000;stroke-width:1;"/><text fill="#000000" font-family="sans-serif" font-size="13" lengthAdjust="spacing" textLength="32.9443" x="317.96" y="312.9569">tiene</text></g><!--link Pasos to Condiciones--><g class="link" data-entity-1="Pasos" data-entity-2="Condiciones" data-source-line="15" data-uid="lnk15" id="link_Pasos_Condiciones"><path d="M199.77,270.13 C209.11,290.91 224.65,325.5 234.04,346.4" fill="none" id="Pasos-Condiciones" style="stroke:#181818;stroke-width:1;"/><polygon fill="#000000" points="227.0093,313.0172,225.9829,303.5621,220.6214,305.9712,227.0093,313.0172" style="stroke:#000000;stroke-width:1;"/><text fill="#000000" font-family="sans-serif" font-size="13" lengthAdjust="spacing" textLength="32.9443" x="233.96" y="312.9569">tiene</text></g><!--link Pasos to Actividad--><g class="link" data-entity-1="Pasos" data-entity-2="Actividad" data-source-line="16" data-uid="lnk16" id="link_Pasos_Actividad"><path d="M179.46,270.13 C164.52,290.91 139.65,325.5 124.64,346.4" fill="none" id="Pasos-Actividad" style="stroke:#181818;stroke-width:1;"/><polygon fill="#000000" points="159.0418,312.5165,166.7073,306.887,161.9344,303.4565,159.0418,312.5165" style="stroke:#000000;stroke-width:1;"/><text fill="#000000" font-family="sans-serif" font-size="13" lengthAdjust="spacing" textLength="14.771" x="170.96" y="312.9569">es</text></g><!--link Actividad to Ingredientes--><g class="link" data-entity-1="Actividad" data-entity-2="Ingredientes" data-source-line="17" data-uid="lnk17" id="link_Actividad_Ingredientes"><path d="M105.08,383.42 C96.87,404.21 83.19,438.8 74.93,459.7" fill="none" id="Actividad-Ingredientes" style="stroke:#181818;stroke-width:1;"/><polygon fill="#000000" points="96.1221,426.3964,102.1801,419.0648,96.7137,416.9042,96.1221,426.3964" style="stroke:#000000;stroke-width:1;"/><text fill="#000000" font-family="sans-serif" font-size="13" lengthAdjust="spacing" textLength="32.9443" x="106.96" y="426.2469">tiene</text></g><!--link Actividad to Utensilios--><g class="link" data-entity-1="Actividad" data-entity-2="Utensilios" data-source-line="18" data-uid="lnk18" id="link_Actividad_Utensilios"><path d="M130.34,383.67 C152.06,404.51 187.98,438.97 209.66,459.78" fill="none" id="Actividad-Utensilios" style="stroke:#181818;stroke-width:1;"/><polygon fill="#000000" points="185.5678,425.2082,181.076,416.8252,177.0065,421.0664,185.5678,425.2082" style="stroke:#000000;stroke-width:1;"/><text fill="#000000" font-family="sans-serif" font-size="13" lengthAdjust="spacing" textLength="32.9443" x="190.96" y="426.2469">tiene</text></g><!--SRC=[TP112WCX34NtdYBCVYxGHQ5qrLqfz01Mmn2OAXYdvw-ZTenWT-Q_HqmIq4JjbXLXUg31g2VG3EMfWeIyhL5RNtcjf79pIq1Bw29ojcGWnNlm9kNldPH-NIBLPqJ7j98l7LlPzTDSUNv9TFNEaY7lwaYYbjh5HFgGrJPBHwLKEGJCSriPJl3Qs6Wu2zeja0paXFjmj_Rn4cNlHbZUAranlN3ajIj8A_TELAmumiTolobRy7-4pXbz_mK0]--></g></svg>