<svg xmlns="http://www.w3.org/2000/svg" xmlns:xlink="http://www.w3.org/1999/xlink" contentStyleType="text/css" data-diagram-type="DESCRIPTION" height="389px" preserveAspectRatio="none" style="width:361px;height:389px;background:#FFFFFF;" version="1.1" viewBox="0 0 361 389" width="361px" zoomAndPan="magnify"><defs/><g><!--entity Receta--><g class="entity" data-entity="Receta" data-source-line="1" data-uid="ent0002" id="entity_Receta"><rect fill="#F1F1F1" height="36.2969" rx="2.5" ry="2.5" style="stroke:#181818;stroke-width:0.5;" width="68.7197" x="65.6" y="7"/><text fill="#000000" font-family="sans-serif" font-size="14" lengthAdjust="spacing" textLength="48.7197" x="75.6" y="29.9951">Receta</text></g><!--entity Resultado--><g class="entity" data-entity="Resultado" data-source-line="2" data-uid="ent0003" id="entity_Resultado"><rect fill="#F1F1F1" height="36.2969" rx="2.5" ry="2.5" style="stroke:#181818;stroke-width:0.5;" width="89.918" x="9" y="120.3"/><text fill="#000000" font-family="sans-serif" font-size="14" lengthAdjust="spacing" textLength="69.918" x="19" y="143.2951">Resultado</text></g><!--entity Ingredientes--><g class="entity" data-entity="Ingredientes" data-source-line="3" data-uid="ent0004" id="entity_Ingredientes"><rect fill="#F1F1F1" height="36.2969" rx="2.5" ry="2.5" style="stroke:#181818;stroke-width:0.5;" width="107.917" x="7" y="233.6"/><text fill="#000000" font-family="sans-serif" font-size="14" lengthAdjust="spacing" textLength="87.917" x="17" y="256.5951">Ingredientes</text></g><!--entity Procedimiento--><g class="entity" data-entity="Procedimiento" data-source-line="4" data-uid="ent0005" id="entity_Procedimiento"><rect fill="#F1F1F1" height="36.2969" rx="2.5" ry="2.5" style="stroke:#181818;stroke-width:0.5;" width="120.9189" x="133.5" y="120.3"/><text fill="#000000" font-family="sans-serif" font-size="14" lengthAdjust="spacing" textLength="100.9189" x="143.5" y="143.2951">Procedimiento</text></g><!--entity Utensilios--><g class="entity" data-entity="Utensilios" data-source-line="5" data-uid="ent0006" id="entity_Utensilios"><rect fill="#F1F1F1" height="36.2969" rx="2.5" ry="2.5" style="stroke:#181818;stroke-width:0.5;" width="88.0449" x="149.94" y="233.6"/><text fill="#000000" font-family="sans-serif" font-size="14" lengthAdjust="spacing" textLength="68.0449" x="159.94" y="256.5951">Utensilios</text></g><!--entity Pasos--><g class="entity" data-entity="Pasos" data-source-line="6" data-uid="ent0007" id="entity_Pasos"><rect fill="#F1F1F1" height="36.2969" rx="2.5" ry="2.5" style="stroke:#181818;stroke-width:0.5;" width="60.1748" x="272.87" y="233.6"/><text fill="#000000" font-family="sans-serif" font-size="14" lengthAdjust="spacing" textLength="40.1748" x="282.87" y="256.5951">Pasos</text></g><!--entity Condiciones--><g class="entity" data-entity="Condiciones" data-source-line="7" data-uid="ent0008" id="entity_Condiciones"><rect fill="#F1F1F1" height="36.2969" rx="2.5" ry="2.5" style="stroke:#181818;stroke-width:0.5;" width="104.9229" x="250.5" y="346.89"/><text fill="#000000" font-family="sans-serif" font-size="14" lengthAdjust="spacing" textLength="84.9229" x="260.5" y="369.8851">Condiciones</text></g><!--link Receta to Resultado--><g class="link" data-entity-1="Receta" data-entity-2="Resultado" data-source-line="9" data-uid="lnk9" id="link_Receta_Resultado"><path d="M89.21,43.64 C84.15,52.34 78.29,63.15 73.96,73.3 C67.41,88.64 61.94,106.86 58.38,119.96" fill="none" id="Receta-Resultado" style="stroke:#181818;stroke-width:1;"/><polygon fill="#000000" points="77.0872,86.5024,83.2001,79.2166,77.7501,77.015,77.0872,86.5024" style="stroke:#000000;stroke-width:1;"/><text fill="#000000" font-family="sans-serif" font-size="13" lengthAdjust="spacing" textLength="38.3779" x="87.96" y="86.3669">busca</text></g><!--link Receta to Procedimiento--><g class="link" data-entity-1="Receta" data-entity-2="Procedimiento" data-source-line="10" data-uid="lnk10" id="link_Receta_Procedimiento"><path d="M114.65,43.54 C132.2,64.33 161.42,98.92 179.06,119.81" fill="none" id="Receta-Procedimiento" style="stroke:#181818;stroke-width:1;"/><polygon fill="#000000" points="161.186,85.6865,157.5955,76.8797,153.1047,80.6721,161.186,85.6865" style="stroke:#000000;stroke-width:1;"/><text fill="#000000" font-family="sans-serif" font-size="13" lengthAdjust="spacing" textLength="14.771" x="166.96" y="86.3669">es</text></g><!--link Procedimiento to Pasos--><g class="link" data-entity-1="Procedimiento" data-entity-2="Pasos" data-source-line="11" data-uid="lnk11" id="link_Procedimiento_Pasos"><path d="M216.1,157.03 C226.43,165.58 238.69,176.23 248.96,186.6 C263.71,201.49 278.96,219.92 289.47,233.2" fill="none" id="Procedimiento-Pasos" style="stroke:#181818;stroke-width:1;"/><polygon fill="#000000" points="272.4287,198.7675,268.2704,190.2142,264.0371,194.2919,272.4287,198.7675" style="stroke:#000000;stroke-width:1;"/><text fill="#000000" font-family="sans-serif" font-size="13" lengthAdjust="spacing" textLength="22.9658" x="277.96" y="199.6669">son</text></g><!--link Procedimiento to Ingredientes--><g class="link" data-entity-1="Procedimiento" data-entity-2="Ingredientes" data-source-line="12" data-uid="lnk12" id="link_Procedimiento_Ingredientes"><path d="M172.88,157.08 C147.98,177.92 106.8,212.39 81.93,233.19" fill="none" id="Procedimiento-Ingredientes" style="stroke:#181818;stroke-width:1;"/><polygon fill="#000000" points="137.1255,198.3752,145.9483,194.8243,142.1761,190.3165,137.1255,198.3752" style="stroke:#000000;stroke-width:1;"/><text fill="#000000" font-family="sans-serif" font-size="13" lengthAdjust="spacing" textLength="32.9443" x="149.96" y="199.6669">tiene</text></g><!--link Procedimiento to Utensilios--><g class="link" data-entity-1="Procedimiento" data-entity-2="Utensilios" data-source-line="13" data-uid="lnk13" id="link_Procedimiento_Utensilios"><path d="M193.96,156.84 C193.96,177.62 193.96,212.21 193.96,233.11" fill="none" id="Procedimiento-Utensilios" style="stroke:#181818;stroke-width:1;"/><polygon fill="#000000" points="198.96,200.1664,201.8989,191.1213,196.0211,191.1213,198.96,200.1664" style="stroke:#000000;stroke-width:1;"/><text fill="#000000" font-family="sans-serif" font-size="13" lengthAdjust="spacing" textLength="32.9443" x="207.96" y="199.6669">tiene</text></g><!--link Pasos to Condiciones--><g class="link" data-entity-1="Pasos" data-entity-2="Condiciones" data-source-line="14" data-uid="lnk14" id="link_Pasos_Condiciones"><path d="M302.96,270.13 C302.96,290.92 302.96,325.51 302.96,346.41" fill="none" id="Pasos-Condiciones" style="stroke:#181818;stroke-width:1;"/><polygon fill="#000000" points="307.96,313.4564,310.8989,304.4113,305.0211,304.4113,307.96,313.4564" style="stroke:#000000;stroke-width:1;"/><text fill="#000000" font-family="sans-serif" font-size="13" lengthAdjust="spacing" textLength="32.9443" x="316.96" y="312.9569">tiene</text></g><!--SRC=[RP1D2WCX34RtdYBCVYxGHJTTTLSAFO3LC0WsWd7kt_W3HfXTalVuJCpeYgKZ8cnlT5Zi1fQXboPho6SirgV1HwUL9nqPVK0goCtI0os-Sd8o_rNIyvQ9LZy5YKCCgIVETicpF7YhD7eayi65H6CbrHlJhuHzd_V03RudEmjtHPVjn40Ml0whLTyMoeckiFuCiOfKUEND4xNLieMg_IV-0m00]--></g></svg>