<svg xmlns="http://www.w3.org/2000/svg" xmlns:xlink="http://www.w3.org/1999/xlink" contentStyleType="text/css" data-diagram-type="CLASS" height="1053px" preserveAspectRatio="none" style="width:696px;height:1053px;background:#FFFFFF;" version="1.1" viewBox="0 0 696 1053" width="696px" zoomAndPan="magnify"><title>Modelo del Dominio: Cafeter&#237;a</title><defs/><g><g class="title" data-source-line="1"><text fill="#000000" font-family="sans-serif" font-size="14" font-weight="bold" lengthAdjust="spacing" textLength="239.6748" x="221.3378" y="22.9951">Modelo del Dominio: Cafeter&#237;a</text></g><g class="entity" data-entity="Cliente" data-source-line="5" data-uid="ent0002" id="entity_Cliente"><rect fill="#F1F1F1" height="77.1875" rx="2.5" ry="2.5" style="stroke:#181818;stroke-width:0.5;" width="83.5381" x="139.11" y="44.2969"/><text fill="#000000" font-family="sans-serif" font-size="14" lengthAdjust="spacing" textLength="49.1436" x="156.3073" y="59.292">Cliente</text><line style="stroke:#181818;stroke-width:0.5;" x1="140.11" x2="221.6481" y1="64.5938" y2="64.5938"/><ellipse cx="150.11" cy="78.2422" fill="none" rx="3" ry="3" style="stroke:#038048;stroke-width:1;"/><text fill="#000000" font-family="sans-serif" font-size="14" lengthAdjust="spacing" textLength="54.332" x="159.11" y="81.5889">nombre</text><ellipse cx="150.11" cy="94.5391" fill="none" rx="3" ry="3" style="stroke:#038048;stroke-width:1;"/><text fill="#000000" font-family="sans-serif" font-size="14" lengthAdjust="spacing" textLength="57.5381" x="159.11" y="97.8857">telefono</text><ellipse cx="150.11" cy="110.8359" fill="none" rx="3" ry="3" style="stroke:#038048;stroke-width:1;"/><text fill="#000000" font-family="sans-serif" font-size="14" lengthAdjust="spacing" textLength="38.6094" x="159.11" y="114.1826">email</text></g><g class="entity" data-entity="Pedido" data-source-line="11" data-uid="ent0003" id="entity_Pedido"><rect fill="#F1F1F1" height="93.4844" rx="2.5" ry="2.5" style="stroke:#181818;stroke-width:0.5;" width="80.3184" x="140.72" y="198.4769"/><text fill="#000000" font-family="sans-serif" font-size="14" lengthAdjust="spacing" textLength="47.2842" x="157.2371" y="213.472">Pedido</text><line style="stroke:#181818;stroke-width:0.5;" x1="141.72" x2="220.0384" y1="218.7737" y2="218.7737"/><ellipse cx="151.72" cy="232.4222" fill="none" rx="3" ry="3" style="stroke:#038048;stroke-width:1;"/><text fill="#000000" font-family="sans-serif" font-size="14" lengthAdjust="spacing" textLength="54.3184" x="160.72" y="235.7689">numero</text><ellipse cx="151.72" cy="248.7191" fill="none" rx="3" ry="3" style="stroke:#038048;stroke-width:1;"/><text fill="#000000" font-family="sans-serif" font-size="14" lengthAdjust="spacing" textLength="38.6914" x="160.72" y="252.0657">fecha</text><ellipse cx="151.72" cy="265.0159" fill="none" rx="3" ry="3" style="stroke:#038048;stroke-width:1;"/><text fill="#000000" font-family="sans-serif" font-size="14" lengthAdjust="spacing" textLength="47.4277" x="160.72" y="268.3626">estado</text><ellipse cx="151.72" cy="281.3128" fill="none" rx="3" ry="3" style="stroke:#038048;stroke-width:1;"/><text fill="#000000" font-family="sans-serif" font-size="14" lengthAdjust="spacing" textLength="32.0127" x="160.72" y="284.6595">total</text></g><g class="entity" data-entity="Comanda" data-source-line="18" data-uid="ent0004" id="entity_Comanda"><rect fill="#F1F1F1" height="77.1875" rx="2.5" ry="2.5" style="stroke:#181818;stroke-width:0.5;" width="80.8965" x="266.43" y="368.9669"/><text fill="#000000" font-family="sans-serif" font-size="14" lengthAdjust="spacing" textLength="66.8965" x="273.43" y="383.962">Comanda</text><line style="stroke:#181818;stroke-width:0.5;" x1="267.43" x2="346.3265" y1="389.2637" y2="389.2637"/><ellipse cx="277.43" cy="402.9122" fill="none" rx="3" ry="3" style="stroke:#038048;stroke-width:1;"/><text fill="#000000" font-family="sans-serif" font-size="14" lengthAdjust="spacing" textLength="54.3184" x="286.43" y="406.2589">numero</text><ellipse cx="277.43" cy="419.2091" fill="none" rx="3" ry="3" style="stroke:#038048;stroke-width:1;"/><text fill="#000000" font-family="sans-serif" font-size="14" lengthAdjust="spacing" textLength="31.7734" x="286.43" y="422.5557">hora</text><ellipse cx="277.43" cy="435.5059" fill="none" rx="3" ry="3" style="stroke:#038048;stroke-width:1;"/><text fill="#000000" font-family="sans-serif" font-size="14" lengthAdjust="spacing" textLength="47.4277" x="286.43" y="438.8526">estado</text></g><g class="entity" data-entity="Producto" data-source-line="24" data-uid="ent0005" id="entity_Producto"><rect fill="#F1F1F1" height="93.4844" rx="2.5" ry="2.5" style="stroke:#181818;stroke-width:0.5;" width="106.0488" x="322.85" y="523.1569"/><text fill="#000000" font-family="sans-serif" font-size="14" lengthAdjust="spacing" textLength="62.2754" x="344.7367" y="538.152">Producto</text><line style="stroke:#181818;stroke-width:0.5;" x1="323.85" x2="427.8988" y1="543.4537" y2="543.4537"/><ellipse cx="333.85" cy="557.1022" fill="none" rx="3" ry="3" style="stroke:#038048;stroke-width:1;"/><text fill="#000000" font-family="sans-serif" font-size="14" lengthAdjust="spacing" textLength="54.332" x="342.85" y="560.4489">nombre</text><ellipse cx="333.85" cy="573.3991" fill="none" rx="3" ry="3" style="stroke:#038048;stroke-width:1;"/><text fill="#000000" font-family="sans-serif" font-size="14" lengthAdjust="spacing" textLength="43.4082" x="342.85" y="576.7457">precio</text><ellipse cx="333.85" cy="589.6959" fill="none" rx="3" ry="3" style="stroke:#038048;stroke-width:1;"/><text fill="#000000" font-family="sans-serif" font-size="14" lengthAdjust="spacing" textLength="80.0488" x="342.85" y="593.0426">descripcion</text><ellipse cx="333.85" cy="605.9928" fill="none" rx="3" ry="3" style="stroke:#038048;stroke-width:1;"/><text fill="#000000" font-family="sans-serif" font-size="14" lengthAdjust="spacing" textLength="26.8311" x="342.85" y="609.3395">tipo</text></g><g class="entity" data-entity="Categoria" data-source-line="31" data-uid="ent0006" id="entity_Categoria"><rect fill="#F1F1F1" height="60.8906" rx="2.5" ry="2.5" style="stroke:#181818;stroke-width:0.5;" width="106.0488" x="262.85" y="693.6369"/><text fill="#000000" font-family="sans-serif" font-size="14" lengthAdjust="spacing" textLength="68.1338" x="281.8075" y="708.632">Categoria</text><line style="stroke:#181818;stroke-width:0.5;" x1="263.85" x2="367.8988" y1="713.9337" y2="713.9337"/><ellipse cx="273.85" cy="727.5822" fill="none" rx="3" ry="3" style="stroke:#038048;stroke-width:1;"/><text fill="#000000" font-family="sans-serif" font-size="14" lengthAdjust="spacing" textLength="54.332" x="282.85" y="730.9289">nombre</text><ellipse cx="273.85" cy="743.8791" fill="none" rx="3" ry="3" style="stroke:#038048;stroke-width:1;"/><text fill="#000000" font-family="sans-serif" font-size="14" lengthAdjust="spacing" textLength="80.0488" x="282.85" y="747.2257">descripcion</text></g><g class="entity" data-entity="Menu" data-source-line="36" data-uid="ent0007" id="entity_Menu"><rect fill="#F1F1F1" height="60.8906" rx="2.5" ry="2.5" style="stroke:#181818;stroke-width:0.5;" width="124.6973" x="382.53" y="377.1169"/><text fill="#000000" font-family="sans-serif" font-size="14" lengthAdjust="spacing" textLength="38.4385" x="425.6594" y="392.112">Menu</text><line style="stroke:#181818;stroke-width:0.5;" x1="383.53" x2="506.2273" y1="397.4137" y2="397.4137"/><ellipse cx="393.53" cy="411.0622" fill="none" rx="3" ry="3" style="stroke:#038048;stroke-width:1;"/><text fill="#000000" font-family="sans-serif" font-size="14" lengthAdjust="spacing" textLength="54.332" x="402.53" y="414.4089">nombre</text><ellipse cx="393.53" cy="427.3591" fill="none" rx="3" ry="3" style="stroke:#038048;stroke-width:1;"/><text fill="#000000" font-family="sans-serif" font-size="14" lengthAdjust="spacing" textLength="98.6973" x="402.53" y="430.7057">fechaVigencia</text></g><g class="entity" data-entity="Empleado" data-source-line="41" data-uid="ent0008" id="entity_Empleado"><rect fill="#F1F1F1" height="60.8906" rx="2.5" ry="2.5" style="stroke:#181818;stroke-width:0.5;" width="83.9043" x="475.93" y="214.7769"/><text fill="#000000" font-family="sans-serif" font-size="14" lengthAdjust="spacing" textLength="69.9043" x="482.93" y="229.772">Empleado</text><line style="stroke:#181818;stroke-width:0.5;" x1="476.93" x2="558.8343" y1="235.0737" y2="235.0737"/><ellipse cx="486.93" cy="248.7222" fill="none" rx="3" ry="3" style="stroke:#038048;stroke-width:1;"/><text fill="#000000" font-family="sans-serif" font-size="14" lengthAdjust="spacing" textLength="54.332" x="495.93" y="252.0689">nombre</text><ellipse cx="486.93" cy="265.0191" fill="none" rx="3" ry="3" style="stroke:#038048;stroke-width:1;"/><text fill="#000000" font-family="sans-serif" font-size="14" lengthAdjust="spacing" textLength="47.7217" x="495.93" y="268.3657">puesto</text></g><g class="entity" data-entity="Turno" data-source-line="46" data-uid="ent0009" id="entity_Turno"><rect fill="#F1F1F1" height="60.8906" rx="2.5" ry="2.5" style="stroke:#181818;stroke-width:0.5;" width="94.8174" x="542.47" y="377.1169"/><text fill="#000000" font-family="sans-serif" font-size="14" lengthAdjust="spacing" textLength="40.6191" x="569.5691" y="392.112">Turno</text><line style="stroke:#181818;stroke-width:0.5;" x1="543.47" x2="636.2874" y1="397.4137" y2="397.4137"/><ellipse cx="553.47" cy="411.0622" fill="none" rx="3" ry="3" style="stroke:#038048;stroke-width:1;"/><text fill="#000000" font-family="sans-serif" font-size="14" lengthAdjust="spacing" textLength="68.8174" x="562.47" y="414.4089">horaInicio</text><ellipse cx="553.47" cy="427.3591" fill="none" rx="3" ry="3" style="stroke:#038048;stroke-width:1;"/><text fill="#000000" font-family="sans-serif" font-size="14" lengthAdjust="spacing" textLength="52.5889" x="562.47" y="430.7057">horaFin</text></g><g class="entity" data-entity="Inventario" data-source-line="51" data-uid="ent0010" id="entity_Inventario"><rect fill="#F1F1F1" height="60.8906" rx="2.5" ry="2.5" style="stroke:#181818;stroke-width:0.5;" width="157.6396" x="466.06" y="693.6369"/><text fill="#000000" font-family="sans-serif" font-size="14" lengthAdjust="spacing" textLength="71.0527" x="509.3535" y="708.632">Inventario</text><line style="stroke:#181818;stroke-width:0.5;" x1="467.06" x2="622.6996" y1="713.9337" y2="713.9337"/><ellipse cx="477.06" cy="727.5822" fill="none" rx="3" ry="3" style="stroke:#038048;stroke-width:1;"/><text fill="#000000" font-family="sans-serif" font-size="14" lengthAdjust="spacing" textLength="46.4912" x="486.06" y="730.9289">codigo</text><ellipse cx="477.06" cy="743.8791" fill="none" rx="3" ry="3" style="stroke:#038048;stroke-width:1;"/><text fill="#000000" font-family="sans-serif" font-size="14" lengthAdjust="spacing" textLength="131.6396" x="486.06" y="747.2257">fechaActualizacion</text></g><g class="entity" data-entity="Stock" data-source-line="56" data-uid="ent0011" id="entity_Stock"><rect fill="#F1F1F1" height="60.8906" rx="2.5" ry="2.5" style="stroke:#181818;stroke-width:0.5;" width="160.4492" x="464.65" y="831.5269"/><text fill="#000000" font-family="sans-serif" font-size="14" lengthAdjust="spacing" textLength="38.7461" x="525.5016" y="846.522">Stock</text><line style="stroke:#181818;stroke-width:0.5;" x1="465.65" x2="624.0992" y1="851.8237" y2="851.8237"/><ellipse cx="475.65" cy="865.4722" fill="none" rx="3" ry="3" style="stroke:#038048;stroke-width:1;"/><text fill="#000000" font-family="sans-serif" font-size="14" lengthAdjust="spacing" textLength="134.4492" x="484.65" y="868.8189">cantidadDisponible</text><ellipse cx="475.65" cy="881.7691" fill="none" rx="3" ry="3" style="stroke:#038048;stroke-width:1;"/><text fill="#000000" font-family="sans-serif" font-size="14" lengthAdjust="spacing" textLength="100.5566" x="484.65" y="885.1157">umbralMinimo</text></g><g class="entity" data-entity="Proveedor" data-source-line="61" data-uid="ent0012" id="entity_Proveedor"><rect fill="#F1F1F1" height="77.1875" rx="2.5" ry="2.5" style="stroke:#181818;stroke-width:0.5;" width="85.4834" x="502.14" y="969.4169"/><text fill="#000000" font-family="sans-serif" font-size="14" lengthAdjust="spacing" textLength="71.4834" x="509.14" y="984.412">Proveedor</text><line style="stroke:#181818;stroke-width:0.5;" x1="503.14" x2="586.6234" y1="989.7137" y2="989.7137"/><ellipse cx="513.14" cy="1003.3622" fill="none" rx="3" ry="3" style="stroke:#038048;stroke-width:1;"/><text fill="#000000" font-family="sans-serif" font-size="14" lengthAdjust="spacing" textLength="54.332" x="522.14" y="1006.7089">nombre</text><ellipse cx="513.14" cy="1019.6591" fill="none" rx="3" ry="3" style="stroke:#038048;stroke-width:1;"/><text fill="#000000" font-family="sans-serif" font-size="14" lengthAdjust="spacing" textLength="57.5381" x="522.14" y="1023.0057">telefono</text><ellipse cx="513.14" cy="1035.9559" fill="none" rx="3" ry="3" style="stroke:#038048;stroke-width:1;"/><text fill="#000000" font-family="sans-serif" font-size="14" lengthAdjust="spacing" textLength="38.6094" x="522.14" y="1039.3026">email</text></g><g class="entity" data-entity="MovimientoInventario" data-source-line="67" data-uid="ent0013" id="entity_MovimientoInventario"><rect fill="#F1F1F1" height="77.1875" rx="2.5" ry="2.5" style="stroke:#181818;stroke-width:0.5;" width="166.9404" x="523.41" y="531.3069"/><text fill="#000000" font-family="sans-serif" font-size="14" lengthAdjust="spacing" textLength="152.9404" x="530.41" y="546.302">MovimientoInventario</text><line style="stroke:#181818;stroke-width:0.5;" x1="524.41" x2="689.3504" y1="551.6038" y2="551.6038"/><ellipse cx="534.41" cy="565.2522" fill="none" rx="3" ry="3" style="stroke:#038048;stroke-width:1;"/><text fill="#000000" font-family="sans-serif" font-size="14" lengthAdjust="spacing" textLength="26.8311" x="543.41" y="568.5989">tipo</text><ellipse cx="534.41" cy="581.5491" fill="none" rx="3" ry="3" style="stroke:#038048;stroke-width:1;"/><text fill="#000000" font-family="sans-serif" font-size="14" lengthAdjust="spacing" textLength="60.8809" x="543.41" y="584.8957">cantidad</text><ellipse cx="534.41" cy="597.8459" fill="none" rx="3" ry="3" style="stroke:#038048;stroke-width:1;"/><text fill="#000000" font-family="sans-serif" font-size="14" lengthAdjust="spacing" textLength="38.6914" x="543.41" y="601.1926">fecha</text></g><g class="entity" data-entity="Mesa" data-source-line="73" data-uid="ent0014" id="entity_Mesa"><rect fill="#F1F1F1" height="60.8906" rx="2.5" ry="2.5" style="stroke:#181818;stroke-width:0.5;" width="97.6816" x="132.04" y="377.1169"/><text fill="#000000" font-family="sans-serif" font-size="14" lengthAdjust="spacing" textLength="36.5654" x="162.5981" y="392.112">Mesa</text><line style="stroke:#181818;stroke-width:0.5;" x1="133.04" x2="228.7216" y1="397.4137" y2="397.4137"/><ellipse cx="143.04" cy="411.0622" fill="none" rx="3" ry="3" style="stroke:#038048;stroke-width:1;"/><text fill="#000000" font-family="sans-serif" font-size="14" lengthAdjust="spacing" textLength="54.3184" x="152.04" y="414.4089">numero</text><ellipse cx="143.04" cy="427.3591" fill="none" rx="3" ry="3" style="stroke:#038048;stroke-width:1;"/><text fill="#000000" font-family="sans-serif" font-size="14" lengthAdjust="spacing" textLength="71.6816" x="152.04" y="430.7057">capacidad</text></g><g class="entity" data-entity="Pago" data-source-line="78" data-uid="ent0015" id="entity_Pago"><rect fill="#F1F1F1" height="77.1875" rx="2.5" ry="2.5" style="stroke:#181818;stroke-width:0.5;" width="79.7578" x="7" y="368.9669"/><text fill="#000000" font-family="sans-serif" font-size="14" lengthAdjust="spacing" textLength="34.4736" x="29.6421" y="383.962">Pago</text><line style="stroke:#181818;stroke-width:0.5;" x1="8" x2="85.7578" y1="389.2637" y2="389.2637"/><ellipse cx="18" cy="402.9122" fill="none" rx="3" ry="3" style="stroke:#038048;stroke-width:1;"/><text fill="#000000" font-family="sans-serif" font-size="14" lengthAdjust="spacing" textLength="45.1309" x="27" y="406.2589">monto</text><ellipse cx="18" cy="419.2091" fill="none" rx="3" ry="3" style="stroke:#038048;stroke-width:1;"/><text fill="#000000" font-family="sans-serif" font-size="14" lengthAdjust="spacing" textLength="38.6914" x="27" y="422.5557">fecha</text><ellipse cx="18" cy="435.5059" fill="none" rx="3" ry="3" style="stroke:#038048;stroke-width:1;"/><text fill="#000000" font-family="sans-serif" font-size="14" lengthAdjust="spacing" textLength="53.7578" x="27" y="438.8526">metodo</text></g><!--link Cliente to Pedido--><g class="link" data-entity-1="Cliente" data-entity-2="Pedido" data-source-line="87" data-uid="lnk16" id="link_Cliente_Pedido"><path codeLine="87" d="M180.88,121.8869 C180.88,144.7569 180.88,174.0369 180.88,198.2169" fill="none" id="Cliente-Pedido" style="stroke:#181818;stroke-width:1;"/><polygon fill="#000000" points="185.88,165.0433,188.8189,155.9982,182.9411,155.9982,185.88,165.0433" style="stroke:#000000;stroke-width:1;"/><text fill="#000000" font-family="sans-serif" font-size="13" lengthAdjust="spacing" textLength="43.3228" x="194.88" y="164.5438">realiza</text></g><!--link Pedido to Comanda--><g class="link" data-entity-1="Pedido" data-entity-2="Comanda" data-source-line="88" data-uid="lnk17" id="link_Pedido_Comanda"><path codeLine="88" d="M221.48,275.5469 C237.4,288.4769 254.91,304.6569 267.88,321.9669 C278.45,336.0669 287.09,353.4969 293.53,368.8669" fill="none" id="Pedido-Comanda" style="stroke:#181818;stroke-width:1;"/><polygon fill="#000000" points="284.9356,334.491,281.7342,325.5354,277.0817,329.1275,284.9356,334.491" style="stroke:#000000;stroke-width:1;"/><text fill="#000000" font-family="sans-serif" font-size="13" lengthAdjust="spacing" textLength="45.7983" x="290.88" y="335.0338">genera</text></g><!--link Comanda to Producto--><g class="link" data-entity-1="Comanda" data-entity-2="Producto" data-source-line="89" data-uid="lnk18" id="link_Comanda_Producto"><path codeLine="89" d="M321.7,446.6269 C327.52,461.2469 334.35,478.0369 340.88,493.1569 C345.07,502.8669 349.72,513.1969 354.22,522.9969" fill="none" id="Comanda-Producto" style="stroke:#181818;stroke-width:1;"/><polygon fill="#000000" points="347.8389,489.3236,346.9992,479.8502,341.5912,482.153,347.8389,489.3236" style="stroke:#000000;stroke-width:1;"/><text fill="#000000" font-family="sans-serif" font-size="13" lengthAdjust="spacing" textLength="46.541" x="354.88" y="489.2238">incluye</text></g><!--link Producto to Categoria--><g class="link" data-entity-1="Producto" data-entity-2="Categoria" data-source-line="90" data-uid="lnk19" id="link_Producto_Categoria"><path codeLine="90" d="M329.31,617.0069 C322.58,626.1569 316.66,636.1869 312.88,646.6369 C307.55,661.3769 307.77,678.7669 309.56,693.2369" fill="none" id="Producto-Categoria" style="stroke:#181818;stroke-width:1;"/><polygon fill="#000000" points="316.626,660.0435,321.7395,652.0246,316.0495,650.5504,316.626,660.0435" style="stroke:#000000;stroke-width:1;"/><text fill="#000000" font-family="sans-serif" font-size="13" lengthAdjust="spacing" textLength="94.8594" x="326.88" y="659.7038">clasificado-por</text></g><!--link Menu to Producto--><g class="link" data-entity-1="Menu" data-entity-2="Producto" data-source-line="91" data-uid="lnk20" id="link_Menu_Producto"><path codeLine="91" d="M432.06,438.3469 C421.85,462.0669 407.38,495.6969 395.68,522.8869" fill="none" id="Menu-Producto" style="stroke:#181818;stroke-width:1;"/><polygon fill="#000000" points="416.9036,489.3161,423.1785,482.1693,417.7794,479.8459,416.9036,489.3161" style="stroke:#000000;stroke-width:1;"/><text fill="#000000" font-family="sans-serif" font-size="13" lengthAdjust="spacing" textLength="56.2847" x="427.88" y="489.2238">contiene</text></g><!--link Empleado to Comanda--><g class="link" data-entity-1="Empleado" data-entity-2="Comanda" data-source-line="92" data-uid="lnk21" id="link_Empleado_Comanda"><path codeLine="92" d="M478.69,276.0069 C441.38,304.3569 385.48,346.8269 347.66,375.5669" fill="none" id="Empleado-Comanda" style="stroke:#181818;stroke-width:1;"/><polygon fill="#000000" points="412.8989,333.5583,421.8789,330.4261,418.3228,325.746,412.8989,333.5583" style="stroke:#000000;stroke-width:1;"/><text fill="#000000" font-family="sans-serif" font-size="13" lengthAdjust="spacing" textLength="49.1626" x="425.88" y="335.0338">atiende</text></g><!--link Empleado to Turno--><g class="link" data-entity-1="Empleado" data-entity-2="Turno" data-source-line="93" data-uid="lnk22" id="link_Empleado_Turno"><path codeLine="93" d="M531.25,276.0069 C544.14,304.7169 563.55,347.9169 576.45,376.6669" fill="none" id="Empleado-Turno" style="stroke:#181818;stroke-width:1;"/><polygon fill="#000000" points="564.9282,335.0945,563.904,325.6393,558.542,328.047,564.9282,335.0945" style="stroke:#000000;stroke-width:1;"/><text fill="#000000" font-family="sans-serif" font-size="13" lengthAdjust="spacing" textLength="71.6714" x="571.88" y="335.0338">asignado-a</text></g><!--link Producto to Inventario--><g class="link" data-entity-1="Producto" data-entity-2="Inventario" data-source-line="94" data-uid="lnk23" id="link_Producto_Inventario"><path codeLine="94" d="M413.71,616.7069 C427.53,632.3269 443.75,649.4169 459.88,663.6369 C471.77,674.1169 485.52,684.4169 498.46,693.4169" fill="none" id="Producto-Inventario" style="stroke:#181818;stroke-width:1;"/><polygon fill="#000000" points="468.587,658.5586,463.8532,650.3099,459.9088,654.6677,468.587,658.5586" style="stroke:#000000;stroke-width:1;"/><text fill="#000000" font-family="sans-serif" font-size="13" lengthAdjust="spacing" textLength="87.5215" x="473.88" y="659.7038">registrado-en</text></g><!--link Inventario to Stock--><g class="link" data-entity-1="Inventario" data-entity-2="Stock" data-source-line="95" data-uid="lnk24" id="link_Inventario_Stock"><path codeLine="95" d="M544.88,754.9069 C544.88,777.5669 544.88,808.5769 544.88,831.2169" fill="none" id="Inventario-Stock" style="stroke:#181818;stroke-width:1;"/><polygon fill="#000000" points="549.88,798.0933,552.8189,789.0482,546.9411,789.0482,549.88,798.0933" style="stroke:#000000;stroke-width:1;"/><text fill="#000000" font-family="sans-serif" font-size="13" lengthAdjust="spacing" textLength="53.314" x="558.88" y="797.5938">controla</text></g><!--link Stock to Proveedor--><g class="link" data-entity-1="Stock" data-entity-2="Proveedor" data-source-line="96" data-uid="lnk25" id="link_Stock_Proveedor"><path codeLine="96" d="M544.88,892.8169 C544.88,914.9069 544.88,945.1569 544.88,968.9769" fill="none" id="Stock-Proveedor" style="stroke:#181818;stroke-width:1;"/><polygon fill="#000000" points="549.88,935.9833,552.8189,926.9382,546.9411,926.9382,549.88,935.9833" style="stroke:#000000;stroke-width:1;"/><text fill="#000000" font-family="sans-serif" font-size="13" lengthAdjust="spacing" textLength="97.2588" x="558.88" y="935.4838">abastecido-por</text></g><!--link MovimientoInventario to Inventario--><g class="link" data-entity-1="MovimientoInventario" data-entity-2="Inventario" data-source-line="97" data-uid="lnk26" id="link_MovimientoInventario_Inventario"><path codeLine="97" d="M591.39,608.9069 C580.78,634.9669 566.89,669.0569 557.06,693.1769" fill="none" id="MovimientoInventario-Inventario" style="stroke:#181818;stroke-width:1;"/><polygon fill="#000000" points="578.9936,659.8338,585.1279,652.5659,579.6844,650.3483,578.9936,659.8338" style="stroke:#000000;stroke-width:1;"/><text fill="#000000" font-family="sans-serif" font-size="13" lengthAdjust="spacing" textLength="40.752" x="589.88" y="659.7038">afecta</text></g><!--link Pedido to Pago--><g class="link" data-entity-1="Pedido" data-entity-2="Pago" data-source-line="98" data-uid="lnk27" id="link_Pedido_Pago"><path codeLine="98" d="M140.24,266.9269 C118.14,280.0169 91.92,298.8369 74.88,321.9669 C64.78,335.6669 58.2,353.2069 53.96,368.7669" fill="none" id="Pedido-Pago" style="stroke:#181818;stroke-width:1;"/><polygon fill="#000000" points="76.6479,334.3482,84.7372,329.3467,80.2524,325.5472,76.6479,334.3482" style="stroke:#000000;stroke-width:1;"/><text fill="#000000" font-family="sans-serif" font-size="13" lengthAdjust="spacing" textLength="79.9297" x="88.88" y="335.0338">se-paga-con</text></g><!--link Pedido to Mesa--><g class="link" data-entity-1="Pedido" data-entity-2="Mesa" data-source-line="99" data-uid="lnk28" id="link_Pedido_Mesa"><path codeLine="99" d="M178.39,292.4469 C177.86,307.2969 177.54,323.8269 177.88,338.9669 C178.15,351.2969 178.71,364.8869 179.26,376.6269" fill="none" id="Pedido-Mesa" style="stroke:#181818;stroke-width:1;"/><polygon fill="#000000" points="182.9317,335.533,185.777,326.458,179.8994,326.5188,182.9317,335.533" style="stroke:#000000;stroke-width:1;"/><text fill="#000000" font-family="sans-serif" font-size="13" lengthAdjust="spacing" textLength="71.6714" x="191.88" y="335.0338">asignado-a</text></g><!--SRC=[bLH1Zjim3Bpx5RhrKEG31hf0uAI0WKqQx2vwPoJ6orOM3LaEq1PzKb_HZvMIxKJszh8-6B8uGmx9IG85Y-h01YqhUQaTj-I8IrN11GFwlt-WA3weJ_Ae_V6btcrt-sTrUggFLNtQFievXeg2pzzG1rLPGXTG_IgK-kYuFNkCfu0MB-mudh45iiNl6-M4XWnFZA55dr0NrA-Gu7q0awu21yY95RVW3AoPh-npObR8inbquBMupgEcH3NOQq-TVBbKaBgSNq70XZt1Ea5EkyCFw8OrCdNrbHfqcY33xjlE8fYtqWRf8jVmCdWteMAVjQD9UlpwJ7dzsbrb5U1fmcisrDndkzLX04i_OINxER3-FZ701J9WTjHtxEXiawP1n84zY4lQrNIlY8RzUtP_u2krqJ6yLfjcdscuUoAVSFzc-newwIWICcdGJ5bRbb8BUxKOU7J9xFAd_UEsghySRzQUFRtPp5ujbSSqE_LGJ5SIdFrOAjal-XYSho9rTb-fo6ax_C18dYyZ_MQlKcaBFLr8YoKsdOpqeKXkMgRHqemeYtbk_bd8W1Wsw_Xe8OdsrBXO05P2ibN4HXlgWuyuT0BCWW8TpJ9AyMnZfl5gL3ePGcgTeG_oAxktyx_5hslBFv0EoncdLPQgnqq73MoaxYAS7B5ixHy0]--></g></svg>