<?xml version="1.0" encoding="us-ascii" standalone="no"?><svg xmlns="http://www.w3.org/2000/svg" xmlns:xlink="http://www.w3.org/1999/xlink" contentStyleType="text/css" height="1405px" preserveAspectRatio="none" style="width:778px;height:1405px;background:#FFFFFF;" version="1.1" viewBox="0 0 778 1405" width="778px" zoomAndPan="magnify"><defs/><g><ellipse cx="360" cy="16" fill="#222222" rx="10" ry="10" style="stroke:#222222;stroke-width:1.0;"/><path d="M215.5,104 L504.5,104 A12.5,12.5 0 0 1 517,116.5 L517,131.6094 L203,131.6094 L203,116.5 A12.5,12.5 0 0 1 215.5,104 " fill="#F1F1F1" style="stroke:#F1F1F1;stroke-width:1.0;"/><rect fill="none" height="215.6094" rx="12.5" ry="12.5" style="stroke:#181818;stroke-width:0.5;" width="314" x="203" y="104"/><line style="stroke:#181818;stroke-width:0.5;" x1="203" x2="517" y1="131.6094" y2="131.6094"/><text fill="#000000" font-family="sans-serif" font-size="14" lengthAdjust="spacing" textLength="77" x="321.5" y="123.5332">Preparacion</text><ellipse cx="361.5" cy="152.6094" fill="#222222" rx="10" ry="10" style="stroke:#222222;stroke-width:1.0;"/><g id="Preparacion.Inicializacion"><rect fill="#F1F1F1" height="52.7031" rx="12.5" ry="12.5" style="stroke:#181818;stroke-width:0.5;" width="293" x="215" y="198.6094"/><line style="stroke:#181818;stroke-width:0.5;" x1="215" x2="508" y1="226.2188" y2="226.2188"/><text fill="#000000" font-family="sans-serif" font-size="14" lengthAdjust="spacing" textLength="78" x="322.5" y="218.1426">Inicializacion</text><text fill="#000000" font-family="sans-serif" font-size="12" lengthAdjust="spacing" textLength="273" x="220" y="243.6758">Inicializar inventario, men&#250;, recetas y presupuesto</text></g><ellipse cx="361.5" cy="298.6094" fill="none" rx="11" ry="11" style="stroke:#222222;stroke-width:1.0;"/><ellipse cx="361.5" cy="298.6094" fill="#222222" rx="6" ry="6" style="stroke:#222222;stroke-width:1.0;"/><!--link *start*Preparacion to Inicializacion--><g id="link_*start*Preparacion_Inicializacion"><path d="M361.5,162.8294 C361.5,171.8594 361.5,180.0394 361.5,192.4894 " fill="none" id="*start*Preparacion-to-Inicializacion" style="stroke:#181818;stroke-width:1.0;"/><polygon fill="#181818" points="361.5,198.4894,365.5,189.4894,361.5,193.4894,357.5,189.4894,361.5,198.4894" style="stroke:#181818;stroke-width:1.0;"/></g><!--link Inicializacion to *end*Preparacion--><g id="link_Inicializacion_*end*Preparacion"><path d="M361.5,251.9194 C361.5,264.2394 361.5,272.2694 361.5,281.4994 " fill="none" id="Inicializacion-to-*end*Preparacion" style="stroke:#181818;stroke-width:1.0;"/><polygon fill="#181818" points="361.5,287.4994,365.5,278.4994,361.5,282.4994,357.5,278.4994,361.5,287.4994" style="stroke:#181818;stroke-width:1.0;"/></g><path d="M211.5,398 L508.5,398 A12.5,12.5 0 0 1 521,410.5 L521,425.6094 L199,425.6094 L199,410.5 A12.5,12.5 0 0 1 211.5,398 " fill="#F1F1F1" style="stroke:#F1F1F1;stroke-width:1.0;"/><rect fill="none" height="324.6094" rx="12.5" ry="12.5" style="stroke:#181818;stroke-width:0.5;" width="322" x="199" y="398"/><line style="stroke:#181818;stroke-width:0.5;" x1="199" x2="521" y1="425.6094" y2="425.6094"/><text fill="#000000" font-family="sans-serif" font-size="14" lengthAdjust="spacing" textLength="64" x="328" y="417.5332">Operando</text><ellipse cx="361.5" cy="446.6094" fill="#222222" rx="10" ry="10" style="stroke:#222222;stroke-width:1.0;"/><g id="Operando.AtendiendoPedidos"><rect fill="#F1F1F1" height="52.7031" rx="12.5" ry="12.5" style="stroke:#181818;stroke-width:0.5;" width="301" x="211" y="493.6094"/><line style="stroke:#181818;stroke-width:0.5;" x1="211" x2="512" y1="521.2188" y2="521.2188"/><text fill="#000000" font-family="sans-serif" font-size="14" lengthAdjust="spacing" textLength="123" x="300" y="513.1426">AtendiendoPedidos</text><text fill="#000000" font-family="sans-serif" font-size="12" lengthAdjust="spacing" textLength="281" x="216" y="538.6758">Atender pedidos del men&#250; y actualizar presupuesto</text></g><g id="Operando.VerificandoStock"><rect fill="#F1F1F1" height="52.7031" rx="12.5" ry="12.5" style="stroke:#181818;stroke-width:0.5;" width="126" x="298.5" y="600.6094"/><line style="stroke:#181818;stroke-width:0.5;" x1="298.5" x2="424.5" y1="628.2188" y2="628.2188"/><text fill="#000000" font-family="sans-serif" font-size="14" lengthAdjust="spacing" textLength="106" x="308.5" y="620.1426">VerificandoStock</text><text fill="#000000" font-family="sans-serif" font-size="12" lengthAdjust="spacing" textLength="100" x="303.5" y="645.6758">Verificar inventario</text></g><ellipse cx="361.5" cy="701.6094" fill="none" rx="11" ry="11" style="stroke:#222222;stroke-width:1.0;"/><ellipse cx="361.5" cy="701.6094" fill="#222222" rx="6" ry="6" style="stroke:#222222;stroke-width:1.0;"/><!--link *start*Operando to AtendiendoPedidos--><g id="link_*start*Operando_AtendiendoPedidos"><path d="M361.5,456.6694 C361.5,465.9094 361.5,474.6894 361.5,487.5394 " fill="none" id="*start*Operando-to-AtendiendoPedidos" style="stroke:#181818;stroke-width:1.0;"/><polygon fill="#181818" points="361.5,493.5394,365.5,484.5394,361.5,488.5394,357.5,484.5394,361.5,493.5394" style="stroke:#181818;stroke-width:1.0;"/></g><!--link AtendiendoPedidos to VerificandoStock--><g id="link_AtendiendoPedidos_VerificandoStock"><path d="M361.5,546.7994 C361.5,563.0694 361.5,578.0394 361.5,594.3294 " fill="none" id="AtendiendoPedidos-to-VerificandoStock" style="stroke:#181818;stroke-width:1.0;"/><polygon fill="#181818" points="361.5,600.3294,365.5,591.3294,361.5,595.3294,357.5,591.3294,361.5,600.3294" style="stroke:#181818;stroke-width:1.0;"/><text fill="#000000" font-family="sans-serif" font-size="13" lengthAdjust="spacing" textLength="78" x="362.5" y="579.1045">Fin de pedido</text></g><!--link VerificandoStock to *end*Operando--><g id="link_VerificandoStock_*end*Operando"><path d="M361.5,653.8694 C361.5,666.5694 361.5,675.1494 361.5,684.5994 " fill="none" id="VerificandoStock-to-*end*Operando" style="stroke:#181818;stroke-width:1.0;"/><polygon fill="#181818" points="361.5,690.5994,365.5,681.5994,361.5,685.5994,357.5,681.5994,361.5,690.5994" style="stroke:#181818;stroke-width:1.0;"/></g><path d="M19.5,801 L248.5,801 A12.5,12.5 0 0 1 261,813.5 L261,828.6094 L7,828.6094 L7,813.5 A12.5,12.5 0 0 1 19.5,801 " fill="#F1F1F1" style="stroke:#F1F1F1;stroke-width:1.0;"/><rect fill="none" height="304.6094" rx="12.5" ry="12.5" style="stroke:#181818;stroke-width:0.5;" width="254" x="7" y="801"/><line style="stroke:#181818;stroke-width:0.5;" x1="7" x2="261" y1="828.6094" y2="828.6094"/><text fill="#000000" font-family="sans-serif" font-size="14" lengthAdjust="spacing" textLength="135" x="66.5" y="820.5332">SolicitandoProveedor</text><ellipse cx="135.5" cy="849.6094" fill="#222222" rx="10" ry="10" style="stroke:#222222;stroke-width:1.0;"/><g id="SolicitandoProveedor.GenerandoOrden"><rect fill="#F1F1F1" height="52.7031" rx="12.5" ry="12.5" style="stroke:#181818;stroke-width:0.5;" width="233" x="19" y="895.6094"/><line style="stroke:#181818;stroke-width:0.5;" x1="19" x2="252" y1="923.2188" y2="923.2188"/><text fill="#000000" font-family="sans-serif" font-size="14" lengthAdjust="spacing" textLength="112" x="79.5" y="915.1426">GenerandoOrden</text><text fill="#000000" font-family="sans-serif" font-size="12" lengthAdjust="spacing" textLength="213" x="24" y="940.6758">Generar orden de compra al proveedor</text></g><g id="SolicitandoProveedor.EsperandoEntrega"><rect fill="#F1F1F1" height="52.7031" rx="12.5" ry="12.5" style="stroke:#181818;stroke-width:0.5;" width="191" x="40" y="984.6094"/><line style="stroke:#181818;stroke-width:0.5;" x1="40" x2="231" y1="1012.2188" y2="1012.2188"/><text fill="#000000" font-family="sans-serif" font-size="14" lengthAdjust="spacing" textLength="119" x="76" y="1004.1426">EsperandoEntrega</text><text fill="#000000" font-family="sans-serif" font-size="12" lengthAdjust="spacing" textLength="171" x="45" y="1029.6758">Esperar confirmaci&#243;n y entrega</text></g><ellipse cx="135.5" cy="1084.6094" fill="none" rx="11" ry="11" style="stroke:#222222;stroke-width:1.0;"/><ellipse cx="135.5" cy="1084.6094" fill="#222222" rx="6" ry="6" style="stroke:#222222;stroke-width:1.0;"/><!--link *start*SolicitandoProveedor to GenerandoOrden--><g id="link_*start*SolicitandoProveedor_GenerandoOrden"><path d="M135.5,859.8294 C135.5,868.8594 135.5,877.0394 135.5,889.4894 " fill="none" id="*start*SolicitandoProveedor-to-GenerandoOrden" style="stroke:#181818;stroke-width:1.0;"/><polygon fill="#181818" points="135.5,895.4894,139.5,886.4894,135.5,890.4894,131.5,886.4894,135.5,895.4894" style="stroke:#181818;stroke-width:1.0;"/></g><!--link GenerandoOrden to EsperandoEntrega--><g id="link_GenerandoOrden_EsperandoEntrega"><path d="M135.5,948.7394 C135.5,959.9694 135.5,967.1194 135.5,978.3594 " fill="none" id="GenerandoOrden-to-EsperandoEntrega" style="stroke:#181818;stroke-width:1.0;"/><polygon fill="#181818" points="135.5,984.3594,139.5,975.3594,135.5,979.3594,131.5,975.3594,135.5,984.3594" style="stroke:#181818;stroke-width:1.0;"/></g><!--link EsperandoEntrega to *end*SolicitandoProveedor--><g id="link_EsperandoEntrega_*end*SolicitandoProveedor"><path d="M135.5,1037.9194 C135.5,1050.2394 135.5,1058.2694 135.5,1067.4994 " fill="none" id="EsperandoEntrega-to-*end*SolicitandoProveedor" style="stroke:#181818;stroke-width:1.0;"/><polygon fill="#181818" points="135.5,1073.4994,139.5,1064.4994,135.5,1068.4994,131.5,1064.4994,135.5,1073.4994" style="stroke:#181818;stroke-width:1.0;"/></g><path d="M493.5,845.5 L752.5,845.5 A12.5,12.5 0 0 1 765,858 L765,873.1094 L481,873.1094 L481,858 A12.5,12.5 0 0 1 493.5,845.5 " fill="#F1F1F1" style="stroke:#F1F1F1;stroke-width:1.0;"/><rect fill="none" height="215.6094" rx="12.5" ry="12.5" style="stroke:#181818;stroke-width:0.5;" width="284" x="481" y="845.5"/><line style="stroke:#181818;stroke-width:0.5;" x1="481" x2="765" y1="873.1094" y2="873.1094"/><text fill="#000000" font-family="sans-serif" font-size="14" lengthAdjust="spacing" textLength="76" x="585" y="865.0332">CierreDiario</text><ellipse cx="624.5" cy="894.1094" fill="#222222" rx="10" ry="10" style="stroke:#222222;stroke-width:1.0;"/><g id="CierreDiario.CalculandoGanancias"><rect fill="#F1F1F1" height="52.7031" rx="12.5" ry="12.5" style="stroke:#181818;stroke-width:0.5;" width="263" x="493" y="940.1094"/><line style="stroke:#181818;stroke-width:0.5;" x1="493" x2="756" y1="967.7188" y2="967.7188"/><text fill="#000000" font-family="sans-serif" font-size="14" lengthAdjust="spacing" textLength="139" x="555" y="959.6426">CalculandoGanancias</text><text fill="#000000" font-family="sans-serif" font-size="12" lengthAdjust="spacing" textLength="243" x="498" y="985.1758">Calcular ganancias y actualizar presupuesto</text></g><ellipse cx="624.5" cy="1040.1094" fill="none" rx="11" ry="11" style="stroke:#222222;stroke-width:1.0;"/><ellipse cx="624.5" cy="1040.1094" fill="#222222" rx="6" ry="6" style="stroke:#222222;stroke-width:1.0;"/><!--link *start*CierreDiario to CalculandoGanancias--><g id="link_*start*CierreDiario_CalculandoGanancias"><path d="M624.5,904.3294 C624.5,913.3594 624.5,921.5394 624.5,933.9894 " fill="none" id="*start*CierreDiario-to-CalculandoGanancias" style="stroke:#181818;stroke-width:1.0;"/><polygon fill="#181818" points="624.5,939.9894,628.5,930.9894,624.5,934.9894,620.5,930.9894,624.5,939.9894" style="stroke:#181818;stroke-width:1.0;"/></g><!--link CalculandoGanancias to *end*CierreDiario--><g id="link_CalculandoGanancias_*end*CierreDiario"><path d="M624.5,993.4194 C624.5,1005.7394 624.5,1013.7694 624.5,1022.9994 " fill="none" id="CalculandoGanancias-to-*end*CierreDiario" style="stroke:#181818;stroke-width:1.0;"/><polygon fill="#181818" points="624.5,1028.9994,628.5,1019.9994,624.5,1023.9994,620.5,1019.9994,624.5,1028.9994" style="stroke:#181818;stroke-width:1.0;"/></g><path d="M146.5,1184 L351.5,1184 A12.5,12.5 0 0 1 364,1196.5 L364,1211.6094 L134,1211.6094 L134,1196.5 A12.5,12.5 0 0 1 146.5,1184 " fill="#F1F1F1" style="stroke:#F1F1F1;stroke-width:1.0;"/><rect fill="none" height="215.6094" rx="12.5" ry="12.5" style="stroke:#181818;stroke-width:0.5;" width="230" x="134" y="1184"/><line style="stroke:#181818;stroke-width:0.5;" x1="134" x2="364" y1="1211.6094" y2="1211.6094"/><text fill="#000000" font-family="sans-serif" font-size="14" lengthAdjust="spacing" textLength="165" x="166.5" y="1203.5332">ReabasteciendoInventario</text><ellipse cx="250.5" cy="1232.6094" fill="#222222" rx="10" ry="10" style="stroke:#222222;stroke-width:1.0;"/><g id="ReabasteciendoInventario.ActualizandoStock"><rect fill="#F1F1F1" height="52.7031" rx="12.5" ry="12.5" style="stroke:#181818;stroke-width:0.5;" width="209" x="146" y="1278.6094"/><line style="stroke:#181818;stroke-width:0.5;" x1="146" x2="355" y1="1306.2188" y2="1306.2188"/><text fill="#000000" font-family="sans-serif" font-size="14" lengthAdjust="spacing" textLength="115" x="193" y="1298.1426">ActualizandoStock</text><text fill="#000000" font-family="sans-serif" font-size="12" lengthAdjust="spacing" textLength="189" x="151" y="1323.6758">Actualizar inventario y presupuesto</text></g><ellipse cx="250.5" cy="1378.6094" fill="none" rx="11" ry="11" style="stroke:#222222;stroke-width:1.0;"/><ellipse cx="250.5" cy="1378.6094" fill="#222222" rx="6" ry="6" style="stroke:#222222;stroke-width:1.0;"/><!--link *start*ReabasteciendoInventario to ActualizandoStock--><g id="link_*start*ReabasteciendoInventario_ActualizandoStock"><path d="M250.5,1242.8294 C250.5,1251.8594 250.5,1260.0394 250.5,1272.4894 " fill="none" id="*start*ReabasteciendoInventario-to-ActualizandoStock" style="stroke:#181818;stroke-width:1.0;"/><polygon fill="#181818" points="250.5,1278.4894,254.5,1269.4894,250.5,1273.4894,246.5,1269.4894,250.5,1278.4894" style="stroke:#181818;stroke-width:1.0;"/></g><!--link ActualizandoStock to *end*ReabasteciendoInventario--><g id="link_ActualizandoStock_*end*ReabasteciendoInventario"><path d="M250.5,1331.9194 C250.5,1344.2394 250.5,1352.2694 250.5,1361.4994 " fill="none" id="ActualizandoStock-to-*end*ReabasteciendoInventario" style="stroke:#181818;stroke-width:1.0;"/><polygon fill="#181818" points="250.5,1367.4994,254.5,1358.4994,250.5,1362.4994,246.5,1358.4994,250.5,1367.4994" style="stroke:#181818;stroke-width:1.0;"/></g><path d="M570,1184 L676,1184 A12.5,12.5 0 0 1 688.5,1196.5 L688.5,1211.6094 L557.5,1211.6094 L557.5,1196.5 A12.5,12.5 0 0 1 570,1184 " fill="#F1F1F1" style="stroke:#F1F1F1;stroke-width:1.0;"/><rect fill="none" height="215.6094" rx="12.5" ry="12.5" style="stroke:#181818;stroke-width:0.5;" width="131" x="557.5" y="1184"/><line style="stroke:#181818;stroke-width:0.5;" x1="557.5" x2="688.5" y1="1211.6094" y2="1211.6094"/><text fill="#000000" font-family="sans-serif" font-size="14" lengthAdjust="spacing" textLength="64" x="591" y="1203.5332">Finalizado</text><ellipse cx="624.5" cy="1232.6094" fill="#222222" rx="10" ry="10" style="stroke:#222222;stroke-width:1.0;"/><g id="Finalizado.Inactivo"><rect fill="#F1F1F1" height="52.7031" rx="12.5" ry="12.5" style="stroke:#181818;stroke-width:0.5;" width="110" x="569.5" y="1278.6094"/><line style="stroke:#181818;stroke-width:0.5;" x1="569.5" x2="679.5" y1="1306.2188" y2="1306.2188"/><text fill="#000000" font-family="sans-serif" font-size="14" lengthAdjust="spacing" textLength="48" x="600.5" y="1298.1426">Inactivo</text><text fill="#000000" font-family="sans-serif" font-size="12" lengthAdjust="spacing" textLength="90" x="574.5" y="1323.6758">Sistema inactivo</text></g><ellipse cx="624.5" cy="1378.6094" fill="none" rx="11" ry="11" style="stroke:#222222;stroke-width:1.0;"/><ellipse cx="624.5" cy="1378.6094" fill="#222222" rx="6" ry="6" style="stroke:#222222;stroke-width:1.0;"/><!--link *start*Finalizado to Inactivo--><g id="link_*start*Finalizado_Inactivo"><path d="M624.5,1242.8294 C624.5,1251.8594 624.5,1260.0394 624.5,1272.4894 " fill="none" id="*start*Finalizado-to-Inactivo" style="stroke:#181818;stroke-width:1.0;"/><polygon fill="#181818" points="624.5,1278.4894,628.5,1269.4894,624.5,1273.4894,620.5,1269.4894,624.5,1278.4894" style="stroke:#181818;stroke-width:1.0;"/></g><!--link Inactivo to *end*Finalizado--><g id="link_Inactivo_*end*Finalizado"><path d="M624.5,1331.9194 C624.5,1344.2394 624.5,1352.2694 624.5,1361.4994 " fill="none" id="Inactivo-to-*end*Finalizado" style="stroke:#181818;stroke-width:1.0;"/><polygon fill="#181818" points="624.5,1367.4994,628.5,1358.4994,624.5,1362.4994,620.5,1358.4994,624.5,1367.4994" style="stroke:#181818;stroke-width:1.0;"/></g><!--link *start* to Preparacion--><g id="link_*start*_Preparacion"><path d="M360,26.1 C360,40.85 360,65.63 360,97.91 " fill="none" id="*start*-to-Preparacion" style="stroke:#181818;stroke-width:1.0;"/><polygon fill="#181818" points="360,103.91,364,94.91,360,98.91,356,94.91,360,103.91" style="stroke:#181818;stroke-width:1.0;"/><text fill="#000000" font-family="sans-serif" font-size="13" lengthAdjust="spacing" textLength="101" x="361" y="70.4951">Inicio del sistema</text></g><!--link Preparacion to Operando--><g id="link_Preparacion_Operando"><path d="M360,320.26 C360,344.81 360,365.43 360,391.7 " fill="none" id="Preparacion-to-Operando" style="stroke:#181818;stroke-width:1.0;"/><polygon fill="#181818" points="360,397.7,364,388.7,360,392.7,356,388.7,360,397.7" style="stroke:#181818;stroke-width:1.0;"/><text fill="#000000" font-family="sans-serif" font-size="13" lengthAdjust="spacing" textLength="111" x="361" y="364.4951">Inventario verificado</text></g><!--link Operando to SolicitandoProveedor--><g id="link_Operando_SolicitandoProveedor"><path d="M239.04,723.14 C232.73,733.1 226.66,743.1 221,753 C212.28,768.25 206.4581,779.1465 198.5181,795.5965 " fill="none" id="Operando-to-SolicitandoProveedor" style="stroke:#181818;stroke-width:1.0;"/><polygon fill="#181818" points="195.91,801,203.4245,794.6335,198.0834,796.4971,196.2199,791.156,195.91,801" style="stroke:#181818;stroke-width:1.0;"/><text fill="#000000" font-family="sans-serif" font-size="13" lengthAdjust="spacing" textLength="82" x="222" y="767.4951">Inventario bajo</text></g><!--link Operando to CierreDiario--><g id="link_Operando_CierreDiario"><path d="M438.56,723.26 C447.96,739.69 457.85,755.88 468,771 C484.86,796.11 500.8656,817.0534 520.6356,840.7434 " fill="none" id="Operando-to-CierreDiario" style="stroke:#181818;stroke-width:1.0;"/><polygon fill="#181818" points="524.48,845.35,521.7845,835.8772,521.2764,841.5112,515.6424,841.003,524.48,845.35" style="stroke:#181818;stroke-width:1.0;"/><text fill="#000000" font-family="sans-serif" font-size="13" lengthAdjust="spacing" textLength="82" x="469" y="767.4951">Fin de jornada</text></g><!--link CierreDiario to Operando--><g id="link_CierreDiario_Operando"><path d="M597.24,845.28 C587.1,814.14 573.58,781.01 556,753 C545.76,736.68 537.7012,725.3309 524.9112,710.0509 " fill="none" id="CierreDiario-to-Operando" style="stroke:#181818;stroke-width:1.0;"/><polygon fill="#181818" points="521.06,705.45,523.7695,714.9188,524.2693,709.2841,529.904,709.7839,521.06,705.45" style="stroke:#181818;stroke-width:1.0;"/><text fill="#000000" font-family="sans-serif" font-size="13" lengthAdjust="spacing" textLength="75" x="565" y="767.4951">D&#237;a siguiente</text></g><!--link SolicitandoProveedor to ReabasteciendoInventario--><g id="link_SolicitandoProveedor_ReabasteciendoInventario"><path d="M179.98,1106.26 C185.23,1122.43 190.63,1138.59 196,1154 C199.4,1163.75 200.9696,1168.2222 204.6996,1178.3122 " fill="none" id="SolicitandoProveedor-to-ReabasteciendoInventario" style="stroke:#181818;stroke-width:1.0;"/><polygon fill="#181818" points="206.78,1183.94,207.4112,1174.1114,205.0463,1179.2502,199.9075,1176.8853,206.78,1183.94" style="stroke:#181818;stroke-width:1.0;"/><text fill="#000000" font-family="sans-serif" font-size="13" lengthAdjust="spacing" textLength="107" x="197" y="1150.4951">Pedido confirmado</text></g><!--link ReabasteciendoInventario to Operando--><g id="link_ReabasteciendoInventario_Operando"><path d="M299.86,1183.72 C303.37,1173.82 306.5,1163.81 309,1154 C329.01,1075.4 343.3298,876.0703 351.6698,729.2003 " fill="none" id="ReabasteciendoInventario-to-Operando" style="stroke:#181818;stroke-width:1.0;"/><polygon fill="#181818" points="352.01,723.21,347.5062,731.9688,351.7265,728.202,355.4933,732.4223,352.01,723.21" style="stroke:#181818;stroke-width:1.0;"/><text fill="#000000" font-family="sans-serif" font-size="13" lengthAdjust="spacing" textLength="113" x="348" y="958.9951">Inventario suficiente</text></g><!--link CierreDiario to Finalizado--><g id="link_CierreDiario_Finalizado"><path d="M623,1061.9 C623,1100.85 623,1138.82 623,1177.76 " fill="none" id="CierreDiario-to-Finalizado" style="stroke:#181818;stroke-width:1.0;"/><polygon fill="#181818" points="623,1183.76,627,1174.76,623,1178.76,619,1174.76,623,1183.76" style="stroke:#181818;stroke-width:1.0;"/><text fill="#000000" font-family="sans-serif" font-size="13" lengthAdjust="spacing" textLength="110" x="624" y="1150.4951">Fin de operaciones</text></g><!--SRC=[VLGzJmCn3DtlLtX6y0SOa125YgaLbLWg1dDngvHhSd9obG3navZOMFl7S7AVwLqPAbsVxMS_voNhYnUukhg19LE9ZBcs1gxXqMZv0aK5EEqyxJ7Bd4TFITvd1h1kwcC55leZXYIG0Yrd11YqEP3noDfUmfxCyVSIc7BowE0TIYPNbHKvRySyePVqpBwouIG1NPJ4Q9IDhLfwE13hZSvHsLP1bpSS_zQJKLf-TabAA-iaDiA4EMB4K3P8s50K87DZxgj6NofXJ1HQFZUJ2RpoDdyJzWTjXB4XbyA9b1OQxd0gizzJfpT0Arl8EdtulsHx85AMquMzuiwcDNUQc6ccOxWRScVPeEfyCKaytF2SJCsvO4N182aWn3N0OED_QP7RVSa8MCW-6yfnNU2-TysyzyOpRL6oJY7Xho4MMhFHl1Vd77-Cd1kTB-gtEAalX9y8Nr6kI1uFUB38QwXFk-lNM_1iJMB9raxjcGOddMB1ahtjUakChj6uijTsTfppryfLuZP9zzHgIbmor767HLuLWMAE1erSvd2v9b3fqA0CsmxyvrvDSVIgae5EbCoEtoWlsxQg9OnInUEneneOteRoyDgGQpKFqjAtK4RMX_hrgZ-5PbK_f798usW_zHy0]--></g></svg>