<?xml version="1.0" encoding="us-ascii" standalone="no"?><svg xmlns="http://www.w3.org/2000/svg" xmlns:xlink="http://www.w3.org/1999/xlink" contentStyleType="text/css" height="721px" preserveAspectRatio="none" style="width:1339px;height:721px;background:#FFFFFF;" version="1.1" viewBox="0 0 1339 721" width="1339px" zoomAndPan="magnify"><defs/><g><!--cluster Menu--><g id="cluster_Menu"><path d="M90.5,7 L1313.38,7 A12.5,12.5 0 0 1 1325.88,19.5 L1325.88,29.6094 L78,29.6094 L78,19.5 A12.5,12.5 0 0 1 90.5,7 " fill="#F1F1F1" style="stroke:#F1F1F1;stroke-width:1.0;"/><rect fill="none" height="708" rx="12.5" ry="12.5" style="stroke:#181818;stroke-width:0.5;" width="1247.88" x="78" y="7"/><line style="stroke:#181818;stroke-width:0.5;" x1="78" x2="1325.88" y1="29.6094" y2="29.6094"/><text fill="#000000" font-family="sans-serif" font-size="14" lengthAdjust="spacing" textLength="35" x="684.44" y="25.5332">Menu</text></g><!--cluster Carta--><g id="cluster_Carta"><path d="M151.22,67 L1273.38,67 A12.5,12.5 0 0 1 1285.88,79.5 L1285.88,89.6094 L138.72,89.6094 L138.72,79.5 A12.5,12.5 0 0 1 151.22,67 " fill="#F1F1F1" style="stroke:#F1F1F1;stroke-width:1.0;"/><rect fill="none" height="608" rx="12.5" ry="12.5" style="stroke:#181818;stroke-width:0.5;" width="1147.16" x="138.72" y="67"/><line style="stroke:#181818;stroke-width:0.5;" x1="138.72" x2="1285.88" y1="89.6094" y2="89.6094"/><text fill="#000000" font-family="sans-serif" font-size="14" lengthAdjust="spacing" textLength="35" x="694.8" y="85.5332">Carta</text></g><!--cluster Secciones--><g id="cluster_Secciones"><path d="M411.94,127 L1233.38,127 A12.5,12.5 0 0 1 1245.88,139.5 L1245.88,149.6094 L399.44,149.6094 L399.44,139.5 A12.5,12.5 0 0 1 411.94,127 " fill="#F1F1F1" style="stroke:#F1F1F1;stroke-width:1.0;"/><rect fill="none" height="508" rx="12.5" ry="12.5" style="stroke:#181818;stroke-width:0.5;" width="846.44" x="399.44" y="127"/><line style="stroke:#181818;stroke-width:0.5;" x1="399.44" x2="1245.88" y1="149.6094" y2="149.6094"/><text fill="#000000" font-family="sans-serif" font-size="14" lengthAdjust="spacing" textLength="65" x="790.16" y="145.5332">Secciones</text></g><!--cluster Bebidas--><g id="cluster_Bebidas"><path d="M1036.66,187 L1193.38,187 A12.5,12.5 0 0 1 1205.88,199.5 L1205.88,209.6094 L1024.16,209.6094 L1024.16,199.5 A12.5,12.5 0 0 1 1036.66,187 " fill="#F1F1F1" style="stroke:#F1F1F1;stroke-width:1.0;"/><rect fill="none" height="408" rx="12.5" ry="12.5" style="stroke:#181818;stroke-width:0.5;" width="181.72" x="1024.16" y="187"/><line style="stroke:#181818;stroke-width:0.5;" x1="1024.16" x2="1205.88" y1="209.6094" y2="209.6094"/><text fill="#000000" font-family="sans-serif" font-size="14" lengthAdjust="spacing" textLength="51" x="1089.52" y="205.5332">Bebidas</text></g><!--cluster MenusEspeciales--><g id="cluster_MenusEspeciales"><path d="M199.94,226 L346.94,226 A12.5,12.5 0 0 1 359.44,238.5 L359.44,248.6094 L187.44,248.6094 L187.44,238.5 A12.5,12.5 0 0 1 199.94,226 " fill="#F1F1F1" style="stroke:#F1F1F1;stroke-width:1.0;"/><rect fill="none" height="277" rx="12.5" ry="12.5" style="stroke:#181818;stroke-width:0.5;" width="172" x="187.44" y="226"/><line style="stroke:#181818;stroke-width:0.5;" x1="187.44" x2="359.44" y1="248.6094" y2="248.6094"/><text fill="#000000" font-family="sans-serif" font-size="14" lengthAdjust="spacing" textLength="114" x="216.44" y="244.5332">Men&#250;s Especiales</text></g><rect fill="#F1F1F1" height="40" rx="12.5" ry="12.5" style="stroke:#181818;stroke-width:0.5;" width="71" x="495.66" y="494"/><text fill="#000000" font-family="sans-serif" font-size="14" lengthAdjust="spacing" textLength="61" x="500.66" y="519.7285">Entrantes</text><rect fill="#F1F1F1" height="40" rx="12.5" ry="12.5" style="stroke:#181818;stroke-width:0.5;" width="66" x="654.16" y="457"/><text fill="#000000" font-family="sans-serif" font-size="14" lengthAdjust="spacing" textLength="56" x="659.16" y="482.7285">Primeros</text><rect fill="#F1F1F1" height="40" rx="12.5" ry="12.5" style="stroke:#181818;stroke-width:0.5;" width="74" x="780.16" y="420"/><text fill="#000000" font-family="sans-serif" font-size="14" lengthAdjust="spacing" textLength="64" x="785.16" y="445.7285">Segundos</text><rect fill="#F1F1F1" height="40" rx="12.5" ry="12.5" style="stroke:#181818;stroke-width:0.5;" width="126" x="468.16" y="569"/><text fill="#000000" font-family="sans-serif" font-size="14" lengthAdjust="spacing" textLength="116" x="473.16" y="594.7285">Acompa&#241;amientos</text><rect fill="#F1F1F1" height="40" rx="12.5" ry="12.5" style="stroke:#181818;stroke-width:0.5;" width="58" x="914.16" y="383"/><text fill="#000000" font-family="sans-serif" font-size="14" lengthAdjust="spacing" textLength="48" x="919.16" y="408.7285">Postres</text><rect fill="#F1F1F1" height="40" rx="12.5" ry="12.5" style="stroke:#181818;stroke-width:0.5;" width="50" x="1112.38" y="231"/><text fill="#000000" font-family="sans-serif" font-size="14" lengthAdjust="spacing" textLength="28" x="1123.38" y="256.7285">Vino</text><rect fill="#F1F1F1" height="40" rx="12.5" ry="12.5" style="stroke:#181818;stroke-width:0.5;" width="62" x="1106.38" y="306"/><text fill="#000000" font-family="sans-serif" font-size="14" lengthAdjust="spacing" textLength="52" x="1111.38" y="331.7285">Cerveza</text><rect fill="#F1F1F1" height="40" rx="12.5" ry="12.5" style="stroke:#181818;stroke-width:0.5;" width="67" x="1103.88" y="381"/><text fill="#000000" font-family="sans-serif" font-size="14" lengthAdjust="spacing" textLength="57" x="1108.88" y="406.7285">Refresco</text><rect fill="#F1F1F1" height="40" rx="12.5" ry="12.5" style="stroke:#181818;stroke-width:0.5;" width="50" x="1112.38" y="456"/><text fill="#000000" font-family="sans-serif" font-size="14" lengthAdjust="spacing" textLength="33" x="1120.88" y="481.7285">Agua</text><rect fill="#F1F1F1" height="40" rx="12.5" ry="12.5" style="stroke:#181818;stroke-width:0.5;" width="89" x="1092.88" y="531"/><text fill="#000000" font-family="sans-serif" font-size="14" lengthAdjust="spacing" textLength="79" x="1097.88" y="556.7285">CafeInfusion</text><rect fill="#F1F1F1" height="40" rx="12.5" ry="12.5" style="stroke:#181818;stroke-width:0.5;" width="87" x="229.94" y="270"/><text fill="#000000" font-family="sans-serif" font-size="14" lengthAdjust="spacing" textLength="77" x="234.94" y="295.7285">MenuDelDia</text><rect fill="#F1F1F1" height="40" rx="12.5" ry="12.5" style="stroke:#181818;stroke-width:0.5;" width="86" x="230.44" y="345"/><text fill="#000000" font-family="sans-serif" font-size="14" lengthAdjust="spacing" textLength="76" x="235.44" y="370.7285">MenuInfantil</text><rect fill="#F1F1F1" height="40" rx="12.5" ry="12.5" style="stroke:#181818;stroke-width:0.5;" width="124" x="211.44" y="420"/><text fill="#000000" font-family="sans-serif" font-size="14" lengthAdjust="spacing" textLength="114" x="216.44" y="445.7285">MenuDegustacion</text><ellipse cx="16" cy="513" fill="#222222" rx="10" ry="10" style="stroke:#222222;stroke-width:1.0;"/><!--link *start* to Menu--><g id="link_*start*_Menu"><path d="M26.22,513 C35.26,513 49.4175,513 61.6137,513 C67.7119,513 73.3197,513 77.5523,513 C77.6846,513 71.8155,513 71.9451,513 " fill="none" id="*start*-to-Menu" style="stroke:#181818;stroke-width:1.0;"/><polygon fill="#181818" points="77.9451,513,68.9451,509,72.9451,513,68.9451,517,77.9451,513" style="stroke:#181818;stroke-width:1.0;"/></g><!--link Menu to Carta--><g id="link_Menu_Carta"><path d="M86.89,513 C88.575,513 102.515,513 116.4425,513 C123.4063,513 130.3669,513 135.7909,513 C136.4689,513 137.1229,513 137.7499,513 C138.0634,513 132.3702,513 132.6698,513 " fill="none" id="Menu-to-Carta" style="stroke:#181818;stroke-width:1.0;"/><polygon fill="#181818" points="138.6698,513,129.6698,509,133.6698,513,129.6698,517,138.6698,513" style="stroke:#181818;stroke-width:1.0;"/></g><!--link Carta to Secciones--><g id="link_Carta_Secciones"><path d="M147.54,513.04 C151.9,514.65 292.1,565.82 375.44,511 C382.42,506.4075 387.8588,499.875 392.0933,492.6116 C394.2105,488.9798 396.0268,485.1654 397.584,481.3193 C397.9734,480.3578 398.3465,479.3943 398.7041,478.4312 C398.8829,477.9497 399.0578,477.4682 399.229,476.9872 C399.2718,476.8669 397.3224,482.4064 397.3647,482.2862 " fill="none" id="Carta-to-Secciones" style="stroke:#181818;stroke-width:1.0;"/><polygon fill="#181818" points="399.3566,476.6264,392.5956,483.7881,397.6967,481.3429,400.1419,486.4439,399.3566,476.6264" style="stroke:#181818;stroke-width:1.0;"/></g><!--link Carta to MenusEspeciales--><g id="link_Carta_MenusEspeciales"><path d="M147.46,512.88 C147.69,511.74 149.69,502.47 155.44,499 C160.9213,495.6925 166.825,493.1384 172.9643,491.2025 C176.0339,490.2345 179.1625,489.421 182.3265,488.7451 C183.9086,488.4072 179.5842,489.1085 181.1811,488.8372 " fill="none" id="Carta-to-MenusEspeciales" style="stroke:#181818;stroke-width:1.0;"/><polygon fill="#181818" points="187.0963,487.8324,177.5536,485.3961,182.1669,488.6697,178.8933,493.2831,187.0963,487.8324" style="stroke:#181818;stroke-width:1.0;"/></g><!--link Secciones to Entrantes--><g id="link_Secciones_Entrantes"><path d="M408.22,440.1 C409.36,442.1 428.08,474.43 452.16,490 C465.13,498.38 475.3907,502.4795 489.5607,506.1395 " fill="none" id="Secciones-to-Entrantes" style="stroke:#181818;stroke-width:1.0;"/><polygon fill="#181818" points="495.37,507.64,487.6563,501.5163,490.5289,506.3896,485.6556,509.2621,495.37,507.64" style="stroke:#181818;stroke-width:1.0;"/></g><!--link Secciones to Primeros--><g id="link_Secciones_Primeros"><path d="M408.21,440.01 C411.57,440.45 575.4725,462.2684 647.9725,471.9184 " fill="none" id="Secciones-to-Primeros" style="stroke:#181818;stroke-width:1.0;"/><polygon fill="#181818" points="653.92,472.71,645.5264,467.5575,648.9637,472.0503,644.4709,475.4876,653.92,472.71" style="stroke:#181818;stroke-width:1.0;"/></g><!--link Secciones to Segundos--><g id="link_Secciones_Segundos"><path d="M408.29,440 C413.57,439.95 583.66,438.29 720.16,439 C739.99,439.1 756.1304,439.2601 774.1504,439.4701 " fill="none" id="Secciones-to-Segundos" style="stroke:#181818;stroke-width:1.0;"/><polygon fill="#181818" points="780.15,439.54,771.1972,435.4354,775.1503,439.4817,771.104,443.4349,780.15,439.54" style="stroke:#181818;stroke-width:1.0;"/></g><!--link Secciones to Acompanamientos--><g id="link_Secciones_Acompanamientos"><path d="M408.17,440.05 C408.41,442.24 416.65,512.69 452.16,551 C458.71,558.07 461.6517,561.0012 470.2017,565.8912 " fill="none" id="Secciones-to-Acompanamientos" style="stroke:#181818;stroke-width:1.0;"/><polygon fill="#181818" points="475.41,568.87,469.5834,560.9296,471.0697,566.3877,465.6116,567.874,475.41,568.87" style="stroke:#181818;stroke-width:1.0;"/></g><!--link Secciones to Postres--><g id="link_Secciones_Postres"><path d="M408.23,439.98 C409.67,439.62 433.03,433.79 452.16,431 C629.41,405.12 675.03,400.98 854.16,402 C874.17,402.11 890.7505,402.2901 908.0205,402.5201 " fill="none" id="Secciones-to-Postres" style="stroke:#181818;stroke-width:1.0;"/><polygon fill="#181818" points="914.02,402.6,905.0741,398.4805,909.0204,402.5334,904.9675,406.4798,914.02,402.6" style="stroke:#181818;stroke-width:1.0;"/></g><!--link Secciones to Bebidas--><g id="link_Secciones_Bebidas"><path d="M408.17,439.95 C408.39,437.99 415.79,375.02 452.16,352 C540.06,296.37 582.14,347 686.16,347 C686.16,347 686.16,347 818.16,347 C886.64,347 908.1,327.79 972.16,352 C987.66,357.855 1002.0725,369.535 1012.8138,380.0225 C1015.4991,382.6444 1017.9549,385.1917 1020.141,387.5549 C1021.234,388.7365 1022.2595,389.872 1023.2126,390.9478 C1023.4509,391.2167 1023.6846,391.4819 1023.9137,391.7432 C1023.971,391.8085 1020.0775,387.3577 1020.1342,387.4225 " fill="none" id="Secciones-to-Bebidas" style="stroke:#181818;stroke-width:1.0;"/><polygon fill="#181818" points="1024.0847,391.9384,1021.1696,382.5309,1020.7926,388.1751,1015.1483,387.7982,1024.0847,391.9384" style="stroke:#181818;stroke-width:1.0;"/></g><!--link Entrantes to Primeros--><g id="link_Entrantes_Primeros"><path d="M566.72,505.7 C592.88,499.41 622.7158,492.2408 648.2458,486.1108 " fill="none" id="Entrantes-to-Primeros" style="stroke:#181818;stroke-width:1.0;"/><polygon fill="#181818" points="654.08,484.71,644.3948,482.9218,649.2182,485.8774,646.2626,490.7007,654.08,484.71" style="stroke:#181818;stroke-width:1.0;"/></g><!--link Primeros to Segundos--><g id="link_Primeros_Segundos"><path d="M720.46,467.66 C738.53,462.44 755.3458,457.5754 774.0358,452.1754 " fill="none" id="Primeros-to-Segundos" style="stroke:#181818;stroke-width:1.0;"/><polygon fill="#181818" points="779.8,450.51,770.0434,449.1653,774.9965,451.8979,772.2639,456.851,779.8,450.51" style="stroke:#181818;stroke-width:1.0;"/></g><!--link Segundos to Postres--><g id="link_Segundos_Postres"><path d="M854.36,429.2 C873.37,423.52 890.5812,418.3978 908.2512,413.1178 " fill="none" id="Segundos-to-Postres" style="stroke:#181818;stroke-width:1.0;"/><polygon fill="#181818" points="914,411.4,904.2315,410.1442,909.2093,412.8315,906.522,417.8093,914,411.4" style="stroke:#181818;stroke-width:1.0;"/></g><!--link Postres to Bebidas--><g id="link_Postres_Bebidas"><path d="M972.28,402.36 C984.65,402.075 998.935,401.7475 1010.3775,401.485 C1013.2381,401.4194 1015.9211,401.3578 1018.3521,401.302 C1019.5676,401.2741 1020.72,401.2476 1021.8002,401.2228 C1022.3403,401.2104 1022.8624,401.1984 1023.3652,401.1868 C1023.6166,401.181 1017.8647,401.3134 1018.1064,401.3078 " fill="none" id="Postres-to-Bebidas" style="stroke:#181818;stroke-width:1.0;"/><polygon fill="#181818" points="1024.1048,401.1698,1015.0151,397.3779,1019.1061,401.2848,1015.1992,405.3758,1024.1048,401.1698" style="stroke:#181818;stroke-width:1.0;"/></g><!--link Bebidas to Vino--><g id="link_Bebidas_Vino"><path d="M1032.89,400.95 C1033.19,398.77 1042.99,328.82 1076.88,288 C1086.36,276.58 1094.9939,270.4028 1107.0039,264.1728 " fill="none" id="Bebidas-to-Vino" style="stroke:#181818;stroke-width:1.0;"/><polygon fill="#181818" points="1112.33,261.41,1102.499,262.0035,1107.8916,263.7123,1106.1828,269.1049,1112.33,261.41" style="stroke:#181818;stroke-width:1.0;"/></g><!--link Bebidas to Cerveza--><g id="link_Bebidas_Cerveza"><path d="M1032.95,400.93 C1034.33,399.59 1056.72,377.83 1076.88,363 C1086.09,356.22 1091.4469,352.5695 1101.0069,346.6995 " fill="none" id="Bebidas-to-Cerveza" style="stroke:#181818;stroke-width:1.0;"/><polygon fill="#181818" points="1106.12,343.56,1096.3574,344.8606,1101.8591,346.1763,1100.5434,351.678,1106.12,343.56" style="stroke:#181818;stroke-width:1.0;"/></g><!--link Bebidas to Refresco--><g id="link_Bebidas_Refresco"><path d="M1032.96,401 C1034.9,401 1068.08,401 1097.65,401 " fill="none" id="Bebidas-to-Refresco" style="stroke:#181818;stroke-width:1.0;"/><polygon fill="#181818" points="1103.65,401,1094.65,397,1098.65,401,1094.65,405,1103.65,401" style="stroke:#181818;stroke-width:1.0;"/></g><!--link Bebidas to Agua--><g id="link_Bebidas_Agua"><path d="M1032.95,401.06 C1034.34,402.36 1056.93,423.34 1076.88,438 C1088.14,446.27 1096.0698,451.5596 1107.0598,458.3696 " fill="none" id="Bebidas-to-Agua" style="stroke:#181818;stroke-width:1.0;"/><polygon fill="#181818" points="1112.16,461.53,1106.6166,453.3893,1107.9098,458.8964,1102.4028,460.1896,1112.16,461.53" style="stroke:#181818;stroke-width:1.0;"/></g><!--link Bebidas to CafeInfusion--><g id="link_Bebidas_CafeInfusion"><path d="M1032.89,401.05 C1033.2,403.2 1043.43,472.34 1076.88,513 C1082.49,519.82 1084.7087,522.3966 1092.0987,527.4866 " fill="none" id="Bebidas-to-CafeInfusion" style="stroke:#181818;stroke-width:1.0;"/><polygon fill="#181818" points="1097.04,530.89,1091.897,522.4906,1092.9222,528.0538,1087.3591,529.0791,1097.04,530.89" style="stroke:#181818;stroke-width:1.0;"/></g><!--link MenusEspeciales to Secciones--><g id="link_MenusEspeciales_Secciones"><path d="M359.4706,483.4261 C359.6391,483.3627 359.8074,483.299 359.9756,483.2349 C365.3561,481.1855 370.5625,478.7925 375.44,476 C384.36,470.89 391.9975,462.285 397.5013,454.7687 C397.8452,454.299 398.1809,453.8335 398.508,453.3733 C398.6715,453.1433 398.833,452.9145 398.9922,452.6873 C399.0718,452.5737 399.1509,452.4604 399.2295,452.3476 C399.2687,452.2911 395.8886,457.1652 395.9276,457.1089 " fill="none" id="MenusEspeciales-to-Secciones" style="stroke:#181818;stroke-width:1.0;"/><polygon fill="#181818" points="399.3469,452.1786,390.9311,457.2946,396.4975,456.2872,397.5049,461.8536,399.3469,452.1786" style="stroke:#181818;stroke-width:1.0;"/></g><!--link MenuDelDia to Secciones--><g id="link_MenuDelDia_Secciones"><path d="M317.06,296.35 C337.29,301.45 360.31,310.6 375.44,327 C384.1375,336.4275 390.4531,348.0581 395.0325,360.2367 C396.1773,363.2814 397.2137,366.3603 398.1516,369.4475 C398.386,370.2194 398.6144,370.9917 398.8367,371.7642 C398.9479,372.1504 399.0575,372.5367 399.1657,372.9229 C399.2198,373.116 397.6756,367.5259 397.7289,367.719 " fill="none" id="MenuDelDia-to-Secciones" style="stroke:#181818;stroke-width:1.0;"/><polygon fill="#181818" points="399.3269,373.5023,400.7854,363.762,397.9952,368.6828,393.0744,365.8926,399.3269,373.5023" style="stroke:#181818;stroke-width:1.0;"/></g><!--link MenuInfantil to Secciones--><g id="link_MenuInfantil_Secciones"><path d="M316.65,375.02 C335.75,380.87 357.91,389.59 375.44,402 C384.095,408.13 391.7225,417.2375 397.2875,425 C397.9831,425.9703 398.6465,426.9196 399.2757,427.8394 C399.315,427.8969 395.9733,422.9975 396.0124,423.0548 " fill="none" id="MenuInfantil-to-Secciones" style="stroke:#181818;stroke-width:1.0;"/><polygon fill="#181818" points="399.3932,428.0116,397.6264,418.3225,396.5758,423.8809,391.0174,422.8303,399.3932,428.0116" style="stroke:#181818;stroke-width:1.0;"/></g><!--link MenuDegustacion to Secciones--><g id="link_MenuDegustacion_Secciones"><path d="M335.58,440 C352.38,440 369.615,440 382.9213,440 C389.5744,440 389.2453,440 393.3886,440 " fill="none" id="MenuDegustacion-to-Secciones" style="stroke:#181818;stroke-width:1.0;"/><polygon fill="#181818" points="399.3886,440,390.3886,436,394.3886,440,390.3886,444,399.3886,440" style="stroke:#181818;stroke-width:1.0;"/></g><!--SRC=[TPBDRjGm4CVlVehHNWf8-mf8PRT8FRH2hSG5SN2TsTGeQqUsinAWFX87n8thlXWpTkp4xd99xFzyUkOtu250iE1q_noWqmvLqDQ8PzqXu74Ctw53hvmUeoo-lFiAs-rxk4Cp2Hzam7Y4dm8WNNVI1Hdl05VmY4fH87eOdJPAZtAWC-KU92ZsZ7ufSbESDo3zAZGbosut9ZXf0lfA_UJq4PsjnKVi9zCrukPQsUCepx_bKQC9DbLBeibQdTlwu9fw7_19TtBfBUkVjR6Dj4DtmX-oKH_mG3bLwtpTJwtdJXxmrXmcpnj8XXUHllEKQGNdlnxGZwXqd32zni980yR_3NkEkIanSGoyJBzepUZPkiTXh-KhcHgafUZXWdy_qKtbvhdr5q6jNy6zF65FblCVi-0X8a_CM2H999xuNe1OQKs_d7MFliCLFVpsJeAVdhQUHQec5YidMOYgzS9KBHUgQhabgCarCrIhCqNSziTX-cOXd7-DMbcW50x1bnUN5kl6yg7jAnsgmlE_BRlUGSTLBGEJ7JBb71J9NWkPwxLMg5wBaUagSaqqDV60FKLnPLxTAp9fXSlOtfpG9PgXHuDE3cz5IsrDoqBj1KFczc9C8RUn_WC0]--></g></svg>