<svg xmlns="http://www.w3.org/2000/svg" xmlns:xlink="http://www.w3.org/1999/xlink" contentStyleType="text/css" data-diagram-type="CLASS" height="1005px" preserveAspectRatio="none" style="width:464px;height:1005px;background:#FFFFFF;" version="1.1" viewBox="0 0 464 1005" width="464px" zoomAndPan="magnify"><title>Modelo del Dominio de Menú - estilo Encuentro/Partido</title><defs/><g><g class="title" data-source-line="1"><text fill="#000000" font-family="sans-serif" font-size="14" font-weight="bold" lengthAdjust="spacing" textLength="436.6797" x="10" y="22.9951">Modelo del Dominio de Menú - estilo Encuentro/Partido</text></g><!--class Menu--><g class="entity" data-entity="Menu" data-source-line="8" data-uid="ent0002" id="entity_Menu"><rect fill="#DDDDDD" height="48" rx="2.5" ry="2.5" style="stroke:#000000;stroke-width:0.5;" width="70.4385" x="194.5135" y="169.2969"/><ellipse cx="209.5135" cy="185.2969" fill="#ADD1B2" rx="11" ry="11" style="stroke:#181818;stroke-width:1;"/><path d="M212.4822,190.9375 Q211.9041,191.2344 211.2635,191.375 Q210.6228,191.5313 209.9197,191.5313 Q207.4197,191.5313 206.0916,189.8906 Q204.7791,188.2344 204.7791,185.1094 Q204.7791,181.9844 206.0916,180.3281 Q207.4197,178.6719 209.9197,178.6719 Q210.6228,178.6719 211.2635,178.8281 Q211.9197,178.9844 212.4822,179.2813 L212.4822,182 Q211.8572,181.4219 211.2635,181.1563 Q210.6697,180.875 210.0447,180.875 Q208.701,180.875 208.0135,181.9531 Q207.326,183.0156 207.326,185.1094 Q207.326,187.2031 208.0135,188.2813 Q208.701,189.3438 210.0447,189.3438 Q210.6697,189.3438 211.2635,189.0781 Q211.8572,188.7969 212.4822,188.2188 L212.4822,190.9375 Z " fill="#000000"/><text fill="#000000" font-family="sans-serif" font-size="14" lengthAdjust="spacing" textLength="38.4385" x="223.5135" y="190.1436">Menu</text><line style="stroke:#000000;stroke-width:0.5;" x1="195.5135" x2="263.9519" y1="201.2969" y2="201.2969"/><line style="stroke:#000000;stroke-width:0.5;" x1="195.5135" x2="263.9519" y1="209.2969" y2="209.2969"/></g><!--class Seccion--><g class="entity" data-entity="Seccion" data-source-line="9" data-uid="ent0003" id="entity_Seccion"><rect fill="#DDDDDD" height="48" rx="2.5" ry="2.5" style="stroke:#000000;stroke-width:0.5;" width="86.2227" x="18.6235" y="372.2969"/><ellipse cx="33.6235" cy="388.2969" fill="#ADD1B2" rx="11" ry="11" style="stroke:#181818;stroke-width:1;"/><path d="M36.5922,393.9375 Q36.0141,394.2344 35.3735,394.375 Q34.7328,394.5313 34.0297,394.5313 Q31.5297,394.5313 30.2016,392.8906 Q28.8891,391.2344 28.8891,388.1094 Q28.8891,384.9844 30.2016,383.3281 Q31.5297,381.6719 34.0297,381.6719 Q34.7328,381.6719 35.3735,381.8281 Q36.0297,381.9844 36.5922,382.2813 L36.5922,385 Q35.9672,384.4219 35.3735,384.1563 Q34.7797,383.875 34.1547,383.875 Q32.811,383.875 32.1235,384.9531 Q31.436,386.0156 31.436,388.1094 Q31.436,390.2031 32.1235,391.2813 Q32.811,392.3438 34.1547,392.3438 Q34.7797,392.3438 35.3735,392.0781 Q35.9672,391.7969 36.5922,391.2188 L36.5922,393.9375 Z " fill="#000000"/><text fill="#000000" font-family="sans-serif" font-size="14" lengthAdjust="spacing" textLength="54.2227" x="47.6235" y="393.1436">Seccion</text><line style="stroke:#000000;stroke-width:0.5;" x1="19.6235" x2="103.8461" y1="404.2969" y2="404.2969"/><line style="stroke:#000000;stroke-width:0.5;" x1="19.6235" x2="103.8461" y1="412.2969" y2="412.2969"/></g><!--class Plato--><g class="entity" data-entity="Plato" data-source-line="10" data-uid="ent0004" id="entity_Plato"><rect fill="#DDDDDD" height="48" rx="2.5" ry="2.5" style="stroke:#000000;stroke-width:0.5;" width="66.9658" x="136.2535" y="825.2969"/><ellipse cx="151.2535" cy="841.2969" fill="#ADD1B2" rx="11" ry="11" style="stroke:#181818;stroke-width:1;"/><path d="M154.2222,846.9375 Q153.6441,847.2344 153.0035,847.375 Q152.3628,847.5313 151.6597,847.5313 Q149.1597,847.5313 147.8316,845.8906 Q146.5191,844.2344 146.5191,841.1094 Q146.5191,837.9844 147.8316,836.3281 Q149.1597,834.6719 151.6597,834.6719 Q152.3628,834.6719 153.0035,834.8281 Q153.6597,834.9844 154.2222,835.2813 L154.2222,838 Q153.5972,837.4219 153.0035,837.1563 Q152.4097,836.875 151.7847,836.875 Q150.441,836.875 149.7535,837.9531 Q149.066,839.0156 149.066,841.1094 Q149.066,843.2031 149.7535,844.2813 Q150.441,845.3438 151.7847,845.3438 Q152.4097,845.3438 153.0035,845.0781 Q153.5972,844.7969 154.2222,844.2188 L154.2222,846.9375 Z " fill="#000000"/><text fill="#000000" font-family="sans-serif" font-size="14" lengthAdjust="spacing" textLength="34.9658" x="165.2535" y="846.1436">Plato</text><line style="stroke:#000000;stroke-width:0.5;" x1="137.2535" x2="202.2193" y1="857.2969" y2="857.2969"/><line style="stroke:#000000;stroke-width:0.5;" x1="137.2535" x2="202.2193" y1="865.2969" y2="865.2969"/></g><!--class Ingrediente--><g class="entity" data-entity="Ingrediente" data-source-line="11" data-uid="ent0005" id="entity_Ingrediente"><rect fill="#DDDDDD" height="48" rx="2.5" ry="2.5" style="stroke:#000000;stroke-width:0.5;" width="112.623" x="113.4235" y="950.2969"/><ellipse cx="128.4235" cy="966.2969" fill="#ADD1B2" rx="11" ry="11" style="stroke:#181818;stroke-width:1;"/><path d="M131.3922,971.9375 Q130.8141,972.2344 130.1735,972.375 Q129.5328,972.5313 128.8297,972.5313 Q126.3297,972.5313 125.0016,970.8906 Q123.6891,969.2344 123.6891,966.1094 Q123.6891,962.9844 125.0016,961.3281 Q126.3297,959.6719 128.8297,959.6719 Q129.5328,959.6719 130.1735,959.8281 Q130.8297,959.9844 131.3922,960.2813 L131.3922,963 Q130.7672,962.4219 130.1735,962.1563 Q129.5797,961.875 128.9547,961.875 Q127.611,961.875 126.9235,962.9531 Q126.236,964.0156 126.236,966.1094 Q126.236,968.2031 126.9235,969.2813 Q127.611,970.3438 128.9547,970.3438 Q129.5797,970.3438 130.1735,970.0781 Q130.7672,969.7969 131.3922,969.2188 L131.3922,971.9375 Z " fill="#000000"/><text fill="#000000" font-family="sans-serif" font-size="14" lengthAdjust="spacing" textLength="80.623" x="142.4235" y="971.1436">Ingrediente</text><line style="stroke:#000000;stroke-width:0.5;" x1="114.4235" x2="225.0465" y1="982.2969" y2="982.2969"/><line style="stroke:#000000;stroke-width:0.5;" x1="114.4235" x2="225.0465" y1="990.2969" y2="990.2969"/></g><!--class Cliente--><g class="entity" data-entity="Cliente" data-source-line="12" data-uid="ent0006" id="entity_Cliente"><rect fill="#DDDDDD" height="48" rx="2.5" ry="2.5" style="stroke:#000000;stroke-width:0.5;" width="81.1436" x="307.1635" y="44.2969"/><ellipse cx="322.1635" cy="60.2969" fill="#ADD1B2" rx="11" ry="11" style="stroke:#181818;stroke-width:1;"/><path d="M325.1322,65.9375 Q324.5541,66.2344 323.9135,66.375 Q323.2728,66.5313 322.5697,66.5313 Q320.0697,66.5313 318.7416,64.8906 Q317.4291,63.2344 317.4291,60.1094 Q317.4291,56.9844 318.7416,55.3281 Q320.0697,53.6719 322.5697,53.6719 Q323.2728,53.6719 323.9135,53.8281 Q324.5697,53.9844 325.1322,54.2813 L325.1322,57 Q324.5072,56.4219 323.9135,56.1563 Q323.3197,55.875 322.6947,55.875 Q321.351,55.875 320.6635,56.9531 Q319.976,58.0156 319.976,60.1094 Q319.976,62.2031 320.6635,63.2813 Q321.351,64.3438 322.6947,64.3438 Q323.3197,64.3438 323.9135,64.0781 Q324.5072,63.7969 325.1322,63.2188 L325.1322,65.9375 Z " fill="#000000"/><text fill="#000000" font-family="sans-serif" font-size="14" lengthAdjust="spacing" textLength="49.1436" x="336.1635" y="65.1436">Cliente</text><line style="stroke:#000000;stroke-width:0.5;" x1="308.1635" x2="387.307" y1="76.2969" y2="76.2969"/><line style="stroke:#000000;stroke-width:0.5;" x1="308.1635" x2="387.307" y1="84.2969" y2="84.2969"/></g><!--class Cocinero--><g class="entity" data-entity="Cocinero" data-source-line="13" data-uid="ent0007" id="entity_Cocinero"><rect fill="#DDDDDD" height="48" rx="2.5" ry="2.5" style="stroke:#000000;stroke-width:0.5;" width="93.7354" x="122.8635" y="450.2969"/><ellipse cx="137.8635" cy="466.2969" fill="#ADD1B2" rx="11" ry="11" style="stroke:#181818;stroke-width:1;"/><path d="M140.8322,471.9375 Q140.2541,472.2344 139.6135,472.375 Q138.9728,472.5313 138.2697,472.5313 Q135.7697,472.5313 134.4416,470.8906 Q133.1291,469.2344 133.1291,466.1094 Q133.1291,462.9844 134.4416,461.3281 Q135.7697,459.6719 138.2697,459.6719 Q138.9728,459.6719 139.6135,459.8281 Q140.2697,459.9844 140.8322,460.2813 L140.8322,463 Q140.2072,462.4219 139.6135,462.1563 Q139.0197,461.875 138.3947,461.875 Q137.051,461.875 136.3635,462.9531 Q135.676,464.0156 135.676,466.1094 Q135.676,468.2031 136.3635,469.2813 Q137.051,470.3438 138.3947,470.3438 Q139.0197,470.3438 139.6135,470.0781 Q140.2072,469.7969 140.8322,469.2188 L140.8322,471.9375 Z " fill="#000000"/><text fill="#000000" font-family="sans-serif" font-size="14" lengthAdjust="spacing" textLength="61.7354" x="151.8635" y="471.1436">Cocinero</text><line style="stroke:#000000;stroke-width:0.5;" x1="123.8635" x2="215.5988" y1="482.2969" y2="482.2969"/><line style="stroke:#000000;stroke-width:0.5;" x1="123.8635" x2="215.5988" y1="490.2969" y2="490.2969"/></g><!--class Pedido--><g class="entity" data-entity="Pedido" data-source-line="14" data-uid="ent0008" id="entity_Pedido"><rect fill="#DDDDDD" height="48" rx="2.5" ry="2.5" style="stroke:#000000;stroke-width:0.5;" width="79.2842" x="239.0935" y="700.2969"/><ellipse cx="254.0935" cy="716.2969" fill="#ADD1B2" rx="11" ry="11" style="stroke:#181818;stroke-width:1;"/><path d="M257.0622,721.9375 Q256.4841,722.2344 255.8435,722.375 Q255.2028,722.5313 254.4997,722.5313 Q251.9997,722.5313 250.6716,720.8906 Q249.3591,719.2344 249.3591,716.1094 Q249.3591,712.9844 250.6716,711.3281 Q251.9997,709.6719 254.4997,709.6719 Q255.2028,709.6719 255.8435,709.8281 Q256.4997,709.9844 257.0622,710.2813 L257.0622,713 Q256.4372,712.4219 255.8435,712.1563 Q255.2497,711.875 254.6247,711.875 Q253.281,711.875 252.5935,712.9531 Q251.906,714.0156 251.906,716.1094 Q251.906,718.2031 252.5935,719.2813 Q253.281,720.3438 254.6247,720.3438 Q255.2497,720.3438 255.8435,720.0781 Q256.4372,719.7969 257.0622,719.2188 L257.0622,721.9375 Z " fill="#000000"/><text fill="#000000" font-family="sans-serif" font-size="14" lengthAdjust="spacing" textLength="47.2842" x="268.0935" y="721.1436">Pedido</text><line style="stroke:#000000;stroke-width:0.5;" x1="240.0935" x2="317.3776" y1="732.2969" y2="732.2969"/><line style="stroke:#000000;stroke-width:0.5;" x1="240.0935" x2="317.3776" y1="740.2969" y2="740.2969"/></g><!--class Comanda--><g class="entity" data-entity="Comanda" data-source-line="15" data-uid="ent0009" id="entity_Comanda"><rect fill="#DDDDDD" height="48" rx="2.5" ry="2.5" style="stroke:#000000;stroke-width:0.5;" width="98.8965" x="144.2835" y="575.2969"/><ellipse cx="159.2835" cy="591.2969" fill="#ADD1B2" rx="11" ry="11" style="stroke:#181818;stroke-width:1;"/><path d="M162.2522,596.9375 Q161.6741,597.2344 161.0335,597.375 Q160.3928,597.5313 159.6897,597.5313 Q157.1897,597.5313 155.8616,595.8906 Q154.5491,594.2344 154.5491,591.1094 Q154.5491,587.9844 155.8616,586.3281 Q157.1897,584.6719 159.6897,584.6719 Q160.3928,584.6719 161.0335,584.8281 Q161.6897,584.9844 162.2522,585.2813 L162.2522,588 Q161.6272,587.4219 161.0335,587.1563 Q160.4397,586.875 159.8147,586.875 Q158.471,586.875 157.7835,587.9531 Q157.096,589.0156 157.096,591.1094 Q157.096,593.2031 157.7835,594.2813 Q158.471,595.3438 159.8147,595.3438 Q160.4397,595.3438 161.0335,595.0781 Q161.6272,594.7969 162.2522,594.2188 L162.2522,596.9375 Z " fill="#000000"/><text fill="#000000" font-family="sans-serif" font-size="14" lengthAdjust="spacing" textLength="66.8965" x="173.2835" y="596.1436">Comanda</text><line style="stroke:#000000;stroke-width:0.5;" x1="145.2835" x2="242.18" y1="607.2969" y2="607.2969"/><line style="stroke:#000000;stroke-width:0.5;" x1="145.2835" x2="242.18" y1="615.2969" y2="615.2969"/></g><!--class Turno--><g class="entity" data-entity="Turno" data-source-line="16" data-uid="ent0010" id="entity_Turno"><rect fill="#DDDDDD" height="48" rx="2.5" ry="2.5" style="stroke:#000000;stroke-width:0.5;" width="72.6191" x="114.4235" y="294.2969"/><ellipse cx="129.4235" cy="310.2969" fill="#ADD1B2" rx="11" ry="11" style="stroke:#181818;stroke-width:1;"/><path d="M132.3922,315.9375 Q131.8141,316.2344 131.1735,316.375 Q130.5328,316.5313 129.8297,316.5313 Q127.3297,316.5313 126.0016,314.8906 Q124.6891,313.2344 124.6891,310.1094 Q124.6891,306.9844 126.0016,305.3281 Q127.3297,303.6719 129.8297,303.6719 Q130.5328,303.6719 131.1735,303.8281 Q131.8297,303.9844 132.3922,304.2813 L132.3922,307 Q131.7672,306.4219 131.1735,306.1563 Q130.5797,305.875 129.9547,305.875 Q128.611,305.875 127.9235,306.9531 Q127.236,308.0156 127.236,310.1094 Q127.236,312.2031 127.9235,313.2813 Q128.611,314.3438 129.9547,314.3438 Q130.5797,314.3438 131.1735,314.0781 Q131.7672,313.7969 132.3922,313.2188 L132.3922,315.9375 Z " fill="#000000"/><text fill="#000000" font-family="sans-serif" font-size="14" lengthAdjust="spacing" textLength="40.6191" x="143.4235" y="315.1436">Turno</text><line style="stroke:#000000;stroke-width:0.5;" x1="115.4235" x2="186.0426" y1="326.2969" y2="326.2969"/><line style="stroke:#000000;stroke-width:0.5;" x1="115.4235" x2="186.0426" y1="334.2969" y2="334.2969"/></g><!--class Disponibilidad--><g class="entity" data-entity="Disponibilidad" data-source-line="17" data-uid="ent0011" id="entity_Disponibilidad"><rect fill="#DDDDDD" height="48" rx="2.5" ry="2.5" style="stroke:#000000;stroke-width:0.5;" width="131.0869" x="222.1935" y="294.2969"/><ellipse cx="237.1935" cy="310.2969" fill="#ADD1B2" rx="11" ry="11" style="stroke:#181818;stroke-width:1;"/><path d="M240.1622,315.9375 Q239.5841,316.2344 238.9435,316.375 Q238.3028,316.5313 237.5997,316.5313 Q235.0997,316.5313 233.7716,314.8906 Q232.4591,313.2344 232.4591,310.1094 Q232.4591,306.9844 233.7716,305.3281 Q235.0997,303.6719 237.5997,303.6719 Q238.3028,303.6719 238.9435,303.8281 Q239.5997,303.9844 240.1622,304.2813 L240.1622,307 Q239.5372,306.4219 238.9435,306.1563 Q238.3497,305.875 237.7247,305.875 Q236.381,305.875 235.6935,306.9531 Q235.006,308.0156 235.006,310.1094 Q235.006,312.2031 235.6935,313.2813 Q236.381,314.3438 237.7247,314.3438 Q238.3497,314.3438 238.9435,314.0781 Q239.5372,313.7969 240.1622,313.2188 L240.1622,315.9375 Z " fill="#000000"/><text fill="#000000" font-family="sans-serif" font-size="14" lengthAdjust="spacing" textLength="99.0869" x="251.1935" y="315.1436">Disponibilidad</text><line style="stroke:#000000;stroke-width:0.5;" x1="223.1935" x2="352.2804" y1="326.2969" y2="326.2969"/><line style="stroke:#000000;stroke-width:0.5;" x1="223.1935" x2="352.2804" y1="334.2969" y2="334.2969"/></g><!--link Menu to Seccion--><g class="link" data-entity-1="Menu" data-entity-2="Seccion" data-source-line="21" data-uid="lnk12" id="link_Menu_Seccion"><path codeLine="21" d="M194.2635,201.2669 C167.0135,208.3969 130.3235,222.1169 107.7335,247.2969 C75.9335,282.7469 66.6806,333.9537 63.6506,365.8637" fill="none" id="Menu-to-Seccion" style="stroke:#181818;stroke-width:1;"/><polygon fill="#181818" points="63.0835,371.8369,67.9163,363.2553,63.5561,366.8593,59.9521,362.4991,63.0835,371.8369" style="stroke:#181818;stroke-width:1;"/><text fill="#000000" font-family="sans-serif" font-size="13" lengthAdjust="spacing" textLength="56.2847" x="108.7335" y="260.3638">contiene</text></g><!--link Seccion to Plato--><g class="link" data-entity-1="Seccion" data-entity-2="Plato" data-source-line="22" data-uid="lnk13" id="link_Seccion_Plato"><path codeLine="22" d="M61.7335,420.3369 C61.7335,447.8169 61.7335,495.1569 61.7335,535.7969 C61.7335,535.7969 61.7335,535.7969 61.7335,725.2969 C61.7335,770.9069 99.1883,804.353 130.8683,825.433" fill="none" id="Seccion-to-Plato" style="stroke:#181818;stroke-width:1;"/><polygon fill="#181818" points="135.8635,828.7569,130.5865,820.441,131.7008,825.987,126.1548,827.1013,135.8635,828.7569" style="stroke:#181818;stroke-width:1;"/><text fill="#000000" font-family="sans-serif" font-size="13" lengthAdjust="spacing" textLength="46.541" x="62.7335" y="603.8638">incluye</text></g><!--link Plato to Ingrediente--><g class="link" data-entity-1="Plato" data-entity-2="Ingrediente" data-source-line="23" data-uid="lnk14" id="link_Plato_Ingrediente"><path codeLine="23" d="M169.7335,873.7169 C169.7335,895.6069 169.7335,922.0969 169.7335,943.9569" fill="none" id="Plato-to-Ingrediente" style="stroke:#181818;stroke-width:1;"/><polygon fill="#181818" points="169.7335,949.9569,173.7335,940.9569,169.7335,944.9569,165.7335,940.9569,169.7335,949.9569" style="stroke:#181818;stroke-width:1;"/><text fill="#000000" font-family="sans-serif" font-size="13" lengthAdjust="spacing" textLength="46.541" x="170.7335" y="916.3638">incluye</text></g><!--link Menu to Disponibilidad--><g class="link" data-entity-1="Menu" data-entity-2="Disponibilidad" data-source-line="24" data-uid="lnk15" id="link_Menu_Disponibilidad"><path codeLine="24" d="M240.7835,217.7169 C251.1035,239.6069 263.864,266.6702 274.174,288.5302" fill="none" id="Menu-to-Disponibilidad" style="stroke:#181818;stroke-width:1;"/><polygon fill="#181818" points="276.7335,293.9569,276.5121,284.1105,274.6006,289.4346,269.2765,287.5231,276.7335,293.9569" style="stroke:#181818;stroke-width:1;"/><text fill="#000000" font-family="sans-serif" font-size="13" lengthAdjust="spacing" textLength="32.9443" x="262.7335" y="260.3638">tiene</text></g><!--link Menu to Turno--><g class="link" data-entity-1="Menu" data-entity-2="Turno" data-source-line="25" data-uid="lnk16" id="link_Menu_Turno"><path codeLine="25" d="M206.3635,217.6069 C198.2535,226.4369 189.5135,236.8869 182.7335,247.2969 C173.1835,261.9669 167.2709,274.3937 161.5909,288.4537" fill="none" id="Menu-to-Turno" style="stroke:#181818;stroke-width:1;"/><polygon fill="#181818" points="159.3435,294.0169,166.4234,287.1704,161.2163,289.3809,159.0058,284.1738,159.3435,294.0169" style="stroke:#181818;stroke-width:1;"/><text fill="#000000" font-family="sans-serif" font-size="13" lengthAdjust="spacing" textLength="62.2515" x="183.7335" y="260.3638">se usa en</text></g><!--link Cliente to Menu--><g class="link" data-entity-1="Cliente" data-entity-2="Menu" data-source-line="27" data-uid="lnk17" id="link_Cliente_Menu"><path codeLine="27" d="M325.2635,92.7169 C304.2635,114.6069 277.247,142.767 256.277,164.627" fill="none" id="Cliente-to-Menu" style="stroke:#181818;stroke-width:1;"/><polygon fill="#181818" points="252.1235,168.9569,261.2404,165.2311,255.5848,165.3487,255.4673,159.693,252.1235,168.9569" style="stroke:#181818;stroke-width:1;"/><text fill="#000000" font-family="sans-serif" font-size="13" lengthAdjust="spacing" textLength="55.0278" x="296.7335" y="135.3638">consulta</text></g><!--link Cliente to Pedido--><g class="link" data-entity-1="Cliente" data-entity-2="Pedido" data-source-line="28" data-uid="lnk18" id="link_Cliente_Pedido"><path codeLine="28" d="M366.7235,92.6769 C383.9735,116.3069 406.7335,154.6369 406.7335,192.2969 C406.7335,192.2969 406.7335,192.2969 406.7335,600.2969 C406.7335,649.9169 361.4126,682.9817 323.8426,702.7617" fill="none" id="Cliente-to-Pedido" style="stroke:#181818;stroke-width:1;"/><polygon fill="#181818" points="318.5335,705.5569,328.3606,704.9035,322.9578,703.2276,324.6337,697.8247,318.5335,705.5569" style="stroke:#181818;stroke-width:1;"/><text fill="#000000" font-family="sans-serif" font-size="13" lengthAdjust="spacing" textLength="43.3228" x="407.7335" y="400.8638">realiza</text></g><!--link Pedido to Plato--><g class="link" data-entity-1="Pedido" data-entity-2="Plato" data-source-line="29" data-uid="lnk19" id="link_Pedido_Plato"><path codeLine="29" d="M257.9735,748.7169 C238.5835,770.6069 213.7626,798.6062 194.3926,820.4662" fill="none" id="Pedido-to-Plato" style="stroke:#181818;stroke-width:1;"/><polygon fill="#181818" points="190.4135,824.9569,199.376,820.8736,193.7294,821.2146,193.3884,815.5681,190.4135,824.9569" style="stroke:#181818;stroke-width:1;"/><text fill="#000000" font-family="sans-serif" font-size="13" lengthAdjust="spacing" textLength="56.2847" x="231.7335" y="791.3638">contiene</text></g><!--link Cocinero to Comanda--><g class="link" data-entity-1="Cocinero" data-entity-2="Comanda" data-source-line="31" data-uid="lnk20" id="link_Cocinero_Comanda"><path codeLine="31" d="M174.3035,498.7169 C178.5735,520.6069 183.7632,547.2082 188.0332,569.0682" fill="none" id="Cocinero-to-Comanda" style="stroke:#181818;stroke-width:1;"/><polygon fill="#181818" points="189.1835,574.9569,191.3839,565.357,188.2249,570.0496,183.5323,566.8907,189.1835,574.9569" style="stroke:#181818;stroke-width:1;"/><text fill="#000000" font-family="sans-serif" font-size="13" lengthAdjust="spacing" textLength="55.0278" x="183.7335" y="541.3638">consulta</text></g><!--link Comanda to Plato--><g class="link" data-entity-1="Comanda" data-entity-2="Plato" data-source-line="32" data-uid="lnk21" id="link_Comanda_Plato"><path codeLine="32" d="M191.4735,623.6269 C186.9035,670.8969 177.1609,771.5047 172.5809,818.8747" fill="none" id="Comanda-to-Plato" style="stroke:#181818;stroke-width:1;"/><polygon fill="#181818" points="172.0035,824.8469,176.851,816.2736,172.4847,819.8701,168.8882,815.5037,172.0035,824.8469" style="stroke:#181818;stroke-width:1;"/><text fill="#000000" font-family="sans-serif" font-size="13" lengthAdjust="spacing" textLength="32.9443" x="183.7335" y="728.8638">tiene</text></g><!--link Comanda to Pedido--><g class="link" data-entity-1="Comanda" data-entity-2="Pedido" data-source-line="33" data-uid="lnk22" id="link_Comanda_Pedido"><path codeLine="33" d="M209.9235,623.7169 C225.0435,645.6069 244.0934,673.1601 259.1934,695.0201" fill="none" id="Comanda-to-Pedido" style="stroke:#181818;stroke-width:1;"/><polygon fill="#181818" points="262.6035,699.9569,260.7795,690.2784,259.7617,695.8429,254.1972,694.8252,262.6035,699.9569" style="stroke:#181818;stroke-width:1;"/><text fill="#000000" font-family="sans-serif" font-size="13" lengthAdjust="spacing" textLength="108.1069" x="241.7335" y="666.3638">se genera desde</text></g><!--link Turno to Cocinero--><g class="link" data-entity-1="Turno" data-entity-2="Cocinero" data-source-line="35" data-uid="lnk23" id="link_Turno_Cocinero"><path codeLine="35" d="M153.6235,342.6869 C157.2035,371.7169 162.5386,414.972 166.1186,443.982" fill="none" id="Turno-to-Cocinero" style="stroke:#181818;stroke-width:1;"/><polygon fill="#181818" points="166.8535,449.9369,169.7211,440.5147,166.2411,444.9745,161.7813,441.4945,166.8535,449.9369" style="stroke:#181818;stroke-width:1;"/><text fill="#000000" font-family="sans-serif" font-size="13" lengthAdjust="spacing" textLength="32.9443" x="164.7335" y="400.8638">tiene</text></g><!--SRC=[LP8xJWD138Pxdy8I1L14z1GK91GKaIBW0iwC5LcPZCCya01nCLekXdTdTfNTOcJxy-EtjKLAODogvw1e3sxq95466xSS_tvnXPoB67sAhd8iIUzsb8fu1SX7YMTAT48NA6Vy1iH7SiT3qXhzMeCclDgCtq0qUKujkW-M1Zy0hT16rMw-idEYiNkxG4Mx_HmFYRsO1kwHTLXuwYHocj9tbkjrPYUAdhhtLbESo4RoMQFi9OWd3t2DBspYJ09dT1gHYxnNBfJnveFJNlCjmA0NLwk7IItU3wd5r31CeG6FyWrATA5-CZH_81VBNF2vxrALPRJUCnyti71ch9cG8q0_neZ7l55Jhg7GWhMx64rCGRu8Uk1IxxmCJ4STSR_YedCFNLQtqWMPPfhUWy54zeDbR_tR8grvdzGR_0C0]--></g></svg>
