<svg xmlns="http://www.w3.org/2000/svg" xmlns:xlink="http://www.w3.org/1999/xlink" contentStyleType="text/css" data-diagram-type="CLASS" height="855px" preserveAspectRatio="none" style="width:419px;height:855px;background:#FFFFFF;" version="1.1" viewBox="0 0 419 855" width="419px" zoomAndPan="magnify"><title>Modelo del Dominio de Men&#250;</title><defs/><g><g class="title" data-source-line="1"><text fill="#000000" font-family="sans-serif" font-size="14" font-weight="bold" lengthAdjust="spacing" textLength="229.1816" x="87.9774" y="22.9951">Modelo del Dominio de Men&#250;</text></g><!--class Menu--><g class="entity" data-entity="Menu" data-source-line="3" data-uid="ent0002" id="entity_Menu"><rect fill="#F1F1F1" height="48" rx="2.5" ry="2.5" style="stroke:#181818;stroke-width:0.5;" width="70.4385" x="189.9164" y="152.2969"/><ellipse cx="204.9164" cy="168.2969" fill="#ADD1B2" rx="11" ry="11" style="stroke:#181818;stroke-width:1;"/><path d="M207.8852,173.9375 Q207.3071,174.2344 206.6664,174.375 Q206.0258,174.5313 205.3227,174.5313 Q202.8227,174.5313 201.4946,172.8906 Q200.1821,171.2344 200.1821,168.1094 Q200.1821,164.9844 201.4946,163.3281 Q202.8227,161.6719 205.3227,161.6719 Q206.0258,161.6719 206.6664,161.8281 Q207.3227,161.9844 207.8852,162.2813 L207.8852,165 Q207.2602,164.4219 206.6664,164.1563 Q206.0727,163.875 205.4477,163.875 Q204.1039,163.875 203.4164,164.9531 Q202.7289,166.0156 202.7289,168.1094 Q202.7289,170.2031 203.4164,171.2813 Q204.1039,172.3438 205.4477,172.3438 Q206.0727,172.3438 206.6664,172.0781 Q207.2602,171.7969 207.8852,171.2188 L207.8852,173.9375 Z " fill="#000000"/><text fill="#000000" font-family="sans-serif" font-size="14" lengthAdjust="spacing" textLength="38.4385" x="218.9164" y="173.1436">Menu</text><line style="stroke:#181818;stroke-width:0.5;" x1="190.9164" x2="259.3549" y1="184.2969" y2="184.2969"/><line style="stroke:#181818;stroke-width:0.5;" x1="190.9164" x2="259.3549" y1="192.2969" y2="192.2969"/></g><!--class Seccion--><g class="entity" data-entity="Seccion" data-source-line="4" data-uid="ent0003" id="entity_Seccion"><rect fill="#F1F1F1" height="48" rx="2.5" ry="2.5" style="stroke:#181818;stroke-width:0.5;" width="86.2227" x="24.0264" y="368.2969"/><ellipse cx="39.0264" cy="384.2969" fill="#ADD1B2" rx="11" ry="11" style="stroke:#181818;stroke-width:1;"/><path d="M41.9952,389.9375 Q41.4171,390.2344 40.7764,390.375 Q40.1358,390.5313 39.4327,390.5313 Q36.9327,390.5313 35.6046,388.8906 Q34.2921,387.2344 34.2921,384.1094 Q34.2921,380.9844 35.6046,379.3281 Q36.9327,377.6719 39.4327,377.6719 Q40.1358,377.6719 40.7764,377.8281 Q41.4327,377.9844 41.9952,378.2813 L41.9952,381 Q41.3702,380.4219 40.7764,380.1563 Q40.1827,379.875 39.5577,379.875 Q38.2139,379.875 37.5264,380.9531 Q36.8389,382.0156 36.8389,384.1094 Q36.8389,386.2031 37.5264,387.2813 Q38.2139,388.3438 39.5577,388.3438 Q40.1827,388.3438 40.7764,388.0781 Q41.3702,387.7969 41.9952,387.2188 L41.9952,389.9375 Z " fill="#000000"/><text fill="#000000" font-family="sans-serif" font-size="14" lengthAdjust="spacing" textLength="54.2227" x="53.0264" y="389.1436">Seccion</text><line style="stroke:#181818;stroke-width:0.5;" x1="25.0264" x2="109.2491" y1="400.2969" y2="400.2969"/><line style="stroke:#181818;stroke-width:0.5;" x1="25.0264" x2="109.2491" y1="408.2969" y2="408.2969"/></g><!--class Plato--><g class="entity" data-entity="Plato" data-source-line="5" data-uid="ent0004" id="entity_Plato"><rect fill="#F1F1F1" height="48" rx="2.5" ry="2.5" style="stroke:#181818;stroke-width:0.5;" width="66.9658" x="137.6464" y="692.2969"/><ellipse cx="152.6464" cy="708.2969" fill="#ADD1B2" rx="11" ry="11" style="stroke:#181818;stroke-width:1;"/><path d="M155.6152,713.9375 Q155.0371,714.2344 154.3964,714.375 Q153.7558,714.5313 153.0527,714.5313 Q150.5527,714.5313 149.2246,712.8906 Q147.9121,711.2344 147.9121,708.1094 Q147.9121,704.9844 149.2246,703.3281 Q150.5527,701.6719 153.0527,701.6719 Q153.7558,701.6719 154.3964,701.8281 Q155.0527,701.9844 155.6152,702.2813 L155.6152,705 Q154.9902,704.4219 154.3964,704.1563 Q153.8027,703.875 153.1777,703.875 Q151.8339,703.875 151.1464,704.9531 Q150.4589,706.0156 150.4589,708.1094 Q150.4589,710.2031 151.1464,711.2813 Q151.8339,712.3438 153.1777,712.3438 Q153.8027,712.3438 154.3964,712.0781 Q154.9902,711.7969 155.6152,711.2188 L155.6152,713.9375 Z " fill="#000000"/><text fill="#000000" font-family="sans-serif" font-size="14" lengthAdjust="spacing" textLength="34.9658" x="166.6464" y="713.1436">Plato</text><line style="stroke:#181818;stroke-width:0.5;" x1="138.6464" x2="203.6123" y1="724.2969" y2="724.2969"/><line style="stroke:#181818;stroke-width:0.5;" x1="138.6464" x2="203.6123" y1="732.2969" y2="732.2969"/></g><!--class Ingrediente--><g class="entity" data-entity="Ingrediente" data-source-line="6" data-uid="ent0005" id="entity_Ingrediente"><rect fill="#F1F1F1" height="48" rx="2.5" ry="2.5" style="stroke:#181818;stroke-width:0.5;" width="112.623" x="114.8264" y="800.2969"/><ellipse cx="129.8264" cy="816.2969" fill="#ADD1B2" rx="11" ry="11" style="stroke:#181818;stroke-width:1;"/><path d="M132.7952,821.9375 Q132.2171,822.2344 131.5764,822.375 Q130.9358,822.5313 130.2327,822.5313 Q127.7327,822.5313 126.4046,820.8906 Q125.0921,819.2344 125.0921,816.1094 Q125.0921,812.9844 126.4046,811.3281 Q127.7327,809.6719 130.2327,809.6719 Q130.9358,809.6719 131.5764,809.8281 Q132.2327,809.9844 132.7952,810.2813 L132.7952,813 Q132.1702,812.4219 131.5764,812.1563 Q130.9827,811.875 130.3577,811.875 Q129.0139,811.875 128.3264,812.9531 Q127.6389,814.0156 127.6389,816.1094 Q127.6389,818.2031 128.3264,819.2813 Q129.0139,820.3438 130.3577,820.3438 Q130.9827,820.3438 131.5764,820.0781 Q132.1702,819.7969 132.7952,819.2188 L132.7952,821.9375 Z " fill="#000000"/><text fill="#000000" font-family="sans-serif" font-size="14" lengthAdjust="spacing" textLength="80.623" x="143.8264" y="821.1436">Ingrediente</text><line style="stroke:#181818;stroke-width:0.5;" x1="115.8264" x2="226.4495" y1="832.2969" y2="832.2969"/><line style="stroke:#181818;stroke-width:0.5;" x1="115.8264" x2="226.4495" y1="840.2969" y2="840.2969"/></g><!--class Cliente--><g class="entity" data-entity="Cliente" data-source-line="7" data-uid="ent0006" id="entity_Cliente"><rect fill="#F1F1F1" height="48" rx="2.5" ry="2.5" style="stroke:#181818;stroke-width:0.5;" width="81.1436" x="277.5664" y="44.2969"/><ellipse cx="292.5664" cy="60.2969" fill="#ADD1B2" rx="11" ry="11" style="stroke:#181818;stroke-width:1;"/><path d="M295.5352,65.9375 Q294.9571,66.2344 294.3164,66.375 Q293.6758,66.5313 292.9727,66.5313 Q290.4727,66.5313 289.1446,64.8906 Q287.8321,63.2344 287.8321,60.1094 Q287.8321,56.9844 289.1446,55.3281 Q290.4727,53.6719 292.9727,53.6719 Q293.6758,53.6719 294.3164,53.8281 Q294.9727,53.9844 295.5352,54.2813 L295.5352,57 Q294.9102,56.4219 294.3164,56.1563 Q293.7227,55.875 293.0977,55.875 Q291.7539,55.875 291.0664,56.9531 Q290.3789,58.0156 290.3789,60.1094 Q290.3789,62.2031 291.0664,63.2813 Q291.7539,64.3438 293.0977,64.3438 Q293.7227,64.3438 294.3164,64.0781 Q294.9102,63.7969 295.5352,63.2188 L295.5352,65.9375 Z " fill="#000000"/><text fill="#000000" font-family="sans-serif" font-size="14" lengthAdjust="spacing" textLength="49.1436" x="306.5664" y="65.1436">Cliente</text><line style="stroke:#181818;stroke-width:0.5;" x1="278.5664" x2="357.71" y1="76.2969" y2="76.2969"/><line style="stroke:#181818;stroke-width:0.5;" x1="278.5664" x2="357.71" y1="84.2969" y2="84.2969"/></g><!--class Cocinero--><g class="entity" data-entity="Cocinero" data-source-line="8" data-uid="ent0007" id="entity_Cocinero"><rect fill="#F1F1F1" height="48" rx="2.5" ry="2.5" style="stroke:#181818;stroke-width:0.5;" width="93.7354" x="145.2664" y="368.2969"/><ellipse cx="160.2664" cy="384.2969" fill="#ADD1B2" rx="11" ry="11" style="stroke:#181818;stroke-width:1;"/><path d="M163.2352,389.9375 Q162.6571,390.2344 162.0164,390.375 Q161.3758,390.5313 160.6727,390.5313 Q158.1727,390.5313 156.8446,388.8906 Q155.5321,387.2344 155.5321,384.1094 Q155.5321,380.9844 156.8446,379.3281 Q158.1727,377.6719 160.6727,377.6719 Q161.3758,377.6719 162.0164,377.8281 Q162.6727,377.9844 163.2352,378.2813 L163.2352,381 Q162.6102,380.4219 162.0164,380.1563 Q161.4227,379.875 160.7977,379.875 Q159.4539,379.875 158.7664,380.9531 Q158.0789,382.0156 158.0789,384.1094 Q158.0789,386.2031 158.7664,387.2813 Q159.4539,388.3438 160.7977,388.3438 Q161.4227,388.3438 162.0164,388.0781 Q162.6102,387.7969 163.2352,387.2188 L163.2352,389.9375 Z " fill="#000000"/><text fill="#000000" font-family="sans-serif" font-size="14" lengthAdjust="spacing" textLength="61.7354" x="174.2664" y="389.1436">Cocinero</text><line style="stroke:#181818;stroke-width:0.5;" x1="146.2664" x2="238.0018" y1="400.2969" y2="400.2969"/><line style="stroke:#181818;stroke-width:0.5;" x1="146.2664" x2="238.0018" y1="408.2969" y2="408.2969"/></g><!--class Pedido--><g class="entity" data-entity="Pedido" data-source-line="9" data-uid="ent0008" id="entity_Pedido"><rect fill="#F1F1F1" height="48" rx="2.5" ry="2.5" style="stroke:#181818;stroke-width:0.5;" width="79.2842" x="224.4864" y="584.2969"/><ellipse cx="239.4864" cy="600.2969" fill="#ADD1B2" rx="11" ry="11" style="stroke:#181818;stroke-width:1;"/><path d="M242.4552,605.9375 Q241.8771,606.2344 241.2364,606.375 Q240.5958,606.5313 239.8927,606.5313 Q237.3927,606.5313 236.0646,604.8906 Q234.7521,603.2344 234.7521,600.1094 Q234.7521,596.9844 236.0646,595.3281 Q237.3927,593.6719 239.8927,593.6719 Q240.5958,593.6719 241.2364,593.8281 Q241.8927,593.9844 242.4552,594.2813 L242.4552,597 Q241.8302,596.4219 241.2364,596.1563 Q240.6427,595.875 240.0177,595.875 Q238.6739,595.875 237.9864,596.9531 Q237.2989,598.0156 237.2989,600.1094 Q237.2989,602.2031 237.9864,603.2813 Q238.6739,604.3438 240.0177,604.3438 Q240.6427,604.3438 241.2364,604.0781 Q241.8302,603.7969 242.4552,603.2188 L242.4552,605.9375 Z " fill="#000000"/><text fill="#000000" font-family="sans-serif" font-size="14" lengthAdjust="spacing" textLength="47.2842" x="253.4864" y="605.1436">Pedido</text><line style="stroke:#181818;stroke-width:0.5;" x1="225.4864" x2="302.7706" y1="616.2969" y2="616.2969"/><line style="stroke:#181818;stroke-width:0.5;" x1="225.4864" x2="302.7706" y1="624.2969" y2="624.2969"/></g><!--class Comanda--><g class="entity" data-entity="Comanda" data-source-line="10" data-uid="ent0009" id="entity_Comanda"><rect fill="#F1F1F1" height="48" rx="2.5" ry="2.5" style="stroke:#181818;stroke-width:0.5;" width="98.8965" x="142.6864" y="476.2969"/><ellipse cx="157.6864" cy="492.2969" fill="#ADD1B2" rx="11" ry="11" style="stroke:#181818;stroke-width:1;"/><path d="M160.6552,497.9375 Q160.0771,498.2344 159.4364,498.375 Q158.7958,498.5313 158.0927,498.5313 Q155.5927,498.5313 154.2646,496.8906 Q152.9521,495.2344 152.9521,492.1094 Q152.9521,488.9844 154.2646,487.3281 Q155.5927,485.6719 158.0927,485.6719 Q158.7958,485.6719 159.4364,485.8281 Q160.0927,485.9844 160.6552,486.2813 L160.6552,489 Q160.0302,488.4219 159.4364,488.1563 Q158.8427,487.875 158.2177,487.875 Q156.8739,487.875 156.1864,488.9531 Q155.4989,490.0156 155.4989,492.1094 Q155.4989,494.2031 156.1864,495.2813 Q156.8739,496.3438 158.2177,496.3438 Q158.8427,496.3438 159.4364,496.0781 Q160.0302,495.7969 160.6552,495.2188 L160.6552,497.9375 Z " fill="#000000"/><text fill="#000000" font-family="sans-serif" font-size="14" lengthAdjust="spacing" textLength="66.8965" x="171.6864" y="497.1436">Comanda</text><line style="stroke:#181818;stroke-width:0.5;" x1="143.6864" x2="240.5829" y1="508.2969" y2="508.2969"/><line style="stroke:#181818;stroke-width:0.5;" x1="143.6864" x2="240.5829" y1="516.2969" y2="516.2969"/></g><!--class Turno--><g class="entity" data-entity="Turno" data-source-line="11" data-uid="ent0010" id="entity_Turno"><rect fill="#F1F1F1" height="48" rx="2.5" ry="2.5" style="stroke:#181818;stroke-width:0.5;" width="72.6191" x="119.8264" y="260.2969"/><ellipse cx="134.8264" cy="276.2969" fill="#ADD1B2" rx="11" ry="11" style="stroke:#181818;stroke-width:1;"/><path d="M137.7952,281.9375 Q137.2171,282.2344 136.5764,282.375 Q135.9358,282.5313 135.2327,282.5313 Q132.7327,282.5313 131.4046,280.8906 Q130.0921,279.2344 130.0921,276.1094 Q130.0921,272.9844 131.4046,271.3281 Q132.7327,269.6719 135.2327,269.6719 Q135.9358,269.6719 136.5764,269.8281 Q137.2327,269.9844 137.7952,270.2813 L137.7952,273 Q137.1702,272.4219 136.5764,272.1563 Q135.9827,271.875 135.3577,271.875 Q134.0139,271.875 133.3264,272.9531 Q132.6389,274.0156 132.6389,276.1094 Q132.6389,278.2031 133.3264,279.2813 Q134.0139,280.3438 135.3577,280.3438 Q135.9827,280.3438 136.5764,280.0781 Q137.1702,279.7969 137.7952,279.2188 L137.7952,281.9375 Z " fill="#000000"/><text fill="#000000" font-family="sans-serif" font-size="14" lengthAdjust="spacing" textLength="40.6191" x="148.8264" y="281.1436">Turno</text><line style="stroke:#181818;stroke-width:0.5;" x1="120.8264" x2="191.4456" y1="292.2969" y2="292.2969"/><line style="stroke:#181818;stroke-width:0.5;" x1="120.8264" x2="191.4456" y1="300.2969" y2="300.2969"/></g><!--class Disponibilidad--><g class="entity" data-entity="Disponibilidad" data-source-line="12" data-uid="ent0011" id="entity_Disponibilidad"><rect fill="#F1F1F1" height="48" rx="2.5" ry="2.5" style="stroke:#181818;stroke-width:0.5;" width="131.0869" x="227.5864" y="260.2969"/><ellipse cx="242.5864" cy="276.2969" fill="#ADD1B2" rx="11" ry="11" style="stroke:#181818;stroke-width:1;"/><path d="M245.5552,281.9375 Q244.9771,282.2344 244.3364,282.375 Q243.6958,282.5313 242.9927,282.5313 Q240.4927,282.5313 239.1646,280.8906 Q237.8521,279.2344 237.8521,276.1094 Q237.8521,272.9844 239.1646,271.3281 Q240.4927,269.6719 242.9927,269.6719 Q243.6958,269.6719 244.3364,269.8281 Q244.9927,269.9844 245.5552,270.2813 L245.5552,273 Q244.9302,272.4219 244.3364,272.1563 Q243.7427,271.875 243.1177,271.875 Q241.7739,271.875 241.0864,272.9531 Q240.3989,274.0156 240.3989,276.1094 Q240.3989,278.2031 241.0864,279.2813 Q241.7739,280.3438 243.1177,280.3438 Q243.7427,280.3438 244.3364,280.0781 Q244.9302,279.7969 245.5552,279.2188 L245.5552,281.9375 Z " fill="#000000"/><text fill="#000000" font-family="sans-serif" font-size="14" lengthAdjust="spacing" textLength="99.0869" x="256.5864" y="281.1436">Disponibilidad</text><line style="stroke:#181818;stroke-width:0.5;" x1="228.5864" x2="357.6734" y1="292.2969" y2="292.2969"/><line style="stroke:#181818;stroke-width:0.5;" x1="228.5864" x2="357.6734" y1="300.2969" y2="300.2969"/></g><!--link Menu to Seccion--><g class="link" data-entity-1="Menu" data-entity-2="Seccion" data-source-line="15" data-uid="lnk12" id="link_Menu_Seccion"><path codeLine="15" d="M189.4664,192.7069 C161.6564,206.5169 124.1864,229.3569 102.1364,260.2969 C78.9064,292.8869 71.6585,333.9933 69.0285,361.9433" fill="none" id="Menu-to-Seccion" style="stroke:#181818;stroke-width:1;"/><polygon fill="#181818" points="68.4664,367.9169,73.292,359.3312,68.9349,362.9389,65.3272,358.5817,68.4664,367.9169" style="stroke:#181818;stroke-width:1;"/><text fill="#000000" font-family="sans-serif" font-size="13" lengthAdjust="spacing" textLength="56.2847" x="6" y="357.2292">contiene</text></g><!--link Seccion to Plato--><g class="link" data-entity-1="Seccion" data-entity-2="Plato" data-source-line="16" data-uid="lnk13" id="link_Seccion_Plato"><path codeLine="16" d="M74.6964,416.7169 C93.9064,476.1969 142.5722,626.8773 161.7522,686.2573" fill="none" id="Seccion-to-Plato" style="stroke:#181818;stroke-width:1;"/><polygon fill="#181818" points="163.5964,691.9669,164.6365,682.1731,162.0596,687.2089,157.0238,684.632,163.5964,691.9669" style="stroke:#181818;stroke-width:1;"/><text fill="#000000" font-family="sans-serif" font-size="13" lengthAdjust="spacing" textLength="46.541" x="110.22" y="681.2914">incluye</text></g><!--link Plato to Ingrediente--><g class="link" data-entity-1="Plato" data-entity-2="Ingrediente" data-source-line="17" data-uid="lnk14" id="link_Plato_Ingrediente"><path codeLine="17" d="M171.1364,740.5569 C171.1364,758.2369 171.1364,776.4269 171.1364,794.0869" fill="none" id="Plato-to-Ingrediente" style="stroke:#181818;stroke-width:1;"/><polygon fill="#181818" points="171.1364,800.0869,175.1364,791.0869,171.1364,795.0869,167.1364,791.0869,171.1364,800.0869" style="stroke:#181818;stroke-width:1;"/><text fill="#000000" font-family="sans-serif" font-size="13" lengthAdjust="spacing" textLength="46.541" x="119.3116" y="789.0451">incluye</text></g><!--link Menu to Disponibilidad--><g class="link" data-entity-1="Menu" data-entity-2="Disponibilidad" data-source-line="18" data-uid="lnk15" id="link_Menu_Disponibilidad"><path codeLine="18" d="M240.0564,200.5569 C251.3964,218.2369 263.6765,237.3768 275.0065,255.0368" fill="none" id="Menu-to-Disponibilidad" style="stroke:#181818;stroke-width:1;"/><polygon fill="#181818" points="278.2464,260.0869,276.7533,250.3519,275.5465,255.8785,270.0199,254.6718,278.2464,260.0869" style="stroke:#181818;stroke-width:1;"/><text fill="#000000" font-family="sans-serif" font-size="13" lengthAdjust="spacing" textLength="32.9443" x="238.4535" y="249.0451">tiene</text></g><!--link Menu to Turno--><g class="link" data-entity-1="Menu" data-entity-2="Turno" data-source-line="19" data-uid="lnk16" id="link_Menu_Turno"><path codeLine="19" d="M209.9864,200.5569 C198.4864,218.2369 186.0106,237.3989 174.5106,255.0589" fill="none" id="Menu-to-Turno" style="stroke:#181818;stroke-width:1;"/><polygon fill="#181818" points="171.2364,260.0869,179.4996,254.7277,173.9649,255.8969,172.7957,250.3622,171.2364,260.0869" style="stroke:#181818;stroke-width:1;"/><text fill="#000000" font-family="sans-serif" font-size="13" lengthAdjust="spacing" textLength="62.2515" x="105.1944" y="249.0451">se usa en</text></g><!--link Cliente to Menu--><g class="link" data-entity-1="Cliente" data-entity-2="Menu" data-source-line="21" data-uid="lnk17" id="link_Cliente_Menu"><path codeLine="21" d="M297.7264,92.5569 C282.2164,110.2369 264.9429,129.9162 249.4529,147.5762" fill="none" id="Cliente-to-Menu" style="stroke:#181818;stroke-width:1;"/><polygon fill="#181818" points="245.4964,152.0869,254.4383,147.9584,248.7935,148.3279,248.424,142.6832,245.4964,152.0869" style="stroke:#181818;stroke-width:1;"/><text fill="#000000" font-family="sans-serif" font-size="13" lengthAdjust="spacing" textLength="55.0278" x="188.6706" y="141.0451">consulta</text></g><!--link Cliente to Pedido--><g class="link" data-entity-1="Cliente" data-entity-2="Pedido" data-source-line="22" data-uid="lnk18" id="link_Cliente_Pedido"><path codeLine="22" d="M336.0364,92.5269 C363.3064,130.3169 412.1364,208.4269 412.1364,283.2969 C412.1364,283.2969 412.1364,283.2969 412.1364,393.2969 C412.1364,475.0569 342.7712,544.3544 299.4212,580.1844" fill="none" id="Cliente-to-Pedido" style="stroke:#181818;stroke-width:1;"/><polygon fill="#181818" points="294.7964,584.0069,304.2819,581.3563,298.6504,580.8215,299.1853,575.1899,294.7964,584.0069" style="stroke:#181818;stroke-width:1;"/><text fill="#000000" font-family="sans-serif" font-size="13" lengthAdjust="spacing" textLength="43.3228" x="254.0705" y="573.3411">realiza</text></g><!--link Pedido to Plato--><g class="link" data-entity-1="Pedido" data-entity-2="Plato" data-source-line="23" data-uid="lnk19" id="link_Pedido_Plato"><path codeLine="23" d="M243.7264,632.5569 C228.2164,650.2369 210.9429,669.9162 195.4529,687.5762" fill="none" id="Pedido-to-Plato" style="stroke:#181818;stroke-width:1;"/><polygon fill="#181818" points="191.4964,692.0869,200.4383,687.9584,194.7935,688.3279,194.424,682.6832,191.4964,692.0869" style="stroke:#181818;stroke-width:1;"/><text fill="#000000" font-family="sans-serif" font-size="13" lengthAdjust="spacing" textLength="56.2847" x="203.927" y="681.0451">contiene</text></g><!--link Cocinero to Comanda--><g class="link" data-entity-1="Cocinero" data-entity-2="Comanda" data-source-line="25" data-uid="lnk20" id="link_Cocinero_Comanda"><path codeLine="25" d="M192.1364,416.5569 C192.1364,434.2369 192.1364,452.4269 192.1364,470.0869" fill="none" id="Cocinero-to-Comanda" style="stroke:#181818;stroke-width:1;"/><polygon fill="#181818" points="192.1364,476.0869,196.1364,467.0869,192.1364,471.0869,188.1364,467.0869,192.1364,476.0869" style="stroke:#181818;stroke-width:1;"/><text fill="#000000" font-family="sans-serif" font-size="13" lengthAdjust="spacing" textLength="55.0278" x="130.0936" y="465.0451">consulta</text></g><!--link Comanda to Plato--><g class="link" data-entity-1="Comanda" data-entity-2="Plato" data-source-line="26" data-uid="lnk21" id="link_Comanda_Plato"><path codeLine="26" d="M189.8464,524.6069 C185.8064,565.7669 178.0428,644.9056 174.0028,686.0456" fill="none" id="Comanda-to-Plato" style="stroke:#181818;stroke-width:1;"/><polygon fill="#181818" points="173.4164,692.0169,178.2769,683.4509,173.9051,687.0408,170.3152,682.669,173.4164,692.0169" style="stroke:#181818;stroke-width:1;"/><text fill="#000000" font-family="sans-serif" font-size="13" lengthAdjust="spacing" textLength="32.9443" x="177.989" y="681.3536">tiene</text></g><!--link Comanda to Pedido--><g class="link" data-entity-1="Comanda" data-entity-2="Pedido" data-source-line="27" data-uid="lnk22" id="link_Comanda_Pedido"><path codeLine="27" d="M207.9364,524.5569 C219.9364,542.2369 233.0062,561.4629 244.9962,579.1229" fill="none" id="Comanda-to-Pedido" style="stroke:#181818;stroke-width:1;"/><polygon fill="#181818" points="248.3664,584.0869,246.6204,574.394,245.5579,579.9502,240.0017,578.8877,248.3664,584.0869" style="stroke:#181818;stroke-width:1;"/><text fill="#000000" font-family="sans-serif" font-size="13" lengthAdjust="spacing" textLength="108.1069" x="122.5036" y="573.0451">se genera desde</text></g><!--link Turno to Cocinero--><g class="link" data-entity-1="Turno" data-entity-2="Cocinero" data-source-line="29" data-uid="lnk23" id="link_Turno_Cocinero"><path codeLine="29" d="M164.0364,308.5569 C170.0364,326.2369 176.3263,344.7458 182.3263,362.4058" fill="none" id="Turno-to-Cocinero" style="stroke:#181818;stroke-width:1;"/><polygon fill="#181818" points="184.2564,368.0869,185.1486,358.2785,182.648,363.3527,177.5738,360.852,184.2564,368.0869" style="stroke:#181818;stroke-width:1;"/><text fill="#000000" font-family="sans-serif" font-size="13" lengthAdjust="spacing" textLength="32.9443" x="146.2588" y="357.0451">tiene</text></g><!--SRC=[NP8nRiCm34LtdKBmqYbNwD9qw10WQ7i1HY820WnbI7A0zcXTUx5I5ktKNaHIdo8V2LMgZFwK8dBoUlXZkf5Gy_q9vVV7FVbNgHGXOl5Z9Waq0cDnWQ6KbZEP-u4XK1ABpWmrcVycruoHK2hQpGjleXH8C2_fPysDQTLk814i-fooBCgHofY4BiIDpYdeEp8q12KDIVmTyoKfz5okk8Rg3uTdFwXOjJyEAxFPBkkCF7sfscUOpvtoVw97NIkw0tle1VrKmACCDeYpFQnOPU8AGz_gHii8JDygsNAwsO_JWTsopttPPPTcDz3zwKPHtAjg6VGpb8XhRpV3Rrul7Vy0]--></g></svg>