<svg xmlns="http://www.w3.org/2000/svg" xmlns:xlink="http://www.w3.org/1999/xlink" contentStyleType="text/css" data-diagram-type="CLASS" height="1005px" preserveAspectRatio="none" style="width:447px;height:1005px;background:#FFFFFF;" version="1.1" viewBox="0 0 447 1005" width="447px" zoomAndPan="magnify"><title>Modelo del Dominio de Menú</title><defs/><g><g class="title" data-source-line="1"><text fill="#000000" font-family="sans-serif" font-size="14" font-weight="bold" lengthAdjust="spacing" textLength="229.1816" x="102.1256" y="22.9951">Modelo del Dominio de Menú</text></g><!--class Menu--><g class="entity" data-entity="Menu" data-source-line="8" data-uid="ent0002" id="entity_Menu"><rect fill="#DDDDDD" height="48" rx="2.5" ry="2.5" style="stroke:#000000;stroke-width:0.5;" width="70.4385" x="182.89" y="169.2969"/><ellipse cx="197.89" cy="185.2969" fill="#ADD1B2" rx="11" ry="11" style="stroke:#181818;stroke-width:1;"/><path d="M200.8588,190.9375 Q200.2806,191.2344 199.64,191.375 Q198.9994,191.5313 198.2963,191.5313 Q195.7963,191.5313 194.4681,189.8906 Q193.1556,188.2344 193.1556,185.1094 Q193.1556,181.9844 194.4681,180.3281 Q195.7963,178.6719 198.2963,178.6719 Q198.9994,178.6719 199.64,178.8281 Q200.2963,178.9844 200.8588,179.2813 L200.8588,182 Q200.2338,181.4219 199.64,181.1563 Q199.0463,180.875 198.4213,180.875 Q197.0775,180.875 196.39,181.9531 Q195.7025,183.0156 195.7025,185.1094 Q195.7025,187.2031 196.39,188.2813 Q197.0775,189.3438 198.4213,189.3438 Q199.0463,189.3438 199.64,189.0781 Q200.2338,188.7969 200.8588,188.2188 L200.8588,190.9375 Z " fill="#000000"/><text fill="#000000" font-family="sans-serif" font-size="14" lengthAdjust="spacing" textLength="38.4385" x="211.89" y="190.1436">Menu</text><line style="stroke:#000000;stroke-width:0.5;" x1="183.89" x2="252.3285" y1="201.2969" y2="201.2969"/><line style="stroke:#000000;stroke-width:0.5;" x1="183.89" x2="252.3285" y1="209.2969" y2="209.2969"/></g><!--class Seccion--><g class="entity" data-entity="Seccion" data-source-line="9" data-uid="ent0003" id="entity_Seccion"><rect fill="#DDDDDD" height="48" rx="2.5" ry="2.5" style="stroke:#000000;stroke-width:0.5;" width="86.2227" x="7" y="372.2969"/><ellipse cx="22" cy="388.2969" fill="#ADD1B2" rx="11" ry="11" style="stroke:#181818;stroke-width:1;"/><path d="M24.9688,393.9375 Q24.3906,394.2344 23.75,394.375 Q23.1094,394.5313 22.4063,394.5313 Q19.9063,394.5313 18.5781,392.8906 Q17.2656,391.2344 17.2656,388.1094 Q17.2656,384.9844 18.5781,383.3281 Q19.9063,381.6719 22.4063,381.6719 Q23.1094,381.6719 23.75,381.8281 Q24.4063,381.9844 24.9688,382.2813 L24.9688,385 Q24.3438,384.4219 23.75,384.1563 Q23.1563,383.875 22.5313,383.875 Q21.1875,383.875 20.5,384.9531 Q19.8125,386.0156 19.8125,388.1094 Q19.8125,390.2031 20.5,391.2813 Q21.1875,392.3438 22.5313,392.3438 Q23.1563,392.3438 23.75,392.0781 Q24.3438,391.7969 24.9688,391.2188 L24.9688,393.9375 Z " fill="#000000"/><text fill="#000000" font-family="sans-serif" font-size="14" lengthAdjust="spacing" textLength="54.2227" x="36" y="393.1436">Seccion</text><line style="stroke:#000000;stroke-width:0.5;" x1="8" x2="92.2227" y1="404.2969" y2="404.2969"/><line style="stroke:#000000;stroke-width:0.5;" x1="8" x2="92.2227" y1="412.2969" y2="412.2969"/></g><!--class Plato--><g class="entity" data-entity="Plato" data-source-line="10" data-uid="ent0004" id="entity_Plato"><rect fill="#DDDDDD" height="48" rx="2.5" ry="2.5" style="stroke:#000000;stroke-width:0.5;" width="66.9658" x="124.63" y="825.2969"/><ellipse cx="139.63" cy="841.2969" fill="#ADD1B2" rx="11" ry="11" style="stroke:#181818;stroke-width:1;"/><path d="M142.5988,846.9375 Q142.0206,847.2344 141.38,847.375 Q140.7394,847.5313 140.0363,847.5313 Q137.5363,847.5313 136.2081,845.8906 Q134.8956,844.2344 134.8956,841.1094 Q134.8956,837.9844 136.2081,836.3281 Q137.5363,834.6719 140.0363,834.6719 Q140.7394,834.6719 141.38,834.8281 Q142.0363,834.9844 142.5988,835.2813 L142.5988,838 Q141.9738,837.4219 141.38,837.1563 Q140.7863,836.875 140.1613,836.875 Q138.8175,836.875 138.13,837.9531 Q137.4425,839.0156 137.4425,841.1094 Q137.4425,843.2031 138.13,844.2813 Q138.8175,845.3438 140.1613,845.3438 Q140.7863,845.3438 141.38,845.0781 Q141.9738,844.7969 142.5988,844.2188 L142.5988,846.9375 Z " fill="#000000"/><text fill="#000000" font-family="sans-serif" font-size="14" lengthAdjust="spacing" textLength="34.9658" x="153.63" y="846.1436">Plato</text><line style="stroke:#000000;stroke-width:0.5;" x1="125.63" x2="190.5958" y1="857.2969" y2="857.2969"/><line style="stroke:#000000;stroke-width:0.5;" x1="125.63" x2="190.5958" y1="865.2969" y2="865.2969"/></g><!--class Ingrediente--><g class="entity" data-entity="Ingrediente" data-source-line="11" data-uid="ent0005" id="entity_Ingrediente"><rect fill="#DDDDDD" height="48" rx="2.5" ry="2.5" style="stroke:#000000;stroke-width:0.5;" width="112.623" x="101.8" y="950.2969"/><ellipse cx="116.8" cy="966.2969" fill="#ADD1B2" rx="11" ry="11" style="stroke:#181818;stroke-width:1;"/><path d="M119.7688,971.9375 Q119.1906,972.2344 118.55,972.375 Q117.9094,972.5313 117.2063,972.5313 Q114.7063,972.5313 113.3781,970.8906 Q112.0656,969.2344 112.0656,966.1094 Q112.0656,962.9844 113.3781,961.3281 Q114.7063,959.6719 117.2063,959.6719 Q117.9094,959.6719 118.55,959.8281 Q119.2063,959.9844 119.7688,960.2813 L119.7688,963 Q119.1438,962.4219 118.55,962.1563 Q117.9563,961.875 117.3313,961.875 Q115.9875,961.875 115.3,962.9531 Q114.6125,964.0156 114.6125,966.1094 Q114.6125,968.2031 115.3,969.2813 Q115.9875,970.3438 117.3313,970.3438 Q117.9563,970.3438 118.55,970.0781 Q119.1438,969.7969 119.7688,969.2188 L119.7688,971.9375 Z " fill="#000000"/><text fill="#000000" font-family="sans-serif" font-size="14" lengthAdjust="spacing" textLength="80.623" x="130.8" y="971.1436">Ingrediente</text><line style="stroke:#000000;stroke-width:0.5;" x1="102.8" x2="213.423" y1="982.2969" y2="982.2969"/><line style="stroke:#000000;stroke-width:0.5;" x1="102.8" x2="213.423" y1="990.2969" y2="990.2969"/></g><!--class Cliente--><g class="entity" data-entity="Cliente" data-source-line="12" data-uid="ent0006" id="entity_Cliente"><rect fill="#DDDDDD" height="48" rx="2.5" ry="2.5" style="stroke:#000000;stroke-width:0.5;" width="81.1436" x="295.54" y="44.2969"/><ellipse cx="310.54" cy="60.2969" fill="#ADD1B2" rx="11" ry="11" style="stroke:#181818;stroke-width:1;"/><path d="M313.5088,65.9375 Q312.9306,66.2344 312.29,66.375 Q311.6494,66.5313 310.9463,66.5313 Q308.4463,66.5313 307.1181,64.8906 Q305.8056,63.2344 305.8056,60.1094 Q305.8056,56.9844 307.1181,55.3281 Q308.4463,53.6719 310.9463,53.6719 Q311.6494,53.6719 312.29,53.8281 Q312.9463,53.9844 313.5088,54.2813 L313.5088,57 Q312.8838,56.4219 312.29,56.1563 Q311.6963,55.875 311.0713,55.875 Q309.7275,55.875 309.04,56.9531 Q308.3525,58.0156 308.3525,60.1094 Q308.3525,62.2031 309.04,63.2813 Q309.7275,64.3438 311.0713,64.3438 Q311.6963,64.3438 312.29,64.0781 Q312.8838,63.7969 313.5088,63.2188 L313.5088,65.9375 Z " fill="#000000"/><text fill="#000000" font-family="sans-serif" font-size="14" lengthAdjust="spacing" textLength="49.1436" x="324.54" y="65.1436">Cliente</text><line style="stroke:#000000;stroke-width:0.5;" x1="296.54" x2="375.6836" y1="76.2969" y2="76.2969"/><line style="stroke:#000000;stroke-width:0.5;" x1="296.54" x2="375.6836" y1="84.2969" y2="84.2969"/></g><!--class Cocinero--><g class="entity" data-entity="Cocinero" data-source-line="13" data-uid="ent0007" id="entity_Cocinero"><rect fill="#DDDDDD" height="48" rx="2.5" ry="2.5" style="stroke:#000000;stroke-width:0.5;" width="93.7354" x="111.24" y="450.2969"/><ellipse cx="126.24" cy="466.2969" fill="#ADD1B2" rx="11" ry="11" style="stroke:#181818;stroke-width:1;"/><path d="M129.2088,471.9375 Q128.6306,472.2344 127.99,472.375 Q127.3494,472.5313 126.6463,472.5313 Q124.1463,472.5313 122.8181,470.8906 Q121.5056,469.2344 121.5056,466.1094 Q121.5056,462.9844 122.8181,461.3281 Q124.1463,459.6719 126.6463,459.6719 Q127.3494,459.6719 127.99,459.8281 Q128.6463,459.9844 129.2088,460.2813 L129.2088,463 Q128.5838,462.4219 127.99,462.1563 Q127.3963,461.875 126.7713,461.875 Q125.4275,461.875 124.74,462.9531 Q124.0525,464.0156 124.0525,466.1094 Q124.0525,468.2031 124.74,469.2813 Q125.4275,470.3438 126.7713,470.3438 Q127.3963,470.3438 127.99,470.0781 Q128.5838,469.7969 129.2088,469.2188 L129.2088,471.9375 Z " fill="#000000"/><text fill="#000000" font-family="sans-serif" font-size="14" lengthAdjust="spacing" textLength="61.7354" x="140.24" y="471.1436">Cocinero</text><line style="stroke:#000000;stroke-width:0.5;" x1="112.24" x2="203.9754" y1="482.2969" y2="482.2969"/><line style="stroke:#000000;stroke-width:0.5;" x1="112.24" x2="203.9754" y1="490.2969" y2="490.2969"/></g><!--class Pedido--><g class="entity" data-entity="Pedido" data-source-line="14" data-uid="ent0008" id="entity_Pedido"><rect fill="#DDDDDD" height="48" rx="2.5" ry="2.5" style="stroke:#000000;stroke-width:0.5;" width="79.2842" x="227.47" y="700.2969"/><ellipse cx="242.47" cy="716.2969" fill="#ADD1B2" rx="11" ry="11" style="stroke:#181818;stroke-width:1;"/><path d="M245.4388,721.9375 Q244.8606,722.2344 244.22,722.375 Q243.5794,722.5313 242.8763,722.5313 Q240.3763,722.5313 239.0481,720.8906 Q237.7356,719.2344 237.7356,716.1094 Q237.7356,712.9844 239.0481,711.3281 Q240.3763,709.6719 242.8763,709.6719 Q243.5794,709.6719 244.22,709.8281 Q244.8763,709.9844 245.4388,710.2813 L245.4388,713 Q244.8138,712.4219 244.22,712.1563 Q243.6263,711.875 243.0013,711.875 Q241.6575,711.875 240.97,712.9531 Q240.2825,714.0156 240.2825,716.1094 Q240.2825,718.2031 240.97,719.2813 Q241.6575,720.3438 243.0013,720.3438 Q243.6263,720.3438 244.22,720.0781 Q244.8138,719.7969 245.4388,719.2188 L245.4388,721.9375 Z " fill="#000000"/><text fill="#000000" font-family="sans-serif" font-size="14" lengthAdjust="spacing" textLength="47.2842" x="256.47" y="721.1436">Pedido</text><line style="stroke:#000000;stroke-width:0.5;" x1="228.47" x2="305.7542" y1="732.2969" y2="732.2969"/><line style="stroke:#000000;stroke-width:0.5;" x1="228.47" x2="305.7542" y1="740.2969" y2="740.2969"/></g><!--class Comanda--><g class="entity" data-entity="Comanda" data-source-line="15" data-uid="ent0009" id="entity_Comanda"><rect fill="#DDDDDD" height="48" rx="2.5" ry="2.5" style="stroke:#000000;stroke-width:0.5;" width="98.8965" x="132.66" y="575.2969"/><ellipse cx="147.66" cy="591.2969" fill="#ADD1B2" rx="11" ry="11" style="stroke:#181818;stroke-width:1;"/><path d="M150.6288,596.9375 Q150.0506,597.2344 149.41,597.375 Q148.7694,597.5313 148.0663,597.5313 Q145.5663,597.5313 144.2381,595.8906 Q142.9256,594.2344 142.9256,591.1094 Q142.9256,587.9844 144.2381,586.3281 Q145.5663,584.6719 148.0663,584.6719 Q148.7694,584.6719 149.41,584.8281 Q150.0663,584.9844 150.6288,585.2813 L150.6288,588 Q150.0038,587.4219 149.41,587.1563 Q148.8163,586.875 148.1913,586.875 Q146.8475,586.875 146.16,587.9531 Q145.4725,589.0156 145.4725,591.1094 Q145.4725,593.2031 146.16,594.2813 Q146.8475,595.3438 148.1913,595.3438 Q148.8163,595.3438 149.41,595.0781 Q150.0038,594.7969 150.6288,594.2188 L150.6288,596.9375 Z " fill="#000000"/><text fill="#000000" font-family="sans-serif" font-size="14" lengthAdjust="spacing" textLength="66.8965" x="161.66" y="596.1436">Comanda</text><line style="stroke:#000000;stroke-width:0.5;" x1="133.66" x2="230.5565" y1="607.2969" y2="607.2969"/><line style="stroke:#000000;stroke-width:0.5;" x1="133.66" x2="230.5565" y1="615.2969" y2="615.2969"/></g><!--class Turno--><g class="entity" data-entity="Turno" data-source-line="16" data-uid="ent0010" id="entity_Turno"><rect fill="#DDDDDD" height="48" rx="2.5" ry="2.5" style="stroke:#000000;stroke-width:0.5;" width="72.6191" x="102.8" y="294.2969"/><ellipse cx="117.8" cy="310.2969" fill="#ADD1B2" rx="11" ry="11" style="stroke:#181818;stroke-width:1;"/><path d="M120.7688,315.9375 Q120.1906,316.2344 119.55,316.375 Q118.9094,316.5313 118.2063,316.5313 Q115.7063,316.5313 114.3781,314.8906 Q113.0656,313.2344 113.0656,310.1094 Q113.0656,306.9844 114.3781,305.3281 Q115.7063,303.6719 118.2063,303.6719 Q118.9094,303.6719 119.55,303.8281 Q120.2063,303.9844 120.7688,304.2813 L120.7688,307 Q120.1438,306.4219 119.55,306.1563 Q118.9563,305.875 118.3313,305.875 Q116.9875,305.875 116.3,306.9531 Q115.6125,308.0156 115.6125,310.1094 Q115.6125,312.2031 116.3,313.2813 Q116.9875,314.3438 118.3313,314.3438 Q118.9563,314.3438 119.55,314.0781 Q120.1438,313.7969 120.7688,313.2188 L120.7688,315.9375 Z " fill="#000000"/><text fill="#000000" font-family="sans-serif" font-size="14" lengthAdjust="spacing" textLength="40.6191" x="131.8" y="315.1436">Turno</text><line style="stroke:#000000;stroke-width:0.5;" x1="103.8" x2="174.4191" y1="326.2969" y2="326.2969"/><line style="stroke:#000000;stroke-width:0.5;" x1="103.8" x2="174.4191" y1="334.2969" y2="334.2969"/></g><!--class Disponibilidad--><g class="entity" data-entity="Disponibilidad" data-source-line="17" data-uid="ent0011" id="entity_Disponibilidad"><rect fill="#DDDDDD" height="48" rx="2.5" ry="2.5" style="stroke:#000000;stroke-width:0.5;" width="131.0869" x="210.57" y="294.2969"/><ellipse cx="225.57" cy="310.2969" fill="#ADD1B2" rx="11" ry="11" style="stroke:#181818;stroke-width:1;"/><path d="M228.5388,315.9375 Q227.9606,316.2344 227.32,316.375 Q226.6794,316.5313 225.9763,316.5313 Q223.4763,316.5313 222.1481,314.8906 Q220.8356,313.2344 220.8356,310.1094 Q220.8356,306.9844 222.1481,305.3281 Q223.4763,303.6719 225.9763,303.6719 Q226.6794,303.6719 227.32,303.8281 Q227.9763,303.9844 228.5388,304.2813 L228.5388,307 Q227.9138,306.4219 227.32,306.1563 Q226.7263,305.875 226.1013,305.875 Q224.7575,305.875 224.07,306.9531 Q223.3825,308.0156 223.3825,310.1094 Q223.3825,312.2031 224.07,313.2813 Q224.7575,314.3438 226.1013,314.3438 Q226.7263,314.3438 227.32,314.0781 Q227.9138,313.7969 228.5388,313.2188 L228.5388,315.9375 Z " fill="#000000"/><text fill="#000000" font-family="sans-serif" font-size="14" lengthAdjust="spacing" textLength="99.0869" x="239.57" y="315.1436">Disponibilidad</text><line style="stroke:#000000;stroke-width:0.5;" x1="211.57" x2="340.6569" y1="326.2969" y2="326.2969"/><line style="stroke:#000000;stroke-width:0.5;" x1="211.57" x2="340.6569" y1="334.2969" y2="334.2969"/></g><!--link Menu to Seccion--><g class="link" data-entity-1="Menu" data-entity-2="Seccion" data-source-line="21" data-uid="lnk12" id="link_Menu_Seccion"><path codeLine="21" d="M182.64,201.2669 C155.39,208.3969 118.7,222.1169 96.11,247.2969 C64.31,282.7469 55.0572,333.9537 52.0272,365.8637" fill="none" id="Menu-to-Seccion" style="stroke:#181818;stroke-width:1;"/><polygon fill="#181818" points="51.46,371.8369,56.2929,363.2553,51.9326,366.8593,48.3287,362.4991,51.46,371.8369" style="stroke:#181818;stroke-width:1;"/><text fill="#000000" font-family="sans-serif" font-size="13" lengthAdjust="spacing" textLength="56.2847" x="97.11" y="260.3638">contiene</text></g><!--link Seccion to Plato--><g class="link" data-entity-1="Seccion" data-entity-2="Plato" data-source-line="22" data-uid="lnk13" id="link_Seccion_Plato"><path codeLine="22" d="M50.11,420.3369 C50.11,447.8169 50.11,495.1569 50.11,535.7969 C50.11,535.7969 50.11,535.7969 50.11,725.2969 C50.11,770.9069 87.5648,804.353 119.2448,825.433" fill="none" id="Seccion-to-Plato" style="stroke:#181818;stroke-width:1;"/><polygon fill="#181818" points="124.24,828.7569,118.9631,820.441,120.0773,825.987,114.5313,827.1013,124.24,828.7569" style="stroke:#181818;stroke-width:1;"/><text fill="#000000" font-family="sans-serif" font-size="13" lengthAdjust="spacing" textLength="46.541" x="51.11" y="603.8638">incluye</text></g><!--link Plato to Ingrediente--><g class="link" data-entity-1="Plato" data-entity-2="Ingrediente" data-source-line="23" data-uid="lnk14" id="link_Plato_Ingrediente"><path codeLine="23" d="M158.11,873.7169 C158.11,895.6069 158.11,922.0969 158.11,943.9569" fill="none" id="Plato-to-Ingrediente" style="stroke:#181818;stroke-width:1;"/><polygon fill="#181818" points="158.11,949.9569,162.11,940.9569,158.11,944.9569,154.11,940.9569,158.11,949.9569" style="stroke:#181818;stroke-width:1;"/><text fill="#000000" font-family="sans-serif" font-size="13" lengthAdjust="spacing" textLength="46.541" x="159.11" y="916.3638">incluye</text></g><!--link Menu to Disponibilidad--><g class="link" data-entity-1="Menu" data-entity-2="Disponibilidad" data-source-line="24" data-uid="lnk15" id="link_Menu_Disponibilidad"><path codeLine="24" d="M229.16,217.7169 C239.48,239.6069 252.2406,266.6702 262.5506,288.5302" fill="none" id="Menu-to-Disponibilidad" style="stroke:#181818;stroke-width:1;"/><polygon fill="#181818" points="265.11,293.9569,264.8886,284.1105,262.9771,289.4346,257.653,287.5231,265.11,293.9569" style="stroke:#181818;stroke-width:1;"/><text fill="#000000" font-family="sans-serif" font-size="13" lengthAdjust="spacing" textLength="32.9443" x="251.11" y="260.3638">tiene</text></g><!--link Menu to Turno--><g class="link" data-entity-1="Menu" data-entity-2="Turno" data-source-line="25" data-uid="lnk16" id="link_Menu_Turno"><path codeLine="25" d="M194.74,217.6069 C186.63,226.4369 177.89,236.8869 171.11,247.2969 C161.56,261.9669 155.6474,274.3937 149.9674,288.4537" fill="none" id="Menu-to-Turno" style="stroke:#181818;stroke-width:1;"/><polygon fill="#181818" points="147.72,294.0169,154.7999,287.1704,149.5929,289.3809,147.3824,284.1738,147.72,294.0169" style="stroke:#181818;stroke-width:1;"/><text fill="#000000" font-family="sans-serif" font-size="13" lengthAdjust="spacing" textLength="62.2515" x="172.11" y="260.3638">se usa en</text></g><!--link Cliente to Menu--><g class="link" data-entity-1="Cliente" data-entity-2="Menu" data-source-line="27" data-uid="lnk17" id="link_Cliente_Menu"><path codeLine="27" d="M313.64,92.7169 C292.64,114.6069 265.6236,142.767 244.6536,164.627" fill="none" id="Cliente-to-Menu" style="stroke:#181818;stroke-width:1;"/><polygon fill="#181818" points="240.5,168.9569,249.617,165.2311,243.9613,165.3487,243.8438,159.693,240.5,168.9569" style="stroke:#181818;stroke-width:1;"/><text fill="#000000" font-family="sans-serif" font-size="13" lengthAdjust="spacing" textLength="55.0278" x="285.11" y="135.3638">consulta</text></g><!--link Cliente to Pedido--><g class="link" data-entity-1="Cliente" data-entity-2="Pedido" data-source-line="28" data-uid="lnk18" id="link_Cliente_Pedido"><path codeLine="28" d="M355.1,92.6769 C372.35,116.3069 395.11,154.6369 395.11,192.2969 C395.11,192.2969 395.11,192.2969 395.11,600.2969 C395.11,649.9169 349.7891,682.9817 312.2191,702.7617" fill="none" id="Cliente-to-Pedido" style="stroke:#181818;stroke-width:1;"/><polygon fill="#181818" points="306.91,705.5569,316.7372,704.9035,311.3343,703.2276,313.0103,697.8247,306.91,705.5569" style="stroke:#181818;stroke-width:1;"/><text fill="#000000" font-family="sans-serif" font-size="13" lengthAdjust="spacing" textLength="43.3228" x="396.11" y="400.8638">realiza</text></g><!--link Pedido to Plato--><g class="link" data-entity-1="Pedido" data-entity-2="Plato" data-source-line="29" data-uid="lnk19" id="link_Pedido_Plato"><path codeLine="29" d="M246.35,748.7169 C226.96,770.6069 202.1392,798.6062 182.7692,820.4662" fill="none" id="Pedido-to-Plato" style="stroke:#181818;stroke-width:1;"/><polygon fill="#181818" points="178.79,824.9569,187.7525,820.8736,182.106,821.2146,181.765,815.5681,178.79,824.9569" style="stroke:#181818;stroke-width:1;"/><text fill="#000000" font-family="sans-serif" font-size="13" lengthAdjust="spacing" textLength="56.2847" x="220.11" y="791.3638">contiene</text></g><!--link Cocinero to Comanda--><g class="link" data-entity-1="Cocinero" data-entity-2="Comanda" data-source-line="31" data-uid="lnk20" id="link_Cocinero_Comanda"><path codeLine="31" d="M162.68,498.7169 C166.95,520.6069 172.1397,547.2082 176.4097,569.0682" fill="none" id="Cocinero-to-Comanda" style="stroke:#181818;stroke-width:1;"/><polygon fill="#181818" points="177.56,574.9569,179.7604,565.357,176.6014,570.0496,171.9088,566.8907,177.56,574.9569" style="stroke:#181818;stroke-width:1;"/><text fill="#000000" font-family="sans-serif" font-size="13" lengthAdjust="spacing" textLength="55.0278" x="172.11" y="541.3638">consulta</text></g><!--link Comanda to Plato--><g class="link" data-entity-1="Comanda" data-entity-2="Plato" data-source-line="32" data-uid="lnk21" id="link_Comanda_Plato"><path codeLine="32" d="M179.85,623.6269 C175.28,670.8969 165.5374,771.5047 160.9574,818.8747" fill="none" id="Comanda-to-Plato" style="stroke:#181818;stroke-width:1;"/><polygon fill="#181818" points="160.38,824.8469,165.2276,816.2736,160.8612,819.8701,157.2647,815.5037,160.38,824.8469" style="stroke:#181818;stroke-width:1;"/><text fill="#000000" font-family="sans-serif" font-size="13" lengthAdjust="spacing" textLength="32.9443" x="172.11" y="728.8638">tiene</text></g><!--link Comanda to Pedido--><g class="link" data-entity-1="Comanda" data-entity-2="Pedido" data-source-line="33" data-uid="lnk22" id="link_Comanda_Pedido"><path codeLine="33" d="M198.3,623.7169 C213.42,645.6069 232.4699,673.1601 247.5699,695.0201" fill="none" id="Comanda-to-Pedido" style="stroke:#181818;stroke-width:1;stroke-dasharray:7,7;"/><polygon fill="#181818" points="250.98,699.9569,249.156,690.2784,248.1383,695.8429,242.5737,694.8252,250.98,699.9569" style="stroke:#181818;stroke-width:1;"/><text fill="#000000" font-family="sans-serif" font-size="13" lengthAdjust="spacing" textLength="108.1069" x="230.11" y="666.3638">se genera desde</text></g><!--link Turno to Cocinero--><g class="link" data-entity-1="Turno" data-entity-2="Cocinero" data-source-line="35" data-uid="lnk23" id="link_Turno_Cocinero"><path codeLine="35" d="M142,342.6869 C145.58,371.7169 150.9151,414.972 154.4951,443.982" fill="none" id="Turno-to-Cocinero" style="stroke:#181818;stroke-width:1;"/><polygon fill="#181818" points="155.23,449.9369,158.0976,440.5147,154.6176,444.9745,150.1578,441.4945,155.23,449.9369" style="stroke:#181818;stroke-width:1;"/><text fill="#000000" font-family="sans-serif" font-size="13" lengthAdjust="spacing" textLength="32.9443" x="153.11" y="400.8638">tiene</text></g><!--SRC=[LP0zJWD138Lxdy8I1LLo00eAaeOYKWHSm9anmSh44yti5e2u62qNm_EpgzqjLhO_-ysp1na2uo5w3X7jX_ju5PKIuu7rxnSWNqHlbEYABb3E-0s8J-GkvnH7zRiOOiAxVVqAYSbpQjLJi3Ru0MY3fZVsy9MTawWzEmOQOe-VzPpO2-l0lR8BgomwKKvJ-z5wVPpPbTHJpzx6f1FPIxv5bPC4yUG1xl65pPnPu8mkAd8U9CHSrduFx3ue0nI_kDayJcxneRGEvePXAXLSxHiKTM7yP6Xv8Ojb5dpMNRkoZgOzyxg1bJFZc0bP0VenAgvzrLCUmq0hrkvYD345-IBeXQNVUHcOZbfnl-9AkPUMqsrq8jljuatpUpQOoCwPlUctHPfuVwaB_0C0]--></g></svg>
