<?xml version="1.0" encoding="us-ascii" standalone="no"?><svg xmlns="http://www.w3.org/2000/svg" xmlns:xlink="http://www.w3.org/1999/xlink" contentStyleType="text/css" height="1124px" preserveAspectRatio="none" style="width:743px;height:1124px;background:#FFFFFF;" version="1.1" viewBox="0 0 743 1124" width="743px" zoomAndPan="magnify"><defs/><g><!--cluster GestionInventario--><g id="cluster_GestionInventario"><path d="M19.5,242 L266.5,242 A12.5,12.5 0 0 1 279,254.5 L279,264.6094 L7,264.6094 L7,254.5 A12.5,12.5 0 0 1 19.5,242 " fill="#F1F1F1" style="stroke:#F1F1F1;stroke-width:1.0;"/><rect fill="none" height="230" rx="12.5" ry="12.5" style="stroke:#181818;stroke-width:0.5;" width="272" x="7" y="242"/><line style="stroke:#181818;stroke-width:0.5;" x1="7" x2="279" y1="264.6094" y2="264.6094"/><text fill="#000000" font-family="sans-serif" font-size="14" lengthAdjust="spacing" textLength="111" x="87.5" y="260.5332">GestionInventario</text></g><!--cluster GestionProveedor--><g id="cluster_GestionProveedor"><path d="M181.5,522 L314.5,522 A12.5,12.5 0 0 1 327,534.5 L327,544.6094 L169,544.6094 L169,534.5 A12.5,12.5 0 0 1 181.5,522 " fill="#F1F1F1" style="stroke:#F1F1F1;stroke-width:1.0;"/><rect fill="none" height="102" rx="12.5" ry="12.5" style="stroke:#181818;stroke-width:0.5;" width="158" x="169" y="522"/><line style="stroke:#181818;stroke-width:0.5;" x1="169" x2="327" y1="544.6094" y2="544.6094"/><text fill="#000000" font-family="sans-serif" font-size="14" lengthAdjust="spacing" textLength="115" x="190.5" y="540.5332">GestionProveedor</text></g><!--cluster GestionMenu--><g id="cluster_GestionMenu"><path d="M460.5,242 L577.5,242 A12.5,12.5 0 0 1 590,254.5 L590,264.6094 L448,264.6094 L448,254.5 A12.5,12.5 0 0 1 460.5,242 " fill="#F1F1F1" style="stroke:#F1F1F1;stroke-width:1.0;"/><rect fill="none" height="382" rx="12.5" ry="12.5" style="stroke:#181818;stroke-width:0.5;" width="142" x="448" y="242"/><line style="stroke:#181818;stroke-width:0.5;" x1="448" x2="590" y1="264.6094" y2="264.6094"/><text fill="#000000" font-family="sans-serif" font-size="14" lengthAdjust="spacing" textLength="84" x="477" y="260.5332">GestionMenu</text></g><!--cluster GestionPresupuesto--><g id="cluster_GestionPresupuesto"><path d="M451.5,90 L586.5,90 A12.5,12.5 0 0 1 599,102.5 L599,112.6094 L439,112.6094 L439,102.5 A12.5,12.5 0 0 1 451.5,90 " fill="#F1F1F1" style="stroke:#F1F1F1;stroke-width:1.0;"/><rect fill="none" height="102" rx="12.5" ry="12.5" style="stroke:#181818;stroke-width:0.5;" width="160" x="439" y="90"/><line style="stroke:#181818;stroke-width:0.5;" x1="439" x2="599" y1="112.6094" y2="112.6094"/><text fill="#000000" font-family="sans-serif" font-size="14" lengthAdjust="spacing" textLength="129" x="454.5" y="108.5332">GestionPresupuesto</text></g><!--cluster GestionReceta--><g id="cluster_GestionReceta"><path d="M372.5,674 L591.5,674 A12.5,12.5 0 0 1 604,686.5 L604,696.6094 L360,696.6094 L360,686.5 A12.5,12.5 0 0 1 372.5,674 " fill="#F1F1F1" style="stroke:#F1F1F1;stroke-width:1.0;"/><rect fill="none" height="230" rx="12.5" ry="12.5" style="stroke:#181818;stroke-width:0.5;" width="244" x="360" y="674"/><line style="stroke:#181818;stroke-width:0.5;" x1="360" x2="604" y1="696.6094" y2="696.6094"/><text fill="#000000" font-family="sans-serif" font-size="14" lengthAdjust="spacing" textLength="94" x="435" y="692.5332">GestionReceta</text></g><g id="GestionInventario.RevisadoStock"><rect fill="#F1F1F1" height="50" rx="12.5" ry="12.5" style="stroke:#181818;stroke-width:0.5;" width="114" x="146" y="278"/><line style="stroke:#181818;stroke-width:0.5;" x1="146" x2="260" y1="305.6094" y2="305.6094"/><text fill="#000000" font-family="sans-serif" font-size="14" lengthAdjust="spacing" textLength="94" x="156" y="297.5332">RevisadoStock</text></g><g id="GestionInventario.FaltaStock"><rect fill="#F1F1F1" height="50" rx="12.5" ry="12.5" style="stroke:#181818;stroke-width:0.5;" width="87" x="175.5" y="406"/><line style="stroke:#181818;stroke-width:0.5;" x1="175.5" x2="262.5" y1="433.6094" y2="433.6094"/><text fill="#000000" font-family="sans-serif" font-size="14" lengthAdjust="spacing" textLength="67" x="185.5" y="425.5332">FaltaStock</text></g><g id="GestionInventario.SuficienteStock"><rect fill="#F1F1F1" height="50" rx="12.5" ry="12.5" style="stroke:#181818;stroke-width:0.5;" width="117" x="23.5" y="406"/><line style="stroke:#181818;stroke-width:0.5;" x1="23.5" x2="140.5" y1="433.6094" y2="433.6094"/><text fill="#000000" font-family="sans-serif" font-size="14" lengthAdjust="spacing" textLength="97" x="33.5" y="425.5332">SuficienteStock</text></g><g id="GestionProveedor.PedidoRealizado"><rect fill="#F1F1F1" height="50" rx="12.5" ry="12.5" style="stroke:#181818;stroke-width:0.5;" width="126" x="185" y="558"/><line style="stroke:#181818;stroke-width:0.5;" x1="185" x2="311" y1="585.6094" y2="585.6094"/><text fill="#000000" font-family="sans-serif" font-size="14" lengthAdjust="spacing" textLength="106" x="195" y="577.5332">PedidoRealizado</text></g><g id="GestionMenu.MenuListo"><rect fill="#F1F1F1" height="50" rx="12.5" ry="12.5" style="stroke:#181818;stroke-width:0.5;" width="85" x="464.5" y="406"/><line style="stroke:#181818;stroke-width:0.5;" x1="464.5" x2="549.5" y1="433.6094" y2="433.6094"/><text fill="#000000" font-family="sans-serif" font-size="14" lengthAdjust="spacing" textLength="65" x="474.5" y="425.5332">MenuListo</text></g><g id="GestionMenu.CreandoMenu"><rect fill="#F1F1F1" height="50" rx="12.5" ry="12.5" style="stroke:#181818;stroke-width:0.5;" width="110" x="464" y="278"/><line style="stroke:#181818;stroke-width:0.5;" x1="464" x2="574" y1="305.6094" y2="305.6094"/><text fill="#000000" font-family="sans-serif" font-size="14" lengthAdjust="spacing" textLength="90" x="474" y="297.5332">CreandoMenu</text></g><g id="GestionMenu.PlatoEscogido"><rect fill="#F1F1F1" height="50" rx="12.5" ry="12.5" style="stroke:#181818;stroke-width:0.5;" width="110" x="464" y="558"/><line style="stroke:#181818;stroke-width:0.5;" x1="464" x2="574" y1="585.6094" y2="585.6094"/><text fill="#000000" font-family="sans-serif" font-size="14" lengthAdjust="spacing" textLength="90" x="474" y="577.5332">PlatoEscogido</text></g><g id="GestionPresupuesto.DineroDisponible"><rect fill="#F1F1F1" height="50" rx="12.5" ry="12.5" style="stroke:#181818;stroke-width:0.5;" width="128" x="455" y="126"/><line style="stroke:#181818;stroke-width:0.5;" x1="455" x2="583" y1="153.6094" y2="153.6094"/><text fill="#000000" font-family="sans-serif" font-size="14" lengthAdjust="spacing" textLength="108" x="465" y="145.5332">DineroDisponible</text></g><g id="GestionReceta.OrganizadoIngredientesYPlato"><rect fill="#F1F1F1" height="50" rx="12.5" ry="12.5" style="stroke:#181818;stroke-width:0.5;" width="212" x="376" y="710"/><line style="stroke:#181818;stroke-width:0.5;" x1="376" x2="588" y1="737.6094" y2="737.6094"/><text fill="#000000" font-family="sans-serif" font-size="14" lengthAdjust="spacing" textLength="192" x="386" y="729.5332">OrganizadoIngredientesYPlato</text></g><g id="GestionReceta.Cocinado"><rect fill="#F1F1F1" height="50" rx="12.5" ry="12.5" style="stroke:#181818;stroke-width:0.5;" width="80" x="447" y="838"/><line style="stroke:#181818;stroke-width:0.5;" x1="447" x2="527" y1="865.6094" y2="865.6094"/><text fill="#000000" font-family="sans-serif" font-size="14" lengthAdjust="spacing" textLength="60" x="457" y="857.5332">Cocinado</text></g><ellipse cx="502" cy="16" fill="#222222" rx="10" ry="10" style="stroke:#222222;stroke-width:1.0;"/><g id="Abierta"><rect fill="#F1F1F1" height="50" rx="12.5" ry="12.5" style="stroke:#181818;stroke-width:0.5;" width="65" x="329.5" y="126"/><line style="stroke:#181818;stroke-width:0.5;" x1="329.5" x2="394.5" y1="153.6094" y2="153.6094"/><text fill="#000000" font-family="sans-serif" font-size="14" lengthAdjust="spacing" textLength="45" x="339.5" y="145.5332">Abierta</text></g><g id="Cerrada"><rect fill="#F1F1F1" height="50" rx="12.5" ry="12.5" style="stroke:#181818;stroke-width:0.5;" width="72" x="603" y="968"/><line style="stroke:#181818;stroke-width:0.5;" x1="603" x2="675" y1="995.6094" y2="995.6094"/><text fill="#000000" font-family="sans-serif" font-size="14" lengthAdjust="spacing" textLength="52" x="613" y="987.5332">Cerrada</text></g><g id="ClienteEsperando"><rect fill="#F1F1F1" height="50" rx="12.5" ry="12.5" style="stroke:#181818;stroke-width:0.5;" width="133" x="295.5" y="278"/><line style="stroke:#181818;stroke-width:0.5;" x1="295.5" x2="428.5" y1="305.6094" y2="305.6094"/><text fill="#000000" font-family="sans-serif" font-size="14" lengthAdjust="spacing" textLength="113" x="305.5" y="297.5332">ClienteEsperando</text></g><g id="Servido"><rect fill="#F1F1F1" height="50" rx="12.5" ry="12.5" style="stroke:#181818;stroke-width:0.5;" width="68" x="493" y="968"/><line style="stroke:#181818;stroke-width:0.5;" x1="493" x2="561" y1="995.6094" y2="995.6094"/><text fill="#000000" font-family="sans-serif" font-size="14" lengthAdjust="spacing" textLength="48" x="503" y="987.5332">Servido</text></g><ellipse cx="579" cy="1107" fill="none" rx="11" ry="11" style="stroke:#222222;stroke-width:1.0;"/><ellipse cx="579" cy="1107" fill="#222222" rx="6" ry="6" style="stroke:#222222;stroke-width:1.0;"/><!--link *start* to Abierta--><g id="link_*start*_Abierta"><path d="M495.25,23.41 C476.02,41.68 424.6001,90.5276 391.6201,121.8576 " fill="none" id="*start*-to-Abierta" style="stroke:#181818;stroke-width:1.0;"/><polygon fill="#181818" points="387.27,125.99,396.55,122.6914,390.8951,122.5463,391.0401,116.8913,387.27,125.99" style="stroke:#181818;stroke-width:1.0;"/><text fill="#000000" font-family="sans-serif" font-size="13" lengthAdjust="spacing" textLength="79" x="461" y="70.4951">iniciarJornada</text></g><!--link *start* to Cerrada--><g id="link_*start*_Cerrada"><path d="M511.12,20.44 C542.04,32.77 641,77.86 641,150 C641,150 641,150 641,864 C641,900.23 640.3275,936.2116 639.7375,961.9416 " fill="none" id="*start*-to-Cerrada" style="stroke:#181818;stroke-width:1.0;"/><polygon fill="#181818" points="639.6,967.94,643.8053,959.0341,639.7146,962.9413,635.8074,958.8507,639.6,967.94" style="stroke:#181818;stroke-width:1.0;"/><text fill="#000000" font-family="sans-serif" font-size="13" lengthAdjust="spacing" textLength="93" x="642" y="502.4951">noIniciarJornada</text></g><!--link Abierta to ClienteEsperando--><g id="link_Abierta_ClienteEsperando"><path d="M362,176.1 C362,204.09 362,243.99 362,271.96 " fill="none" id="Abierta-to-ClienteEsperando" style="stroke:#181818;stroke-width:1.0;"/><polygon fill="#181818" points="362,277.96,366,268.96,362,272.96,358,268.96,362,277.96" style="stroke:#181818;stroke-width:1.0;"/><text fill="#000000" font-family="sans-serif" font-size="13" lengthAdjust="spacing" textLength="69" x="363" y="222.4951">clienteLlega</text></g><!--link Abierta to RevisadoStock--><g id="link_Abierta_RevisadoStock"><path d="M329.34,171.65 C313.94,181.63 295.75,194.49 281,208 C257.7,229.34 238.6756,252.8618 223.8556,272.8318 " fill="none" id="Abierta-to-RevisadoStock" style="stroke:#181818;stroke-width:1.0;"/><polygon fill="#181818" points="220.28,277.65,228.8556,272.8065,223.2597,273.6349,222.4313,268.039,220.28,277.65" style="stroke:#181818;stroke-width:1.0;"/><text fill="#000000" font-family="sans-serif" font-size="13" lengthAdjust="spacing" textLength="71" x="282" y="222.4951">revisarStock</text></g><!--link RevisadoStock to FaltaStock--><g id="link_RevisadoStock_FaltaStock"><path d="M206.08,328.29 C208.92,350.61 212.3343,377.5378 215.1643,399.8278 " fill="none" id="RevisadoStock-to-FaltaStock" style="stroke:#181818;stroke-width:1.0;"/><polygon fill="#181818" points="215.92,405.78,218.7546,396.3479,215.2902,400.8198,210.8183,397.3555,215.92,405.78" style="stroke:#181818;stroke-width:1.0;"/><text fill="#000000" font-family="sans-serif" font-size="13" lengthAdjust="spacing" textLength="58" x="212" y="372.4951">stockBajo</text></g><!--link RevisadoStock to SuficienteStock--><g id="link_RevisadoStock_SuficienteStock"><path d="M179.69,328.18 C170.72,337.5 160.38,348.24 151,358 C135.65,373.98 122.5488,387.6456 109.1388,401.6556 " fill="none" id="RevisadoStock-to-SuficienteStock" style="stroke:#181818;stroke-width:1.0;"/><polygon fill="#181818" points="104.99,405.99,114.1028,402.2542,108.4473,402.378,108.3236,396.7225,104.99,405.99" style="stroke:#181818;stroke-width:1.0;"/><text fill="#000000" font-family="sans-serif" font-size="13" lengthAdjust="spacing" textLength="49" x="152" y="372.4951">stockOk</text></g><!--link FaltaStock to PedidoRealizado--><g id="link_FaltaStock_PedidoRealizado"><path d="M223.66,456.1 C229.07,484.09 236.8126,524.0988 242.2126,552.0688 " fill="none" id="FaltaStock-to-PedidoRealizado" style="stroke:#181818;stroke-width:1.0;"/><polygon fill="#181818" points="243.35,557.96,245.5714,548.3649,242.4022,553.0507,237.7165,549.8814,243.35,557.96" style="stroke:#181818;stroke-width:1.0;"/><text fill="#000000" font-family="sans-serif" font-size="13" lengthAdjust="spacing" textLength="82" x="233" y="502.4951">realizarPedido</text></g><!--link PedidoRealizado to SuficienteStock--><g id="link_PedidoRealizado_SuficienteStock"><path d="M221.31,557.88 C204.22,543.48 181.01,525.77 158,514 C147.24,508.49 141.72,513.2 132,506 C114.68,493.17 104.2096,477.7773 95.7096,461.5173 " fill="none" id="PedidoRealizado-to-SuficienteStock" style="stroke:#181818;stroke-width:1.0;"/><polygon fill="#181818" points="92.93,456.2,93.5546,466.029,95.2464,460.6311,100.6443,462.3228,92.93,456.2" style="stroke:#181818;stroke-width:1.0;"/><text fill="#000000" font-family="sans-serif" font-size="13" lengthAdjust="spacing" textLength="88" x="133" y="502.4951">pedidoRecibido</text></g><!--link ClienteEsperando to MenuListo--><g id="link_ClienteEsperando_MenuListo"><path d="M380.01,328.23 C391.63,342.97 407.61,361.67 424,376 C436.43,386.86 446.1334,393.956 459.7534,402.596 " fill="none" id="ClienteEsperando-to-MenuListo" style="stroke:#181818;stroke-width:1.0;"/><polygon fill="#181818" points="464.82,405.81,459.3628,397.6113,460.5979,403.1316,455.0775,404.3667,464.82,405.81" style="stroke:#181818;stroke-width:1.0;"/><text fill="#000000" font-family="sans-serif" font-size="13" lengthAdjust="spacing" textLength="78" x="425" y="372.4951">mirandoMenu</text></g><!--link CreandoMenu to MenuListo--><g id="link_CreandoMenu_MenuListo"><path d="M516.69,328.29 C514.56,350.61 511.9981,377.517 509.8781,399.807 " fill="none" id="CreandoMenu-to-MenuListo" style="stroke:#181818;stroke-width:1.0;"/><polygon fill="#181818" points="509.31,405.78,514.1442,397.1992,509.7834,400.8025,506.1801,396.4417,509.31,405.78" style="stroke:#181818;stroke-width:1.0;"/><text fill="#000000" font-family="sans-serif" font-size="13" lengthAdjust="spacing" textLength="73" x="514" y="372.4951">menuCreado</text></g><!--link MenuListo to PlatoEscogido--><g id="link_MenuListo_PlatoEscogido"><path d="M508.93,456.1 C511.17,484.09 514.361,524.0091 516.601,551.9791 " fill="none" id="MenuListo-to-PlatoEscogido" style="stroke:#181818;stroke-width:1.0;"/><polygon fill="#181818" points="517.08,557.96,520.3488,548.6694,516.6808,552.976,512.3743,549.308,517.08,557.96" style="stroke:#181818;stroke-width:1.0;"/><text fill="#000000" font-family="sans-serif" font-size="13" lengthAdjust="spacing" textLength="67" x="513" y="502.4951">clienteElige</text></g><!--link DineroDisponible to CreandoMenu--><g id="link_DineroDisponible_CreandoMenu"><path d="M519,176.1 C519,204.09 519,243.99 519,271.96 " fill="none" id="DineroDisponible-to-CreandoMenu" style="stroke:#181818;stroke-width:1.0;"/><polygon fill="#181818" points="519,277.96,523,268.96,519,272.96,515,268.96,519,277.96" style="stroke:#181818;stroke-width:1.0;"/><text fill="#000000" font-family="sans-serif" font-size="13" lengthAdjust="spacing" textLength="39" x="520" y="222.4951">ajustar</text></g><!--link SuficienteStock to OrganizadoIngredientesYPlato--><g id="link_SuficienteStock_OrganizadoIngredientesYPlato"><path d="M71.79,456.26 C56.36,497.23 32.88,580.64 73,632 C109.94,679.29 261.4624,707.0588 369.8624,721.4788 " fill="none" id="SuficienteStock-to-OrganizadoIngredientesYPlato" style="stroke:#181818;stroke-width:1.0;"/><polygon fill="#181818" points="375.81,722.27,367.416,717.1182,370.8537,721.6107,366.3611,725.0483,375.81,722.27" style="stroke:#181818;stroke-width:1.0;"/><text fill="#000000" font-family="sans-serif" font-size="13" lengthAdjust="spacing" textLength="94" x="74" y="588.4951">elegirIngrdientes</text></g><!--link PlatoEscogido to OrganizadoIngredientesYPlato--><g id="link_PlatoEscogido_OrganizadoIngredientesYPlato"><path d="M513.06,608.1 C506.15,636.09 496.2671,676.1646 489.3671,704.1346 " fill="none" id="PlatoEscogido-to-OrganizadoIngredientesYPlato" style="stroke:#181818;stroke-width:1.0;"/><polygon fill="#181818" points="487.93,709.96,493.9692,702.18,489.1276,705.1055,486.202,700.2639,487.93,709.96" style="stroke:#181818;stroke-width:1.0;"/><text fill="#000000" font-family="sans-serif" font-size="13" lengthAdjust="spacing" textLength="71" x="505" y="654.4951">platoElegido</text></g><!--link OrganizadoIngredientesYPlato to Cocinado--><g id="link_OrganizadoIngredientesYPlato_Cocinado"><path d="M482.96,760.29 C483.85,782.61 484.9106,809.4948 485.8006,831.7848 " fill="none" id="OrganizadoIngredientesYPlato-to-Cocinado" style="stroke:#181818;stroke-width:1.0;"/><polygon fill="#181818" points="486.04,837.78,489.6777,828.6276,485.8405,832.784,481.6841,828.9468,486.04,837.78" style="stroke:#181818;stroke-width:1.0;"/><text fill="#000000" font-family="sans-serif" font-size="13" lengthAdjust="spacing" textLength="59" x="485" y="804.4951">cocinando</text></g><!--link Cocinado to Servido--><g id="link_Cocinado_Servido"><path d="M494.52,888.08 C501.63,910.82 510.4405,939.0231 517.5805,961.8731 " fill="none" id="Cocinado-to-Servido" style="stroke:#181818;stroke-width:1.0;"/><polygon fill="#181818" points="519.37,967.6,520.5037,957.8166,517.8787,962.8276,512.8678,960.2026,519.37,967.6" style="stroke:#181818;stroke-width:1.0;"/><text fill="#000000" font-family="sans-serif" font-size="13" lengthAdjust="spacing" textLength="70" x="510" y="934.4951">darAlCliente</text></g><!--link Servido to *end*--><g id="link_Servido_*end*"><path d="M525.5,1018.24 C525.59,1032.81 527.51,1051.32 535,1066 C542.88,1081.45 554.3261,1090.6006 564.7261,1097.3006 " fill="none" id="Servido-to-*end*" style="stroke:#181818;stroke-width:1.0;"/><polygon fill="#181818" points="569.77,1100.55,564.3704,1092.3132,565.5667,1097.8421,560.0378,1099.0384,569.77,1100.55" style="stroke:#181818;stroke-width:1.0;"/><text fill="#000000" font-family="sans-serif" font-size="13" lengthAdjust="spacing" textLength="70" x="536" y="1062.4951">clienteSeVa</text></g><!--link Cerrada to *end*--><g id="link_Cerrada_*end*"><path d="M631.66,1018.18 C626.79,1032.56 619.71,1050.89 611,1066 C603.9,1078.33 597.2272,1086.4497 590.1872,1094.1197 " fill="none" id="Cerrada-to-*end*" style="stroke:#181818;stroke-width:1.0;"/><polygon fill="#181818" points="586.13,1098.54,595.1627,1094.6144,589.511,1094.8564,589.269,1089.2047,586.13,1098.54" style="stroke:#181818;stroke-width:1.0;"/></g><!--SRC=[ZLF1JiCm3BtdAt96sW_iW3JOG4EWJPk4X2OENcigRoMfd7O74F-EusHZwmQYboP-po_FThAwUhM3mRKThGcv1JkqvAWWu0VF3aemgqouHMRP2y7vwIbbdwkqcj2rE0aDChZI3ssH8eyrLc2C2IsqQEynjEJTrEq40oPlFusLxrXgWJiAKFfbwukjdCkwPzqg-PGGK-wWRc7F3_5_0nl_2tdPlKaPqTj9ncnhldesv-ntYANdxFBec2Wqnv9Alq2ewKDEKAkwveHeJfzqsK6JMGMjOsBVo1EwBdleDre58_v8KeP8lPF6OoWbYAcyF-VAEkBPwm-avTNG-aaeV4LQN1xefAOABxGAGzTq69EJqJ4vP3-cq7X7wnhJDVanCxImwKI3pxIa3IXt8SdqUnLLPbo1qtPENSNIkWY75pKiHb6k7764Cf86SLBEFsGQJOXQkJr_yhKwNv1BDw7GfKkpFCHr-CYxrD0IU5JdUPfzE5BYsplqUudFOFQlCAFc6m00]--></g></svg>