<?xml version="1.0" encoding="us-ascii" standalone="no"?><svg xmlns="http://www.w3.org/2000/svg" xmlns:xlink="http://www.w3.org/1999/xlink" contentStyleType="text/css" height="794px" preserveAspectRatio="none" style="width:246px;height:794px;background:#FFFFFF;" version="1.1" viewBox="0 0 246 794" width="246px" zoomAndPan="magnify"><defs/><g><!--class Presupuesto--><g id="elem_Presupuesto"><rect codeLine="2" fill="#F1F1F1" height="83.2188" id="Presupuesto" rx="2.5" ry="2.5" style="stroke:#181818;stroke-width:0.5;" width="125" x="78" y="7"/><ellipse cx="98.85" cy="23" fill="#ADD1B2" rx="11" ry="11" style="stroke:#181818;stroke-width:1.0;"/><path d="M101.6156,18.875 Q101.7719,18.6563 101.9594,18.5469 Q102.1469,18.4375 102.3656,18.4375 Q102.7406,18.4375 102.975,18.7031 Q103.2094,18.9531 103.2094,19.5625 L103.2094,21.0156 Q103.2094,21.625 102.975,21.8906 Q102.7406,22.1563 102.3656,22.1563 Q102.0219,22.1563 101.8188,21.9531 Q101.6156,21.7656 101.5063,21.25 Q101.4594,20.8906 101.2719,20.7031 Q100.9438,20.3281 100.3344,20.1094 Q99.725,19.8906 99.1,19.8906 Q98.3344,19.8906 97.6938,20.2188 Q97.0688,20.5469 96.5688,21.2969 Q96.0844,22.0469 96.0844,23.0781 L96.0844,24.1719 Q96.0844,25.4063 96.975,26.2344 Q97.8656,27.0469 99.4594,27.0469 Q100.3969,27.0469 101.0531,26.7969 Q101.4438,26.6406 101.8656,26.2031 Q102.1313,25.9375 102.2719,25.8594 Q102.4281,25.7813 102.6313,25.7813 Q102.9594,25.7813 103.2094,26.0469 Q103.475,26.2969 103.475,26.6406 Q103.475,26.9844 103.1313,27.3906 Q102.6313,27.9688 101.8344,28.2969 Q100.7563,28.75 99.4594,28.75 Q97.9438,28.75 96.7406,28.125 Q95.7563,27.625 95.0688,26.5625 Q94.3813,25.4844 94.3813,24.2031 L94.3813,23.0469 Q94.3813,21.7188 94.9906,20.5781 Q95.6156,19.4219 96.7094,18.8125 Q97.8031,18.1875 99.0375,18.1875 Q99.7719,18.1875 100.4125,18.3594 Q101.0688,18.5156 101.6156,18.875 Z " fill="#000000"/><text fill="#000000" font-family="sans-serif" font-size="14" lengthAdjust="spacing" textLength="80" x="114.15" y="28.7285">Presupuesto</text><line style="stroke:#181818;stroke-width:0.5;" x1="79" x2="202" y1="39" y2="39"/><text fill="#000000" font-family="sans-serif" font-size="14" lengthAdjust="spacing" textLength="113" x="84" y="57.5332">periodoDeTiempo</text><text fill="#000000" font-family="sans-serif" font-size="14" lengthAdjust="spacing" textLength="66" x="84" y="75.1426">costoTotal</text><line style="stroke:#181818;stroke-width:0.5;" x1="79" x2="202" y1="82.2188" y2="82.2188"/></g><!--class Proveedor--><g id="elem_Proveedor"><rect codeLine="7" fill="#F1F1F1" height="118.4375" id="Proveedor" rx="2.5" ry="2.5" style="stroke:#181818;stroke-width:0.5;" width="98" x="36.5" y="168"/><ellipse cx="51.5" cy="184" fill="#ADD1B2" rx="11" ry="11" style="stroke:#181818;stroke-width:1.0;"/><path d="M54.2656,179.875 Q54.4219,179.6563 54.6094,179.5469 Q54.7969,179.4375 55.0156,179.4375 Q55.3906,179.4375 55.625,179.7031 Q55.8594,179.9531 55.8594,180.5625 L55.8594,182.0156 Q55.8594,182.625 55.625,182.8906 Q55.3906,183.1563 55.0156,183.1563 Q54.6719,183.1563 54.4688,182.9531 Q54.2656,182.7656 54.1563,182.25 Q54.1094,181.8906 53.9219,181.7031 Q53.5938,181.3281 52.9844,181.1094 Q52.375,180.8906 51.75,180.8906 Q50.9844,180.8906 50.3438,181.2188 Q49.7188,181.5469 49.2188,182.2969 Q48.7344,183.0469 48.7344,184.0781 L48.7344,185.1719 Q48.7344,186.4063 49.625,187.2344 Q50.5156,188.0469 52.1094,188.0469 Q53.0469,188.0469 53.7031,187.7969 Q54.0938,187.6406 54.5156,187.2031 Q54.7813,186.9375 54.9219,186.8594 Q55.0781,186.7813 55.2813,186.7813 Q55.6094,186.7813 55.8594,187.0469 Q56.125,187.2969 56.125,187.6406 Q56.125,187.9844 55.7813,188.3906 Q55.2813,188.9688 54.4844,189.2969 Q53.4063,189.75 52.1094,189.75 Q50.5938,189.75 49.3906,189.125 Q48.4063,188.625 47.7188,187.5625 Q47.0313,186.4844 47.0313,185.2031 L47.0313,184.0469 Q47.0313,182.7188 47.6406,181.5781 Q48.2656,180.4219 49.3594,179.8125 Q50.4531,179.1875 51.6875,179.1875 Q52.4219,179.1875 53.0625,179.3594 Q53.7188,179.5156 54.2656,179.875 Z " fill="#000000"/><text fill="#000000" font-family="sans-serif" font-size="14" lengthAdjust="spacing" textLength="66" x="65.5" y="189.7285">Proveedor</text><line style="stroke:#181818;stroke-width:0.5;" x1="37.5" x2="133.5" y1="200" y2="200"/><text fill="#000000" font-family="sans-serif" font-size="14" lengthAdjust="spacing" textLength="48" x="42.5" y="218.5332">nombre</text><text fill="#000000" font-family="sans-serif" font-size="14" lengthAdjust="spacing" textLength="51" x="42.5" y="236.1426">telefono</text><text fill="#000000" font-family="sans-serif" font-size="14" lengthAdjust="spacing" textLength="57" x="42.5" y="253.752">direccion</text><text fill="#000000" font-family="sans-serif" font-size="14" lengthAdjust="spacing" textLength="63" x="42.5" y="271.3613">productos</text><line style="stroke:#181818;stroke-width:0.5;" x1="37.5" x2="133.5" y1="278.4375" y2="278.4375"/></g><!--class Inventario--><g id="elem_Inventario"><rect codeLine="14" fill="#F1F1F1" height="65.6094" id="Inventario" rx="2.5" ry="2.5" style="stroke:#181818;stroke-width:0.5;" width="94" x="26.5" y="364"/><ellipse cx="41.5" cy="380" fill="#ADD1B2" rx="11" ry="11" style="stroke:#181818;stroke-width:1.0;"/><path d="M44.2656,375.875 Q44.4219,375.6563 44.6094,375.5469 Q44.7969,375.4375 45.0156,375.4375 Q45.3906,375.4375 45.625,375.7031 Q45.8594,375.9531 45.8594,376.5625 L45.8594,378.0156 Q45.8594,378.625 45.625,378.8906 Q45.3906,379.1563 45.0156,379.1563 Q44.6719,379.1563 44.4688,378.9531 Q44.2656,378.7656 44.1563,378.25 Q44.1094,377.8906 43.9219,377.7031 Q43.5938,377.3281 42.9844,377.1094 Q42.375,376.8906 41.75,376.8906 Q40.9844,376.8906 40.3438,377.2188 Q39.7188,377.5469 39.2188,378.2969 Q38.7344,379.0469 38.7344,380.0781 L38.7344,381.1719 Q38.7344,382.4063 39.625,383.2344 Q40.5156,384.0469 42.1094,384.0469 Q43.0469,384.0469 43.7031,383.7969 Q44.0938,383.6406 44.5156,383.2031 Q44.7813,382.9375 44.9219,382.8594 Q45.0781,382.7813 45.2813,382.7813 Q45.6094,382.7813 45.8594,383.0469 Q46.125,383.2969 46.125,383.6406 Q46.125,383.9844 45.7813,384.3906 Q45.2813,384.9688 44.4844,385.2969 Q43.4063,385.75 42.1094,385.75 Q40.5938,385.75 39.3906,385.125 Q38.4063,384.625 37.7188,383.5625 Q37.0313,382.4844 37.0313,381.2031 L37.0313,380.0469 Q37.0313,378.7188 37.6406,377.5781 Q38.2656,376.4219 39.3594,375.8125 Q40.4531,375.1875 41.6875,375.1875 Q42.4219,375.1875 43.0625,375.3594 Q43.7188,375.5156 44.2656,375.875 Z " fill="#000000"/><text fill="#000000" font-family="sans-serif" font-size="14" lengthAdjust="spacing" textLength="62" x="55.5" y="385.7285">Inventario</text><line style="stroke:#181818;stroke-width:0.5;" x1="27.5" x2="119.5" y1="396" y2="396"/><text fill="#000000" font-family="sans-serif" font-size="14" lengthAdjust="spacing" textLength="63" x="32.5" y="414.5332">productos</text><line style="stroke:#181818;stroke-width:0.5;" x1="27.5" x2="119.5" y1="421.6094" y2="421.6094"/></g><!--class Receta--><g id="elem_Receta"><rect codeLine="18" fill="#F1F1F1" height="118.4375" id="Receta" rx="2.5" ry="2.5" style="stroke:#181818;stroke-width:0.5;" width="131" x="7" y="508"/><ellipse cx="46.3" cy="524" fill="#ADD1B2" rx="11" ry="11" style="stroke:#181818;stroke-width:1.0;"/><path d="M49.0656,519.875 Q49.2219,519.6563 49.4094,519.5469 Q49.5969,519.4375 49.8156,519.4375 Q50.1906,519.4375 50.425,519.7031 Q50.6594,519.9531 50.6594,520.5625 L50.6594,522.0156 Q50.6594,522.625 50.425,522.8906 Q50.1906,523.1563 49.8156,523.1563 Q49.4719,523.1563 49.2688,522.9531 Q49.0656,522.7656 48.9563,522.25 Q48.9094,521.8906 48.7219,521.7031 Q48.3938,521.3281 47.7844,521.1094 Q47.175,520.8906 46.55,520.8906 Q45.7844,520.8906 45.1438,521.2188 Q44.5188,521.5469 44.0188,522.2969 Q43.5344,523.0469 43.5344,524.0781 L43.5344,525.1719 Q43.5344,526.4063 44.425,527.2344 Q45.3156,528.0469 46.9094,528.0469 Q47.8469,528.0469 48.5031,527.7969 Q48.8938,527.6406 49.3156,527.2031 Q49.5813,526.9375 49.7219,526.8594 Q49.8781,526.7813 50.0813,526.7813 Q50.4094,526.7813 50.6594,527.0469 Q50.925,527.2969 50.925,527.6406 Q50.925,527.9844 50.5813,528.3906 Q50.0813,528.9688 49.2844,529.2969 Q48.2063,529.75 46.9094,529.75 Q45.3938,529.75 44.1906,529.125 Q43.2063,528.625 42.5188,527.5625 Q41.8313,526.4844 41.8313,525.2031 L41.8313,524.0469 Q41.8313,522.7188 42.4406,521.5781 Q43.0656,520.4219 44.1594,519.8125 Q45.2531,519.1875 46.4875,519.1875 Q47.2219,519.1875 47.8625,519.3594 Q48.5188,519.5156 49.0656,519.875 Z " fill="#000000"/><text fill="#000000" font-family="sans-serif" font-size="14" lengthAdjust="spacing" textLength="45" x="65.7" y="529.7285">Receta</text><line style="stroke:#181818;stroke-width:0.5;" x1="8" x2="137" y1="540" y2="540"/><text fill="#000000" font-family="sans-serif" font-size="14" lengthAdjust="spacing" textLength="48" x="13" y="558.5332">nombre</text><text fill="#000000" font-family="sans-serif" font-size="14" lengthAdjust="spacing" textLength="103" x="13" y="576.1426">listaIngredientes</text><text fill="#000000" font-family="sans-serif" font-size="14" lengthAdjust="spacing" textLength="119" x="13" y="593.752">tiempoPreparacion</text><text fill="#000000" font-family="sans-serif" font-size="14" lengthAdjust="spacing" textLength="38" x="13" y="611.3613">pasos</text><line style="stroke:#181818;stroke-width:0.5;" x1="8" x2="137" y1="618.4375" y2="618.4375"/></g><!--class Menu--><g id="elem_Menu"><rect codeLine="25" fill="#F1F1F1" height="83.2188" id="Menu" rx="2.5" ry="2.5" style="stroke:#181818;stroke-width:0.5;" width="67" x="99" y="704"/><ellipse cx="114" cy="720" fill="#ADD1B2" rx="11" ry="11" style="stroke:#181818;stroke-width:1.0;"/><path d="M116.7656,715.875 Q116.9219,715.6563 117.1094,715.5469 Q117.2969,715.4375 117.5156,715.4375 Q117.8906,715.4375 118.125,715.7031 Q118.3594,715.9531 118.3594,716.5625 L118.3594,718.0156 Q118.3594,718.625 118.125,718.8906 Q117.8906,719.1563 117.5156,719.1563 Q117.1719,719.1563 116.9688,718.9531 Q116.7656,718.7656 116.6563,718.25 Q116.6094,717.8906 116.4219,717.7031 Q116.0938,717.3281 115.4844,717.1094 Q114.875,716.8906 114.25,716.8906 Q113.4844,716.8906 112.8438,717.2188 Q112.2188,717.5469 111.7188,718.2969 Q111.2344,719.0469 111.2344,720.0781 L111.2344,721.1719 Q111.2344,722.4063 112.125,723.2344 Q113.0156,724.0469 114.6094,724.0469 Q115.5469,724.0469 116.2031,723.7969 Q116.5938,723.6406 117.0156,723.2031 Q117.2813,722.9375 117.4219,722.8594 Q117.5781,722.7813 117.7813,722.7813 Q118.1094,722.7813 118.3594,723.0469 Q118.625,723.2969 118.625,723.6406 Q118.625,723.9844 118.2813,724.3906 Q117.7813,724.9688 116.9844,725.2969 Q115.9063,725.75 114.6094,725.75 Q113.0938,725.75 111.8906,725.125 Q110.9063,724.625 110.2188,723.5625 Q109.5313,722.4844 109.5313,721.2031 L109.5313,720.0469 Q109.5313,718.7188 110.1406,717.5781 Q110.7656,716.4219 111.8594,715.8125 Q112.9531,715.1875 114.1875,715.1875 Q114.9219,715.1875 115.5625,715.3594 Q116.2188,715.5156 116.7656,715.875 Z " fill="#000000"/><text fill="#000000" font-family="sans-serif" font-size="14" lengthAdjust="spacing" textLength="35" x="128" y="725.7285">Menu</text><line style="stroke:#181818;stroke-width:0.5;" x1="100" x2="165" y1="736" y2="736"/><text fill="#000000" font-family="sans-serif" font-size="14" lengthAdjust="spacing" textLength="45" x="105" y="754.5332">comida</text><text fill="#000000" font-family="sans-serif" font-size="14" lengthAdjust="spacing" textLength="39" x="105" y="772.1426">precio</text><line style="stroke:#181818;stroke-width:0.5;" x1="100" x2="165" y1="779.2188" y2="779.2188"/></g><!--reverse link Presupuesto to Proveedor--><g id="link_Presupuesto_Proveedor"><path codeLine="30" d="M124.1701,101.8967 C117.0001,124.9067 111.5,142.56 103.6,167.9 " fill="none" id="Presupuesto-backto-Proveedor" style="stroke:#181818;stroke-width:1.0;"/><polygon fill="#181818" points="127.74,90.44,122.1361,94.9784,124.1701,101.8967,129.7739,97.3583,127.74,90.44" style="stroke:#181818;stroke-width:1.0;"/><text fill="#000000" font-family="sans-serif" font-size="13" lengthAdjust="spacing" textLength="28" x="119.5" y="134.4951">paga</text></g><!--reverse link Proveedor to Inventario--><g id="link_Proveedor_Inventario"><path codeLine="31" d="M80.4824,298.2593 C78.6224,324.2193 77.37,341.85 75.8,363.75 " fill="none" id="Proveedor-backto-Inventario" style="stroke:#181818;stroke-width:1.0;"/><polygon fill="#181818" points="81.34,286.29,76.9214,291.9888,80.4824,298.2593,84.901,292.5605,81.34,286.29" style="stroke:#181818;stroke-width:1.0;"/><text fill="#000000" font-family="sans-serif" font-size="13" lengthAdjust="spacing" textLength="60" x="80.5" y="330.4951">suministra</text></g><!--reverse link Inventario to Receta--><g id="link_Inventario_Receta"><path codeLine="32" d="M70.2434,442.1342 C69.6134,451.7242 69.81,450.3 69.5,460 C69,475.55 69.16,492.38 69.59,507.96 " fill="none" id="Inventario-backto-Receta" style="stroke:#181818;stroke-width:1.0;"/><polygon fill="#181818" points="71.03,430.16,66.6453,435.8849,70.2434,442.1342,74.6281,436.4093,71.03,430.16" style="stroke:#181818;stroke-width:1.0;"/><text fill="#000000" font-family="sans-serif" font-size="13" lengthAdjust="spacing" textLength="94" x="70.5" y="474.4951">permite preparar</text></g><!--reverse link Receta to Menu--><g id="link_Receta_Menu"><path codeLine="33" d="M96.1731,637.6412 C104.8131,663.0512 110.86,680.85 118.68,703.85 " fill="none" id="Receta-backto-Menu" style="stroke:#181818;stroke-width:1.0;"/><polygon fill="#181818" points="92.31,626.28,90.4545,633.2483,96.1731,637.6412,98.0286,630.6729,92.31,626.28" style="stroke:#181818;stroke-width:1.0;"/><text fill="#000000" font-family="sans-serif" font-size="13" lengthAdjust="spacing" textLength="25" x="109.5" y="670.4951">crea</text></g><!--link Menu to Presupuesto--><g id="link_Menu_Presupuesto"><path codeLine="34" d="M154.47,703.7 C171.24,668.73 191.5,616.46 191.5,568 C191.5,226 191.5,226 191.5,226 C191.5,178 178.4493,136.5219 163.9293,101.3519 " fill="none" id="Menu-to-Presupuesto" style="stroke:#181818;stroke-width:1.0;"/><polygon fill="#181818" points="159.35,90.26,157.9424,97.3324,163.9293,101.3519,165.3369,94.2795,159.35,90.26" style="stroke:#181818;stroke-width:1.0;"/><text fill="#000000" font-family="sans-serif" font-size="13" lengthAdjust="spacing" textLength="46" x="192.5" y="402.4951">ajusta a</text></g><!--SRC=[PL5BRWCX3Drp2jQHvWAikycYKbNb0YwyHaG37Xd8fihT2mpH48MLPJ-_Zx4hfQI_1Abi1Icp_bEwlWtYsV47BXvXuzwpNESNphIgXr9sRF8TS2nZBtBu4VGoOyKlnttNUO6rdkFEBkoApPmEedEy8sQggay7xvXlM6HwLrfzodIELu7pbGHfr-_EQxIDX0vfIZFb9s8PX9Q3TpIqKHSQQhxCQLcclAPINKaTZJQUKXYTIl2nMXDIKx_1dabCktFm6KsnsHGr9XtLpHbj1QHwlIodbxyoccwbPjVq3m00]--></g></svg>