<?xml version="1.0" encoding="us-ascii" standalone="no"?><svg xmlns="http://www.w3.org/2000/svg" xmlns:xlink="http://www.w3.org/1999/xlink" contentStyleType="text/css" height="292px" preserveAspectRatio="none" style="width:287px;height:292px;background:#FFFFFF;" version="1.1" viewBox="0 0 287 292" width="287px" zoomAndPan="magnify"><defs/><g><!--class Receta--><g id="elem_Receta"><rect codeLine="2" fill="#F1F1F1" height="118.4375" id="Receta" rx="2.5" ry="2.5" style="stroke:#181818;stroke-width:0.5;" width="168" x="59.5" y="7"/><ellipse cx="116.75" cy="23" fill="#ADD1B2" rx="11" ry="11" style="stroke:#181818;stroke-width:1.0;"/><path d="M119.5156,18.875 Q119.6719,18.6563 119.8594,18.5469 Q120.0469,18.4375 120.2656,18.4375 Q120.6406,18.4375 120.875,18.7031 Q121.1094,18.9531 121.1094,19.5625 L121.1094,21.0156 Q121.1094,21.625 120.875,21.8906 Q120.6406,22.1563 120.2656,22.1563 Q119.9219,22.1563 119.7188,21.9531 Q119.5156,21.7656 119.4063,21.25 Q119.3594,20.8906 119.1719,20.7031 Q118.8438,20.3281 118.2344,20.1094 Q117.625,19.8906 117,19.8906 Q116.2344,19.8906 115.5938,20.2188 Q114.9688,20.5469 114.4688,21.2969 Q113.9844,22.0469 113.9844,23.0781 L113.9844,24.1719 Q113.9844,25.4063 114.875,26.2344 Q115.7656,27.0469 117.3594,27.0469 Q118.2969,27.0469 118.9531,26.7969 Q119.3438,26.6406 119.7656,26.2031 Q120.0313,25.9375 120.1719,25.8594 Q120.3281,25.7813 120.5313,25.7813 Q120.8594,25.7813 121.1094,26.0469 Q121.375,26.2969 121.375,26.6406 Q121.375,26.9844 121.0313,27.3906 Q120.5313,27.9688 119.7344,28.2969 Q118.6563,28.75 117.3594,28.75 Q115.8438,28.75 114.6406,28.125 Q113.6563,27.625 112.9688,26.5625 Q112.2813,25.4844 112.2813,24.2031 L112.2813,23.0469 Q112.2813,21.7188 112.8906,20.5781 Q113.5156,19.4219 114.6094,18.8125 Q115.7031,18.1875 116.9375,18.1875 Q117.6719,18.1875 118.3125,18.3594 Q118.9688,18.5156 119.5156,18.875 Z " fill="#000000"/><text fill="#000000" font-family="sans-serif" font-size="14" lengthAdjust="spacing" textLength="45" x="137.25" y="28.7285">Receta</text><line style="stroke:#181818;stroke-width:0.5;" x1="60.5" x2="226.5" y1="39" y2="39"/><rect fill="none" height="6" style="stroke:#C82930;stroke-width:1.0;" width="6" x="67.5" y="50.3047"/><text fill="#000000" font-family="sans-serif" font-size="14" lengthAdjust="spacing" textLength="93" x="79.5" y="57.5332">nombre: String</text><rect fill="none" height="6" style="stroke:#C82930;stroke-width:1.0;" width="6" x="67.5" y="67.9141"/><text fill="#000000" font-family="sans-serif" font-size="14" lengthAdjust="spacing" textLength="117" x="79.5" y="75.1426">descripcion: String</text><rect fill="none" height="6" style="stroke:#C82930;stroke-width:1.0;" width="6" x="67.5" y="85.5234"/><text fill="#000000" font-family="sans-serif" font-size="14" lengthAdjust="spacing" textLength="142" x="79.5" y="92.752">tiempoPreparacion: int</text><rect fill="none" height="6" style="stroke:#C82930;stroke-width:1.0;" width="6" x="67.5" y="103.1328"/><text fill="#000000" font-family="sans-serif" font-size="14" lengthAdjust="spacing" textLength="128" x="79.5" y="110.3613">instrucciones: String</text><line style="stroke:#181818;stroke-width:0.5;" x1="60.5" x2="226.5" y1="117.4375" y2="117.4375"/></g><!--class Ingrediente--><g id="elem_Ingrediente"><rect codeLine="9" fill="#F1F1F1" height="100.8281" id="Ingrediente" rx="2.5" ry="2.5" style="stroke:#181818;stroke-width:0.5;" width="119" x="7" y="185"/><ellipse cx="29.2" cy="201" fill="#ADD1B2" rx="11" ry="11" style="stroke:#181818;stroke-width:1.0;"/><path d="M31.9656,196.875 Q32.1219,196.6563 32.3094,196.5469 Q32.4969,196.4375 32.7156,196.4375 Q33.0906,196.4375 33.325,196.7031 Q33.5594,196.9531 33.5594,197.5625 L33.5594,199.0156 Q33.5594,199.625 33.325,199.8906 Q33.0906,200.1563 32.7156,200.1563 Q32.3719,200.1563 32.1688,199.9531 Q31.9656,199.7656 31.8563,199.25 Q31.8094,198.8906 31.6219,198.7031 Q31.2938,198.3281 30.6844,198.1094 Q30.075,197.8906 29.45,197.8906 Q28.6844,197.8906 28.0438,198.2188 Q27.4188,198.5469 26.9188,199.2969 Q26.4344,200.0469 26.4344,201.0781 L26.4344,202.1719 Q26.4344,203.4063 27.325,204.2344 Q28.2156,205.0469 29.8094,205.0469 Q30.7469,205.0469 31.4031,204.7969 Q31.7938,204.6406 32.2156,204.2031 Q32.4813,203.9375 32.6219,203.8594 Q32.7781,203.7813 32.9813,203.7813 Q33.3094,203.7813 33.5594,204.0469 Q33.825,204.2969 33.825,204.6406 Q33.825,204.9844 33.4813,205.3906 Q32.9813,205.9688 32.1844,206.2969 Q31.1063,206.75 29.8094,206.75 Q28.2938,206.75 27.0906,206.125 Q26.1063,205.625 25.4188,204.5625 Q24.7313,203.4844 24.7313,202.2031 L24.7313,201.0469 Q24.7313,199.7188 25.3406,198.5781 Q25.9656,197.4219 27.0594,196.8125 Q28.1531,196.1875 29.3875,196.1875 Q30.1219,196.1875 30.7625,196.3594 Q31.4188,196.5156 31.9656,196.875 Z " fill="#000000"/><text fill="#000000" font-family="sans-serif" font-size="14" lengthAdjust="spacing" textLength="71" x="44.8" y="206.7285">Ingrediente</text><line style="stroke:#181818;stroke-width:0.5;" x1="8" x2="125" y1="217" y2="217"/><rect fill="none" height="6" style="stroke:#C82930;stroke-width:1.0;" width="6" x="15" y="228.3047"/><text fill="#000000" font-family="sans-serif" font-size="14" lengthAdjust="spacing" textLength="93" x="27" y="235.5332">nombre: String</text><rect fill="none" height="6" style="stroke:#C82930;stroke-width:1.0;" width="6" x="15" y="245.9141"/><text fill="#000000" font-family="sans-serif" font-size="14" lengthAdjust="spacing" textLength="89" x="27" y="253.1426">cantidad: float</text><rect fill="none" height="6" style="stroke:#C82930;stroke-width:1.0;" width="6" x="15" y="263.5234"/><text fill="#000000" font-family="sans-serif" font-size="14" lengthAdjust="spacing" textLength="88" x="27" y="270.752">unidad: String</text><line style="stroke:#181818;stroke-width:0.5;" x1="8" x2="125" y1="277.8281" y2="277.8281"/></g><!--class Categoria--><g id="elem_Categoria"><rect codeLine="15" fill="#F1F1F1" height="65.6094" id="Categoria" rx="2.5" ry="2.5" style="stroke:#181818;stroke-width:0.5;" width="119" x="161" y="202.5"/><ellipse cx="187.25" cy="218.5" fill="#ADD1B2" rx="11" ry="11" style="stroke:#181818;stroke-width:1.0;"/><path d="M190.0156,214.375 Q190.1719,214.1563 190.3594,214.0469 Q190.5469,213.9375 190.7656,213.9375 Q191.1406,213.9375 191.375,214.2031 Q191.6094,214.4531 191.6094,215.0625 L191.6094,216.5156 Q191.6094,217.125 191.375,217.3906 Q191.1406,217.6563 190.7656,217.6563 Q190.4219,217.6563 190.2188,217.4531 Q190.0156,217.2656 189.9063,216.75 Q189.8594,216.3906 189.6719,216.2031 Q189.3438,215.8281 188.7344,215.6094 Q188.125,215.3906 187.5,215.3906 Q186.7344,215.3906 186.0938,215.7188 Q185.4688,216.0469 184.9688,216.7969 Q184.4844,217.5469 184.4844,218.5781 L184.4844,219.6719 Q184.4844,220.9063 185.375,221.7344 Q186.2656,222.5469 187.8594,222.5469 Q188.7969,222.5469 189.4531,222.2969 Q189.8438,222.1406 190.2656,221.7031 Q190.5313,221.4375 190.6719,221.3594 Q190.8281,221.2813 191.0313,221.2813 Q191.3594,221.2813 191.6094,221.5469 Q191.875,221.7969 191.875,222.1406 Q191.875,222.4844 191.5313,222.8906 Q191.0313,223.4688 190.2344,223.7969 Q189.1563,224.25 187.8594,224.25 Q186.3438,224.25 185.1406,223.625 Q184.1563,223.125 183.4688,222.0625 Q182.7813,220.9844 182.7813,219.7031 L182.7813,218.5469 Q182.7813,217.2188 183.3906,216.0781 Q184.0156,214.9219 185.1094,214.3125 Q186.2031,213.6875 187.4375,213.6875 Q188.1719,213.6875 188.8125,213.8594 Q189.4688,214.0156 190.0156,214.375 Z " fill="#000000"/><text fill="#000000" font-family="sans-serif" font-size="14" lengthAdjust="spacing" textLength="62" x="203.75" y="224.2285">Categoria</text><line style="stroke:#181818;stroke-width:0.5;" x1="162" x2="279" y1="234.5" y2="234.5"/><rect fill="none" height="6" style="stroke:#C82930;stroke-width:1.0;" width="6" x="169" y="245.8047"/><text fill="#000000" font-family="sans-serif" font-size="14" lengthAdjust="spacing" textLength="93" x="181" y="253.0332">nombre: String</text><line style="stroke:#181818;stroke-width:0.5;" x1="162" x2="279" y1="260.1094" y2="260.1094"/></g><!--reverse link Receta to Ingrediente--><g id="link_Receta_Ingrediente"><path codeLine="19" d="M111.778,136.0132 C102.828,155.4832 97.95,166.09 89.33,184.84 " fill="none" id="Receta-backto-Ingrediente" style="stroke:#181818;stroke-width:1.0;"/><polygon fill="#181818" points="116.79,125.11,110.6496,128.8909,111.778,136.0132,117.9184,132.2323,116.79,125.11" style="stroke:#181818;stroke-width:1.0;"/><text fill="#000000" font-family="sans-serif" font-size="13" lengthAdjust="spacing" textLength="7" x="106.1082" y="146.7789">1</text><text fill="#000000" font-family="sans-serif" font-size="13" lengthAdjust="spacing" textLength="5" x="87.1889" y="174.1229">*</text></g><!--link Receta to Categoria--><g id="link_Receta_Categoria"><path codeLine="20" d="M170.21,125.11 C182.12,151 195.68,180.51 205.72,202.35 " fill="none" id="Receta-Categoria" style="stroke:#181818;stroke-width:1.0;"/><text fill="#000000" font-family="sans-serif" font-size="13" lengthAdjust="spacing" textLength="7" x="166.0387" y="146.7789">1</text><text fill="#000000" font-family="sans-serif" font-size="13" lengthAdjust="spacing" textLength="5" x="197.156" y="191.4345">*</text></g><!--SRC=[TO-n3e9038RtUuhcHX86LrOdDwDFK7kLD84UwPN9-Eue488chD_N_krF7PO2DoPsX5S0g45p_p1kuEucsiueSI6JWIJh3tVXViXNum4D5olgin8jRYDz8PTjwHq2pHSlsXedONK-FakeBWbJ0yykuv8xwaB-0y_et6QJWnQVkRLaF4MewXfY5VTVxFLgjyWm0G00]--></g></svg>