<?xml version="1.0" encoding="us-ascii" standalone="no"?><svg xmlns="http://www.w3.org/2000/svg" xmlns:xlink="http://www.w3.org/1999/xlink" contentStyleType="text/css" height="772px" preserveAspectRatio="none" style="width:342px;height:772px;background:#FFFFFF;" version="1.1" viewBox="0 0 342 772" width="342px" zoomAndPan="magnify"><defs/><g><ellipse cx="118.95" cy="16" fill="#222222" rx="10" ry="10" style="stroke:#222222;stroke-width:1.0;"/><g id="Iniciado"><rect fill="#F1F1F1" height="50" rx="12.5" ry="12.5" style="stroke:#181818;stroke-width:0.5;" width="68" x="84.95" y="104"/><line style="stroke:#181818;stroke-width:0.5;" x1="84.95" x2="152.95" y1="131.6094" y2="131.6094"/><text fill="#000000" font-family="sans-serif" font-size="14" lengthAdjust="spacing" textLength="48" x="94.95" y="123.5332">Iniciado</text></g><g id="Editado"><rect fill="#F1F1F1" height="50" rx="12.5" ry="12.5" style="stroke:#181818;stroke-width:0.5;" width="68" x="84.95" y="232"/><line style="stroke:#181818;stroke-width:0.5;" x1="84.95" x2="152.95" y1="259.6094" y2="259.6094"/><text fill="#000000" font-family="sans-serif" font-size="14" lengthAdjust="spacing" textLength="48" x="94.95" y="251.5332">Editado</text></g><g id="Terminado"><rect fill="#F1F1F1" height="50" rx="12.5" ry="12.5" style="stroke:#181818;stroke-width:0.5;" width="88" x="74.95" y="360"/><line style="stroke:#181818;stroke-width:0.5;" x1="74.95" x2="162.95" y1="387.6094" y2="387.6094"/><text fill="#000000" font-family="sans-serif" font-size="14" lengthAdjust="spacing" textLength="68" x="84.95" y="379.5332">Terminado</text></g><g id="Archivado"><rect fill="#F1F1F1" height="50" rx="12.5" ry="12.5" style="stroke:#181818;stroke-width:0.5;" width="83" x="77.45" y="488"/><line style="stroke:#181818;stroke-width:0.5;" x1="77.45" x2="160.45" y1="515.6094" y2="515.6094"/><text fill="#000000" font-family="sans-serif" font-size="14" lengthAdjust="spacing" textLength="63" x="87.45" y="507.5332">Archivado</text></g><g id="Eliminado"><rect fill="#F1F1F1" height="50" rx="12.5" ry="12.5" style="stroke:#181818;stroke-width:0.5;" width="81" x="78.45" y="616"/><line style="stroke:#181818;stroke-width:0.5;" x1="78.45" x2="159.45" y1="643.6094" y2="643.6094"/><text fill="#000000" font-family="sans-serif" font-size="14" lengthAdjust="spacing" textLength="61" x="88.45" y="635.5332">Eliminado</text></g><ellipse cx="118.95" cy="755" fill="none" rx="11" ry="11" style="stroke:#222222;stroke-width:1.0;"/><ellipse cx="118.95" cy="755" fill="#222222" rx="6" ry="6" style="stroke:#222222;stroke-width:1.0;"/><!--link *start* to Iniciado--><g id="link_*start*_Iniciado"><path d="M118.95,26.08 C118.95,42.86 118.95,73.22 118.95,97.65 " fill="none" id="*start*-to-Iniciado" style="stroke:#181818;stroke-width:1.0;"/><polygon fill="#181818" points="118.95,103.65,122.95,94.65,118.95,98.65,114.95,94.65,118.95,103.65" style="stroke:#181818;stroke-width:1.0;"/><text fill="#000000" font-family="sans-serif" font-size="13" lengthAdjust="spacing" textLength="106" x="119.95" y="70.4951">crear receta nueva</text></g><!--link Iniciado to Editado--><g id="link_Iniciado_Editado"><path d="M118.95,154.29 C118.95,176.61 118.95,203.49 118.95,225.78 " fill="none" id="Iniciado-to-Editado" style="stroke:#181818;stroke-width:1.0;"/><polygon fill="#181818" points="118.95,231.78,122.95,222.78,118.95,226.78,114.95,222.78,118.95,231.78" style="stroke:#181818;stroke-width:1.0;"/><text fill="#000000" font-family="sans-serif" font-size="13" lengthAdjust="spacing" textLength="215" x="119.95" y="198.4951">guardar borrador y continuar editando</text></g><!--link Editado to Editado--><g id="link_Editado_Editado"><path d="M153.03,245.5 C171.3,243.54 187.95,247.38 187.95,257 C187.95,266.62 177.2658,271.1 158.9958,269.14 " fill="none" id="Editado-to-Editado" style="stroke:#181818;stroke-width:1.0;"/><polygon fill="#181818" points="153.03,268.5,161.552,273.4372,158.0015,269.0333,162.4053,265.4828,153.03,268.5" style="stroke:#181818;stroke-width:1.0;"/><text fill="#000000" font-family="sans-serif" font-size="13" lengthAdjust="spacing" textLength="92" x="193.95" y="262.4951">modificar receta</text></g><!--link Editado to Terminado--><g id="link_Editado_Terminado"><path d="M84.71,267.23 C62.56,275.17 35.42,289.07 21.95,312 C6,339.12 36.4175,357.1123 68.9975,369.0723 " fill="none" id="Editado-to-Terminado" style="stroke:#181818;stroke-width:1.0;"/><polygon fill="#181818" points="74.63,371.14,67.5597,364.2835,69.9363,369.4169,64.8028,371.7935,74.63,371.14" style="stroke:#181818;stroke-width:1.0;"/><text fill="#000000" font-family="sans-serif" font-size="13" lengthAdjust="spacing" textLength="147" x="22.95" y="326.4951">guardar y finalizar edici&#243;n</text></g><!--link Terminado to Editado--><g id="link_Terminado_Editado"><path d="M155.49,359.76 C170.34,346.68 182.44,329.64 174.95,312 C170.09,300.56 165.8928,294.4462 156.8628,286.0862 " fill="none" id="Terminado-to-Editado" style="stroke:#181818;stroke-width:1.0;"/><polygon fill="#181818" points="152.46,282.01,156.3468,291.0595,156.129,285.4068,161.7817,285.189,152.46,282.01" style="stroke:#181818;stroke-width:1.0;"/><text fill="#000000" font-family="sans-serif" font-size="13" lengthAdjust="spacing" textLength="78" x="177.95" y="326.4951">volver a editar</text></g><!--link Terminado to Archivado--><g id="link_Terminado_Archivado"><path d="M78.19,410.03 C68.07,418.17 58.53,428.23 52.95,440 C43.94,459 54.2769,472.9896 72.3469,485.9696 " fill="none" id="Terminado-to-Archivado" style="stroke:#181818;stroke-width:1.0;"/><polygon fill="#181818" points="77.22,489.47,72.244,480.9706,73.1591,486.553,67.5767,487.4681,77.22,489.47" style="stroke:#181818;stroke-width:1.0;"/><text fill="#000000" font-family="sans-serif" font-size="13" lengthAdjust="spacing" textLength="84" x="53.95" y="454.4951">archivar receta</text></g><!--link Archivado to Terminado--><g id="link_Archivado_Terminado"><path d="M133.89,487.72 C140.63,473.94 146.39,456.24 142.95,440 C140.77,429.76 139.0957,424.529 134.7657,415.419 " fill="none" id="Archivado-to-Terminado" style="stroke:#181818;stroke-width:1.0;"/><polygon fill="#181818" points="132.19,410,132.4408,419.8457,134.3364,414.5159,139.6662,416.4114,132.19,410" style="stroke:#181818;stroke-width:1.0;"/><text fill="#000000" font-family="sans-serif" font-size="13" lengthAdjust="spacing" textLength="91" x="144.95" y="454.4951">restaurar receta</text></g><!--link Archivado to Eliminado--><g id="link_Archivado_Eliminado"><path d="M118.95,538.29 C118.95,560.61 118.95,587.49 118.95,609.78 " fill="none" id="Archivado-to-Eliminado" style="stroke:#181818;stroke-width:1.0;"/><polygon fill="#181818" points="118.95,615.78,122.95,606.78,118.95,610.78,114.95,606.78,118.95,615.78" style="stroke:#181818;stroke-width:1.0;"/><text fill="#000000" font-family="sans-serif" font-size="13" lengthAdjust="spacing" textLength="85" x="119.95" y="582.4951">eliminar receta</text></g><!--link Eliminado to *end*--><g id="link_Eliminado_*end*"><path d="M118.95,666.03 C118.95,690.19 118.95,720.31 118.95,737.79 " fill="none" id="Eliminado-to-*end*" style="stroke:#181818;stroke-width:1.0;"/><polygon fill="#181818" points="118.95,743.79,122.95,734.79,118.95,738.79,114.95,734.79,118.95,743.79" style="stroke:#181818;stroke-width:1.0;"/><text fill="#000000" font-family="sans-serif" font-size="13" lengthAdjust="spacing" textLength="95" x="119.95" y="710.4951">receta eliminada</text></g><!--SRC=[NP0n3i8m34NtdC8pKY_G0Oc1WPsjOZ292vRQH39ff78jZi35I0bD6ZRBVdx-ShUxGDFiuMHPCne7BMWX513Iv17iH06LokE5FHhs2RrDA2R2LoSIEm8pQ6SzszW7MZ1hd5hvUdTqXdlM-LI5dKb6jlMH6VhO6lYPt9hVBwjK8MjzS4CW0Kmnv8yxYBvpI2IcEkTGPVXL3foZKAepMfFRq48FZvDihCMpi5tyUxi- -QSrg3u0]--></g></svg>