<?xml version="1.0" encoding="us-ascii" standalone="no"?><svg xmlns="http://www.w3.org/2000/svg" xmlns:xlink="http://www.w3.org/1999/xlink" contentStyleType="text/css" height="675px" preserveAspectRatio="none" style="width:516px;height:675px;background:#FFFFFF;" version="1.1" viewBox="0 0 516 675" width="516px" zoomAndPan="magnify"><defs/><g><ellipse cx="274.5" cy="20" fill="#222222" rx="10" ry="10" style="stroke:#222222;stroke-width:1.0;"/><rect fill="#F1F1F1" height="35.0938" rx="12.5" ry="12.5" style="stroke:#181818;stroke-width:0.5;" width="76" x="236.5" y="50"/><text fill="#000000" font-family="sans-serif" font-size="12" lengthAdjust="spacing" textLength="56" x="246.5" y="72.457">Comienzo</text><rect fill="#F1F1F1" height="35.0938" rx="12.5" ry="12.5" style="stroke:#181818;stroke-width:0.5;" width="200" x="174.5" y="105.0938"/><text fill="#000000" font-family="sans-serif" font-size="12" lengthAdjust="spacing" textLength="180" x="184.5" y="127.5508">Selecciona opci&#243;n "Crear receta"</text><rect fill="#F1F1F1" height="35.0938" rx="12.5" ry="12.5" style="stroke:#181818;stroke-width:0.5;" width="292" x="128.5" y="160.1875"/><text fill="#000000" font-family="sans-serif" font-size="12" lengthAdjust="spacing" textLength="272" x="138.5" y="182.6445">Introduce nombre, descripci&#243;n, tiempo, porciones</text><rect fill="#F1F1F1" height="35.0938" rx="12.5" ry="12.5" style="stroke:#181818;stroke-width:0.5;" width="275" x="137" y="259.2813"/><text fill="#000000" font-family="sans-serif" font-size="12" lengthAdjust="spacing" textLength="255" x="147" y="281.7383">Agrega ingrediente (nombre, cantidad, unidad)</text><polygon fill="#F1F1F1" points="274.5,215.2813,286.5,227.2813,274.5,239.2813,262.5,227.2813,274.5,215.2813" style="stroke:#181818;stroke-width:0.5;"/><polygon fill="#F1F1F1" points="209.5,314.375,339.5,314.375,351.5,326.375,339.5,338.375,209.5,338.375,197.5,326.375,209.5,314.375" style="stroke:#181818;stroke-width:0.5;"/><text fill="#000000" font-family="sans-serif" font-size="11" lengthAdjust="spacing" textLength="130" x="209.5" y="330.876">&#191;Agregar otro ingrediente?</text><text fill="#000000" font-family="sans-serif" font-size="11" lengthAdjust="spacing" textLength="8" x="351.5" y="323.958">s&#237;</text><rect fill="#F1F1F1" height="35.0938" rx="12.5" ry="12.5" style="stroke:#181818;stroke-width:0.5;" width="208" x="170.5" y="358.375"/><text fill="#000000" font-family="sans-serif" font-size="12" lengthAdjust="spacing" textLength="188" x="180.5" y="380.832">Agrega instrucciones paso a paso</text><rect fill="#F1F1F1" height="35.0938" rx="12.5" ry="12.5" style="stroke:#181818;stroke-width:0.5;" width="204" x="172.5" y="413.4688"/><text fill="#000000" font-family="sans-serif" font-size="12" lengthAdjust="spacing" textLength="184" x="182.5" y="435.9258">Selecciona una o m&#225;s categor&#237;as</text><rect fill="#F1F1F1" height="35.0938" rx="12.5" ry="12.5" style="stroke:#181818;stroke-width:0.5;" width="111" x="219" y="468.5625"/><text fill="#000000" font-family="sans-serif" font-size="12" lengthAdjust="spacing" textLength="91" x="229" y="491.0195">Guarda la receta</text><polygon fill="#F1F1F1" points="236,523.6563,313,523.6563,325,535.6563,313,547.6563,236,547.6563,224,535.6563,236,523.6563" style="stroke:#181818;stroke-width:0.5;"/><text fill="#000000" font-family="sans-serif" font-size="11" lengthAdjust="spacing" textLength="77" x="236" y="540.1572">&#191;Datos v&#225;lidos?</text><text fill="#000000" font-family="sans-serif" font-size="11" lengthAdjust="spacing" textLength="8" x="216" y="533.2393">s&#237;</text><text fill="#000000" font-family="sans-serif" font-size="11" lengthAdjust="spacing" textLength="12" x="325" y="533.2393">no</text><rect fill="#F1F1F1" height="35.0938" rx="12.5" ry="12.5" style="stroke:#181818;stroke-width:0.5;" width="270" x="11" y="557.6563"/><text fill="#000000" font-family="sans-serif" font-size="12" lengthAdjust="spacing" textLength="250" x="21" y="580.1133">Mostrar mensaje "Receta guardada con &#233;xito"</text><rect fill="#F1F1F1" height="35.0938" rx="12.5" ry="12.5" style="stroke:#181818;stroke-width:0.5;" width="204" x="301" y="557.6563"/><text fill="#000000" font-family="sans-serif" font-size="12" lengthAdjust="spacing" textLength="184" x="311" y="580.1133">Mostrar error y solicitar correcci&#243;n</text><polygon fill="#F1F1F1" points="274.5,598.75,286.5,610.75,274.5,622.75,262.5,610.75,274.5,598.75" style="stroke:#181818;stroke-width:0.5;"/><ellipse cx="274.5" cy="653.75" fill="none" rx="11" ry="11" style="stroke:#222222;stroke-width:1.0;"/><ellipse cx="274.5" cy="653.75" fill="#222222" rx="6" ry="6" style="stroke:#222222;stroke-width:1.0;"/><line style="stroke:#181818;stroke-width:1.0;" x1="274.5" x2="274.5" y1="30" y2="50"/><polygon fill="#181818" points="270.5,40,274.5,50,278.5,40,274.5,44" style="stroke:#181818;stroke-width:1.0;"/><line style="stroke:#181818;stroke-width:1.0;" x1="274.5" x2="274.5" y1="85.0938" y2="105.0938"/><polygon fill="#181818" points="270.5,95.0938,274.5,105.0938,278.5,95.0938,274.5,99.0938" style="stroke:#181818;stroke-width:1.0;"/><line style="stroke:#181818;stroke-width:1.0;" x1="274.5" x2="274.5" y1="140.1875" y2="160.1875"/><polygon fill="#181818" points="270.5,150.1875,274.5,160.1875,278.5,150.1875,274.5,154.1875" style="stroke:#181818;stroke-width:1.0;"/><line style="stroke:#181818;stroke-width:1.0;" x1="274.5" x2="274.5" y1="239.2813" y2="259.2813"/><polygon fill="#181818" points="270.5,249.2813,274.5,259.2813,278.5,249.2813,274.5,253.2813" style="stroke:#181818;stroke-width:1.0;"/><line style="stroke:#181818;stroke-width:1.0;" x1="351.5" x2="424" y1="326.375" y2="326.375"/><polygon fill="#181818" points="420,286.8281,424,276.8281,428,286.8281,424,282.8281" style="stroke:#181818;stroke-width:1.0;"/><line style="stroke:#181818;stroke-width:1.0;" x1="424" x2="424" y1="227.2813" y2="326.375"/><line style="stroke:#181818;stroke-width:1.0;" x1="424" x2="286.5" y1="227.2813" y2="227.2813"/><polygon fill="#181818" points="296.5,223.2813,286.5,227.2813,296.5,231.2813,292.5,227.2813" style="stroke:#181818;stroke-width:1.0;"/><line style="stroke:#181818;stroke-width:1.0;" x1="274.5" x2="274.5" y1="294.375" y2="314.375"/><polygon fill="#181818" points="270.5,304.375,274.5,314.375,278.5,304.375,274.5,308.375" style="stroke:#181818;stroke-width:1.0;"/><line style="stroke:#181818;stroke-width:1.0;" x1="274.5" x2="274.5" y1="195.2813" y2="215.2813"/><polygon fill="#181818" points="270.5,205.2813,274.5,215.2813,278.5,205.2813,274.5,209.2813" style="stroke:#181818;stroke-width:1.0;"/><line style="stroke:#181818;stroke-width:1.0;" x1="274.5" x2="274.5" y1="338.375" y2="358.375"/><polygon fill="#181818" points="270.5,348.375,274.5,358.375,278.5,348.375,274.5,352.375" style="stroke:#181818;stroke-width:1.0;"/><line style="stroke:#181818;stroke-width:1.0;" x1="274.5" x2="274.5" y1="393.4688" y2="413.4688"/><polygon fill="#181818" points="270.5,403.4688,274.5,413.4688,278.5,403.4688,274.5,407.4688" style="stroke:#181818;stroke-width:1.0;"/><line style="stroke:#181818;stroke-width:1.0;" x1="274.5" x2="274.5" y1="448.5625" y2="468.5625"/><polygon fill="#181818" points="270.5,458.5625,274.5,468.5625,278.5,458.5625,274.5,462.5625" style="stroke:#181818;stroke-width:1.0;"/><line style="stroke:#181818;stroke-width:1.0;" x1="224" x2="146" y1="535.6563" y2="535.6563"/><line style="stroke:#181818;stroke-width:1.0;" x1="146" x2="146" y1="535.6563" y2="557.6563"/><polygon fill="#181818" points="142,547.6563,146,557.6563,150,547.6563,146,551.6563" style="stroke:#181818;stroke-width:1.0;"/><line style="stroke:#181818;stroke-width:1.0;" x1="325" x2="403" y1="535.6563" y2="535.6563"/><line style="stroke:#181818;stroke-width:1.0;" x1="403" x2="403" y1="535.6563" y2="557.6563"/><polygon fill="#181818" points="399,547.6563,403,557.6563,407,547.6563,403,551.6563" style="stroke:#181818;stroke-width:1.0;"/><line style="stroke:#181818;stroke-width:1.0;" x1="146" x2="146" y1="592.75" y2="610.75"/><line style="stroke:#181818;stroke-width:1.0;" x1="146" x2="262.5" y1="610.75" y2="610.75"/><polygon fill="#181818" points="252.5,606.75,262.5,610.75,252.5,614.75,256.5,610.75" style="stroke:#181818;stroke-width:1.0;"/><line style="stroke:#181818;stroke-width:1.0;" x1="403" x2="403" y1="592.75" y2="610.75"/><line style="stroke:#181818;stroke-width:1.0;" x1="403" x2="286.5" y1="610.75" y2="610.75"/><polygon fill="#181818" points="296.5,606.75,286.5,610.75,296.5,614.75,292.5,610.75" style="stroke:#181818;stroke-width:1.0;"/><line style="stroke:#181818;stroke-width:1.0;" x1="274.5" x2="274.5" y1="503.6563" y2="523.6563"/><polygon fill="#181818" points="270.5,513.6563,274.5,523.6563,278.5,513.6563,274.5,517.6563" style="stroke:#181818;stroke-width:1.0;"/><line style="stroke:#181818;stroke-width:1.0;" x1="274.5" x2="274.5" y1="622.75" y2="642.75"/><polygon fill="#181818" points="270.5,632.75,274.5,642.75,278.5,632.75,274.5,636.75" style="stroke:#181818;stroke-width:1.0;"/><!--SRC=[LP5DJiD038NtSmghgrRA2P85GaL2BDZ02SoCcnebuyZZy7URBbbqnG6GoCLmqe9WvOtVUz-pYw5Q2FLMUgRy9asexwcZ65aoWWoHfuyCgwqIAYX5CbpvpaqsbJH6WYpzWr85YKfKFkrNO4pz81KCehCJbIO4fO7G0a1zsIgr29nz9eyrWlMFJyHid31LCEPvRfgp49xttFdYr-T9hY3EyDVaOWDSO5scuyOR_OOKqp6UA6308e3B-DzqdDj2FnsA4nYrejCHdRg-7b4JGeVdzbw4TpF55PeKU9eE7ISfdcrxokTqxtWhdkkGFUM2ZmIhkqKExUBdZb4oJEylRE873TILvGZ_jAGg2gzGfEF8_YaNgSx8VkGcK4wy2w6O3Dy0]--></g></svg>