<svg xmlns="http://www.w3.org/2000/svg" xmlns:xlink="http://www.w3.org/1999/xlink" contentStyleType="text/css" data-diagram-type="CLASS" height="898px" preserveAspectRatio="none" style="width:874px;height:898px;background:#FFFFFF;" version="1.1" viewBox="0 0 874 898" width="874px" zoomAndPan="magnify"><title>Modelo de Dominio - Cafeter&#237;a</title><defs/><g><g class="title" data-source-line="1"><text fill="#000000" font-family="sans-serif" font-size="14" font-weight="bold" lengthAdjust="spacing" textLength="239.9619" x="310.0823" y="22.9951">Modelo de Dominio - Cafeter&#237;a</text></g><g class="entity" data-entity="Menu" data-source-line="4" data-uid="ent0002" id="entity_Menu"><rect fill="#F1F1F1" height="36.2969" rx="2.5" ry="2.5" style="stroke:#181818;stroke-width:0.5;" width="52.4385" x="199.22" y="44.2969"/><text fill="#000000" font-family="sans-serif" font-size="14" lengthAdjust="spacing" textLength="38.4385" x="206.22" y="59.292">Menu</text><line style="stroke:#181818;stroke-width:0.5;" x1="200.22" x2="250.6585" y1="64.5938" y2="64.5938"/></g><g class="entity" data-entity="Plato" data-source-line="5" data-uid="ent0003" id="entity_Plato"><rect fill="#F1F1F1" height="36.2969" rx="2.5" ry="2.5" style="stroke:#181818;stroke-width:0.5;" width="48.9658" x="200.96" y="157.5969"/><text fill="#000000" font-family="sans-serif" font-size="14" lengthAdjust="spacing" textLength="34.9658" x="207.96" y="172.592">Plato</text><line style="stroke:#181818;stroke-width:0.5;" x1="201.96" x2="248.9258" y1="177.8937" y2="177.8937"/></g><g class="entity" data-entity="Categoria" data-source-line="6" data-uid="ent0004" id="entity_Categoria"><rect fill="#F1F1F1" height="36.2969" rx="2.5" ry="2.5" style="stroke:#181818;stroke-width:0.5;" width="82.1338" x="323.37" y="270.8869"/><text fill="#000000" font-family="sans-serif" font-size="14" lengthAdjust="spacing" textLength="68.1338" x="330.37" y="285.882">Categoria</text><line style="stroke:#181818;stroke-width:0.5;" x1="324.37" x2="404.5038" y1="291.1837" y2="291.1837"/></g><g class="entity" data-entity="PrecioVenta" data-source-line="7" data-uid="ent0005" id="entity_PrecioVenta"><rect fill="#F1F1F1" height="36.2969" rx="2.5" ry="2.5" style="stroke:#181818;stroke-width:0.5;" width="98.0957" x="77.39" y="270.8869"/><text fill="#000000" font-family="sans-serif" font-size="14" lengthAdjust="spacing" textLength="84.0957" x="84.39" y="285.882">PrecioVenta</text><line style="stroke:#181818;stroke-width:0.5;" x1="78.39" x2="174.4857" y1="291.1837" y2="291.1837"/></g><g class="entity" data-entity="Receta" data-source-line="14" data-uid="ent0009" id="entity_Receta"><rect fill="#F1F1F1" height="36.2969" rx="2.5" ry="2.5" style="stroke:#181818;stroke-width:0.5;" width="62.7197" x="210.08" y="270.8869"/><text fill="#000000" font-family="sans-serif" font-size="14" lengthAdjust="spacing" textLength="48.7197" x="217.08" y="285.882">Receta</text><line style="stroke:#181818;stroke-width:0.5;" x1="211.08" x2="271.7997" y1="291.1837" y2="291.1837"/></g><g class="entity" data-entity="Ingrediente" data-source-line="15" data-uid="ent0010" id="entity_Ingrediente"><rect fill="#F1F1F1" height="36.2969" rx="2.5" ry="2.5" style="stroke:#181818;stroke-width:0.5;" width="94.623" x="309.13" y="403.4869"/><text fill="#000000" font-family="sans-serif" font-size="14" lengthAdjust="spacing" textLength="80.623" x="316.13" y="418.482">Ingrediente</text><line style="stroke:#181818;stroke-width:0.5;" x1="310.13" x2="402.753" y1="423.7837" y2="423.7837"/></g><g class="entity" data-entity="Paso" data-source-line="16" data-uid="ent0011" id="entity_Paso"><rect fill="#F1F1F1" height="36.2969" rx="2.5" ry="2.5" style="stroke:#181818;stroke-width:0.5;" width="46.8809" x="7" y="403.4869"/><text fill="#000000" font-family="sans-serif" font-size="14" lengthAdjust="spacing" textLength="32.8809" x="14" y="418.482">Paso</text><line style="stroke:#181818;stroke-width:0.5;" x1="8" x2="52.8809" y1="423.7837" y2="423.7837"/></g><g class="entity" data-entity="Porcion" data-source-line="17" data-uid="ent0012" id="entity_Porcion"><rect fill="#F1F1F1" height="36.2969" rx="2.5" ry="2.5" style="stroke:#181818;stroke-width:0.5;" width="65.7891" x="208.55" y="403.4869"/><text fill="#000000" font-family="sans-serif" font-size="14" lengthAdjust="spacing" textLength="51.7891" x="215.55" y="418.482">Porcion</text><line style="stroke:#181818;stroke-width:0.5;" x1="209.55" x2="273.3391" y1="423.7837" y2="423.7837"/></g><g class="entity" data-entity="Inventario" data-source-line="24" data-uid="ent0016" id="entity_Inventario"><rect fill="#F1F1F1" height="36.2969" rx="2.5" ry="2.5" style="stroke:#181818;stroke-width:0.5;" width="85.0527" x="88.91" y="403.4869"/><text fill="#000000" font-family="sans-serif" font-size="14" lengthAdjust="spacing" textLength="71.0527" x="95.91" y="418.482">Inventario</text><line style="stroke:#181818;stroke-width:0.5;" x1="89.91" x2="172.9627" y1="423.7837" y2="423.7837"/></g><g class="entity" data-entity="Producto" data-source-line="25" data-uid="ent0017" id="entity_Producto"><rect fill="#F1F1F1" height="36.2969" rx="2.5" ry="2.5" style="stroke:#181818;stroke-width:0.5;" width="76.2754" x="412.3" y="516.7769"/><text fill="#000000" font-family="sans-serif" font-size="14" lengthAdjust="spacing" textLength="62.2754" x="419.3" y="531.772">Producto</text><line style="stroke:#181818;stroke-width:0.5;" x1="413.3" x2="487.5754" y1="537.0738" y2="537.0738"/></g><g class="entity" data-entity="Stock" data-source-line="26" data-uid="ent0018" id="entity_Stock"><rect fill="#F1F1F1" height="36.2969" rx="2.5" ry="2.5" style="stroke:#181818;stroke-width:0.5;" width="52.7461" x="568.07" y="630.0769"/><text fill="#000000" font-family="sans-serif" font-size="14" lengthAdjust="spacing" textLength="38.7461" x="575.07" y="645.072">Stock</text><line style="stroke:#181818;stroke-width:0.5;" x1="569.07" x2="619.8161" y1="650.3738" y2="650.3738"/></g><g class="entity" data-entity="Lote" data-source-line="27" data-uid="ent0019" id="entity_Lote"><rect fill="#F1F1F1" height="36.2969" rx="2.5" ry="2.5" style="stroke:#181818;stroke-width:0.5;" width="44.4678" x="576.21" y="743.3769"/><text fill="#000000" font-family="sans-serif" font-size="14" lengthAdjust="spacing" textLength="30.4678" x="583.21" y="758.372">Lote</text><line style="stroke:#181818;stroke-width:0.5;" x1="577.21" x2="619.6778" y1="763.6737" y2="763.6737"/></g><g class="entity" data-entity="Almacen" data-source-line="28" data-uid="ent0020" id="entity_Almacen"><rect fill="#F1F1F1" height="36.2969" rx="2.5" ry="2.5" style="stroke:#181818;stroke-width:0.5;" width="74.8672" x="378.01" y="630.0769"/><text fill="#000000" font-family="sans-serif" font-size="14" lengthAdjust="spacing" textLength="60.8672" x="385.01" y="645.072">Almacen</text><line style="stroke:#181818;stroke-width:0.5;" x1="379.01" x2="451.8772" y1="650.3738" y2="650.3738"/></g><g class="entity" data-entity="Proveedor" data-source-line="36" data-uid="ent0025" id="entity_Proveedor"><rect fill="#F1F1F1" height="36.2969" rx="2.5" ry="2.5" style="stroke:#181818;stroke-width:0.5;" width="85.4834" x="571.7" y="270.8869"/><text fill="#000000" font-family="sans-serif" font-size="14" lengthAdjust="spacing" textLength="71.4834" x="578.7" y="285.882">Proveedor</text><line style="stroke:#181818;stroke-width:0.5;" x1="572.7" x2="656.1834" y1="291.1837" y2="291.1837"/></g><g class="entity" data-entity="Contacto" data-source-line="37" data-uid="ent0026" id="entity_Contacto"><rect fill="#F1F1F1" height="36.2969" rx="2.5" ry="2.5" style="stroke:#181818;stroke-width:0.5;" width="77.0342" x="564.92" y="403.4869"/><text fill="#000000" font-family="sans-serif" font-size="14" lengthAdjust="spacing" textLength="63.0342" x="571.92" y="418.482">Contacto</text><line style="stroke:#181818;stroke-width:0.5;" x1="565.92" x2="640.9542" y1="423.7837" y2="423.7837"/></g><g class="entity" data-entity="Pedido" data-source-line="38" data-uid="ent0027" id="entity_Pedido"><rect fill="#F1F1F1" height="36.2969" rx="2.5" ry="2.5" style="stroke:#181818;stroke-width:0.5;" width="61.2842" x="615.8" y="856.6669"/><text fill="#000000" font-family="sans-serif" font-size="14" lengthAdjust="spacing" textLength="47.2842" x="622.8" y="871.662">Pedido</text><line style="stroke:#181818;stroke-width:0.5;" x1="616.8" x2="676.0842" y1="876.9638" y2="876.9638"/></g><g class="entity" data-entity="Cotizacion" data-source-line="39" data-uid="ent0028" id="entity_Cotizacion"><rect fill="#F1F1F1" height="36.2969" rx="2.5" ry="2.5" style="stroke:#181818;stroke-width:0.5;" width="86.6729" x="443.1" y="403.4869"/><text fill="#000000" font-family="sans-serif" font-size="14" lengthAdjust="spacing" textLength="72.6729" x="450.1" y="418.482">Cotizacion</text><line style="stroke:#181818;stroke-width:0.5;" x1="444.1" x2="528.7729" y1="423.7837" y2="423.7837"/></g><g class="entity" data-entity="Presupuesto" data-source-line="46" data-uid="ent0032" id="entity_Presupuesto"><rect fill="#F1F1F1" height="36.2969" rx="2.5" ry="2.5" style="stroke:#181818;stroke-width:0.5;" width="100.7002" x="687.09" y="44.2969"/><text fill="#000000" font-family="sans-serif" font-size="14" lengthAdjust="spacing" textLength="86.7002" x="694.09" y="59.292">Presupuesto</text><line style="stroke:#181818;stroke-width:0.5;" x1="688.09" x2="786.7902" y1="64.5938" y2="64.5938"/></g><g class="entity" data-entity="Partida" data-source-line="47" data-uid="ent0033" id="entity_Partida"><rect fill="#F1F1F1" height="36.2969" rx="2.5" ry="2.5" style="stroke:#181818;stroke-width:0.5;" width="63.6221" x="655.63" y="157.5969"/><text fill="#000000" font-family="sans-serif" font-size="14" lengthAdjust="spacing" textLength="49.6221" x="662.63" y="172.592">Partida</text><line style="stroke:#181818;stroke-width:0.5;" x1="656.63" x2="718.2521" y1="177.8937" y2="177.8937"/></g><g class="entity" data-entity="Gasto" data-source-line="48" data-uid="ent0034" id="entity_Gasto"><rect fill="#F1F1F1" height="36.2969" rx="2.5" ry="2.5" style="stroke:#181818;stroke-width:0.5;" width="54.7764" x="734.05" y="337.1869"/><text fill="#000000" font-family="sans-serif" font-size="14" lengthAdjust="spacing" textLength="40.7764" x="741.05" y="352.182">Gasto</text><line style="stroke:#181818;stroke-width:0.5;" x1="735.05" x2="787.8264" y1="357.4838" y2="357.4838"/></g><g class="entity" data-entity="Periodo" data-source-line="49" data-uid="ent0035" id="entity_Periodo"><rect fill="#F1F1F1" height="36.2969" rx="2.5" ry="2.5" style="stroke:#181818;stroke-width:0.5;" width="66.7188" x="754.08" y="157.5969"/><text fill="#000000" font-family="sans-serif" font-size="14" lengthAdjust="spacing" textLength="52.7188" x="761.08" y="172.592">Periodo</text><line style="stroke:#181818;stroke-width:0.5;" x1="755.08" x2="819.7988" y1="177.8937" y2="177.8937"/></g><!--link Menu to Plato--><g class="link" data-entity-1="Menu" data-entity-2="Plato" data-source-line="9" data-uid="lnk6" id="link_Menu_Plato"><path codeLine="9" d="M225.44,80.8369 C225.44,101.6169 225.44,130.2069 225.44,151.1069" fill="none" id="Menu-to-Plato" style="stroke:#181818;stroke-width:1;"/><polygon fill="#181818" points="225.44,157.1069,229.44,148.1069,225.44,152.1069,221.44,148.1069,225.44,157.1069" style="stroke:#181818;stroke-width:1;"/><text fill="#000000" font-family="sans-serif" font-size="13" lengthAdjust="spacing" textLength="56.2847" x="226.44" y="123.6638">contiene</text></g><!--link Plato to Categoria--><g class="link" data-entity-1="Plato" data-entity-2="Categoria" data-source-line="10" data-uid="lnk7" id="link_Plato_Categoria"><path codeLine="10" d="M250.38,183.9569 C272.15,191.2469 303.61,204.2469 325.44,223.8869 C339.88,236.8769 348.1983,251.0325 354.7383,265.1525" fill="none" id="Plato-to-Categoria" style="stroke:#181818;stroke-width:1;"/><polygon fill="#181818" points="357.26,270.5969,357.1071,260.7492,355.1586,266.0599,349.8479,264.1114,357.26,270.5969" style="stroke:#181818;stroke-width:1;"/><text fill="#000000" font-family="sans-serif" font-size="13" lengthAdjust="spacing" textLength="78.1714" x="340.44" y="236.9538">pertenece a</text></g><!--link Plato to PrecioVenta--><g class="link" data-entity-1="Plato" data-entity-2="PrecioVenta" data-source-line="11" data-uid="lnk8" id="link_Plato_PrecioVenta"><path codeLine="11" d="M207.14,194.2369 C198.26,202.9369 187.56,213.7469 178.44,223.8869 C164.73,239.1269 153.7976,252.6239 143.5676,265.7539" fill="none" id="Plato-to-PrecioVenta" style="stroke:#181818;stroke-width:1;"/><polygon fill="#181818" points="139.88,270.4869,148.5668,265.8458,142.953,266.5427,142.2561,260.9289,139.88,270.4869" style="stroke:#181818;stroke-width:1;"/><text fill="#000000" font-family="sans-serif" font-size="13" lengthAdjust="spacing" textLength="32.9443" x="179.44" y="236.9538">tiene</text></g><!--link Receta to Ingrediente--><g class="link" data-entity-1="Receta" data-entity-2="Ingrediente" data-source-line="19" data-uid="lnk13" id="link_Receta_Ingrediente"><path codeLine="19" d="M269.31,307.5269 C280.98,315.6669 294.18,326.0169 304.44,337.1869 C323.03,357.4269 336.0606,379.8787 345.2106,397.7087" fill="none" id="Receta-to-Ingrediente" style="stroke:#181818;stroke-width:1;"/><polygon fill="#181818" points="347.95,403.0469,347.3996,393.2134,345.6672,398.5984,340.2821,396.866,347.95,403.0469" style="stroke:#181818;stroke-width:1;"/><text fill="#000000" font-family="sans-serif" font-size="13" lengthAdjust="spacing" textLength="54.7866" x="330.44" y="359.9038">requiere</text></g><!--link Receta to Paso--><g class="link" data-entity-1="Receta" data-entity-2="Paso" data-source-line="20" data-uid="lnk14" id="link_Receta_Paso"><path codeLine="20" d="M212.98,307.6469 C171.03,333.6169 98.4219,378.5592 59.3219,402.7592" fill="none" id="Receta-to-Paso" style="stroke:#181818;stroke-width:1;"/><polygon fill="#181818" points="54.22,405.9169,63.9779,404.5816,58.4716,403.2855,59.7677,397.7791,54.22,405.9169" style="stroke:#181818;stroke-width:1;"/><text fill="#000000" font-family="sans-serif" font-size="13" lengthAdjust="spacing" textLength="40.6758" x="161.44" y="359.9038">define</text></g><!--link Receta to Porcion--><g class="link" data-entity-1="Receta" data-entity-2="Porcion" data-source-line="21" data-uid="lnk15" id="link_Receta_Porcion"><path codeLine="21" d="M241.44,307.6469 C241.44,332.7169 241.44,372.3869 241.44,397.2969" fill="none" id="Receta-to-Porcion" style="stroke:#181818;stroke-width:1;"/><polygon fill="#181818" points="241.44,403.2969,245.44,394.2969,241.44,398.2969,237.44,394.2969,241.44,403.2969" style="stroke:#181818;stroke-width:1;"/><text fill="#000000" font-family="sans-serif" font-size="13" lengthAdjust="spacing" textLength="53.187" x="242.44" y="359.9038">produce</text></g><!--link Inventario to Producto--><g class="link" data-entity-1="Inventario" data-entity-2="Producto" data-source-line="30" data-uid="lnk21" id="link_Inventario_Producto"><path codeLine="30" d="M171.88,440.2069 C203.77,453.7669 249.54,472.5369 290.44,486.7769 C331.46,501.0569 373.5525,513.2143 406.1725,522.1343" fill="none" id="Inventario-to-Producto" style="stroke:#181818;stroke-width:1;"/><polygon fill="#181818" points="411.96,523.7169,404.3338,517.4846,407.1371,522.398,402.2237,525.2013,411.96,523.7169" style="stroke:#181818;stroke-width:1;"/><text fill="#000000" font-family="sans-serif" font-size="13" lengthAdjust="spacing" textLength="55.8911" x="291.44" y="482.8438">gestiona</text></g><!--link Producto to Stock--><g class="link" data-entity-1="Producto" data-entity-2="Stock" data-source-line="31" data-uid="lnk22" id="link_Producto_Stock"><path codeLine="31" d="M489.04,553.2069 C504.82,561.1669 522.77,571.4369 537.44,583.0769 C554.6,596.6869 567.1725,611.076 577.8925,624.896" fill="none" id="Producto-to-Stock" style="stroke:#181818;stroke-width:1;"/><polygon fill="#181818" points="581.57,629.6369,579.2144,620.0739,578.5054,625.6861,572.8932,624.9772,581.57,629.6369" style="stroke:#181818;stroke-width:1;"/><text fill="#000000" font-family="sans-serif" font-size="13" lengthAdjust="spacing" textLength="32.9443" x="555.44" y="596.1438">tiene</text></g><!--link Stock to Lote--><g class="link" data-entity-1="Stock" data-entity-2="Lote" data-source-line="32" data-uid="lnk23" id="link_Stock_Lote"><path codeLine="32" d="M595.07,666.6169 C595.81,687.3969 596.8448,715.9907 597.5948,736.8907" fill="none" id="Stock-to-Lote" style="stroke:#181818;stroke-width:1;"/><polygon fill="#181818" points="597.81,742.8869,601.4847,733.7492,597.6307,737.8901,593.4898,734.0361,597.81,742.8869" style="stroke:#181818;stroke-width:1;"/><text fill="#000000" font-family="sans-serif" font-size="13" lengthAdjust="spacing" textLength="46.0205" x="597.44" y="709.4438">agrupa</text></g><!--link Producto to Almacen--><g class="link" data-entity-1="Producto" data-entity-2="Almacen" data-source-line="33" data-uid="lnk24" id="link_Producto_Almacen"><path codeLine="33" d="M431.62,553.3569 C424.12,561.5569 416.36,571.9769 412.44,583.0769 C407.1,598.2169 407.6345,610.7159 410.0645,623.9259" fill="none" id="Producto-to-Almacen" style="stroke:#181818;stroke-width:1;"/><polygon fill="#181818" points="411.15,629.8269,413.4557,620.2517,410.2454,624.9094,405.5878,621.6991,411.15,629.8269" style="stroke:#181818;stroke-width:1;"/><text fill="#000000" font-family="sans-serif" font-size="13" lengthAdjust="spacing" textLength="71.792" x="413.44" y="596.1438">ubicado en</text></g><!--link Proveedor to Contacto--><g class="link" data-entity-1="Proveedor" data-entity-2="Contacto" data-source-line="41" data-uid="lnk29" id="link_Proveedor_Contacto"><path codeLine="41" d="M612.96,307.6469 C610.85,332.7169 607.504,372.4081 605.404,397.3181" fill="none" id="Proveedor-to-Contacto" style="stroke:#181818;stroke-width:1;"/><polygon fill="#181818" points="604.9,403.2969,609.6419,394.6647,605.32,398.3145,601.6702,393.9927,604.9,403.2969" style="stroke:#181818;stroke-width:1;"/><text fill="#000000" font-family="sans-serif" font-size="13" lengthAdjust="spacing" textLength="32.9443" x="610.44" y="359.9038">tiene</text></g><!--link Proveedor to Pedido--><g class="link" data-entity-1="Proveedor" data-entity-2="Pedido" data-source-line="42" data-uid="lnk30" id="link_Proveedor_Pedido"><path codeLine="42" d="M634.05,307.3569 C658.02,330.5569 695.44,374.2069 695.44,420.6269 C695.44,420.6269 695.44,420.6269 695.44,762.5169 C695.44,798.1969 677.4935,830.3356 662.9735,851.4156" fill="none" id="Proveedor-to-Pedido" style="stroke:#181818;stroke-width:1;"/><polygon fill="#181818" points="659.57,856.3569,667.9695,851.214,662.4063,852.2392,661.3812,846.676,659.57,856.3569" style="stroke:#181818;stroke-width:1;"/><text fill="#000000" font-family="sans-serif" font-size="13" lengthAdjust="spacing" textLength="40.3521" x="696.44" y="596.1438">recibe</text></g><!--link Proveedor to Cotizacion--><g class="link" data-entity-1="Proveedor" data-entity-2="Cotizacion" data-source-line="43" data-uid="lnk31" id="link_Proveedor_Cotizacion"><path codeLine="43" d="M593.11,307.5669 C582.94,316.1969 570.78,326.9269 560.44,337.1869 C538.59,358.8669 519.181,381.2058 504.701,398.5058" fill="none" id="Proveedor-to-Cotizacion" style="stroke:#181818;stroke-width:1;"/><polygon fill="#181818" points="500.85,403.1069,509.6939,398.7727,504.0592,399.2727,503.5592,393.638,500.85,403.1069" style="stroke:#181818;stroke-width:1;"/><text fill="#000000" font-family="sans-serif" font-size="13" lengthAdjust="spacing" textLength="37.3687" x="561.44" y="359.9038">emite</text></g><!--link Presupuesto to Partida--><g class="link" data-entity-1="Presupuesto" data-entity-2="Partida" data-source-line="51" data-uid="lnk36" id="link_Presupuesto_Partida"><path codeLine="51" d="M710.71,80.9769 C701.19,88.7869 691.56,98.8769 686.44,110.5969 C679.97,125.3869 680.1579,138.0895 682.3979,151.4495" fill="none" id="Presupuesto-to-Partida" style="stroke:#181818;stroke-width:1;"/><polygon fill="#181818" points="683.39,157.3669,685.8467,147.8293,682.5632,152.4357,677.9569,149.1522,683.39,157.3669" style="stroke:#181818;stroke-width:1;"/><text fill="#000000" font-family="sans-serif" font-size="13" lengthAdjust="spacing" textLength="56.2847" x="687.44" y="123.6638">contiene</text></g><!--link Partida to Gasto--><g class="link" data-entity-1="Partida" data-entity-2="Gasto" data-source-line="52" data-uid="lnk37" id="link_Partida_Gasto"><path codeLine="52" d="M699.41,194.1369 C705.05,202.8169 711.59,213.6369 716.44,223.8869 C734.88,262.8669 748.0214,305.7493 755.1514,331.1993" fill="none" id="Partida-to-Gasto" style="stroke:#181818;stroke-width:1;"/><polygon fill="#181818" points="756.77,336.9769,758.1938,327.2315,755.4211,332.1623,750.4904,329.3896,756.77,336.9769" style="stroke:#181818;stroke-width:1;"/><text fill="#000000" font-family="sans-serif" font-size="13" lengthAdjust="spacing" textLength="50.3877" x="723.44" y="236.9538">registra</text></g><!--link Presupuesto to Periodo--><g class="link" data-entity-1="Presupuesto" data-entity-2="Periodo" data-source-line="53" data-uid="lnk38" id="link_Presupuesto_Periodo"><path codeLine="53" d="M745.25,80.8369 C754.59,101.6169 767.6711,130.7339 777.0611,151.6339" fill="none" id="Presupuesto-to-Periodo" style="stroke:#181818;stroke-width:1;"/><polygon fill="#181818" points="779.52,157.1069,779.4803,147.2581,777.4709,152.546,772.183,150.5367,779.52,157.1069" style="stroke:#181818;stroke-width:1;"/><text fill="#000000" font-family="sans-serif" font-size="13" lengthAdjust="spacing" textLength="69.2593" x="765.44" y="123.6638">vigente en</text></g><!--link Plato to Receta--><g class="link" data-entity-1="Plato" data-entity-2="Receta" data-source-line="56" data-uid="lnk39" id="link_Plato_Receta"><path codeLine="56" d="M222.39,194.3269 C220.68,207.3069 219.43,225.3469 222.44,240.8869 C224.42,251.1169 226.1272,256.4647 230.0772,265.1547" fill="none" id="Plato-to-Receta" style="stroke:#181818;stroke-width:1;"/><polygon fill="#181818" points="232.56,270.6169,232.4772,260.7684,230.491,266.065,225.1943,264.0788,232.56,270.6169" style="stroke:#181818;stroke-width:1;"/><text fill="#000000" font-family="sans-serif" font-size="13" lengthAdjust="spacing" textLength="97.5" x="223.44" y="236.9538">se prepara con</text></g><!--link Ingrediente to Producto--><g class="link" data-entity-1="Ingrediente" data-entity-2="Producto" data-source-line="57" data-uid="lnk40" id="link_Ingrediente_Producto"><path codeLine="57" d="M353.83,440.1669 C352.72,453.9669 353.35,473.0769 362.44,486.7769 C373.94,504.1069 388.434,513.3063 406.494,520.5763" fill="none" id="Ingrediente-to-Producto" style="stroke:#181818;stroke-width:1;"/><polygon fill="#181818" points="412.06,522.8169,405.2048,515.7454,407.4217,520.9497,402.2174,523.1667,412.06,522.8169" style="stroke:#181818;stroke-width:1;"/><text fill="#000000" font-family="sans-serif" font-size="13" lengthAdjust="spacing" textLength="93.355" x="363.44" y="482.8438">corresponde a</text></g><!--link Pedido to Producto--><g class="link" data-entity-1="Pedido" data-entity-2="Producto" data-source-line="58" data-uid="lnk41" id="link_Pedido_Producto"><path codeLine="58" d="M617,856.3769 C605.22,848.3869 592.18,838.1369 582.44,826.6669 C507.43,738.3369 546.45,683.9669 489.44,583.0769 C483.38,572.3469 478.7927,566.1355 471.2327,557.6555" fill="none" id="Pedido-to-Producto" style="stroke:#181818;stroke-width:1;"/><polygon fill="#181818" points="467.24,553.1769,470.2434,562.5566,470.5673,556.9091,476.2149,557.233,467.24,553.1769" style="stroke:#181818;stroke-width:1;"/><text fill="#000000" font-family="sans-serif" font-size="13" lengthAdjust="spacing" textLength="45.7729" x="530.44" y="709.4438">solicita</text></g><!--link Cotizacion to Producto--><g class="link" data-entity-1="Cotizacion" data-entity-2="Producto" data-source-line="59" data-uid="lnk42" id="link_Cotizacion_Producto"><path codeLine="59" d="M480.82,440.0169 C474.09,460.8069 464.7465,489.6881 457.9865,510.5881" fill="none" id="Cotizacion-to-Producto" style="stroke:#181818;stroke-width:1;"/><polygon fill="#181818" points="456.14,516.2969,462.7156,508.9647,457.6787,511.5395,455.1039,506.5027,456.14,516.2969" style="stroke:#181818;stroke-width:1;"/><text fill="#000000" font-family="sans-serif" font-size="13" lengthAdjust="spacing" textLength="38.6001" x="471.44" y="482.8438">cotiza</text></g><!--link Gasto to Pedido--><g class="link" data-entity-1="Gasto" data-entity-2="Pedido" data-source-line="60" data-uid="lnk43" id="link_Gasto_Pedido"><path codeLine="60" d="M765.23,373.8669 C769.96,397.3069 777.44,440.2169 777.44,477.2769 C777.44,477.2769 777.44,477.2769 777.44,762.5169 C777.44,814.7469 721.788,845.3413 683.058,860.8913" fill="none" id="Gasto-to-Pedido" style="stroke:#181818;stroke-width:1;"/><polygon fill="#181818" points="677.49,863.1269,687.3323,863.4856,682.13,861.2639,684.3516,856.0616,677.49,863.1269" style="stroke:#181818;stroke-width:1;"/><text fill="#000000" font-family="sans-serif" font-size="13" lengthAdjust="spacing" textLength="87.6865" x="778.44" y="596.1438">generado por</text></g><!--link Partida to Proveedor--><g class="link" data-entity-1="Partida" data-entity-2="Proveedor" data-source-line="61" data-uid="lnk44" id="link_Partida_Proveedor"><path codeLine="61" d="M665.8,194.3469 C656.73,202.5769 646.64,212.9669 639.44,223.8869 C629.9,238.3569 624.8866,251.2737 620.8166,264.7337" fill="none" id="Partida-to-Proveedor" style="stroke:#181818;stroke-width:1;"/><polygon fill="#181818" points="619.08,270.4769,625.5137,263.0198,620.5272,265.6909,617.8561,260.7044,619.08,270.4769" style="stroke:#181818;stroke-width:1;"/><text fill="#000000" font-family="sans-serif" font-size="13" lengthAdjust="spacing" textLength="71.1255" x="640.44" y="236.9538">asignada a</text></g><!--link Lote to Pedido--><g class="link" data-entity-1="Lote" data-entity-2="Pedido" data-source-line="62" data-uid="lnk45" id="link_Lote_Pedido"><path codeLine="62" d="M593.53,780.1669 C590.76,793.5069 589.01,811.9569 595.44,826.6669 C600.56,838.3769 605.5513,844.6713 615.0713,852.4813" fill="none" id="Lote-to-Pedido" style="stroke:#181818;stroke-width:1;"/><polygon fill="#181818" points="619.71,856.2869,615.2889,847.4861,615.8444,853.1156,610.2149,853.6711,619.71,856.2869" style="stroke:#181818;stroke-width:1;"/><text fill="#000000" font-family="sans-serif" font-size="13" lengthAdjust="spacing" textLength="72.5537" x="596.44" y="822.7338">recibido&#160;de</text></g><!--SRC=[PLD1ajiW4Bpp2cuv-GDxI9NBfbAgMbigoVOTmwoAH0O58H_sDVk1V2BvM0QG4B9kWfvkUcPQJhaEwCb8w0oLG8_ceRGoT4SF_0CSs7z_E27VqZsMdDZvIipz9mX7Jw37-Rlgk3FpuS0TjCOgdb0BGfaRQ8TwdaPtk- -HGz-eCDefq43YXOUI0i8zM8Ue0CgpYamIQo9_RRLc1tRPpnPg5739KA5R2n993f97FgG6AcDHN1CIMU71Z88FMlWzAh2GLtW5X2HyABq6efplnHevYbUdnVd6pfTzNPIBlwVlpAh5Kc0kCswS4R_cmxjP-jXt3ou0lIyQqy2Y0BfeON3e1ySvt_c2e9Xc6K_-telZDM_jsBzGfhSG7UzAS6ceVtZLMrMNDyQEPPqryWIGngQquFfvrbc5KvPBbenJdpnk8r5ZHYPUiho6eqnObL1ts91dMQo0XtAmySsQQtLbpQNCKZoC_OZ3MxnowvHCiVh1SmnmzDW8oNXJJW9fbVpfoiD19FXkrU0it_AZC9OyLHlo6ATUi_VzeIZFhA4OfvhHOtagpaNPPB_DbCetEW264NfkkNT1ydI_f4KOYmPwesNu0-DONse6qocXyF_AvhgHyGY9tQqMX3s0zU7fCHJv99QLOVm6rMgE02SXaDiLu-VVBmd_0G00]--></g></svg>