<?xml version="1.0" encoding="us-ascii" standalone="no"?><svg xmlns="http://www.w3.org/2000/svg" xmlns:xlink="http://www.w3.org/1999/xlink" contentStyleType="text/css" height="1162px" preserveAspectRatio="none" style="width:743px;height:1162px;background:#FFFFFF;" version="1.1" viewBox="0 0 743 1162" width="743px" zoomAndPan="magnify"><defs/><g><text fill="#000000" font-family="sans-serif" font-size="14" font-weight="bold" lengthAdjust="spacing" textLength="210" x="259.5" y="24.5332">Diagrama de Estados - Cliente</text><!--cluster GestionInventario--><g id="cluster_GestionInventario"><path d="M19.5,280.6094 L266.5,280.6094 A12.5,12.5 0 0 1 279,293.1094 L279,303.2188 L7,303.2188 L7,293.1094 A12.5,12.5 0 0 1 19.5,280.6094 " fill="#F1F1F1" style="stroke:#F1F1F1;stroke-width:1.0;"/><rect fill="none" height="230" rx="12.5" ry="12.5" style="stroke:#181818;stroke-width:0.5;" width="272" x="7" y="280.6094"/><line style="stroke:#181818;stroke-width:0.5;" x1="7" x2="279" y1="303.2188" y2="303.2188"/><text fill="#000000" font-family="sans-serif" font-size="14" lengthAdjust="spacing" textLength="111" x="87.5" y="299.1426">GestionInventario</text></g><!--cluster GestionProveedor--><g id="cluster_GestionProveedor"><path d="M186.5,560.6094 L319.5,560.6094 A12.5,12.5 0 0 1 332,573.1094 L332,583.2188 L174,583.2188 L174,573.1094 A12.5,12.5 0 0 1 186.5,560.6094 " fill="#F1F1F1" style="stroke:#F1F1F1;stroke-width:1.0;"/><rect fill="none" height="102" rx="12.5" ry="12.5" style="stroke:#181818;stroke-width:0.5;" width="158" x="174" y="560.6094"/><line style="stroke:#181818;stroke-width:0.5;" x1="174" x2="332" y1="583.2188" y2="583.2188"/><text fill="#000000" font-family="sans-serif" font-size="14" lengthAdjust="spacing" textLength="115" x="195.5" y="579.1426">GestionProveedor</text></g><!--cluster GestionMenu--><g id="cluster_GestionMenu"><path d="M460.5,280.6094 L577.5,280.6094 A12.5,12.5 0 0 1 590,293.1094 L590,303.2188 L448,303.2188 L448,293.1094 A12.5,12.5 0 0 1 460.5,280.6094 " fill="#F1F1F1" style="stroke:#F1F1F1;stroke-width:1.0;"/><rect fill="none" height="382" rx="12.5" ry="12.5" style="stroke:#181818;stroke-width:0.5;" width="142" x="448" y="280.6094"/><line style="stroke:#181818;stroke-width:0.5;" x1="448" x2="590" y1="303.2188" y2="303.2188"/><text fill="#000000" font-family="sans-serif" font-size="14" lengthAdjust="spacing" textLength="84" x="477" y="299.1426">GestionMenu</text></g><!--cluster GestionPresupuesto--><g id="cluster_GestionPresupuesto"><path d="M451.5,128.6094 L586.5,128.6094 A12.5,12.5 0 0 1 599,141.1094 L599,151.2188 L439,151.2188 L439,141.1094 A12.5,12.5 0 0 1 451.5,128.6094 " fill="#F1F1F1" style="stroke:#F1F1F1;stroke-width:1.0;"/><rect fill="none" height="102" rx="12.5" ry="12.5" style="stroke:#181818;stroke-width:0.5;" width="160" x="439" y="128.6094"/><line style="stroke:#181818;stroke-width:0.5;" x1="439" x2="599" y1="151.2188" y2="151.2188"/><text fill="#000000" font-family="sans-serif" font-size="14" lengthAdjust="spacing" textLength="129" x="454.5" y="147.1426">GestionPresupuesto</text></g><!--cluster GestionReceta--><g id="cluster_GestionReceta"><path d="M372.5,712.6094 L591.5,712.6094 A12.5,12.5 0 0 1 604,725.1094 L604,735.2188 L360,735.2188 L360,725.1094 A12.5,12.5 0 0 1 372.5,712.6094 " fill="#F1F1F1" style="stroke:#F1F1F1;stroke-width:1.0;"/><rect fill="none" height="230" rx="12.5" ry="12.5" style="stroke:#181818;stroke-width:0.5;" width="244" x="360" y="712.6094"/><line style="stroke:#181818;stroke-width:0.5;" x1="360" x2="604" y1="735.2188" y2="735.2188"/><text fill="#000000" font-family="sans-serif" font-size="14" lengthAdjust="spacing" textLength="94" x="435" y="731.1426">GestionReceta</text></g><g id="GestionInventario.RevisadoStock"><rect fill="#F1F1F1" height="50" rx="12.5" ry="12.5" style="stroke:#181818;stroke-width:0.5;" width="114" x="146" y="316.6094"/><line style="stroke:#181818;stroke-width:0.5;" x1="146" x2="260" y1="344.2188" y2="344.2188"/><text fill="#000000" font-family="sans-serif" font-size="14" lengthAdjust="spacing" textLength="94" x="156" y="336.1426">RevisadoStock</text></g><g id="GestionInventario.FaltaStock"><rect fill="#F1F1F1" height="50" rx="12.5" ry="12.5" style="stroke:#181818;stroke-width:0.5;" width="87" x="175.5" y="444.6094"/><line style="stroke:#181818;stroke-width:0.5;" x1="175.5" x2="262.5" y1="472.2188" y2="472.2188"/><text fill="#000000" font-family="sans-serif" font-size="14" lengthAdjust="spacing" textLength="67" x="185.5" y="464.1426">FaltaStock</text></g><g id="GestionInventario.SuficienteStock"><rect fill="#F1F1F1" height="50" rx="12.5" ry="12.5" style="stroke:#181818;stroke-width:0.5;" width="117" x="23.5" y="444.6094"/><line style="stroke:#181818;stroke-width:0.5;" x1="23.5" x2="140.5" y1="472.2188" y2="472.2188"/><text fill="#000000" font-family="sans-serif" font-size="14" lengthAdjust="spacing" textLength="97" x="33.5" y="464.1426">SuficienteStock</text></g><g id="GestionProveedor.PedidoRealizado"><rect fill="#F1F1F1" height="50" rx="12.5" ry="12.5" style="stroke:#181818;stroke-width:0.5;" width="126" x="190" y="596.6094"/><line style="stroke:#181818;stroke-width:0.5;" x1="190" x2="316" y1="624.2188" y2="624.2188"/><text fill="#000000" font-family="sans-serif" font-size="14" lengthAdjust="spacing" textLength="106" x="200" y="616.1426">PedidoRealizado</text></g><g id="GestionMenu.MenuListo"><rect fill="#F1F1F1" height="50" rx="12.5" ry="12.5" style="stroke:#181818;stroke-width:0.5;" width="85" x="464.5" y="444.6094"/><line style="stroke:#181818;stroke-width:0.5;" x1="464.5" x2="549.5" y1="472.2188" y2="472.2188"/><text fill="#000000" font-family="sans-serif" font-size="14" lengthAdjust="spacing" textLength="65" x="474.5" y="464.1426">MenuListo</text></g><g id="GestionMenu.CreandoMenu"><rect fill="#F1F1F1" height="50" rx="12.5" ry="12.5" style="stroke:#181818;stroke-width:0.5;" width="110" x="464" y="316.6094"/><line style="stroke:#181818;stroke-width:0.5;" x1="464" x2="574" y1="344.2188" y2="344.2188"/><text fill="#000000" font-family="sans-serif" font-size="14" lengthAdjust="spacing" textLength="90" x="474" y="336.1426">CreandoMenu</text></g><g id="GestionMenu.PlatoEscogido"><rect fill="#F1F1F1" height="50" rx="12.5" ry="12.5" style="stroke:#181818;stroke-width:0.5;" width="110" x="464" y="596.6094"/><line style="stroke:#181818;stroke-width:0.5;" x1="464" x2="574" y1="624.2188" y2="624.2188"/><text fill="#000000" font-family="sans-serif" font-size="14" lengthAdjust="spacing" textLength="90" x="474" y="616.1426">PlatoEscogido</text></g><g id="GestionPresupuesto.DineroDisponible"><rect fill="#F1F1F1" height="50" rx="12.5" ry="12.5" style="stroke:#181818;stroke-width:0.5;" width="128" x="455" y="164.6094"/><line style="stroke:#181818;stroke-width:0.5;" x1="455" x2="583" y1="192.2188" y2="192.2188"/><text fill="#000000" font-family="sans-serif" font-size="14" lengthAdjust="spacing" textLength="108" x="465" y="184.1426">DineroDisponible</text></g><g id="GestionReceta.OrganizadoIngredientesYPlato"><rect fill="#F1F1F1" height="50" rx="12.5" ry="12.5" style="stroke:#181818;stroke-width:0.5;" width="212" x="376" y="748.6094"/><line style="stroke:#181818;stroke-width:0.5;" x1="376" x2="588" y1="776.2188" y2="776.2188"/><text fill="#000000" font-family="sans-serif" font-size="14" lengthAdjust="spacing" textLength="192" x="386" y="768.1426">OrganizadoIngredientesYPlato</text></g><g id="GestionReceta.Cocinado"><rect fill="#F1F1F1" height="50" rx="12.5" ry="12.5" style="stroke:#181818;stroke-width:0.5;" width="80" x="447" y="876.6094"/><line style="stroke:#181818;stroke-width:0.5;" x1="447" x2="527" y1="904.2188" y2="904.2188"/><text fill="#000000" font-family="sans-serif" font-size="14" lengthAdjust="spacing" textLength="60" x="457" y="896.1426">Cocinado</text></g><ellipse cx="502" cy="54.6094" fill="#222222" rx="10" ry="10" style="stroke:#222222;stroke-width:1.0;"/><g id="Abierta"><rect fill="#F1F1F1" height="50" rx="12.5" ry="12.5" style="stroke:#181818;stroke-width:0.5;" width="65" x="329.5" y="164.6094"/><line style="stroke:#181818;stroke-width:0.5;" x1="329.5" x2="394.5" y1="192.2188" y2="192.2188"/><text fill="#000000" font-family="sans-serif" font-size="14" lengthAdjust="spacing" textLength="45" x="339.5" y="184.1426">Abierta</text></g><g id="Cerrada"><rect fill="#F1F1F1" height="50" rx="12.5" ry="12.5" style="stroke:#181818;stroke-width:0.5;" width="72" x="603" y="1006.6094"/><line style="stroke:#181818;stroke-width:0.5;" x1="603" x2="675" y1="1034.2188" y2="1034.2188"/><text fill="#000000" font-family="sans-serif" font-size="14" lengthAdjust="spacing" textLength="52" x="613" y="1026.1426">Cerrada</text></g><g id="ClienteEsperando"><rect fill="#F1F1F1" height="50" rx="12.5" ry="12.5" style="stroke:#181818;stroke-width:0.5;" width="133" x="295.5" y="316.6094"/><line style="stroke:#181818;stroke-width:0.5;" x1="295.5" x2="428.5" y1="344.2188" y2="344.2188"/><text fill="#000000" font-family="sans-serif" font-size="14" lengthAdjust="spacing" textLength="113" x="305.5" y="336.1426">ClienteEsperando</text></g><g id="Servido"><rect fill="#F1F1F1" height="50" rx="12.5" ry="12.5" style="stroke:#181818;stroke-width:0.5;" width="68" x="493" y="1006.6094"/><line style="stroke:#181818;stroke-width:0.5;" x1="493" x2="561" y1="1034.2188" y2="1034.2188"/><text fill="#000000" font-family="sans-serif" font-size="14" lengthAdjust="spacing" textLength="48" x="503" y="1026.1426">Servido</text></g><ellipse cx="579" cy="1145.6094" fill="none" rx="11" ry="11" style="stroke:#222222;stroke-width:1.0;"/><ellipse cx="579" cy="1145.6094" fill="#222222" rx="6" ry="6" style="stroke:#222222;stroke-width:1.0;"/><!--link *start* to Abierta--><g id="link_*start*_Abierta"><path d="M495.25,62.0194 C476.02,80.2894 424.6001,129.1369 391.6201,160.4669 " fill="none" id="*start*-to-Abierta" style="stroke:#181818;stroke-width:1.0;"/><polygon fill="#181818" points="387.27,164.5994,396.55,161.3008,390.8951,161.1557,391.0401,155.5007,387.27,164.5994" style="stroke:#181818;stroke-width:1.0;"/><text fill="#000000" font-family="sans-serif" font-size="13" lengthAdjust="spacing" textLength="79" x="461" y="109.1045">iniciarJornada</text></g><!--link *start* to Cerrada--><g id="link_*start*_Cerrada"><path d="M511.12,59.0494 C542.04,71.3794 641,116.4694 641,188.6094 C641,188.6094 641,188.6094 641,902.6094 C641,938.8394 640.3275,974.821 639.7375,1000.551 " fill="none" id="*start*-to-Cerrada" style="stroke:#181818;stroke-width:1.0;"/><polygon fill="#181818" points="639.6,1006.5494,643.8053,997.6434,639.7146,1001.5507,635.8074,997.46,639.6,1006.5494" style="stroke:#181818;stroke-width:1.0;"/><text fill="#000000" font-family="sans-serif" font-size="13" lengthAdjust="spacing" textLength="93" x="642" y="541.1045">noIniciarJornada</text></g><!--link Abierta to ClienteEsperando--><g id="link_Abierta_ClienteEsperando"><path d="M362,214.7094 C362,242.6994 362,282.5994 362,310.5694 " fill="none" id="Abierta-to-ClienteEsperando" style="stroke:#181818;stroke-width:1.0;"/><polygon fill="#181818" points="362,316.5694,366,307.5694,362,311.5694,358,307.5694,362,316.5694" style="stroke:#181818;stroke-width:1.0;"/><text fill="#000000" font-family="sans-serif" font-size="13" lengthAdjust="spacing" textLength="69" x="363" y="261.1045">clienteLlega</text></g><!--link Abierta to RevisadoStock--><g id="link_Abierta_RevisadoStock"><path d="M329.34,210.2594 C313.94,220.2394 295.75,233.0994 281,246.6094 C257.7,267.9494 238.6756,291.4712 223.8556,311.4412 " fill="none" id="Abierta-to-RevisadoStock" style="stroke:#181818;stroke-width:1.0;"/><polygon fill="#181818" points="220.28,316.2594,228.8556,311.4159,223.2597,312.2442,222.4313,306.6484,220.28,316.2594" style="stroke:#181818;stroke-width:1.0;"/><text fill="#000000" font-family="sans-serif" font-size="13" lengthAdjust="spacing" textLength="71" x="282" y="261.1045">revisarStock</text></g><!--link RevisadoStock to FaltaStock--><g id="link_RevisadoStock_FaltaStock"><path d="M206.08,366.8994 C208.92,389.2194 212.3343,416.1472 215.1643,438.4372 " fill="none" id="RevisadoStock-to-FaltaStock" style="stroke:#181818;stroke-width:1.0;"/><polygon fill="#181818" points="215.92,444.3894,218.7546,434.9572,215.2902,439.4292,210.8183,435.9649,215.92,444.3894" style="stroke:#181818;stroke-width:1.0;"/><text fill="#000000" font-family="sans-serif" font-size="13" lengthAdjust="spacing" textLength="58" x="212" y="411.1045">stockBajo</text></g><!--link RevisadoStock to SuficienteStock--><g id="link_RevisadoStock_SuficienteStock"><path d="M179.69,366.7894 C170.72,376.1094 160.38,386.8494 151,396.6094 C135.65,412.5894 122.5488,426.2549 109.1388,440.2649 " fill="none" id="RevisadoStock-to-SuficienteStock" style="stroke:#181818;stroke-width:1.0;"/><polygon fill="#181818" points="104.99,444.5994,114.1028,440.8636,108.4473,440.9873,108.3236,435.3318,104.99,444.5994" style="stroke:#181818;stroke-width:1.0;"/><text fill="#000000" font-family="sans-serif" font-size="13" lengthAdjust="spacing" textLength="49" x="152" y="411.1045">stockOk</text></g><!--link FaltaStock to PedidoRealizado--><g id="link_FaltaStock_PedidoRealizado"><path d="M224.46,494.7094 C230.81,522.6994 239.8836,562.7478 246.2236,590.7178 " fill="none" id="FaltaStock-to-PedidoRealizado" style="stroke:#181818;stroke-width:1.0;"/><polygon fill="#181818" points="247.55,596.5694,249.4615,586.9078,246.4447,591.6931,241.6594,588.6763,247.55,596.5694" style="stroke:#181818;stroke-width:1.0;"/><text fill="#000000" font-family="sans-serif" font-size="13" lengthAdjust="spacing" textLength="82" x="235" y="541.1045">realizarPedido</text></g><!--link PedidoRealizado to SuficienteStock--><g id="link_PedidoRealizado_SuficienteStock"><path d="M226.85,596.5094 C209.79,581.9394 186.41,564.0294 163,552.6094 C150.6,546.5594 144.28,552.5594 133,544.6094 C115.15,532.0294 104.3666,516.3778 95.7266,499.9778 " fill="none" id="PedidoRealizado-to-SuficienteStock" style="stroke:#181818;stroke-width:1.0;"/><polygon fill="#181818" points="92.93,494.6694,93.586,504.4964,95.2605,499.093,100.6638,500.7675,92.93,494.6694" style="stroke:#181818;stroke-width:1.0;"/><text fill="#000000" font-family="sans-serif" font-size="13" lengthAdjust="spacing" textLength="88" x="134" y="541.1045">pedidoRecibido</text></g><!--link ClienteEsperando to MenuListo--><g id="link_ClienteEsperando_MenuListo"><path d="M380.01,366.8394 C391.63,381.5794 407.61,400.2794 424,414.6094 C436.43,425.4694 446.1334,432.5653 459.7534,441.2053 " fill="none" id="ClienteEsperando-to-MenuListo" style="stroke:#181818;stroke-width:1.0;"/><polygon fill="#181818" points="464.82,444.4194,459.3628,436.2206,460.5979,441.741,455.0775,442.976,464.82,444.4194" style="stroke:#181818;stroke-width:1.0;"/><text fill="#000000" font-family="sans-serif" font-size="13" lengthAdjust="spacing" textLength="78" x="425" y="411.1045">mirandoMenu</text></g><!--link CreandoMenu to MenuListo--><g id="link_CreandoMenu_MenuListo"><path d="M516.69,366.8994 C514.56,389.2194 511.9981,416.1263 509.8781,438.4163 " fill="none" id="CreandoMenu-to-MenuListo" style="stroke:#181818;stroke-width:1.0;"/><polygon fill="#181818" points="509.31,444.3894,514.1442,435.8085,509.7834,439.4118,506.1801,435.0511,509.31,444.3894" style="stroke:#181818;stroke-width:1.0;"/><text fill="#000000" font-family="sans-serif" font-size="13" lengthAdjust="spacing" textLength="73" x="514" y="411.1045">menuCreado</text></g><!--link MenuListo to PlatoEscogido--><g id="link_MenuListo_PlatoEscogido"><path d="M508.93,494.7094 C511.17,522.6994 514.361,562.6185 516.601,590.5885 " fill="none" id="MenuListo-to-PlatoEscogido" style="stroke:#181818;stroke-width:1.0;"/><polygon fill="#181818" points="517.08,596.5694,520.3488,587.2788,516.6808,591.5853,512.3743,587.9174,517.08,596.5694" style="stroke:#181818;stroke-width:1.0;"/><text fill="#000000" font-family="sans-serif" font-size="13" lengthAdjust="spacing" textLength="67" x="513" y="541.1045">clienteElige</text></g><!--link DineroDisponible to CreandoMenu--><g id="link_DineroDisponible_CreandoMenu"><path d="M519,214.7094 C519,242.6994 519,282.5994 519,310.5694 " fill="none" id="DineroDisponible-to-CreandoMenu" style="stroke:#181818;stroke-width:1.0;"/><polygon fill="#181818" points="519,316.5694,523,307.5694,519,311.5694,515,307.5694,519,316.5694" style="stroke:#181818;stroke-width:1.0;"/><text fill="#000000" font-family="sans-serif" font-size="13" lengthAdjust="spacing" textLength="39" x="520" y="261.1045">ajustar</text></g><!--link SuficienteStock to OrganizadoIngredientesYPlato--><g id="link_SuficienteStock_OrganizadoIngredientesYPlato"><path d="M71.43,494.8694 C55.4,535.8394 30.83,619.2494 71,670.6094 C108.2,718.1694 260.9012,745.9069 369.8512,760.2369 " fill="none" id="SuficienteStock-to-OrganizadoIngredientesYPlato" style="stroke:#181818;stroke-width:1.0;"/><polygon fill="#181818" points="375.8,761.0194,367.3985,755.8799,370.8427,760.3673,366.3552,763.8116,375.8,761.0194" style="stroke:#181818;stroke-width:1.0;"/><text fill="#000000" font-family="sans-serif" font-size="13" lengthAdjust="spacing" textLength="101" x="72" y="627.1045">elegirIngredientes</text></g><!--link PlatoEscogido to OrganizadoIngredientesYPlato--><g id="link_PlatoEscogido_OrganizadoIngredientesYPlato"><path d="M513.06,646.7094 C506.15,674.6994 496.2671,714.774 489.3671,742.744 " fill="none" id="PlatoEscogido-to-OrganizadoIngredientesYPlato" style="stroke:#181818;stroke-width:1.0;"/><polygon fill="#181818" points="487.93,748.5694,493.9692,740.7894,489.1276,743.7149,486.202,738.8733,487.93,748.5694" style="stroke:#181818;stroke-width:1.0;"/><text fill="#000000" font-family="sans-serif" font-size="13" lengthAdjust="spacing" textLength="71" x="505" y="693.1045">platoElegido</text></g><!--link OrganizadoIngredientesYPlato to Cocinado--><g id="link_OrganizadoIngredientesYPlato_Cocinado"><path d="M482.96,798.8994 C483.85,821.2194 484.9106,848.1042 485.8006,870.3942 " fill="none" id="OrganizadoIngredientesYPlato-to-Cocinado" style="stroke:#181818;stroke-width:1.0;"/><polygon fill="#181818" points="486.04,876.3894,489.6777,867.237,485.8405,871.3934,481.6841,867.5561,486.04,876.3894" style="stroke:#181818;stroke-width:1.0;"/><text fill="#000000" font-family="sans-serif" font-size="13" lengthAdjust="spacing" textLength="59" x="485" y="843.1045">cocinando</text></g><!--link Cocinado to Servido--><g id="link_Cocinado_Servido"><path d="M494.52,926.6894 C501.63,949.4294 510.4405,977.6325 517.5805,1000.4825 " fill="none" id="Cocinado-to-Servido" style="stroke:#181818;stroke-width:1.0;"/><polygon fill="#181818" points="519.37,1006.2094,520.5037,996.426,517.8787,1001.4369,512.8678,998.812,519.37,1006.2094" style="stroke:#181818;stroke-width:1.0;"/><text fill="#000000" font-family="sans-serif" font-size="13" lengthAdjust="spacing" textLength="70" x="510" y="973.1045">darAlCliente</text></g><!--link Servido to *end*--><g id="link_Servido_*end*"><path d="M525.5,1056.8494 C525.59,1071.4194 527.51,1089.9294 535,1104.6094 C542.88,1120.0594 554.3261,1129.2099 564.7261,1135.9099 " fill="none" id="Servido-to-*end*" style="stroke:#181818;stroke-width:1.0;"/><polygon fill="#181818" points="569.77,1139.1594,564.3704,1130.9226,565.5667,1136.4515,560.0378,1137.6478,569.77,1139.1594" style="stroke:#181818;stroke-width:1.0;"/><text fill="#000000" font-family="sans-serif" font-size="13" lengthAdjust="spacing" textLength="70" x="536" y="1101.1045">clienteSeVa</text></g><!--link Cerrada to *end*--><g id="link_Cerrada_*end*"><path d="M631.66,1056.7894 C626.79,1071.1694 619.71,1089.4994 611,1104.6094 C603.9,1116.9394 597.2272,1125.0591 590.1872,1132.7291 " fill="none" id="Cerrada-to-*end*" style="stroke:#181818;stroke-width:1.0;"/><polygon fill="#181818" points="586.13,1137.1494,595.1627,1133.2237,589.511,1133.4658,589.269,1127.8141,586.13,1137.1494" style="stroke:#181818;stroke-width:1.0;"/></g><!--SRC=[ZLDDJyCm3BtdL-ICj3-m0n9i0mqDRTea98GuUAsfF4fIEUaE8FuxZjFketo8NfhOpo_FBqwaMAET4bGCRs1BjBCGeVJ1Zkoa9dGHZNcwUBQZqQMzsX9o13ksvAWWu3lF3aeu02R8B7i1E3y_X_Ir2il4iz0WWolzs1OvigYn0cECI8XeRp54ycxkzf839cy_Z9Nlb6gDUmgYTnDzyIhdikvPjme-1wII6wWZzFYG_jUmyx-0D-sBj96qdLKiNytdGEQA_HwnzDofF3ac4QsmfDAl4MfwbnDKgguvPxHc2FfPGTEX2jgcmg6GUtHjfs5ej1Ac_8Aa3Q5w8usdK2uGKTt-ErRMATzfFQQqlHgYduN2LwJDTHSwgwd27wp2q3Ojfk8iT4eEsKyfDDxHLYPIn-GePcnXrme7V-CI6r1c8TCClKeiIwx0gPrpLx5ObzBXKGMBK9IH8pvDvPiuw-SVF8qM9BBEdp_nsfuloELHA7JfycKUudhxoFliQ0byLVTFiWydI7fy1yCt-02cVuPTrdm1]--></g></svg>