<svg xmlns="http://www.w3.org/2000/svg" xmlns:xlink="http://www.w3.org/1999/xlink" contentStyleType="text/css" data-diagram-type="CLASS" height="755px" preserveAspectRatio="none" style="width:1239px;height:755px;background:#FFFFFF;" version="1.1" viewBox="0 0 1239 755" width="1239px" zoomAndPan="magnify"><title>Modelo de dominio &#8212; Cafeter&#237;a</title><defs/><g><g class="title" data-source-line="1"><text fill="#000000" font-family="sans-serif" font-size="14" font-weight="bold" lengthAdjust="spacing" textLength="246.5518" x="489.4515" y="22.9951">Modelo de dominio &#8212; Cafeter&#237;a</text></g><!--class Cafeteria--><g class="entity" data-entity="Cafeteria" data-source-line="4" data-uid="ent0002" id="entity_Cafeteria"><rect fill="#F1F1F1" height="48" rx="2.5" ry="2.5" style="stroke:#181818;stroke-width:0.5;" width="96.2236" x="582.06" y="44.2969"/><ellipse cx="597.06" cy="60.2969" fill="#ADD1B2" rx="11" ry="11" style="stroke:#181818;stroke-width:1;"/><path d="M600.0288,65.9375 Q599.4506,66.2344 598.81,66.375 Q598.1694,66.5313 597.4663,66.5313 Q594.9663,66.5313 593.6381,64.8906 Q592.3256,63.2344 592.3256,60.1094 Q592.3256,56.9844 593.6381,55.3281 Q594.9663,53.6719 597.4663,53.6719 Q598.1694,53.6719 598.81,53.8281 Q599.4663,53.9844 600.0288,54.2813 L600.0288,57 Q599.4038,56.4219 598.81,56.1563 Q598.2163,55.875 597.5913,55.875 Q596.2475,55.875 595.56,56.9531 Q594.8725,58.0156 594.8725,60.1094 Q594.8725,62.2031 595.56,63.2813 Q596.2475,64.3438 597.5913,64.3438 Q598.2163,64.3438 598.81,64.0781 Q599.4038,63.7969 600.0288,63.2188 L600.0288,65.9375 Z " fill="#000000"/><text fill="#000000" font-family="sans-serif" font-size="14" lengthAdjust="spacing" textLength="64.2236" x="611.06" y="65.1436">Cafeteria</text><line style="stroke:#181818;stroke-width:0.5;" x1="583.06" x2="677.2836" y1="76.2969" y2="76.2969"/><line style="stroke:#181818;stroke-width:0.5;" x1="583.06" x2="677.2836" y1="84.2969" y2="84.2969"/></g><!--class Menu--><g class="entity" data-entity="Menu" data-source-line="6" data-uid="ent0003" id="entity_Menu"><rect fill="#F1F1F1" height="48" rx="2.5" ry="2.5" style="stroke:#181818;stroke-width:0.5;" width="70.4385" x="1136.95" y="247.2969"/><ellipse cx="1151.95" cy="263.2969" fill="#ADD1B2" rx="11" ry="11" style="stroke:#181818;stroke-width:1;"/><path d="M1154.9188,268.9375 Q1154.3406,269.2344 1153.7,269.375 Q1153.0594,269.5313 1152.3563,269.5313 Q1149.8563,269.5313 1148.5281,267.8906 Q1147.2156,266.2344 1147.2156,263.1094 Q1147.2156,259.9844 1148.5281,258.3281 Q1149.8563,256.6719 1152.3563,256.6719 Q1153.0594,256.6719 1153.7,256.8281 Q1154.3563,256.9844 1154.9188,257.2813 L1154.9188,260 Q1154.2938,259.4219 1153.7,259.1563 Q1153.1063,258.875 1152.4813,258.875 Q1151.1375,258.875 1150.45,259.9531 Q1149.7625,261.0156 1149.7625,263.1094 Q1149.7625,265.2031 1150.45,266.2813 Q1151.1375,267.3438 1152.4813,267.3438 Q1153.1063,267.3438 1153.7,267.0781 Q1154.2938,266.7969 1154.9188,266.2188 L1154.9188,268.9375 Z " fill="#000000"/><text fill="#000000" font-family="sans-serif" font-size="14" lengthAdjust="spacing" textLength="38.4385" x="1165.95" y="268.1436">Menu</text><line style="stroke:#181818;stroke-width:0.5;" x1="1137.95" x2="1206.3885" y1="279.2969" y2="279.2969"/><line style="stroke:#181818;stroke-width:0.5;" x1="1137.95" x2="1206.3885" y1="287.2969" y2="287.2969"/></g><!--class Plato--><g class="entity" data-entity="Plato" data-source-line="7" data-uid="ent0004" id="entity_Plato"><rect fill="#F1F1F1" height="48" rx="2.5" ry="2.5" style="stroke:#181818;stroke-width:0.5;" width="66.9658" x="1029.68" y="450.2969"/><ellipse cx="1044.68" cy="466.2969" fill="#ADD1B2" rx="11" ry="11" style="stroke:#181818;stroke-width:1;"/><path d="M1047.6487,471.9375 Q1047.0706,472.2344 1046.43,472.375 Q1045.7894,472.5313 1045.0862,472.5313 Q1042.5862,472.5313 1041.2581,470.8906 Q1039.9456,469.2344 1039.9456,466.1094 Q1039.9456,462.9844 1041.2581,461.3281 Q1042.5862,459.6719 1045.0862,459.6719 Q1045.7894,459.6719 1046.43,459.8281 Q1047.0862,459.9844 1047.6487,460.2813 L1047.6487,463 Q1047.0237,462.4219 1046.43,462.1563 Q1045.8362,461.875 1045.2112,461.875 Q1043.8675,461.875 1043.18,462.9531 Q1042.4925,464.0156 1042.4925,466.1094 Q1042.4925,468.2031 1043.18,469.2813 Q1043.8675,470.3438 1045.2112,470.3438 Q1045.8362,470.3438 1046.43,470.0781 Q1047.0237,469.7969 1047.6487,469.2188 L1047.6487,471.9375 Z " fill="#000000"/><text fill="#000000" font-family="sans-serif" font-size="14" lengthAdjust="spacing" textLength="34.9658" x="1058.68" y="471.1436">Plato</text><line style="stroke:#181818;stroke-width:0.5;" x1="1030.68" x2="1095.6458" y1="482.2969" y2="482.2969"/><line style="stroke:#181818;stroke-width:0.5;" x1="1030.68" x2="1095.6458" y1="490.2969" y2="490.2969"/></g><!--class Categoria--><g class="entity" data-entity="Categoria" data-source-line="8" data-uid="ent0005" id="entity_Categoria"><rect fill="#F1F1F1" height="48" rx="2.5" ry="2.5" style="stroke:#181818;stroke-width:0.5;" width="100.1338" x="1079.1" y="575.2969"/><ellipse cx="1094.1" cy="591.2969" fill="#ADD1B2" rx="11" ry="11" style="stroke:#181818;stroke-width:1;"/><path d="M1097.0688,596.9375 Q1096.4906,597.2344 1095.85,597.375 Q1095.2094,597.5313 1094.5063,597.5313 Q1092.0063,597.5313 1090.6781,595.8906 Q1089.3656,594.2344 1089.3656,591.1094 Q1089.3656,587.9844 1090.6781,586.3281 Q1092.0063,584.6719 1094.5063,584.6719 Q1095.2094,584.6719 1095.85,584.8281 Q1096.5063,584.9844 1097.0688,585.2813 L1097.0688,588 Q1096.4438,587.4219 1095.85,587.1563 Q1095.2563,586.875 1094.6313,586.875 Q1093.2875,586.875 1092.6,587.9531 Q1091.9125,589.0156 1091.9125,591.1094 Q1091.9125,593.2031 1092.6,594.2813 Q1093.2875,595.3438 1094.6313,595.3438 Q1095.2563,595.3438 1095.85,595.0781 Q1096.4438,594.7969 1097.0688,594.2188 L1097.0688,596.9375 Z " fill="#000000"/><text fill="#000000" font-family="sans-serif" font-size="14" lengthAdjust="spacing" textLength="68.1338" x="1108.1" y="596.1436">Categoria</text><line style="stroke:#181818;stroke-width:0.5;" x1="1080.1" x2="1178.2338" y1="607.2969" y2="607.2969"/><line style="stroke:#181818;stroke-width:0.5;" x1="1080.1" x2="1178.2338" y1="615.2969" y2="615.2969"/></g><!--class Precio--><g class="entity" data-entity="Precio" data-source-line="9" data-uid="ent0006" id="entity_Precio"><rect fill="#F1F1F1" height="48" rx="2.5" ry="2.5" style="stroke:#181818;stroke-width:0.5;" width="74.9639" x="959.69" y="575.2969"/><ellipse cx="974.69" cy="591.2969" fill="#ADD1B2" rx="11" ry="11" style="stroke:#181818;stroke-width:1;"/><path d="M977.6588,596.9375 Q977.0806,597.2344 976.44,597.375 Q975.7994,597.5313 975.0963,597.5313 Q972.5963,597.5313 971.2681,595.8906 Q969.9556,594.2344 969.9556,591.1094 Q969.9556,587.9844 971.2681,586.3281 Q972.5963,584.6719 975.0963,584.6719 Q975.7994,584.6719 976.44,584.8281 Q977.0963,584.9844 977.6588,585.2813 L977.6588,588 Q977.0338,587.4219 976.44,587.1563 Q975.8463,586.875 975.2213,586.875 Q973.8775,586.875 973.19,587.9531 Q972.5025,589.0156 972.5025,591.1094 Q972.5025,593.2031 973.19,594.2813 Q973.8775,595.3438 975.2213,595.3438 Q975.8463,595.3438 976.44,595.0781 Q977.0338,594.7969 977.6588,594.2188 L977.6588,596.9375 Z " fill="#000000"/><text fill="#000000" font-family="sans-serif" font-size="14" lengthAdjust="spacing" textLength="42.9639" x="988.69" y="596.1436">Precio</text><line style="stroke:#181818;stroke-width:0.5;" x1="960.69" x2="1033.6539" y1="607.2969" y2="607.2969"/><line style="stroke:#181818;stroke-width:0.5;" x1="960.69" x2="1033.6539" y1="615.2969" y2="615.2969"/></g><!--class Receta--><g class="entity" data-entity="Receta" data-source-line="10" data-uid="ent0007" id="entity_Receta"><rect fill="#F1F1F1" height="48" rx="2.5" ry="2.5" style="stroke:#181818;stroke-width:0.5;" width="80.7197" x="610.81" y="575.2969"/><ellipse cx="625.81" cy="591.2969" fill="#ADD1B2" rx="11" ry="11" style="stroke:#181818;stroke-width:1;"/><path d="M628.7788,596.9375 Q628.2006,597.2344 627.56,597.375 Q626.9194,597.5313 626.2163,597.5313 Q623.7163,597.5313 622.3881,595.8906 Q621.0756,594.2344 621.0756,591.1094 Q621.0756,587.9844 622.3881,586.3281 Q623.7163,584.6719 626.2163,584.6719 Q626.9194,584.6719 627.56,584.8281 Q628.2163,584.9844 628.7788,585.2813 L628.7788,588 Q628.1538,587.4219 627.56,587.1563 Q626.9663,586.875 626.3413,586.875 Q624.9975,586.875 624.31,587.9531 Q623.6225,589.0156 623.6225,591.1094 Q623.6225,593.2031 624.31,594.2813 Q624.9975,595.3438 626.3413,595.3438 Q626.9663,595.3438 627.56,595.0781 Q628.1538,594.7969 628.7788,594.2188 L628.7788,596.9375 Z " fill="#000000"/><text fill="#000000" font-family="sans-serif" font-size="14" lengthAdjust="spacing" textLength="48.7197" x="639.81" y="596.1436">Receta</text><line style="stroke:#181818;stroke-width:0.5;" x1="611.81" x2="690.5297" y1="607.2969" y2="607.2969"/><line style="stroke:#181818;stroke-width:0.5;" x1="611.81" x2="690.5297" y1="615.2969" y2="615.2969"/></g><!--class Pasos--><g class="entity" data-entity="Pasos" data-source-line="11" data-uid="ent0008" id="entity_Pasos"><rect fill="#F1F1F1" height="48" rx="2.5" ry="2.5" style="stroke:#181818;stroke-width:0.5;" width="72.1748" x="615.08" y="700.2969"/><ellipse cx="630.08" cy="716.2969" fill="#ADD1B2" rx="11" ry="11" style="stroke:#181818;stroke-width:1;"/><path d="M633.0488,721.9375 Q632.4706,722.2344 631.83,722.375 Q631.1894,722.5313 630.4863,722.5313 Q627.9863,722.5313 626.6581,720.8906 Q625.3456,719.2344 625.3456,716.1094 Q625.3456,712.9844 626.6581,711.3281 Q627.9863,709.6719 630.4863,709.6719 Q631.1894,709.6719 631.83,709.8281 Q632.4863,709.9844 633.0488,710.2813 L633.0488,713 Q632.4238,712.4219 631.83,712.1563 Q631.2363,711.875 630.6113,711.875 Q629.2675,711.875 628.58,712.9531 Q627.8925,714.0156 627.8925,716.1094 Q627.8925,718.2031 628.58,719.2813 Q629.2675,720.3438 630.6113,720.3438 Q631.2363,720.3438 631.83,720.0781 Q632.4238,719.7969 633.0488,719.2188 L633.0488,721.9375 Z " fill="#000000"/><text fill="#000000" font-family="sans-serif" font-size="14" lengthAdjust="spacing" textLength="40.1748" x="644.08" y="721.1436">Pasos</text><line style="stroke:#181818;stroke-width:0.5;" x1="616.08" x2="686.2548" y1="732.2969" y2="732.2969"/><line style="stroke:#181818;stroke-width:0.5;" x1="616.08" x2="686.2548" y1="740.2969" y2="740.2969"/></g><!--class Ingrediente--><g class="entity" data-entity="Ingrediente" data-source-line="12" data-uid="ent0009" id="entity_Ingrediente"><rect fill="#F1F1F1" height="48" rx="2.5" ry="2.5" style="stroke:#181818;stroke-width:0.5;" width="112.623" x="176.86" y="700.2969"/><ellipse cx="191.86" cy="716.2969" fill="#ADD1B2" rx="11" ry="11" style="stroke:#181818;stroke-width:1;"/><path d="M194.8288,721.9375 Q194.2506,722.2344 193.61,722.375 Q192.9694,722.5313 192.2663,722.5313 Q189.7663,722.5313 188.4381,720.8906 Q187.1256,719.2344 187.1256,716.1094 Q187.1256,712.9844 188.4381,711.3281 Q189.7663,709.6719 192.2663,709.6719 Q192.9694,709.6719 193.61,709.8281 Q194.2663,709.9844 194.8288,710.2813 L194.8288,713 Q194.2038,712.4219 193.61,712.1563 Q193.0163,711.875 192.3913,711.875 Q191.0475,711.875 190.36,712.9531 Q189.6725,714.0156 189.6725,716.1094 Q189.6725,718.2031 190.36,719.2813 Q191.0475,720.3438 192.3913,720.3438 Q193.0163,720.3438 193.61,720.0781 Q194.2038,719.7969 194.8288,719.2188 L194.8288,721.9375 Z " fill="#000000"/><text fill="#000000" font-family="sans-serif" font-size="14" lengthAdjust="spacing" textLength="80.623" x="205.86" y="721.1436">Ingrediente</text><line style="stroke:#181818;stroke-width:0.5;" x1="177.86" x2="288.483" y1="732.2969" y2="732.2969"/><line style="stroke:#181818;stroke-width:0.5;" x1="177.86" x2="288.483" y1="740.2969" y2="740.2969"/></g><!--class Inventario--><g class="entity" data-entity="Inventario" data-source-line="14" data-uid="ent0010" id="entity_Inventario"><rect fill="#F1F1F1" height="48" rx="2.5" ry="2.5" style="stroke:#181818;stroke-width:0.5;" width="103.0527" x="229.64" y="169.2969"/><ellipse cx="244.64" cy="185.2969" fill="#ADD1B2" rx="11" ry="11" style="stroke:#181818;stroke-width:1;"/><path d="M247.6088,190.9375 Q247.0306,191.2344 246.39,191.375 Q245.7494,191.5313 245.0463,191.5313 Q242.5463,191.5313 241.2181,189.8906 Q239.9056,188.2344 239.9056,185.1094 Q239.9056,181.9844 241.2181,180.3281 Q242.5463,178.6719 245.0463,178.6719 Q245.7494,178.6719 246.39,178.8281 Q247.0463,178.9844 247.6088,179.2813 L247.6088,182 Q246.9838,181.4219 246.39,181.1563 Q245.7963,180.875 245.1713,180.875 Q243.8275,180.875 243.14,181.9531 Q242.4525,183.0156 242.4525,185.1094 Q242.4525,187.2031 243.14,188.2813 Q243.8275,189.3438 245.1713,189.3438 Q245.7963,189.3438 246.39,189.0781 Q246.9838,188.7969 247.6088,188.2188 L247.6088,190.9375 Z " fill="#000000"/><text fill="#000000" font-family="sans-serif" font-size="14" lengthAdjust="spacing" textLength="71.0527" x="258.64" y="190.1436">Inventario</text><line style="stroke:#181818;stroke-width:0.5;" x1="230.64" x2="331.6927" y1="201.2969" y2="201.2969"/><line style="stroke:#181818;stroke-width:0.5;" x1="230.64" x2="331.6927" y1="209.2969" y2="209.2969"/></g><!--class Almacen--><g class="entity" data-entity="Almacen" data-source-line="15" data-uid="ent0011" id="entity_Almacen"><rect fill="#F1F1F1" height="48" rx="2.5" ry="2.5" style="stroke:#181818;stroke-width:0.5;" width="92.8672" x="70.73" y="450.2969"/><ellipse cx="85.73" cy="466.2969" fill="#ADD1B2" rx="11" ry="11" style="stroke:#181818;stroke-width:1;"/><path d="M88.6987,471.9375 Q88.1206,472.2344 87.48,472.375 Q86.8394,472.5313 86.1362,472.5313 Q83.6362,472.5313 82.3081,470.8906 Q80.9956,469.2344 80.9956,466.1094 Q80.9956,462.9844 82.3081,461.3281 Q83.6362,459.6719 86.1362,459.6719 Q86.8394,459.6719 87.48,459.8281 Q88.1362,459.9844 88.6987,460.2813 L88.6987,463 Q88.0737,462.4219 87.48,462.1563 Q86.8862,461.875 86.2612,461.875 Q84.9175,461.875 84.23,462.9531 Q83.5425,464.0156 83.5425,466.1094 Q83.5425,468.2031 84.23,469.2813 Q84.9175,470.3438 86.2612,470.3438 Q86.8862,470.3438 87.48,470.0781 Q88.0737,469.7969 88.6987,469.2188 L88.6987,471.9375 Z " fill="#000000"/><text fill="#000000" font-family="sans-serif" font-size="14" lengthAdjust="spacing" textLength="60.8672" x="99.73" y="471.1436">Almacen</text><line style="stroke:#181818;stroke-width:0.5;" x1="71.73" x2="162.5972" y1="482.2969" y2="482.2969"/><line style="stroke:#181818;stroke-width:0.5;" x1="71.73" x2="162.5972" y1="490.2969" y2="490.2969"/></g><!--class Stock--><g class="entity" data-entity="Stock" data-source-line="16" data-uid="ent0012" id="entity_Stock"><rect fill="#F1F1F1" height="48" rx="2.5" ry="2.5" style="stroke:#181818;stroke-width:0.5;" width="70.7461" x="95.79" y="575.2969"/><ellipse cx="110.79" cy="591.2969" fill="#ADD1B2" rx="11" ry="11" style="stroke:#181818;stroke-width:1;"/><path d="M113.7588,596.9375 Q113.1806,597.2344 112.54,597.375 Q111.8994,597.5313 111.1963,597.5313 Q108.6963,597.5313 107.3681,595.8906 Q106.0556,594.2344 106.0556,591.1094 Q106.0556,587.9844 107.3681,586.3281 Q108.6963,584.6719 111.1963,584.6719 Q111.8994,584.6719 112.54,584.8281 Q113.1963,584.9844 113.7588,585.2813 L113.7588,588 Q113.1338,587.4219 112.54,587.1563 Q111.9463,586.875 111.3213,586.875 Q109.9775,586.875 109.29,587.9531 Q108.6025,589.0156 108.6025,591.1094 Q108.6025,593.2031 109.29,594.2813 Q109.9775,595.3438 111.3213,595.3438 Q111.9463,595.3438 112.54,595.0781 Q113.1338,594.7969 113.7588,594.2188 L113.7588,596.9375 Z " fill="#000000"/><text fill="#000000" font-family="sans-serif" font-size="14" lengthAdjust="spacing" textLength="38.7461" x="124.79" y="596.1436">Stock</text><line style="stroke:#181818;stroke-width:0.5;" x1="96.79" x2="165.5361" y1="607.2969" y2="607.2969"/><line style="stroke:#181818;stroke-width:0.5;" x1="96.79" x2="165.5361" y1="615.2969" y2="615.2969"/></g><!--class MovimientoDeInventario--><g class="entity" data-entity="MovimientoDeInventario" data-source-line="17" data-uid="ent0013" id="entity_MovimientoDeInventario"><rect fill="#F1F1F1" height="48" rx="2.5" ry="2.5" style="stroke:#181818;stroke-width:0.5;" width="204.334" x="7" y="325.2969"/><ellipse cx="22" cy="341.2969" fill="#ADD1B2" rx="11" ry="11" style="stroke:#181818;stroke-width:1;"/><path d="M24.9688,346.9375 Q24.3906,347.2344 23.75,347.375 Q23.1094,347.5313 22.4063,347.5313 Q19.9063,347.5313 18.5781,345.8906 Q17.2656,344.2344 17.2656,341.1094 Q17.2656,337.9844 18.5781,336.3281 Q19.9063,334.6719 22.4063,334.6719 Q23.1094,334.6719 23.75,334.8281 Q24.4063,334.9844 24.9688,335.2813 L24.9688,338 Q24.3438,337.4219 23.75,337.1563 Q23.1563,336.875 22.5313,336.875 Q21.1875,336.875 20.5,337.9531 Q19.8125,339.0156 19.8125,341.1094 Q19.8125,343.2031 20.5,344.2813 Q21.1875,345.3438 22.5313,345.3438 Q23.1563,345.3438 23.75,345.0781 Q24.3438,344.7969 24.9688,344.2188 L24.9688,346.9375 Z " fill="#000000"/><text fill="#000000" font-family="sans-serif" font-size="14" lengthAdjust="spacing" textLength="172.334" x="36" y="346.1436">MovimientoDeInventario</text><line style="stroke:#181818;stroke-width:0.5;" x1="8" x2="210.334" y1="357.2969" y2="357.2969"/><line style="stroke:#181818;stroke-width:0.5;" x1="8" x2="210.334" y1="365.2969" y2="365.2969"/></g><!--class Empleado--><g class="entity" data-entity="Empleado" data-source-line="18" data-uid="ent0014" id="entity_Empleado"><rect fill="#F1F1F1" height="48" rx="2.5" ry="2.5" style="stroke:#181818;stroke-width:0.5;" width="101.9043" x="189.21" y="44.2969"/><ellipse cx="204.21" cy="60.2969" fill="#ADD1B2" rx="11" ry="11" style="stroke:#181818;stroke-width:1;"/><path d="M207.1788,65.9375 Q206.6006,66.2344 205.96,66.375 Q205.3194,66.5313 204.6163,66.5313 Q202.1163,66.5313 200.7881,64.8906 Q199.4756,63.2344 199.4756,60.1094 Q199.4756,56.9844 200.7881,55.3281 Q202.1163,53.6719 204.6163,53.6719 Q205.3194,53.6719 205.96,53.8281 Q206.6163,53.9844 207.1788,54.2813 L207.1788,57 Q206.5538,56.4219 205.96,56.1563 Q205.3663,55.875 204.7413,55.875 Q203.3975,55.875 202.71,56.9531 Q202.0225,58.0156 202.0225,60.1094 Q202.0225,62.2031 202.71,63.2813 Q203.3975,64.3438 204.7413,64.3438 Q205.3663,64.3438 205.96,64.0781 Q206.5538,63.7969 207.1788,63.2188 L207.1788,65.9375 Z " fill="#000000"/><text fill="#000000" font-family="sans-serif" font-size="14" lengthAdjust="spacing" textLength="69.9043" x="218.21" y="65.1436">Empleado</text><line style="stroke:#181818;stroke-width:0.5;" x1="190.21" x2="290.1143" y1="76.2969" y2="76.2969"/><line style="stroke:#181818;stroke-width:0.5;" x1="190.21" x2="290.1143" y1="84.2969" y2="84.2969"/></g><!--class Presupuesto--><g class="entity" data-entity="Presupuesto" data-source-line="20" data-uid="ent0015" id="entity_Presupuesto"><rect fill="#F1F1F1" height="48" rx="2.5" ry="2.5" style="stroke:#181818;stroke-width:0.5;" width="118.7002" x="570.82" y="169.2969"/><ellipse cx="585.82" cy="185.2969" fill="#ADD1B2" rx="11" ry="11" style="stroke:#181818;stroke-width:1;"/><path d="M588.7888,190.9375 Q588.2106,191.2344 587.57,191.375 Q586.9294,191.5313 586.2263,191.5313 Q583.7263,191.5313 582.3981,189.8906 Q581.0856,188.2344 581.0856,185.1094 Q581.0856,181.9844 582.3981,180.3281 Q583.7263,178.6719 586.2263,178.6719 Q586.9294,178.6719 587.57,178.8281 Q588.2263,178.9844 588.7888,179.2813 L588.7888,182 Q588.1638,181.4219 587.57,181.1563 Q586.9763,180.875 586.3513,180.875 Q585.0075,180.875 584.32,181.9531 Q583.6325,183.0156 583.6325,185.1094 Q583.6325,187.2031 584.32,188.2813 Q585.0075,189.3438 586.3513,189.3438 Q586.9763,189.3438 587.57,189.0781 Q588.1638,188.7969 588.7888,188.2188 L588.7888,190.9375 Z " fill="#000000"/><text fill="#000000" font-family="sans-serif" font-size="14" lengthAdjust="spacing" textLength="86.7002" x="599.82" y="190.1436">Presupuesto</text><line style="stroke:#181818;stroke-width:0.5;" x1="571.82" x2="688.5202" y1="201.2969" y2="201.2969"/><line style="stroke:#181818;stroke-width:0.5;" x1="571.82" x2="688.5202" y1="209.2969" y2="209.2969"/></g><!--class LineaPresupuesto--><g class="entity" data-entity="LineaPresupuesto" data-source-line="21" data-uid="ent0016" id="entity_LineaPresupuesto"><rect fill="#F1F1F1" height="48" rx="2.5" ry="2.5" style="stroke:#181818;stroke-width:0.5;" width="156.4551" x="945.94" y="325.2969"/><ellipse cx="960.94" cy="341.2969" fill="#ADD1B2" rx="11" ry="11" style="stroke:#181818;stroke-width:1;"/><path d="M963.9088,346.9375 Q963.3306,347.2344 962.69,347.375 Q962.0494,347.5313 961.3463,347.5313 Q958.8463,347.5313 957.5181,345.8906 Q956.2056,344.2344 956.2056,341.1094 Q956.2056,337.9844 957.5181,336.3281 Q958.8463,334.6719 961.3463,334.6719 Q962.0494,334.6719 962.69,334.8281 Q963.3463,334.9844 963.9088,335.2813 L963.9088,338 Q963.2838,337.4219 962.69,337.1563 Q962.0963,336.875 961.4713,336.875 Q960.1275,336.875 959.44,337.9531 Q958.7525,339.0156 958.7525,341.1094 Q958.7525,343.2031 959.44,344.2813 Q960.1275,345.3438 961.4713,345.3438 Q962.0963,345.3438 962.69,345.0781 Q963.2838,344.7969 963.9088,344.2188 L963.9088,346.9375 Z " fill="#000000"/><text fill="#000000" font-family="sans-serif" font-size="14" lengthAdjust="spacing" textLength="124.4551" x="974.94" y="346.1436">LineaPresupuesto</text><line style="stroke:#181818;stroke-width:0.5;" x1="946.94" x2="1101.3951" y1="357.2969" y2="357.2969"/><line style="stroke:#181818;stroke-width:0.5;" x1="946.94" x2="1101.3951" y1="365.2969" y2="365.2969"/></g><!--class Cliente--><g class="entity" data-entity="Cliente" data-source-line="22" data-uid="ent0017" id="entity_Cliente"><rect fill="#F1F1F1" height="48" rx="2.5" ry="2.5" style="stroke:#181818;stroke-width:0.5;" width="81.1436" x="745.6" y="325.2969"/><ellipse cx="760.6" cy="341.2969" fill="#ADD1B2" rx="11" ry="11" style="stroke:#181818;stroke-width:1;"/><path d="M763.5688,346.9375 Q762.9906,347.2344 762.35,347.375 Q761.7094,347.5313 761.0063,347.5313 Q758.5063,347.5313 757.1781,345.8906 Q755.8656,344.2344 755.8656,341.1094 Q755.8656,337.9844 757.1781,336.3281 Q758.5063,334.6719 761.0063,334.6719 Q761.7094,334.6719 762.35,334.8281 Q763.0063,334.9844 763.5688,335.2813 L763.5688,338 Q762.9438,337.4219 762.35,337.1563 Q761.7563,336.875 761.1313,336.875 Q759.7875,336.875 759.1,337.9531 Q758.4125,339.0156 758.4125,341.1094 Q758.4125,343.2031 759.1,344.2813 Q759.7875,345.3438 761.1313,345.3438 Q761.7563,345.3438 762.35,345.0781 Q762.9438,344.7969 763.5688,344.2188 L763.5688,346.9375 Z " fill="#000000"/><text fill="#000000" font-family="sans-serif" font-size="14" lengthAdjust="spacing" textLength="49.1436" x="774.6" y="346.1436">Cliente</text><line style="stroke:#181818;stroke-width:0.5;" x1="746.6" x2="825.7436" y1="357.2969" y2="357.2969"/><line style="stroke:#181818;stroke-width:0.5;" x1="746.6" x2="825.7436" y1="365.2969" y2="365.2969"/></g><!--class Empresa--><g class="entity" data-entity="Empresa" data-source-line="23" data-uid="ent0018" id="entity_Empresa"><rect fill="#F1F1F1" height="48" rx="2.5" ry="2.5" style="stroke:#181818;stroke-width:0.5;" width="93.6123" x="386.36" y="325.2969"/><ellipse cx="401.36" cy="341.2969" fill="#ADD1B2" rx="11" ry="11" style="stroke:#181818;stroke-width:1;"/><path d="M404.3288,346.9375 Q403.7506,347.2344 403.11,347.375 Q402.4694,347.5313 401.7663,347.5313 Q399.2663,347.5313 397.9381,345.8906 Q396.6256,344.2344 396.6256,341.1094 Q396.6256,337.9844 397.9381,336.3281 Q399.2663,334.6719 401.7663,334.6719 Q402.4694,334.6719 403.11,334.8281 Q403.7663,334.9844 404.3288,335.2813 L404.3288,338 Q403.7038,337.4219 403.11,337.1563 Q402.5163,336.875 401.8913,336.875 Q400.5475,336.875 399.86,337.9531 Q399.1725,339.0156 399.1725,341.1094 Q399.1725,343.2031 399.86,344.2813 Q400.5475,345.3438 401.8913,345.3438 Q402.5163,345.3438 403.11,345.0781 Q403.7038,344.7969 404.3288,344.2188 L404.3288,346.9375 Z " fill="#000000"/><text fill="#000000" font-family="sans-serif" font-size="14" lengthAdjust="spacing" textLength="61.6123" x="415.36" y="346.1436">Empresa</text><line style="stroke:#181818;stroke-width:0.5;" x1="387.36" x2="478.9723" y1="357.2969" y2="357.2969"/><line style="stroke:#181818;stroke-width:0.5;" x1="387.36" x2="478.9723" y1="365.2969" y2="365.2969"/></g><!--class Moneda--><g class="entity" data-entity="Moneda" data-source-line="24" data-uid="ent0019" id="entity_Moneda"><rect fill="#F1F1F1" height="48" rx="2.5" ry="2.5" style="stroke:#181818;stroke-width:0.5;" width="87.5967" x="515.37" y="325.2969"/><ellipse cx="530.37" cy="341.2969" fill="#ADD1B2" rx="11" ry="11" style="stroke:#181818;stroke-width:1;"/><path d="M533.3388,346.9375 Q532.7606,347.2344 532.12,347.375 Q531.4794,347.5313 530.7763,347.5313 Q528.2763,347.5313 526.9481,345.8906 Q525.6356,344.2344 525.6356,341.1094 Q525.6356,337.9844 526.9481,336.3281 Q528.2763,334.6719 530.7763,334.6719 Q531.4794,334.6719 532.12,334.8281 Q532.7763,334.9844 533.3388,335.2813 L533.3388,338 Q532.7138,337.4219 532.12,337.1563 Q531.5263,336.875 530.9013,336.875 Q529.5575,336.875 528.87,337.9531 Q528.1825,339.0156 528.1825,341.1094 Q528.1825,343.2031 528.87,344.2813 Q529.5575,345.3438 530.9013,345.3438 Q531.5263,345.3438 532.12,345.0781 Q532.7138,344.7969 533.3388,344.2188 L533.3388,346.9375 Z " fill="#000000"/><text fill="#000000" font-family="sans-serif" font-size="14" lengthAdjust="spacing" textLength="55.5967" x="544.37" y="346.1436">Moneda</text><line style="stroke:#181818;stroke-width:0.5;" x1="516.37" x2="601.9667" y1="357.2969" y2="357.2969"/><line style="stroke:#181818;stroke-width:0.5;" x1="516.37" x2="601.9667" y1="365.2969" y2="365.2969"/></g><!--class Impuesto--><g class="entity" data-entity="Impuesto" data-source-line="25" data-uid="ent0020" id="entity_Impuesto"><rect fill="#F1F1F1" height="48" rx="2.5" ry="2.5" style="stroke:#181818;stroke-width:0.5;" width="97.4883" x="897.42" y="450.2969"/><ellipse cx="912.42" cy="466.2969" fill="#ADD1B2" rx="11" ry="11" style="stroke:#181818;stroke-width:1;"/><path d="M915.3888,471.9375 Q914.8106,472.2344 914.17,472.375 Q913.5294,472.5313 912.8263,472.5313 Q910.3263,472.5313 908.9981,470.8906 Q907.6856,469.2344 907.6856,466.1094 Q907.6856,462.9844 908.9981,461.3281 Q910.3263,459.6719 912.8263,459.6719 Q913.5294,459.6719 914.17,459.8281 Q914.8263,459.9844 915.3888,460.2813 L915.3888,463 Q914.7638,462.4219 914.17,462.1563 Q913.5763,461.875 912.9513,461.875 Q911.6075,461.875 910.92,462.9531 Q910.2325,464.0156 910.2325,466.1094 Q910.2325,468.2031 910.92,469.2813 Q911.6075,470.3438 912.9513,470.3438 Q913.5763,470.3438 914.17,470.0781 Q914.7638,469.7969 915.3888,469.2188 L915.3888,471.9375 Z " fill="#000000"/><text fill="#000000" font-family="sans-serif" font-size="14" lengthAdjust="spacing" textLength="65.4883" x="926.42" y="471.1436">Impuesto</text><line style="stroke:#181818;stroke-width:0.5;" x1="898.42" x2="993.9083" y1="482.2969" y2="482.2969"/><line style="stroke:#181818;stroke-width:0.5;" x1="898.42" x2="993.9083" y1="490.2969" y2="490.2969"/></g><!--link Cafeteria to Menu--><g class="link" data-entity-1="Cafeteria" data-entity-2="Menu" data-source-line="28" data-uid="lnk21" id="link_Cafeteria_Menu"><path codeLine="28" d="M678.74,87.3069 C786.31,127.2069 1036.9043,220.1409 1131.0543,255.0509" fill="none" id="Cafeteria-to-Menu" style="stroke:#181818;stroke-width:1;"/><polygon fill="#181818" points="1136.68,257.1369,1129.6321,250.2574,1131.9919,255.3986,1126.8508,257.7584,1136.68,257.1369" style="stroke:#181818;stroke-width:1;"/><polygon fill="#000000" points="818.858,132.6019,811.3992,126.7012,809.3554,132.2123,818.858,132.6019" style="stroke:#000000;stroke-width:1;"/><text fill="#000000" font-family="sans-serif" font-size="13" lengthAdjust="spacing" textLength="41.0186" x="823.17" y="135.3638">ofrece</text></g><!--link Cafeteria to Inventario--><g class="link" data-entity-1="Cafeteria" data-entity-2="Inventario" data-source-line="29" data-uid="lnk22" id="link_Cafeteria_Inventario"><path codeLine="29" d="M581.64,86.3969 C516.18,109.4669 405.7389,148.3926 338.6289,172.0426" fill="none" id="Cafeteria-to-Inventario" style="stroke:#181818;stroke-width:1;"/><polygon fill="#181818" points="332.97,174.0369,342.7878,174.8181,337.6857,172.375,340.1288,167.2729,332.97,174.0369" style="stroke:#181818;stroke-width:1;"/><polygon fill="#000000" points="476.4543,132.5253,485.962,132.2905,484.0082,126.7469,476.4543,132.5253" style="stroke:#000000;stroke-width:1;"/><text fill="#000000" font-family="sans-serif" font-size="13" lengthAdjust="spacing" textLength="55.8911" x="490.17" y="135.3638">gestiona</text></g><!--link Cafeteria to Presupuesto--><g class="link" data-entity-1="Cafeteria" data-entity-2="Presupuesto" data-source-line="30" data-uid="lnk23" id="link_Cafeteria_Presupuesto"><path codeLine="30" d="M630.17,92.7169 C630.17,114.6069 630.17,141.0969 630.17,162.9569" fill="none" id="Cafeteria-to-Presupuesto" style="stroke:#181818;stroke-width:1;"/><polygon fill="#181818" points="630.17,168.9569,634.17,159.9569,630.17,163.9569,626.17,159.9569,630.17,168.9569" style="stroke:#181818;stroke-width:1;"/><polygon fill="#000000" points="635.17,135.8633,638.1089,126.8182,632.2311,126.8182,635.17,135.8633" style="stroke:#000000;stroke-width:1;"/><text fill="#000000" font-family="sans-serif" font-size="13" lengthAdjust="spacing" textLength="37.3687" x="644.17" y="135.3638">emite</text></g><!--link Menu to Plato--><g class="link" data-entity-1="Menu" data-entity-2="Plato" data-source-line="33" data-uid="lnk24" id="link_Menu_Plato"><path codeLine="33" d="M1168.34,295.7569 C1162.5,326.4369 1149.19,380.8769 1123.17,420.2969 C1115.89,431.3169 1110.3215,437.5709 1100.4515,445.9609" fill="none" id="Menu-to-Plato" style="stroke:#181818;stroke-width:1;"/><polygon fill="#181818" points="1095.88,449.8469,1105.328,447.0655,1099.6896,446.6085,1100.1466,440.9702,1095.88,449.8469" style="stroke:#181818;stroke-width:1;"/><polygon fill="#000000" points="1164.1107,353.9195,1170.5141,346.8876,1165.1579,344.4668,1164.1107,353.9195" style="stroke:#000000;stroke-width:1;"/><text fill="#000000" font-family="sans-serif" font-size="13" lengthAdjust="spacing" textLength="56.2847" x="1175.17" y="353.8638">contiene</text></g><!--link Plato to Categoria--><g class="link" data-entity-1="Plato" data-entity-2="Categoria" data-source-line="34" data-uid="lnk25" id="link_Plato_Categoria"><path codeLine="34" d="M1075.74,498.7169 C1087.48,520.6069 1102.0849,547.8089 1113.8049,569.6689" fill="none" id="Plato-to-Categoria" style="stroke:#181818;stroke-width:1;"/><polygon fill="#181818" points="1116.64,574.9569,1115.9127,565.1349,1114.2774,570.5503,1108.8621,568.915,1116.64,574.9569" style="stroke:#181818;stroke-width:1;"/><polygon fill="#000000" points="1106.5338,541.2693,1104.8475,531.9094,1099.6679,534.6881,1106.5338,541.2693" style="stroke:#000000;stroke-width:1;"/><text fill="#000000" font-family="sans-serif" font-size="13" lengthAdjust="spacing" textLength="78.1714" x="1113.17" y="541.3638">pertenece a</text></g><!--link Plato to Precio--><g class="link" data-entity-1="Plato" data-entity-2="Precio" data-source-line="35" data-uid="lnk26" id="link_Plato_Precio"><path codeLine="35" d="M1029.49,491.4269 C1015.23,500.1869 1000.1,512.4869 992.17,528.2969 C984.96,542.6769 985.1927,554.9833 988.3927,569.2033" fill="none" id="Plato-to-Precio" style="stroke:#181818;stroke-width:1;"/><polygon fill="#181818" points="989.71,575.0569,991.6365,565.3983,988.6123,570.1789,983.8317,567.1546,989.71,575.0569" style="stroke:#181818;stroke-width:1;"/><polygon fill="#000000" points="994.834,541.2841,1001.6583,534.6598,996.4614,531.9138,994.834,541.2841" style="stroke:#000000;stroke-width:1;"/><text fill="#000000" font-family="sans-serif" font-size="13" lengthAdjust="spacing" textLength="77.3843" x="1006.17" y="541.3638">tiene precio</text></g><!--link Plato to Receta--><g class="link" data-entity-1="Plato" data-entity-2="Receta" data-source-line="38" data-uid="lnk27" id="link_Plato_Receta"><path codeLine="38" d="M1029.28,491.8169 C1023.65,494.2069 1017.8,496.4669 1012.17,498.2969 C949.57,518.6169 930.79,511.4569 867.17,528.2969 C805.24,544.6869 740.5591,566.4833 697.4391,581.6733" fill="none" id="Plato-to-Receta" style="stroke:#181818;stroke-width:1;"/><polygon fill="#181818" points="691.78,583.6669,701.5977,584.4493,696.4959,582.0056,698.9397,576.9038,691.78,583.6669" style="stroke:#181818;stroke-width:1;"/><polygon fill="#000000" points="867.3438,538.1701,876.8426,538.6428,875.3063,532.9693,867.3438,538.1701" style="stroke:#000000;stroke-width:1;"/><text fill="#000000" font-family="sans-serif" font-size="13" lengthAdjust="spacing" textLength="97.5" x="881.17" y="541.3638">se prepara con</text></g><!--link Receta to Pasos--><g class="link" data-entity-1="Receta" data-entity-2="Pasos" data-source-line="39" data-uid="lnk28" id="link_Receta_Pasos"><path codeLine="39" d="M651.17,623.7169 C651.17,645.6069 651.17,672.0969 651.17,693.9569" fill="none" id="Receta-to-Pasos" style="stroke:#181818;stroke-width:1;"/><polygon fill="#181818" points="651.17,699.9569,655.17,690.9569,651.17,694.9569,647.17,690.9569,651.17,699.9569" style="stroke:#181818;stroke-width:1;"/><polygon fill="#000000" points="656.17,666.8633,659.1089,657.8182,653.2311,657.8182,656.17,666.8633" style="stroke:#000000;stroke-width:1;"/><text fill="#000000" font-family="sans-serif" font-size="13" lengthAdjust="spacing" textLength="32.9443" x="665.17" y="666.3638">tiene</text></g><!--link Receta to Ingrediente--><g class="link" data-entity-1="Receta" data-entity-2="Ingrediente" data-source-line="40" data-uid="lnk29" id="link_Receta_Ingrediente"><path codeLine="40" d="M610.33,612.3169 C535.24,634.4069 380.916,679.8231 295.446,704.9731" fill="none" id="Receta-to-Ingrediente" style="stroke:#181818;stroke-width:1;"/><polygon fill="#181818" points="289.69,706.6669,299.4531,707.9636,294.4866,705.2554,297.1948,700.289,289.69,706.6669" style="stroke:#181818;stroke-width:1;"/><polygon fill="#000000" points="467.3734,663.2747,476.8802,663.5408,475.2209,657.902,467.3734,663.2747" style="stroke:#000000;stroke-width:1;"/><text fill="#000000" font-family="sans-serif" font-size="13" lengthAdjust="spacing" textLength="38.9619" x="481.17" y="666.3638">utiliza</text></g><!--link Inventario to Almacen--><g class="link" data-entity-1="Inventario" data-entity-2="Almacen" data-source-line="43" data-uid="lnk30" id="link_Inventario_Almacen"><path codeLine="43" d="M279.11,217.5369 C273.91,262.6969 256.26,362.8769 199.17,420.2969 C187.93,431.5969 178.9752,438.5624 165.7052,446.8724" fill="none" id="Inventario-to-Almacen" style="stroke:#181818;stroke-width:1;"/><polygon fill="#181818" points="160.62,450.0569,170.3708,448.6703,164.8577,447.4031,166.1248,441.89,160.62,450.0569" style="stroke:#181818;stroke-width:1;"/><polygon fill="#000000" points="256.9537,353.8452,263.5975,347.04,258.3286,344.4346,256.9537,353.8452" style="stroke:#000000;stroke-width:1;"/><text fill="#000000" font-family="sans-serif" font-size="13" lengthAdjust="spacing" textLength="55.8911" x="268.17" y="353.8638">gestiona</text></g><!--link Almacen to Stock--><g class="link" data-entity-1="Almacen" data-entity-2="Stock" data-source-line="44" data-uid="lnk31" id="link_Almacen_Stock"><path codeLine="44" d="M113.86,498.7569 C112.51,512.4169 111.76,529.9169 114.17,545.2969 C115.72,555.2269 116.8685,560.1631 119.9985,569.2631" fill="none" id="Almacen-to-Stock" style="stroke:#181818;stroke-width:1;"/><polygon fill="#181818" points="121.95,574.9369,122.8052,565.1252,120.3237,570.2087,115.2402,567.7273,121.95,574.9369" style="stroke:#181818;stroke-width:1;"/><polygon fill="#000000" points="119.6037,541.8444,121.747,532.5785,115.8913,533.0883,119.6037,541.8444" style="stroke:#000000;stroke-width:1;"/><text fill="#000000" font-family="sans-serif" font-size="13" lengthAdjust="spacing" textLength="61.8135" x="128.17" y="541.3638">mantiene</text></g><!--link Stock to Ingrediente--><g class="link" data-entity-1="Stock" data-entity-2="Ingrediente" data-source-line="45" data-uid="lnk32" id="link_Stock_Ingrediente"><path codeLine="45" d="M144.19,623.6869 C152.53,637.7869 164.02,655.7769 176.17,670.2969 C184.92,680.7669 191.1864,687.2063 200.9564,696.0263" fill="none" id="Stock-to-Ingrediente" style="stroke:#181818;stroke-width:1;"/><polygon fill="#181818" points="205.41,700.0469,201.4099,691.0469,201.6986,696.6964,196.0492,696.9851,205.41,700.0469" style="stroke:#181818;stroke-width:1;"/><polygon fill="#000000" points="184.2567,665.7968,180.9849,656.8667,176.3608,660.4953,184.2567,665.7968" style="stroke:#000000;stroke-width:1;"/><text fill="#000000" font-family="sans-serif" font-size="13" lengthAdjust="spacing" textLength="16.25" x="190.17" y="666.3638">de</text></g><!--link Inventario to MovimientoDeInventario--><g class="link" data-entity-1="Inventario" data-entity-2="MovimientoDeInventario" data-source-line="46" data-uid="lnk33" id="link_Inventario_MovimientoDeInventario"><path codeLine="46" d="M233.61,217.6269 C218.92,225.9569 203.19,236.0769 190.17,247.2969 C163.43,270.3269 142.392,298.1341 127.512,320.0341" fill="none" id="Inventario-to-MovimientoDeInventario" style="stroke:#181818;stroke-width:1;"/><polygon fill="#181818" points="124.14,324.9969,132.5065,319.8006,126.95,320.8612,125.8895,315.3046,124.14,324.9969" style="stroke:#181818;stroke-width:1;"/><polygon fill="#000000" points="191.5724,274.8357,200.1215,270.6686,196.0395,266.4395,191.5724,274.8357" style="stroke:#000000;stroke-width:1;"/><text fill="#000000" font-family="sans-serif" font-size="13" lengthAdjust="spacing" textLength="50.3877" x="204.17" y="275.8638">registra</text></g><!--link MovimientoDeInventario to Ingrediente--><g class="link" data-entity-1="MovimientoDeInventario" data-entity-2="Ingrediente" data-source-line="47" data-uid="lnk34" id="link_MovimientoDeInventario_Ingrediente"><path codeLine="47" d="M167.15,373.7069 C179.58,381.3569 191.31,391.0969 199.17,403.2969 C260.58,498.6469 246.8866,638.0673 238.2166,694.1573" fill="none" id="MovimientoDeInventario-to-Ingrediente" style="stroke:#181818;stroke-width:1;"/><polygon fill="#181818" points="237.3,700.0869,242.6279,691.8035,238.0638,695.1456,234.7218,690.5815,237.3,700.0869" style="stroke:#181818;stroke-width:1;"/><polygon fill="#000000" points="249.2526,541.7447,250.1634,532.2778,244.425,533.5505,249.2526,541.7447" style="stroke:#000000;stroke-width:1;"/><text fill="#000000" font-family="sans-serif" font-size="13" lengthAdjust="spacing" textLength="36.3213" x="257.17" y="541.3638">sobre</text></g><!--link MovimientoDeInventario to Almacen--><g class="link" data-entity-1="MovimientoDeInventario" data-entity-2="Almacen" data-source-line="48" data-uid="lnk35" id="link_MovimientoDeInventario_Almacen"><path codeLine="48" d="M110.69,373.7169 C112.11,395.6069 113.8411,422.1095 115.2611,443.9695" fill="none" id="MovimientoDeInventario-to-Almacen" style="stroke:#181818;stroke-width:1;"/><polygon fill="#181818" points="115.65,449.9569,119.0582,440.7165,115.3259,444.9674,111.075,441.2351,115.65,449.9569" style="stroke:#181818;stroke-width:1;"/><polygon fill="#000000" points="119.4946,416.8527,121.8401,407.6359,115.9746,408.0176,119.4946,416.8527" style="stroke:#000000;stroke-width:1;"/><text fill="#000000" font-family="sans-serif" font-size="13" lengthAdjust="spacing" textLength="62.3975" x="128.17" y="416.3638">ocurre en</text></g><!--link Empleado to MovimientoDeInventario--><g class="link" data-entity-1="Empleado" data-entity-2="MovimientoDeInventario" data-source-line="49" data-uid="lnk36" id="link_Empleado_MovimientoDeInventario"><path codeLine="49" d="M211.38,92.5769 C190.37,111.1469 162.91,138.9969 147.17,169.2969 C120.51,220.6069 112.9512,283.4403 110.5712,318.9503" fill="none" id="Empleado-to-MovimientoDeInventario" style="stroke:#181818;stroke-width:1;"/><polygon fill="#181818" points="110.17,324.9369,114.7629,316.2245,110.5044,319.9481,106.7808,315.6895,110.17,324.9369" style="stroke:#181818;stroke-width:1;"/><polygon fill="#000000" points="150.136,197.9309,156.5003,190.8636,151.1308,188.4725,150.136,197.9309" style="stroke:#000000;stroke-width:1;"/><text fill="#000000" font-family="sans-serif" font-size="13" lengthAdjust="spacing" textLength="50.3877" x="161.17" y="197.8638">registra</text></g><!--link Presupuesto to Cliente--><g class="link" data-entity-1="Presupuesto" data-entity-2="Cliente" data-source-line="52" data-uid="lnk37" id="link_Presupuesto_Cliente"><path codeLine="52" d="M689.85,198.2069 C757.34,204.0169 861.02,217.6169 885.17,247.2969 C898.63,263.8469 896.13,276.9969 885.17,295.2969 C872.55,316.3669 853.9924,327.442 832.6824,335.382" fill="none" id="Presupuesto-to-Cliente" style="stroke:#181818;stroke-width:1;"/><polygon fill="#181818" points="827.06,337.4769,836.8902,338.0828,831.7453,335.7311,834.097,330.5863,827.06,337.4769" style="stroke:#181818;stroke-width:1;"/><polygon fill="#000000" points="902.7762,274.8267,898.2882,266.4416,894.2168,270.681,902.7762,274.8267" style="stroke:#000000;stroke-width:1;"/><text fill="#000000" font-family="sans-serif" font-size="13" lengthAdjust="spacing" textLength="82.8496" x="908.17" y="275.8638">emitido para</text></g><!--link Cliente to Presupuesto--><g class="link" data-entity-1="Cliente" data-entity-2="Presupuesto" data-source-line="59" data-uid="lnk44" id="link_Cliente_Presupuesto"><path codeLine="59" d="M745.31,329.8069 C728.55,320.9369 709.7,309.1969 695.17,295.2969 C691.89,292.1569 666.235,251.7054 648.085,222.8554" fill="none" id="Cliente-to-Presupuesto" style="stroke:#181818;stroke-width:1;stroke-dasharray:7,7;"/><polygon fill="#181818" points="644.89,217.7769,646.2968,227.5247,647.5525,222.009,653.0682,223.2647,644.89,217.7769" style="stroke:#181818;stroke-width:1;"/><polygon fill="#000000" points="696.8067,267.6635,700.7163,276.3333,705.0656,272.3796,696.8067,267.6635" style="stroke:#000000;stroke-width:1;"/><text fill="#000000" font-family="sans-serif" font-size="13" lengthAdjust="spacing" textLength="167.6924" x="709.17" y="275.8638">puede aceptar o rechazar</text></g><!--link Presupuesto to Empresa--><g class="link" data-entity-1="Presupuesto" data-entity-2="Empresa" data-source-line="53" data-uid="lnk38" id="link_Presupuesto_Empresa"><path codeLine="53" d="M570.57,196.1669 C530.7,200.7069 480.21,213.4169 450.17,247.2969 C431.41,268.4469 429.0799,296.2949 430.2499,318.9049" fill="none" id="Presupuesto-to-Empresa" style="stroke:#181818;stroke-width:1;"/><polygon fill="#181818" points="430.56,324.8969,434.0896,315.7022,430.3016,319.9036,426.1002,316.1156,430.56,324.8969" style="stroke:#181818;stroke-width:1;"/><polygon fill="#000000" points="451.4066,274.6552,460.1496,270.9122,456.2798,266.488,451.4066,274.6552" style="stroke:#000000;stroke-width:1;"/><text fill="#000000" font-family="sans-serif" font-size="13" lengthAdjust="spacing" textLength="74.8706" x="464.17" y="275.8638">emitido por</text></g><!--reverse link Presupuesto to LineaPresupuesto--><g class="link" data-entity-1="Presupuesto" data-entity-2="LineaPresupuesto" data-source-line="54" data-uid="lnk39" id="link_Presupuesto_LineaPresupuesto"><path codeLine="54" d="M701.6961,195.3126 C794.3061,197.6726 954.83,207.1869 999.17,247.2969 C1020.73,266.8069 1025.06,301.7269 1025.3,324.9569" fill="none" id="Presupuesto-backto-LineaPresupuesto" style="stroke:#181818;stroke-width:1;"/><polygon fill="#181818" points="689.7,195.0069,695.5962,199.1584,701.6961,195.3126,695.8,191.161,689.7,195.0069" style="stroke:#181818;stroke-width:1;"/><polygon fill="#000000" points="1031.8114,273.2227,1024.508,267.1308,1022.3221,272.5871,1031.8114,273.2227" style="stroke:#000000;stroke-width:1;"/><text fill="#000000" font-family="sans-serif" font-size="13" lengthAdjust="spacing" textLength="56.2847" x="1036.17" y="275.8638">contiene</text></g><!--link Presupuesto to Moneda--><g class="link" data-entity-1="Presupuesto" data-entity-2="Moneda" data-source-line="55" data-uid="lnk40" id="link_Presupuesto_Moneda"><path codeLine="55" d="M583.44,217.6569 C572.53,225.4969 562.31,235.3469 556.17,247.2969 C543.74,271.4869 546.1304,297.5561 551.0004,318.9861" fill="none" id="Presupuesto-to-Moneda" style="stroke:#181818;stroke-width:1;"/><polygon fill="#181818" points="552.33,324.8369,554.2361,315.1742,551.222,319.9612,546.435,316.947,552.33,324.8369" style="stroke:#181818;stroke-width:1;"/><polygon fill="#000000" points="559.6455,276.1252,565.2023,268.4069,559.6043,266.6147,559.6455,276.1252" style="stroke:#000000;stroke-width:1;"/><text fill="#000000" font-family="sans-serif" font-size="13" lengthAdjust="spacing" textLength="88.6006" x="570.17" y="275.8638">expresado en</text></g><!--link LineaPresupuesto to Plato--><g class="link" data-entity-1="LineaPresupuesto" data-entity-2="Plato" data-source-line="56" data-uid="lnk41" id="link_LineaPresupuesto_Plato"><path codeLine="56" d="M1031.59,373.7169 C1038.53,395.6069 1047.0268,422.3774 1053.9568,444.2374" fill="none" id="LineaPresupuesto-to-Plato" style="stroke:#181818;stroke-width:1;"/><polygon fill="#181818" points="1055.77,449.9569,1056.8632,440.1689,1054.259,445.1906,1049.2373,442.5864,1055.77,449.9569" style="stroke:#181818;stroke-width:1;"/><polygon fill="#000000" points="1051.6816,416.6293,1051.7485,407.119,1046.1457,408.896,1051.6816,416.6293" style="stroke:#000000;stroke-width:1;"/><text fill="#000000" font-family="sans-serif" font-size="13" lengthAdjust="spacing" textLength="55.377" x="1059.17" y="416.3638">describe</text></g><!--link LineaPresupuesto to Impuesto--><g class="link" data-entity-1="LineaPresupuesto" data-entity-2="Impuesto" data-source-line="57" data-uid="lnk42" id="link_LineaPresupuesto_Impuesto"><path codeLine="57" d="M1002.73,373.6269 C995.1,382.5469 986.78,393.0469 980.17,403.2969 C970.65,418.0569 964.4574,430.3898 958.2774,444.3598" fill="none" id="LineaPresupuesto-to-Impuesto" style="stroke:#181818;stroke-width:1;"/><polygon fill="#181818" points="955.85,449.8469,963.1491,443.2345,957.8728,445.2743,955.833,439.998,955.85,449.8469" style="stroke:#181818;stroke-width:1;"/><polygon fill="#000000" points="982.5095,416.0967,989.8107,410.0022,984.8341,406.8746,982.5095,416.0967" style="stroke:#000000;stroke-width:1;"/><text fill="#000000" font-family="sans-serif" font-size="13" lengthAdjust="spacing" textLength="38.5557" x="994.17" y="416.3638">aplica</text></g><!--link Empleado to Presupuesto--><g class="link" data-entity-1="Empleado" data-entity-2="Presupuesto" data-source-line="58" data-uid="lnk43" id="link_Empleado_Presupuesto"><path codeLine="58" d="M273.92,92.6769 C297.62,108.0669 330.61,127.4869 362.17,139.2969 C431.13,165.1069 509.0578,178.3409 564.4078,185.3709" fill="none" id="Empleado-to-Presupuesto" style="stroke:#181818;stroke-width:1;"/><polygon fill="#181818" points="570.36,186.1269,561.9357,181.0248,565.3998,185.4969,560.9277,188.961,570.36,186.1269" style="stroke:#181818;stroke-width:1;"/><polygon fill="#000000" points="371.9334,132.3833,364.2098,126.8338,362.4229,132.4334,371.9334,132.3833" style="stroke:#000000;stroke-width:1;"/><text fill="#000000" font-family="sans-serif" font-size="13" lengthAdjust="spacing" textLength="49.0928" x="376.17" y="135.3638">elabora</text></g><!--SRC=[ZPD1RXKn38RtEKNMIAy7OF4aL5XKeX8g9_1Bt8T59XubdWfrnI5wZPw2ct0IdCmaRzuCHUmI-_DlntQ49A2zPu-1hKVhUQ18R7__VB6ty8Y2wTSh6E7H2jiJY_1WFILqGXoDSG5oRYH1CznZd9RZbm32dHCyS-4Md-fGSpwWG-aUo9oNyrqy9_I4KT1qqvDU8VNW3s40Xt6vVHLstrif_4H32UQFk0lxD8m1mREv59IdSSBSI_vC4M5llWrpFLr62UWP8_fskHkME6Dwb-pXSAmjikyjFseFq1uttakbofnLGBiDEsfLbs8ua1GbOwfs1KhprUKuYXPSlBEfEFiq51WnYVgr4hXYvWafC8UFyxNak33pu9J95HWXGKcerEAfGcMWNUVAjPgl0fDGe6UeELPTAE0ovEkED6C1wjpLFK1_xcpQf_75kT7_-weedF1CML99zmQpJv3vbF3V0PVti9kIqbYQrdRolqlIMQpse4usj2hAJf1grQ4ST-2ok6kGquPxTpZiVi5cfJQgymSeeZ-glChMb-rKrYlgCRj49toBQnz9KHW3ETYsQlCP0foulharu-Pco-X1rq17C6fNBMjFtJTurkFn3m00]--></g></svg>