<svg xmlns="http://www.w3.org/2000/svg" xmlns:xlink="http://www.w3.org/1999/xlink" contentStyleType="text/css" data-diagram-type="CLASS" height="474px" preserveAspectRatio="none" style="width:1040px;height:474px;background:#FFFFFF;" version="1.1" viewBox="0 0 1040 474" width="1040px" zoomAndPan="magnify"><title>Modelo de dominio &#8212; Presupuesto</title><defs/><g><g class="title" data-source-line="1"><text fill="#000000" font-family="sans-serif" font-size="14" font-weight="bold" lengthAdjust="spacing" textLength="272.9932" x="376.9761" y="22.9951">Modelo de dominio &#8212; Presupuesto</text></g><!--class Presupuesto--><g class="entity" data-entity="Presupuesto" data-source-line="4" data-uid="ent0002" id="entity_Presupuesto"><rect fill="#F1F1F1" height="48" rx="2.5" ry="2.5" style="stroke:#181818;stroke-width:0.5;" width="118.7002" x="329.46" y="44.2969"/><ellipse cx="344.46" cy="60.2969" fill="#ADD1B2" rx="11" ry="11" style="stroke:#181818;stroke-width:1;"/><path d="M347.4288,65.9375 Q346.8506,66.2344 346.21,66.375 Q345.5694,66.5313 344.8663,66.5313 Q342.3663,66.5313 341.0381,64.8906 Q339.7256,63.2344 339.7256,60.1094 Q339.7256,56.9844 341.0381,55.3281 Q342.3663,53.6719 344.8663,53.6719 Q345.5694,53.6719 346.21,53.8281 Q346.8663,53.9844 347.4288,54.2813 L347.4288,57 Q346.8038,56.4219 346.21,56.1563 Q345.6163,55.875 344.9913,55.875 Q343.6475,55.875 342.96,56.9531 Q342.2725,58.0156 342.2725,60.1094 Q342.2725,62.2031 342.96,63.2813 Q343.6475,64.3438 344.9913,64.3438 Q345.6163,64.3438 346.21,64.0781 Q346.8038,63.7969 347.4288,63.2188 L347.4288,65.9375 Z " fill="#000000"/><text fill="#000000" font-family="sans-serif" font-size="14" lengthAdjust="spacing" textLength="86.7002" x="358.46" y="65.1436">Presupuesto</text><line style="stroke:#181818;stroke-width:0.5;" x1="330.46" x2="447.1602" y1="76.2969" y2="76.2969"/><line style="stroke:#181818;stroke-width:0.5;" x1="330.46" x2="447.1602" y1="84.2969" y2="84.2969"/></g><!--class Cliente--><g class="entity" data-entity="Cliente" data-source-line="5" data-uid="ent0003" id="entity_Cliente"><rect fill="#F1F1F1" height="48" rx="2.5" ry="2.5" style="stroke:#181818;stroke-width:0.5;" width="81.1436" x="348.23" y="294.2969"/><ellipse cx="363.23" cy="310.2969" fill="#ADD1B2" rx="11" ry="11" style="stroke:#181818;stroke-width:1;"/><path d="M366.1988,315.9375 Q365.6206,316.2344 364.98,316.375 Q364.3394,316.5313 363.6363,316.5313 Q361.1363,316.5313 359.8081,314.8906 Q358.4956,313.2344 358.4956,310.1094 Q358.4956,306.9844 359.8081,305.3281 Q361.1363,303.6719 363.6363,303.6719 Q364.3394,303.6719 364.98,303.8281 Q365.6363,303.9844 366.1988,304.2813 L366.1988,307 Q365.5738,306.4219 364.98,306.1563 Q364.3863,305.875 363.7613,305.875 Q362.4175,305.875 361.73,306.9531 Q361.0425,308.0156 361.0425,310.1094 Q361.0425,312.2031 361.73,313.2813 Q362.4175,314.3438 363.7613,314.3438 Q364.3863,314.3438 364.98,314.0781 Q365.5738,313.7969 366.1988,313.2188 L366.1988,315.9375 Z " fill="#000000"/><text fill="#000000" font-family="sans-serif" font-size="14" lengthAdjust="spacing" textLength="49.1436" x="377.23" y="315.1436">Cliente</text><line style="stroke:#181818;stroke-width:0.5;" x1="349.23" x2="428.3736" y1="326.2969" y2="326.2969"/><line style="stroke:#181818;stroke-width:0.5;" x1="349.23" x2="428.3736" y1="334.2969" y2="334.2969"/></g><!--class Empresa--><g class="entity" data-entity="Empresa" data-source-line="6" data-uid="ent0004" id="entity_Empresa"><rect fill="#F1F1F1" height="48" rx="2.5" ry="2.5" style="stroke:#181818;stroke-width:0.5;" width="93.6123" x="7" y="169.2969"/><ellipse cx="22" cy="185.2969" fill="#ADD1B2" rx="11" ry="11" style="stroke:#181818;stroke-width:1;"/><path d="M24.9688,190.9375 Q24.3906,191.2344 23.75,191.375 Q23.1094,191.5313 22.4063,191.5313 Q19.9063,191.5313 18.5781,189.8906 Q17.2656,188.2344 17.2656,185.1094 Q17.2656,181.9844 18.5781,180.3281 Q19.9063,178.6719 22.4063,178.6719 Q23.1094,178.6719 23.75,178.8281 Q24.4063,178.9844 24.9688,179.2813 L24.9688,182 Q24.3438,181.4219 23.75,181.1563 Q23.1563,180.875 22.5313,180.875 Q21.1875,180.875 20.5,181.9531 Q19.8125,183.0156 19.8125,185.1094 Q19.8125,187.2031 20.5,188.2813 Q21.1875,189.3438 22.5313,189.3438 Q23.1563,189.3438 23.75,189.0781 Q24.3438,188.7969 24.9688,188.2188 L24.9688,190.9375 Z " fill="#000000"/><text fill="#000000" font-family="sans-serif" font-size="14" lengthAdjust="spacing" textLength="61.6123" x="36" y="190.1436">Empresa</text><line style="stroke:#181818;stroke-width:0.5;" x1="8" x2="99.6123" y1="201.2969" y2="201.2969"/><line style="stroke:#181818;stroke-width:0.5;" x1="8" x2="99.6123" y1="209.2969" y2="209.2969"/></g><!--class Empleado--><g class="entity" data-entity="Empleado" data-source-line="7" data-uid="ent0005" id="entity_Empleado"><rect fill="#F1F1F1" height="48" rx="2.5" ry="2.5" style="stroke:#181818;stroke-width:0.5;" width="101.9043" x="64.85" y="294.2969"/><ellipse cx="79.85" cy="310.2969" fill="#ADD1B2" rx="11" ry="11" style="stroke:#181818;stroke-width:1;"/><path d="M82.8188,315.9375 Q82.2406,316.2344 81.6,316.375 Q80.9594,316.5313 80.2563,316.5313 Q77.7563,316.5313 76.4281,314.8906 Q75.1156,313.2344 75.1156,310.1094 Q75.1156,306.9844 76.4281,305.3281 Q77.7563,303.6719 80.2563,303.6719 Q80.9594,303.6719 81.6,303.8281 Q82.2563,303.9844 82.8188,304.2813 L82.8188,307 Q82.1938,306.4219 81.6,306.1563 Q81.0063,305.875 80.3813,305.875 Q79.0375,305.875 78.35,306.9531 Q77.6625,308.0156 77.6625,310.1094 Q77.6625,312.2031 78.35,313.2813 Q79.0375,314.3438 80.3813,314.3438 Q81.0063,314.3438 81.6,314.0781 Q82.1938,313.7969 82.8188,313.2188 L82.8188,315.9375 Z " fill="#000000"/><text fill="#000000" font-family="sans-serif" font-size="14" lengthAdjust="spacing" textLength="69.9043" x="93.85" y="315.1436">Empleado</text><line style="stroke:#181818;stroke-width:0.5;" x1="65.85" x2="165.7543" y1="326.2969" y2="326.2969"/><line style="stroke:#181818;stroke-width:0.5;" x1="65.85" x2="165.7543" y1="334.2969" y2="334.2969"/></g><!--class PosiblePresupuesto--><g class="entity" data-entity="PosiblePresupuesto" data-source-line="8" data-uid="ent0006" id="entity_PosiblePresupuesto"><rect fill="#F1F1F1" height="48" rx="2.5" ry="2.5" style="stroke:#181818;stroke-width:0.5;" width="168.2813" x="749.67" y="169.2969"/><ellipse cx="764.67" cy="185.2969" fill="#ADD1B2" rx="11" ry="11" style="stroke:#181818;stroke-width:1;"/><path d="M767.6388,190.9375 Q767.0606,191.2344 766.42,191.375 Q765.7794,191.5313 765.0763,191.5313 Q762.5763,191.5313 761.2481,189.8906 Q759.9356,188.2344 759.9356,185.1094 Q759.9356,181.9844 761.2481,180.3281 Q762.5763,178.6719 765.0763,178.6719 Q765.7794,178.6719 766.42,178.8281 Q767.0763,178.9844 767.6388,179.2813 L767.6388,182 Q767.0138,181.4219 766.42,181.1563 Q765.8263,180.875 765.2013,180.875 Q763.8575,180.875 763.17,181.9531 Q762.4825,183.0156 762.4825,185.1094 Q762.4825,187.2031 763.17,188.2813 Q763.8575,189.3438 765.2013,189.3438 Q765.8263,189.3438 766.42,189.0781 Q767.0138,188.7969 767.6388,188.2188 L767.6388,190.9375 Z " fill="#000000"/><text fill="#000000" font-family="sans-serif" font-size="14" lengthAdjust="spacing" textLength="136.2813" x="778.67" y="190.1436">PosiblePresupuesto</text><line style="stroke:#181818;stroke-width:0.5;" x1="750.67" x2="916.9513" y1="201.2969" y2="201.2969"/><line style="stroke:#181818;stroke-width:0.5;" x1="750.67" x2="916.9513" y1="209.2969" y2="209.2969"/></g><!--class Producto--><g class="entity" data-entity="Producto" data-source-line="9" data-uid="ent0007" id="entity_Producto"><rect fill="#F1F1F1" height="48" rx="2.5" ry="2.5" style="stroke:#181818;stroke-width:0.5;" width="94.2754" x="939.67" y="294.2969"/><ellipse cx="954.67" cy="310.2969" fill="#ADD1B2" rx="11" ry="11" style="stroke:#181818;stroke-width:1;"/><path d="M957.6388,315.9375 Q957.0606,316.2344 956.42,316.375 Q955.7794,316.5313 955.0763,316.5313 Q952.5763,316.5313 951.2481,314.8906 Q949.9356,313.2344 949.9356,310.1094 Q949.9356,306.9844 951.2481,305.3281 Q952.5763,303.6719 955.0763,303.6719 Q955.7794,303.6719 956.42,303.8281 Q957.0763,303.9844 957.6388,304.2813 L957.6388,307 Q957.0138,306.4219 956.42,306.1563 Q955.8263,305.875 955.2013,305.875 Q953.8575,305.875 953.17,306.9531 Q952.4825,308.0156 952.4825,310.1094 Q952.4825,312.2031 953.17,313.2813 Q953.8575,314.3438 955.2013,314.3438 Q955.8263,314.3438 956.42,314.0781 Q957.0138,313.7969 957.6388,313.2188 L957.6388,315.9375 Z " fill="#000000"/><text fill="#000000" font-family="sans-serif" font-size="14" lengthAdjust="spacing" textLength="62.2754" x="968.67" y="315.1436">Producto</text><line style="stroke:#181818;stroke-width:0.5;" x1="940.67" x2="1032.9454" y1="326.2969" y2="326.2969"/><line style="stroke:#181818;stroke-width:0.5;" x1="940.67" x2="1032.9454" y1="334.2969" y2="334.2969"/></g><!--class Impuesto--><g class="entity" data-entity="Impuesto" data-source-line="10" data-uid="ent0008" id="entity_Impuesto"><rect fill="#F1F1F1" height="48" rx="2.5" ry="2.5" style="stroke:#181818;stroke-width:0.5;" width="97.4883" x="677.06" y="294.2969"/><ellipse cx="692.06" cy="310.2969" fill="#ADD1B2" rx="11" ry="11" style="stroke:#181818;stroke-width:1;"/><path d="M695.0288,315.9375 Q694.4506,316.2344 693.81,316.375 Q693.1694,316.5313 692.4663,316.5313 Q689.9663,316.5313 688.6381,314.8906 Q687.3256,313.2344 687.3256,310.1094 Q687.3256,306.9844 688.6381,305.3281 Q689.9663,303.6719 692.4663,303.6719 Q693.1694,303.6719 693.81,303.8281 Q694.4663,303.9844 695.0288,304.2813 L695.0288,307 Q694.4038,306.4219 693.81,306.1563 Q693.2163,305.875 692.5913,305.875 Q691.2475,305.875 690.56,306.9531 Q689.8725,308.0156 689.8725,310.1094 Q689.8725,312.2031 690.56,313.2813 Q691.2475,314.3438 692.5913,314.3438 Q693.2163,314.3438 693.81,314.0781 Q694.4038,313.7969 695.0288,313.2188 L695.0288,315.9375 Z " fill="#000000"/><text fill="#000000" font-family="sans-serif" font-size="14" lengthAdjust="spacing" textLength="65.4883" x="706.06" y="315.1436">Impuesto</text><line style="stroke:#181818;stroke-width:0.5;" x1="678.06" x2="773.5483" y1="326.2969" y2="326.2969"/><line style="stroke:#181818;stroke-width:0.5;" x1="678.06" x2="773.5483" y1="334.2969" y2="334.2969"/></g><!--class Dinero--><g class="entity" data-entity="Dinero" data-source-line="11" data-uid="ent0009" id="entity_Dinero"><rect fill="#F1F1F1" height="48" rx="2.5" ry="2.5" style="stroke:#181818;stroke-width:0.5;" width="78.4775" x="809.57" y="294.2969"/><ellipse cx="824.57" cy="310.2969" fill="#ADD1B2" rx="11" ry="11" style="stroke:#181818;stroke-width:1;"/><path d="M827.5388,315.9375 Q826.9606,316.2344 826.32,316.375 Q825.6794,316.5313 824.9763,316.5313 Q822.4763,316.5313 821.1481,314.8906 Q819.8356,313.2344 819.8356,310.1094 Q819.8356,306.9844 821.1481,305.3281 Q822.4763,303.6719 824.9763,303.6719 Q825.6794,303.6719 826.32,303.8281 Q826.9763,303.9844 827.5388,304.2813 L827.5388,307 Q826.9138,306.4219 826.32,306.1563 Q825.7263,305.875 825.1013,305.875 Q823.7575,305.875 823.07,306.9531 Q822.3825,308.0156 822.3825,310.1094 Q822.3825,312.2031 823.07,313.2813 Q823.7575,314.3438 825.1013,314.3438 Q825.7263,314.3438 826.32,314.0781 Q826.9138,313.7969 827.5388,313.2188 L827.5388,315.9375 Z " fill="#000000"/><text fill="#000000" font-family="sans-serif" font-size="14" lengthAdjust="spacing" textLength="46.4775" x="838.57" y="315.1436">Dinero</text><line style="stroke:#181818;stroke-width:0.5;" x1="810.57" x2="887.0475" y1="326.2969" y2="326.2969"/><line style="stroke:#181818;stroke-width:0.5;" x1="810.57" x2="887.0475" y1="334.2969" y2="334.2969"/></g><!--class Estado--><g class="entity" data-entity="Estado" data-source-line="12" data-uid="ent0010" id="entity_Estado"><rect fill="#F1F1F1" height="48" rx="2.5" ry="2.5" style="stroke:#181818;stroke-width:0.5;" width="79.6602" x="634.98" y="169.2969"/><ellipse cx="649.98" cy="185.2969" fill="#ADD1B2" rx="11" ry="11" style="stroke:#181818;stroke-width:1;"/><path d="M652.9488,190.9375 Q652.3706,191.2344 651.73,191.375 Q651.0894,191.5313 650.3863,191.5313 Q647.8863,191.5313 646.5581,189.8906 Q645.2456,188.2344 645.2456,185.1094 Q645.2456,181.9844 646.5581,180.3281 Q647.8863,178.6719 650.3863,178.6719 Q651.0894,178.6719 651.73,178.8281 Q652.3863,178.9844 652.9488,179.2813 L652.9488,182 Q652.3238,181.4219 651.73,181.1563 Q651.1363,180.875 650.5113,180.875 Q649.1675,180.875 648.48,181.9531 Q647.7925,183.0156 647.7925,185.1094 Q647.7925,187.2031 648.48,188.2813 Q649.1675,189.3438 650.5113,189.3438 Q651.1363,189.3438 651.73,189.0781 Q652.3238,188.7969 652.9488,188.2188 L652.9488,190.9375 Z " fill="#000000"/><text fill="#000000" font-family="sans-serif" font-size="14" lengthAdjust="spacing" textLength="47.6602" x="663.98" y="190.1436">Estado</text><line style="stroke:#181818;stroke-width:0.5;" x1="635.98" x2="713.6402" y1="201.2969" y2="201.2969"/><line style="stroke:#181818;stroke-width:0.5;" x1="635.98" x2="713.6402" y1="209.2969" y2="209.2969"/></g><!--class Moneda--><g class="entity" data-entity="Moneda" data-source-line="13" data-uid="ent0011" id="entity_Moneda"><rect fill="#F1F1F1" height="48" rx="2.5" ry="2.5" style="stroke:#181818;stroke-width:0.5;" width="87.5967" x="805.01" y="419.2969"/><ellipse cx="820.01" cy="435.2969" fill="#ADD1B2" rx="11" ry="11" style="stroke:#181818;stroke-width:1;"/><path d="M822.9788,440.9375 Q822.4006,441.2344 821.76,441.375 Q821.1194,441.5313 820.4163,441.5313 Q817.9163,441.5313 816.5881,439.8906 Q815.2756,438.2344 815.2756,435.1094 Q815.2756,431.9844 816.5881,430.3281 Q817.9163,428.6719 820.4163,428.6719 Q821.1194,428.6719 821.76,428.8281 Q822.4163,428.9844 822.9788,429.2813 L822.9788,432 Q822.3538,431.4219 821.76,431.1563 Q821.1663,430.875 820.5413,430.875 Q819.1975,430.875 818.51,431.9531 Q817.8225,433.0156 817.8225,435.1094 Q817.8225,437.2031 818.51,438.2813 Q819.1975,439.3438 820.5413,439.3438 Q821.1663,439.3438 821.76,439.0781 Q822.3538,438.7969 822.9788,438.2188 L822.9788,440.9375 Z " fill="#000000"/><text fill="#000000" font-family="sans-serif" font-size="14" lengthAdjust="spacing" textLength="55.5967" x="834.01" y="440.1436">Moneda</text><line style="stroke:#181818;stroke-width:0.5;" x1="806.01" x2="891.6067" y1="451.2969" y2="451.2969"/><line style="stroke:#181818;stroke-width:0.5;" x1="806.01" x2="891.6067" y1="459.2969" y2="459.2969"/></g><!--link Presupuesto to Cliente--><g class="link" data-entity-1="Presupuesto" data-entity-2="Cliente" data-source-line="16" data-uid="lnk12" id="link_Presupuesto_Cliente"><path codeLine="16" d="M370.98,92.4069 C357.25,111.7569 339.38,140.7069 331.81,169.2969 C326.34,189.9169 326.34,196.6769 331.81,217.2969 C339.38,245.8869 353.7779,269.9436 367.5079,289.2936" fill="none" id="Presupuesto-to-Cliente" style="stroke:#181818;stroke-width:1;"/><polygon fill="#181818" points="370.98,294.1869,369.0341,284.5322,368.0866,290.1091,362.5096,289.1616,370.98,294.1869" style="stroke:#181818;stroke-width:1;"/><polygon fill="#000000" points="336.7218,198.3625,339.8198,189.3706,333.9429,189.267,336.7218,198.3625" style="stroke:#000000;stroke-width:1;"/><text fill="#000000" font-family="sans-serif" font-size="13" lengthAdjust="spacing" textLength="83.0654" x="345.81" y="197.8638">Emitido para</text></g><!--link Cliente to Presupuesto--><g class="link" data-entity-1="Cliente" data-entity-2="Presupuesto" data-source-line="29" data-uid="lnk23" id="link_Cliente_Presupuesto"><path codeLine="29" d="M402.7,294.0269 C413.59,274.3569 427.85,245.0269 433.81,217.2969 C438.28,196.4369 438.28,190.1569 433.81,169.2969 C427.85,141.5669 413.59,112.2369 402.7,92.5669" fill="none" id="Cliente-Presupuesto" style="stroke:#181818;stroke-width:1;stroke-dasharray:7,7;"/><polygon fill="#000000" points="442.81,188.3633,439.8711,197.4084,445.7489,197.4084,442.81,188.3633" style="stroke:#000000;stroke-width:1;"/><text fill="#000000" font-family="sans-serif" font-size="13" lengthAdjust="spacing" textLength="112.1313" x="451.81" y="197.8638">acepta o rechaza</text></g><!--link Presupuesto to Empresa--><g class="link" data-entity-1="Presupuesto" data-entity-2="Empresa" data-source-line="17" data-uid="lnk13" id="link_Presupuesto_Empresa"><path codeLine="17" d="M329.27,69.9169 C243,72.2169 89.69,82.0269 54.81,122.2969 C43.98,134.7869 43.3008,147.8647 46.0508,162.9047" fill="none" id="Presupuesto-to-Empresa" style="stroke:#181818;stroke-width:1;"/><polygon fill="#181818" points="47.13,168.8069,49.446,159.2342,46.2307,163.8884,41.5765,160.6731,47.13,168.8069" style="stroke:#181818;stroke-width:1;"/><polygon fill="#000000" points="55.0595,132.423,64.57,132.3937,62.7365,126.8092,55.0595,132.423" style="stroke:#000000;stroke-width:1;"/><text fill="#000000" font-family="sans-serif" font-size="13" lengthAdjust="spacing" textLength="75.0864" x="68.81" y="135.3638">Emitido por</text></g><!--link Presupuesto to Estado--><g class="link" data-entity-1="Presupuesto" data-entity-2="Estado" data-source-line="18" data-uid="lnk14" id="link_Presupuesto_Estado"><path codeLine="18" d="M443.27,92.7169 C499.19,116.7669 579.3682,151.2462 629.3082,172.7262" fill="none" id="Presupuesto-to-Estado" style="stroke:#181818;stroke-width:1;"/><polygon fill="#181818" points="634.82,175.0969,628.1328,167.8663,630.2268,173.1213,624.9719,175.2153,634.82,175.0969" style="stroke:#181818;stroke-width:1;"/><polygon fill="#000000" points="559.4032,132.8387,552.2551,126.5653,549.9329,131.965,559.4032,132.8387" style="stroke:#000000;stroke-width:1;"/><text fill="#000000" font-family="sans-serif" font-size="13" lengthAdjust="spacing" textLength="35.7881" x="563.81" y="135.3638">Tiene</text></g><!--reverse link Presupuesto to PosiblePresupuesto--><g class="link" data-entity-1="Presupuesto" data-entity-2="PosiblePresupuesto" data-source-line="19" data-uid="lnk15" id="link_Presupuesto_PosiblePresupuesto"><path codeLine="19" d="M460.2447,85.3763 C504.4247,95.5363 554.25,107.5369 607.81,122.2969 C659.78,136.6169 717.87,154.6569 762.13,168.8369" fill="none" id="Presupuesto-backto-PosiblePresupuesto" style="stroke:#181818;stroke-width:1;"/><polygon fill="#181818" points="448.55,82.6869,453.5009,87.9298,460.2447,85.3763,455.2938,80.1333,448.55,82.6869" style="stroke:#181818;stroke-width:1;"/><polygon fill="#000000" points="674.6292,132.1956,666.6943,126.9527,665.128,132.6181,674.6292,132.1956" style="stroke:#000000;stroke-width:1;"/><text fill="#000000" font-family="sans-serif" font-size="13" lengthAdjust="spacing" textLength="101.7021" x="678.81" y="135.3638">Contiene varias</text></g><!--link PosiblePresupuesto to Producto--><g class="link" data-entity-1="PosiblePresupuesto" data-entity-2="Producto" data-source-line="21" data-uid="lnk16" id="link_PosiblePresupuesto_Producto"><path codeLine="21" d="M902.34,217.7269 C918.49,225.4169 934.78,235.1869 947.81,247.2969 C961.66,260.1769 969.4287,273.6197 975.8887,288.5597" fill="none" id="PosiblePresupuesto-to-Producto" style="stroke:#181818;stroke-width:1;"/><polygon fill="#181818" points="978.27,294.0669,978.3695,284.2185,976.2856,289.4775,971.0266,287.3936,978.27,294.0669" style="stroke:#181818;stroke-width:1;"/><polygon fill="#000000" points="970.4114,259.3317,965.9351,250.9404,961.8577,255.1741,970.4114,259.3317" style="stroke:#000000;stroke-width:1;"/><text fill="#000000" font-family="sans-serif" font-size="13" lengthAdjust="spacing" textLength="57.1353" x="975.81" y="260.3638">Describe</text></g><!--link PosiblePresupuesto to Impuesto--><g class="link" data-entity-1="PosiblePresupuesto" data-entity-2="Impuesto" data-source-line="22" data-uid="lnk17" id="link_PosiblePresupuesto_Impuesto"><path codeLine="22" d="M799.3,217.6669 C788.15,226.1969 776.25,236.4369 766.81,247.2969 C754.61,261.3269 746.8254,274.1567 739.4954,288.4667" fill="none" id="PosiblePresupuesto-to-Impuesto" style="stroke:#181818;stroke-width:1;"/><polygon fill="#181818" points="736.76,293.8069,744.4232,287.6202,739.0395,289.3567,737.303,283.973,736.76,293.8069" style="stroke:#181818;stroke-width:1;"/><polygon fill="#000000" points="768.5835,259.6829,776.6654,254.6696,772.1751,250.8766,768.5835,259.6829" style="stroke:#000000;stroke-width:1;"/><text fill="#000000" font-family="sans-serif" font-size="13" lengthAdjust="spacing" textLength="39.4824" x="780.81" y="260.3638">Aplica</text></g><!--link PosiblePresupuesto to Dinero--><g class="link" data-entity-1="PosiblePresupuesto" data-entity-2="Dinero" data-source-line="23" data-uid="lnk18" id="link_PosiblePresupuesto_Dinero"><path codeLine="23" d="M830.4,217.7769 C829.02,231.4369 828.27,248.9369 830.81,264.2969 C832.45,274.2669 833.6716,279.251 836.9916,288.341" fill="none" id="PosiblePresupuesto-to-Dinero" style="stroke:#181818;stroke-width:1;"/><polygon fill="#181818" points="839.05,293.9769,839.7196,284.1508,837.3346,289.2803,832.2051,286.8954,839.05,293.9769" style="stroke:#181818;stroke-width:1;"/><polygon fill="#000000" points="836.275,260.8416,838.36,251.5624,832.5076,252.1091,836.275,260.8416" style="stroke:#000000;stroke-width:1;"/><text fill="#000000" font-family="sans-serif" font-size="13" lengthAdjust="spacing" textLength="98.2173" x="844.81" y="260.3638">Valor estimado</text></g><!--link Dinero to Moneda--><g class="link" data-entity-1="Dinero" data-entity-2="Moneda" data-source-line="24" data-uid="lnk19" id="link_Dinero_Moneda"><path codeLine="24" d="M848.81,342.7169 C848.81,364.6069 848.81,391.0969 848.81,412.9569" fill="none" id="Dinero-to-Moneda" style="stroke:#181818;stroke-width:1;"/><polygon fill="#181818" points="848.81,418.9569,852.81,409.9569,848.81,413.9569,844.81,409.9569,848.81,418.9569" style="stroke:#181818;stroke-width:1;"/><polygon fill="#000000" points="853.81,385.8633,856.7489,376.8182,850.8711,376.8182,853.81,385.8633" style="stroke:#000000;stroke-width:1;"/><text fill="#000000" font-family="sans-serif" font-size="13" lengthAdjust="spacing" textLength="88.8164" x="862.81" y="385.3638">Expresado en</text></g><!--reverse link Empresa to Empleado--><g class="link" data-entity-1="Empresa" data-entity-2="Empleado" data-source-line="26" data-uid="lnk20" id="link_Empresa_Empleado"><path codeLine="26" d="M54.3841,223.7339 C55.3141,237.8639 57.64,249.8669 64.81,264.2969 C70.26,275.2769 78.79,285.4769 87.33,293.9369" fill="none" id="Empresa-backto-Empleado" style="stroke:#181818;stroke-width:1;"/><polygon fill="#181818" points="53.99,217.7469,50.5897,226.9901,54.3184,222.7361,58.5724,226.4647,53.99,217.7469" style="stroke:#181818;stroke-width:1;"/><polygon fill="#000000" points="67.6858,251.3369,68.868,260.7737,74.189,258.2766,67.6858,251.3369" style="stroke:#000000;stroke-width:1;"/><text fill="#000000" font-family="sans-serif" font-size="13" lengthAdjust="spacing" textLength="65.6602" x="78.81" y="260.3638">Pertenece</text></g><!--reverse link Presupuesto to Empleado--><g class="link" data-entity-1="Presupuesto" data-entity-2="Empleado" data-source-line="27" data-uid="lnk22" id="link_Presupuesto_Empleado"><path codeLine="27" d="M349.5982,96.1128 C321.9882,115.4828 287.59,140.9169 255.81,169.2969 C210.03,210.1669 162,263.6169 135.79,293.8269" fill="none" id="Presupuesto-backto-Empleado" style="stroke:#181818;stroke-width:1;"/><polygon fill="#181818" points="354.51,92.6669,344.845,94.5612,350.4168,95.5385,349.4396,101.1103,354.51,92.6669" style="stroke:#181818;stroke-width:1;"/><polygon fill="#000000" points="264.481,189.9686,255.8448,193.9519,259.8354,198.2674,264.481,189.9686" style="stroke:#000000;stroke-width:1;"/><text fill="#000000" font-family="sans-serif" font-size="13" lengthAdjust="spacing" textLength="49.3086" x="269.81" y="197.8638">Elabora</text></g><!--SRC=[TP5DQiCm48NtEiNWJQ5W7o24G4cyw2BWHUb-B0rK86kC99VILG_H4_OabMGhgHDtEJFV_BmtGGT3S6P5Xa4HA1wqrGm_Nz_GEVBJE94FBCI3a0QzNoNdpD5eie6Mg1t6IE0rCeIge1rxtHkwdz4vLfEyXC_3gdhIbbm9MX-k0yziIQ4Guiz8g5LzA5V13gfsq44hXX4Tmg6wPvURLooxRJHlJ-HBd4-tp6DTRuXC-95jo1tlw3Jwr2WsoBoak97wJkIbqpr1NhNH4FbYL-AVHgCb_WUdwRERYNr54sN6YXwIgDYpr38tUvjD-SZ-H8HiFhmOjezoouiJs94BKQCas5VYKgYdh6bbHskmv_aTehogQPfR32MD0O71aNp3pyJ_0W00]--></g></svg>