<svg xmlns="http://www.w3.org/2000/svg" xmlns:xlink="http://www.w3.org/1999/xlink" contentStyleType="text/css" data-diagram-type="CLASS" height="849px" preserveAspectRatio="none" style="width:756px;height:849px;background:#FFFFFF;" version="1.1" viewBox="0 0 756 849" width="756px" zoomAndPan="magnify"><title>Modelo del Dominio: Inventario</title><defs/><g><g class="title" data-source-line="1"><text fill="#000000" font-family="sans-serif" font-size="14" font-weight="bold" lengthAdjust="spacing" textLength="248.2539" x="247.215" y="22.9951">Modelo del Dominio: Inventario</text></g><!--class Inventario--><g class="entity" data-entity="Inventario" data-source-line="4" data-uid="ent0002" id="entity_Inventario"><rect fill="#F1F1F1" height="48" rx="2.5" ry="2.5" style="stroke:#181818;stroke-width:0.5;" width="103.0527" x="545.85" y="44.2969"/><ellipse cx="560.85" cy="60.2969" fill="#ADD1B2" rx="11" ry="11" style="stroke:#181818;stroke-width:1;"/><path d="M563.8188,65.9375 Q563.2406,66.2344 562.6,66.375 Q561.9594,66.5313 561.2563,66.5313 Q558.7563,66.5313 557.4281,64.8906 Q556.1156,63.2344 556.1156,60.1094 Q556.1156,56.9844 557.4281,55.3281 Q558.7563,53.6719 561.2563,53.6719 Q561.9594,53.6719 562.6,53.8281 Q563.2563,53.9844 563.8188,54.2813 L563.8188,57 Q563.1938,56.4219 562.6,56.1563 Q562.0063,55.875 561.3813,55.875 Q560.0375,55.875 559.35,56.9531 Q558.6625,58.0156 558.6625,60.1094 Q558.6625,62.2031 559.35,63.2813 Q560.0375,64.3438 561.3813,64.3438 Q562.0063,64.3438 562.6,64.0781 Q563.1938,63.7969 563.8188,63.2188 L563.8188,65.9375 Z " fill="#000000"/><text fill="#000000" font-family="sans-serif" font-size="14" lengthAdjust="spacing" textLength="71.0527" x="574.85" y="65.1436">Inventario</text><line style="stroke:#181818;stroke-width:0.5;" x1="546.85" x2="647.9027" y1="76.2969" y2="76.2969"/><line style="stroke:#181818;stroke-width:0.5;" x1="546.85" x2="647.9027" y1="84.2969" y2="84.2969"/></g><!--class Producto--><g class="entity" data-entity="Producto" data-source-line="5" data-uid="ent0003" id="entity_Producto"><rect fill="#F1F1F1" height="48" rx="2.5" ry="2.5" style="stroke:#181818;stroke-width:0.5;" width="94.2754" x="290.24" y="169.2969"/><ellipse cx="305.24" cy="185.2969" fill="#ADD1B2" rx="11" ry="11" style="stroke:#181818;stroke-width:1;"/><path d="M308.2088,190.9375 Q307.6306,191.2344 306.99,191.375 Q306.3494,191.5313 305.6463,191.5313 Q303.1463,191.5313 301.8181,189.8906 Q300.5056,188.2344 300.5056,185.1094 Q300.5056,181.9844 301.8181,180.3281 Q303.1463,178.6719 305.6463,178.6719 Q306.3494,178.6719 306.99,178.8281 Q307.6463,178.9844 308.2088,179.2813 L308.2088,182 Q307.5838,181.4219 306.99,181.1563 Q306.3963,180.875 305.7713,180.875 Q304.4275,180.875 303.74,181.9531 Q303.0525,183.0156 303.0525,185.1094 Q303.0525,187.2031 303.74,188.2813 Q304.4275,189.3438 305.7713,189.3438 Q306.3963,189.3438 306.99,189.0781 Q307.5838,188.7969 308.2088,188.2188 L308.2088,190.9375 Z " fill="#000000"/><text fill="#000000" font-family="sans-serif" font-size="14" lengthAdjust="spacing" textLength="62.2754" x="319.24" y="190.1436">Producto</text><line style="stroke:#181818;stroke-width:0.5;" x1="291.24" x2="383.5154" y1="201.2969" y2="201.2969"/><line style="stroke:#181818;stroke-width:0.5;" x1="291.24" x2="383.5154" y1="209.2969" y2="209.2969"/></g><!--class Categoria--><g class="entity" data-entity="Categoria" data-source-line="6" data-uid="ent0004" id="entity_Categoria"><rect fill="#F1F1F1" height="48" rx="2.5" ry="2.5" style="stroke:#181818;stroke-width:0.5;" width="100.1338" x="369.31" y="294.2969"/><ellipse cx="384.31" cy="310.2969" fill="#ADD1B2" rx="11" ry="11" style="stroke:#181818;stroke-width:1;"/><path d="M387.2788,315.9375 Q386.7006,316.2344 386.06,316.375 Q385.4194,316.5313 384.7163,316.5313 Q382.2163,316.5313 380.8881,314.8906 Q379.5756,313.2344 379.5756,310.1094 Q379.5756,306.9844 380.8881,305.3281 Q382.2163,303.6719 384.7163,303.6719 Q385.4194,303.6719 386.06,303.8281 Q386.7163,303.9844 387.2788,304.2813 L387.2788,307 Q386.6538,306.4219 386.06,306.1563 Q385.4663,305.875 384.8413,305.875 Q383.4975,305.875 382.81,306.9531 Q382.1225,308.0156 382.1225,310.1094 Q382.1225,312.2031 382.81,313.2813 Q383.4975,314.3438 384.8413,314.3438 Q385.4663,314.3438 386.06,314.0781 Q386.6538,313.7969 387.2788,313.2188 L387.2788,315.9375 Z " fill="#000000"/><text fill="#000000" font-family="sans-serif" font-size="14" lengthAdjust="spacing" textLength="68.1338" x="398.31" y="315.1436">Categoria</text><line style="stroke:#181818;stroke-width:0.5;" x1="370.31" x2="468.4438" y1="326.2969" y2="326.2969"/><line style="stroke:#181818;stroke-width:0.5;" x1="370.31" x2="468.4438" y1="334.2969" y2="334.2969"/></g><!--class Almacen--><g class="entity" data-entity="Almacen" data-source-line="7" data-uid="ent0005" id="entity_Almacen"><rect fill="#F1F1F1" height="48" rx="2.5" ry="2.5" style="stroke:#181818;stroke-width:0.5;" width="92.8672" x="127.94" y="294.2969"/><ellipse cx="142.94" cy="310.2969" fill="#ADD1B2" rx="11" ry="11" style="stroke:#181818;stroke-width:1;"/><path d="M145.9088,315.9375 Q145.3306,316.2344 144.69,316.375 Q144.0494,316.5313 143.3463,316.5313 Q140.8463,316.5313 139.5181,314.8906 Q138.2056,313.2344 138.2056,310.1094 Q138.2056,306.9844 139.5181,305.3281 Q140.8463,303.6719 143.3463,303.6719 Q144.0494,303.6719 144.69,303.8281 Q145.3463,303.9844 145.9088,304.2813 L145.9088,307 Q145.2838,306.4219 144.69,306.1563 Q144.0963,305.875 143.4713,305.875 Q142.1275,305.875 141.44,306.9531 Q140.7525,308.0156 140.7525,310.1094 Q140.7525,312.2031 141.44,313.2813 Q142.1275,314.3438 143.4713,314.3438 Q144.0963,314.3438 144.69,314.0781 Q145.2838,313.7969 145.9088,313.2188 L145.9088,315.9375 Z " fill="#000000"/><text fill="#000000" font-family="sans-serif" font-size="14" lengthAdjust="spacing" textLength="60.8672" x="156.94" y="315.1436">Almacen</text><line style="stroke:#181818;stroke-width:0.5;" x1="128.94" x2="219.8072" y1="326.2969" y2="326.2969"/><line style="stroke:#181818;stroke-width:0.5;" x1="128.94" x2="219.8072" y1="334.2969" y2="334.2969"/></g><!--class Empleado--><g class="entity" data-entity="Empleado" data-source-line="8" data-uid="ent0006" id="entity_Empleado"><rect fill="#F1F1F1" height="48" rx="2.5" ry="2.5" style="stroke:#181818;stroke-width:0.5;" width="101.9043" x="125.42" y="419.2969"/><ellipse cx="140.42" cy="435.2969" fill="#ADD1B2" rx="11" ry="11" style="stroke:#181818;stroke-width:1;"/><path d="M143.3888,440.9375 Q142.8106,441.2344 142.17,441.375 Q141.5294,441.5313 140.8263,441.5313 Q138.3263,441.5313 136.9981,439.8906 Q135.6856,438.2344 135.6856,435.1094 Q135.6856,431.9844 136.9981,430.3281 Q138.3263,428.6719 140.8263,428.6719 Q141.5294,428.6719 142.17,428.8281 Q142.8263,428.9844 143.3888,429.2813 L143.3888,432 Q142.7638,431.4219 142.17,431.1563 Q141.5763,430.875 140.9513,430.875 Q139.6075,430.875 138.92,431.9531 Q138.2325,433.0156 138.2325,435.1094 Q138.2325,437.2031 138.92,438.2813 Q139.6075,439.3438 140.9513,439.3438 Q141.5763,439.3438 142.17,439.0781 Q142.7638,438.7969 143.3888,438.2188 L143.3888,440.9375 Z " fill="#000000"/><text fill="#000000" font-family="sans-serif" font-size="14" lengthAdjust="spacing" textLength="69.9043" x="154.42" y="440.1436">Empleado</text><line style="stroke:#181818;stroke-width:0.5;" x1="126.42" x2="226.3243" y1="451.2969" y2="451.2969"/><line style="stroke:#181818;stroke-width:0.5;" x1="126.42" x2="226.3243" y1="459.2969" y2="459.2969"/></g><!--class Sistema--><g class="entity" data-entity="Sistema" data-source-line="9" data-uid="ent0007" id="entity_Sistema"><rect fill="#F1F1F1" height="48" rx="2.5" ry="2.5" style="stroke:#181818;stroke-width:0.5;" width="88.3896" x="340.18" y="669.2969"/><ellipse cx="355.18" cy="685.2969" fill="#ADD1B2" rx="11" ry="11" style="stroke:#181818;stroke-width:1;"/><path d="M358.1488,690.9375 Q357.5706,691.2344 356.93,691.375 Q356.2894,691.5313 355.5863,691.5313 Q353.0863,691.5313 351.7581,689.8906 Q350.4456,688.2344 350.4456,685.1094 Q350.4456,681.9844 351.7581,680.3281 Q353.0863,678.6719 355.5863,678.6719 Q356.2894,678.6719 356.93,678.8281 Q357.5863,678.9844 358.1488,679.2813 L358.1488,682 Q357.5238,681.4219 356.93,681.1563 Q356.3363,680.875 355.7113,680.875 Q354.3675,680.875 353.68,681.9531 Q352.9925,683.0156 352.9925,685.1094 Q352.9925,687.2031 353.68,688.2813 Q354.3675,689.3438 355.7113,689.3438 Q356.3363,689.3438 356.93,689.0781 Q357.5238,688.7969 358.1488,688.2188 L358.1488,690.9375 Z " fill="#000000"/><text fill="#000000" font-family="sans-serif" font-size="14" lengthAdjust="spacing" textLength="56.3896" x="369.18" y="690.1436">Sistema</text><line style="stroke:#181818;stroke-width:0.5;" x1="341.18" x2="427.5696" y1="701.2969" y2="701.2969"/><line style="stroke:#181818;stroke-width:0.5;" x1="341.18" x2="427.5696" y1="709.2969" y2="709.2969"/></g><!--class Movimiento--><g class="entity" data-entity="Movimiento" data-source-line="10" data-uid="ent0008" id="entity_Movimiento"><rect fill="#F1F1F1" height="48" rx="2.5" ry="2.5" style="stroke:#181818;stroke-width:0.5;" width="113.8877" x="223.43" y="794.2969"/><ellipse cx="238.43" cy="810.2969" fill="#ADD1B2" rx="11" ry="11" style="stroke:#181818;stroke-width:1;"/><path d="M241.3988,815.9375 Q240.8206,816.2344 240.18,816.375 Q239.5394,816.5313 238.8363,816.5313 Q236.3363,816.5313 235.0081,814.8906 Q233.6956,813.2344 233.6956,810.1094 Q233.6956,806.9844 235.0081,805.3281 Q236.3363,803.6719 238.8363,803.6719 Q239.5394,803.6719 240.18,803.8281 Q240.8363,803.9844 241.3988,804.2813 L241.3988,807 Q240.7738,806.4219 240.18,806.1563 Q239.5863,805.875 238.9613,805.875 Q237.6175,805.875 236.93,806.9531 Q236.2425,808.0156 236.2425,810.1094 Q236.2425,812.2031 236.93,813.2813 Q237.6175,814.3438 238.9613,814.3438 Q239.5863,814.3438 240.18,814.0781 Q240.7738,813.7969 241.3988,813.2188 L241.3988,815.9375 Z " fill="#000000"/><text fill="#000000" font-family="sans-serif" font-size="14" lengthAdjust="spacing" textLength="81.8877" x="252.43" y="815.1436">Movimiento</text><line style="stroke:#181818;stroke-width:0.5;" x1="224.43" x2="336.3177" y1="826.2969" y2="826.2969"/><line style="stroke:#181818;stroke-width:0.5;" x1="224.43" x2="336.3177" y1="834.2969" y2="834.2969"/></g><!--class Normas--><g class="entity" data-entity="Normas" data-source-line="11" data-uid="ent0009" id="entity_Normas"><rect fill="#F1F1F1" height="48" rx="2.5" ry="2.5" style="stroke:#181818;stroke-width:0.5;" width="86.3047" x="265.22" y="544.2969"/><ellipse cx="280.22" cy="560.2969" fill="#ADD1B2" rx="11" ry="11" style="stroke:#181818;stroke-width:1;"/><path d="M283.1888,565.9375 Q282.6106,566.2344 281.97,566.375 Q281.3294,566.5313 280.6263,566.5313 Q278.1263,566.5313 276.7981,564.8906 Q275.4856,563.2344 275.4856,560.1094 Q275.4856,556.9844 276.7981,555.3281 Q278.1263,553.6719 280.6263,553.6719 Q281.3294,553.6719 281.97,553.8281 Q282.6263,553.9844 283.1888,554.2813 L283.1888,557 Q282.5638,556.4219 281.97,556.1563 Q281.3763,555.875 280.7513,555.875 Q279.4075,555.875 278.72,556.9531 Q278.0325,558.0156 278.0325,560.1094 Q278.0325,562.2031 278.72,563.2813 Q279.4075,564.3438 280.7513,564.3438 Q281.3763,564.3438 281.97,564.0781 Q282.5638,563.7969 283.1888,563.2188 L283.1888,565.9375 Z " fill="#000000"/><text fill="#000000" font-family="sans-serif" font-size="14" lengthAdjust="spacing" textLength="54.3047" x="294.22" y="565.1436">Normas</text><line style="stroke:#181818;stroke-width:0.5;" x1="266.22" x2="350.5247" y1="576.2969" y2="576.2969"/><line style="stroke:#181818;stroke-width:0.5;" x1="266.22" x2="350.5247" y1="584.2969" y2="584.2969"/></g><!--class Stock--><g class="entity" data-entity="Stock" data-source-line="12" data-uid="ent0010" id="entity_Stock"><rect fill="#F1F1F1" height="48" rx="2.5" ry="2.5" style="stroke:#181818;stroke-width:0.5;" width="70.7461" x="7" y="294.2969"/><ellipse cx="22" cy="310.2969" fill="#ADD1B2" rx="11" ry="11" style="stroke:#181818;stroke-width:1;"/><path d="M24.9688,315.9375 Q24.3906,316.2344 23.75,316.375 Q23.1094,316.5313 22.4063,316.5313 Q19.9063,316.5313 18.5781,314.8906 Q17.2656,313.2344 17.2656,310.1094 Q17.2656,306.9844 18.5781,305.3281 Q19.9063,303.6719 22.4063,303.6719 Q23.1094,303.6719 23.75,303.8281 Q24.4063,303.9844 24.9688,304.2813 L24.9688,307 Q24.3438,306.4219 23.75,306.1563 Q23.1563,305.875 22.5313,305.875 Q21.1875,305.875 20.5,306.9531 Q19.8125,308.0156 19.8125,310.1094 Q19.8125,312.2031 20.5,313.2813 Q21.1875,314.3438 22.5313,314.3438 Q23.1563,314.3438 23.75,314.0781 Q24.3438,313.7969 24.9688,313.2188 L24.9688,315.9375 Z " fill="#000000"/><text fill="#000000" font-family="sans-serif" font-size="14" lengthAdjust="spacing" textLength="38.7461" x="36" y="315.1436">Stock</text><line style="stroke:#181818;stroke-width:0.5;" x1="8" x2="76.7461" y1="326.2969" y2="326.2969"/><line style="stroke:#181818;stroke-width:0.5;" x1="8" x2="76.7461" y1="334.2969" y2="334.2969"/></g><!--reverse link Inventario to Producto--><g class="link" data-entity-1="Inventario" data-entity-2="Producto" data-source-line="16" data-uid="lnk11" id="link_Inventario_Producto"><path codeLine="16" d="M537.0127,97.8488 C490.1527,120.0188 431.16,147.9269 384.95,169.7869" fill="none" id="Inventario-backto-Producto" style="stroke:#181818;stroke-width:1;"/><polygon fill="none" points="547.86,92.7169,540.7257,91.6671,537.0127,97.8488,544.147,98.8986,547.86,92.7169" style="stroke:#181818;stroke-width:1;"/><text fill="#000000" font-family="sans-serif" font-size="13" lengthAdjust="spacing" textLength="46.541" x="483.37" y="135.3638">incluye</text><text fill="#000000" font-family="sans-serif" font-size="13" lengthAdjust="spacing" textLength="8.271" x="529.6843" y="110.8812">1</text><text fill="#000000" font-family="sans-serif" font-size="13" lengthAdjust="spacing" textLength="23.0356" x="392.5209" y="162.8891">0..*</text></g><!--link Inventario to Sistema--><g class="link" data-entity-1="Inventario" data-entity-2="Sistema" data-source-line="17" data-uid="lnk12" id="link_Inventario_Sistema"><path codeLine="17" d="M597.37,92.4169 C597.37,117.1369 597.37,157.4869 597.37,192.2969 C597.37,192.2969 597.37,192.2969 597.37,569.2969 C597.37,646.3769 497.3935,674.8919 434.9335,685.6119" fill="none" id="Inventario-to-Sistema" style="stroke:#181818;stroke-width:1;"/><polygon fill="#181818" points="429.02,686.6269,438.5669,689.0468,433.9479,685.7811,437.2137,681.1621,429.02,686.6269" style="stroke:#181818;stroke-width:1;"/><text fill="#000000" font-family="sans-serif" font-size="13" lengthAdjust="spacing" textLength="55.8911" x="598.37" y="385.3638">gestiona</text></g><!--link Sistema to Inventario--><g class="link" data-entity-1="Sistema" data-entity-2="Inventario" data-source-line="31" data-uid="lnk22" id="link_Sistema_Inventario"><path codeLine="31" d="M428.79,684.2869 C514.51,667.5669 694.37,625.7469 694.37,569.2969 C694.37,192.2969 694.37,192.2969 694.37,192.2969 C694.37,150.5469 664.2085,118.3658 636.2785,96.3058" fill="none" id="Sistema-to-Inventario" style="stroke:#181818;stroke-width:1;"/><polygon fill="#181818" points="631.57,92.5869,636.1534,101.3042,635.4937,95.686,641.112,95.0262,631.57,92.5869" style="stroke:#181818;stroke-width:1;"/><text fill="#000000" font-family="sans-serif" font-size="13" lengthAdjust="spacing" textLength="53.314" x="695.37" y="385.3638">controla</text></g><!--link Producto to Categoria--><g class="link" data-entity-1="Producto" data-entity-2="Categoria" data-source-line="19" data-uid="lnk13" id="link_Producto_Categoria"><path codeLine="19" d="M343.12,217.6069 C347.32,231.8569 353.93,250.0269 363.37,264.2969 C370.54,275.1269 375.8734,281.3175 385.2534,289.8575" fill="none" id="Producto-to-Categoria" style="stroke:#181818;stroke-width:1;"/><polygon fill="#181818" points="389.69,293.8969,385.7279,284.8801,385.9928,290.5308,380.3421,290.7956,389.69,293.8969" style="stroke:#181818;stroke-width:1;"/><text fill="#000000" font-family="sans-serif" font-size="13" lengthAdjust="spacing" textLength="52.4126" x="364.37" y="260.3638">clasifica</text></g><!--reverse link Categoria to Producto--><g class="link" data-entity-1="Categoria" data-entity-2="Producto" data-source-line="38" data-uid="lnk27" id="link_Categoria_Producto"><path codeLine="38" d="M427.9012,282.0158 C430.4712,267.7058 429.12,261.3469 421.37,247.2969 C413.3,232.6469 399.28,221.4969 384.99,213.2869" fill="none" id="Categoria-backto-Producto" style="stroke:#181818;stroke-width:1;"/><polygon fill="none" points="425.78,293.8269,430.7776,288.6284,427.9012,282.0158,422.9036,287.2143,425.78,293.8269" style="stroke:#181818;stroke-width:1;"/><text fill="#000000" font-family="sans-serif" font-size="13" lengthAdjust="spacing" textLength="46.0205" x="427.37" y="260.3638">agrupa</text></g><!--link Producto to Almacen--><g class="link" data-entity-1="Producto" data-entity-2="Almacen" data-source-line="20" data-uid="lnk14" id="link_Producto_Almacen"><path codeLine="20" d="M289.77,207.8469 C266.07,216.3369 238.13,229.1669 217.37,247.2969 C202.76,260.0569 194.1727,273.6253 186.8627,288.5953" fill="none" id="Producto-to-Almacen" style="stroke:#181818;stroke-width:1;"/><polygon fill="#181818" points="184.23,293.9869,191.7735,287.6547,186.424,289.4939,184.5848,284.1444,184.23,293.9869" style="stroke:#181818;stroke-width:1;"/><text fill="#000000" font-family="sans-serif" font-size="13" lengthAdjust="spacing" textLength="63.5591" x="218.37" y="260.3638">almacena</text></g><!--reverse link Almacen to Producto--><g class="link" data-entity-1="Almacen" data-entity-2="Producto" data-source-line="24" data-uid="lnk17" id="link_Almacen_Producto"><path codeLine="24" d="M139.5126,284.9815 C126.6226,270.8515 124.24,261.7269 135.37,247.2969 C154.14,222.9669 236.61,207.6169 290.2,200.0269" fill="none" id="Almacen-backto-Producto" style="stroke:#181818;stroke-width:1;"/><polygon fill="none" points="147.6,293.8469,146.5114,286.7184,139.5126,284.9815,140.6012,292.11,147.6,293.8469" style="stroke:#181818;stroke-width:1;"/><text fill="#000000" font-family="sans-serif" font-size="13" lengthAdjust="spacing" textLength="56.2847" x="136.37" y="260.3638">contiene</text></g><!--link Producto to Stock--><g class="link" data-entity-1="Producto" data-entity-2="Stock" data-source-line="21" data-uid="lnk15" id="link_Producto_Stock"><path codeLine="21" d="M289.85,199.4669 C225.5,207.2569 114.93,223.6469 82.37,247.2969 C66.63,258.7369 58.4239,272.8182 52.1739,288.3982" fill="none" id="Producto-to-Stock" style="stroke:#181818;stroke-width:1;"/><polygon fill="#181818" points="49.94,293.9669,57.0033,287.1032,51.8016,289.3263,49.5784,284.1247,49.94,293.9669" style="stroke:#181818;stroke-width:1;"/><text fill="#000000" font-family="sans-serif" font-size="13" lengthAdjust="spacing" textLength="38.9746" x="83.37" y="260.3638">posee</text></g><!--link Producto to Normas--><g class="link" data-entity-1="Producto" data-entity-2="Normas" data-source-line="22" data-uid="lnk16" id="link_Producto_Normas"><path codeLine="22" d="M335.56,217.6269 C330.35,284.6169 315.8544,471.0149 310.6544,537.9949" fill="none" id="Producto-to-Normas" style="stroke:#181818;stroke-width:1;stroke-dasharray:7,7;"/><polygon fill="#181818" points="310.19,543.9769,314.8746,535.3135,310.577,538.9919,306.8986,534.6943,310.19,543.9769" style="stroke:#181818;stroke-width:1;"/><text fill="#000000" font-family="sans-serif" font-size="13" lengthAdjust="spacing" textLength="47.9121" x="323.37" y="385.3638">cumple</text></g><!--link Almacen to Empleado--><g class="link" data-entity-1="Almacen" data-entity-2="Empleado" data-source-line="25" data-uid="lnk18" id="link_Almacen_Empleado"><path codeLine="25" d="M174.75,342.7169 C175.11,364.6069 175.5439,391.0976 175.8939,412.9576" fill="none" id="Almacen-to-Empleado" style="stroke:#181818;stroke-width:1;"/><polygon fill="#181818" points="175.99,418.9569,179.8454,409.894,175.91,413.9575,171.8464,410.0221,175.99,418.9569" style="stroke:#181818;stroke-width:1;"/><text fill="#000000" font-family="sans-serif" font-size="13" lengthAdjust="spacing" textLength="62.6514" x="176.37" y="385.3638">supervisa</text></g><!--link Empleado to Almacen--><g class="link" data-entity-1="Empleado" data-entity-2="Almacen" data-source-line="27" data-uid="lnk19" id="link_Empleado_Almacen"><path codeLine="27" d="M136.58,419.0069 C126.48,410.9769 116.93,401.0069 111.37,389.2969 C102.96,371.5769 111.4871,358.7095 128.0171,346.1895" fill="none" id="Empleado-to-Almacen" style="stroke:#181818;stroke-width:1;"/><polygon fill="#181818" points="132.8,342.5669,123.2105,344.8122,128.8142,345.5857,128.0407,351.1895,132.8,342.5669" style="stroke:#181818;stroke-width:1;"/><text fill="#000000" font-family="sans-serif" font-size="13" lengthAdjust="spacing" textLength="53.314" x="112.37" y="385.3638">controla</text></g><!--link Empleado to Movimiento--><g class="link" data-entity-1="Empleado" data-entity-2="Movimiento" data-source-line="28" data-uid="lnk20" id="link_Empleado_Movimiento"><path codeLine="28" d="M152.31,467.7069 C118.9,503.1469 64.37,573.2869 81.37,639.2969 C97.21,700.7469 102.95,722.1369 150.37,764.2969 C170.86,782.5169 192.7619,793.0477 217.2519,801.2677" fill="none" id="Empleado-to-Movimiento" style="stroke:#181818;stroke-width:1;"/><polygon fill="#181818" points="222.94,803.1769,215.6806,796.521,218.1999,801.5859,213.135,804.1052,222.94,803.1769" style="stroke:#181818;stroke-width:1;"/><text fill="#000000" font-family="sans-serif" font-size="13" lengthAdjust="spacing" textLength="50.3877" x="82.37" y="635.3638">registra</text></g><!--link Movimiento to Empleado--><g class="link" data-entity-1="Movimiento" data-entity-2="Empleado" data-source-line="36" data-uid="lnk26" id="link_Movimiento_Empleado"><path codeLine="36" d="M273.87,793.9769 C255.2,726.9969 203.1716,540.3964 184.4916,473.4064" fill="none" id="Movimiento-to-Empleado" style="stroke:#181818;stroke-width:1;"/><polygon fill="#181818" points="182.88,467.6269,181.4444,477.3705,184.223,472.4431,189.1504,475.2217,182.88,467.6269" style="stroke:#181818;stroke-width:1;"/><text fill="#000000" font-family="sans-serif" font-size="13" lengthAdjust="spacing" textLength="45.7983" x="230.37" y="635.3638">genera</text></g><!--link Empleado to Normas--><g class="link" data-entity-1="Empleado" data-entity-2="Normas" data-source-line="29" data-uid="lnk21" id="link_Empleado_Normas"><path codeLine="29" d="M191.88,467.5069 C202.13,481.8869 216.39,500.2269 231.37,514.2969 C242.85,525.0669 251.6937,531.9497 264.4537,540.4897" fill="none" id="Empleado-to-Normas" style="stroke:#181818;stroke-width:1;stroke-dasharray:7,7;"/><polygon fill="#181818" points="269.44,543.8269,264.1854,535.4969,265.2848,541.0459,259.7358,542.1452,269.44,543.8269" style="stroke:#181818;stroke-width:1;"/><text fill="#000000" font-family="sans-serif" font-size="13" lengthAdjust="spacing" textLength="49.4292" x="232.37" y="510.3638">respeta</text></g><!--link Sistema to Movimiento--><g class="link" data-entity-1="Sistema" data-entity-2="Movimiento" data-source-line="32" data-uid="lnk23" id="link_Sistema_Movimiento"><path codeLine="32" d="M364.57,717.7169 C346.06,739.6069 322.4636,767.5148 303.9836,789.3748" fill="none" id="Sistema-to-Movimiento" style="stroke:#181818;stroke-width:1;"/><polygon fill="#181818" points="300.11,793.9569,308.9751,789.6662,303.338,790.1385,302.8657,784.5014,300.11,793.9569" style="stroke:#181818;stroke-width:1;"/><text fill="#000000" font-family="sans-serif" font-size="13" lengthAdjust="spacing" textLength="51.4351" x="339.37" y="760.3638">procesa</text></g><!--link Sistema to Normas--><g class="link" data-entity-1="Sistema" data-entity-2="Normas" data-source-line="33" data-uid="lnk24" id="link_Sistema_Normas"><path codeLine="33" d="M339.94,672.9669 C326.35,664.6969 312.99,653.5769 305.37,639.2969 C297.82,625.1269 297.7027,612.8462 300.4827,598.5762" fill="none" id="Sistema-to-Normas" style="stroke:#181818;stroke-width:1;stroke-dasharray:7,7;"/><polygon fill="#181818" points="301.63,592.6869,295.9828,600.7559,300.6739,597.5946,303.8352,602.2857,301.63,592.6869" style="stroke:#181818;stroke-width:1;"/><text fill="#000000" font-family="sans-serif" font-size="13" lengthAdjust="spacing" textLength="34.874" x="306.37" y="635.3638">sigue</text></g><!--link Normas to Sistema--><g class="link" data-entity-1="Normas" data-entity-2="Sistema" data-source-line="40" data-uid="lnk28" id="link_Normas_Sistema"><path codeLine="40" d="M325.47,592.6969 C331.92,601.7969 339.18,612.4069 345.37,622.2969 C354.89,637.5169 361.8768,649.8833 369.2868,663.6533" fill="none" id="Normas-to-Sistema" style="stroke:#181818;stroke-width:1;stroke-dasharray:7,7;"/><polygon fill="#181818" points="372.13,668.9369,371.3875,659.116,369.7606,664.5339,364.3428,662.907,372.13,668.9369" style="stroke:#181818;stroke-width:1;"/><text fill="#000000" font-family="sans-serif" font-size="13" lengthAdjust="spacing" textLength="48.915" x="356.37" y="635.3638">definen</text></g><!--link Movimiento to Producto--><g class="link" data-entity-1="Movimiento" data-entity-2="Producto" data-source-line="35" data-uid="lnk25" id="link_Movimiento_Producto"><path codeLine="35" d="M337.74,813.3569 C410.43,804.8869 526.37,778.2169 526.37,694.2969 C526.37,379.7969 526.37,379.7969 526.37,379.7969 C526.37,317.7469 525.59,291.8269 482.37,247.2969 C456.61,220.7569 422.3608,208.6655 390.8408,202.0155" fill="none" id="Movimiento-to-Producto" style="stroke:#181818;stroke-width:1;"/><polygon fill="#181818" points="384.97,200.7769,392.9504,206.5486,389.8623,201.809,394.6019,198.7209,384.97,200.7769" style="stroke:#181818;stroke-width:1;"/><text fill="#000000" font-family="sans-serif" font-size="13" lengthAdjust="spacing" textLength="40.752" x="527.37" y="510.3638">afecta</text></g><!--SRC=[NPBFJiCm3CRlUOfe5_v8hU0wYKbeSE0mXE09JEfL5caSadGIRu-pDMsw7jec_jd-_2M9aaMj3zoXPIql_S83EUAjVdCdT0a2iL8t-aaUlRSGCUhRFJk3Fd7KFf0pvC5Yl3ipoWWJw-JBnaVWRZIfBFUGiET0CAsVxG06tRHw7Rn5w0hyHJ7XKD03dsWWgLx2xnm6Y8LDR7vcmPzemH2xB7fqe4KeV0VvSj2Ow7V419DkjKZMcyUDvgRHcuUslT_CslLMoxHs_CCQRffTKIX0Zp59Gr1gpih0FAyWMIWToS0QcImG02v_L_7pP1Br716NKDlk9WTowJ4xfrIfbOUer1jsIPp3EPxh5hCb7aUFuKHHrC-xQscvGc0Bw_Xo9884xCMDK24hYG6Z5zULAfxb0fMTLO-QMBNmWGt61LWrYDIFOa6LaFCh5-28HWHS0PKDlLWa-jLoQ5S-GXz6By3KCxTVRa27HtBe_W40]--></g></svg>