<svg xmlns="http://www.w3.org/2000/svg" xmlns:xlink="http://www.w3.org/1999/xlink" contentStyleType="text/css" data-diagram-type="CLASS" height="430px" preserveAspectRatio="none" style="width:398px;height:430px;background:#FFFFFF;" version="1.1" viewBox="0 0 398 430" width="398px" zoomAndPan="magnify"><title>Modelo de Dominio - Men&#250; con Atributos Clave</title><defs/><g><g class="title" data-source-line="1"><text fill="#000000" font-family="sans-serif" font-size="14" font-weight="bold" lengthAdjust="spacing" textLength="370.1865" x="10" y="22.9951">Modelo de Dominio - Men&#250; con Atributos Clave</text></g><!--class Categoria--><g class="entity" data-entity="Categoria" data-source-line="4" data-uid="ent0002" id="entity_Categoria"><rect fill="#F1F1F1" height="64.2969" rx="2.5" ry="2.5" style="stroke:#181818;stroke-width:0.5;" width="100.1338" x="154.6978" y="44.2969"/><ellipse cx="169.6978" cy="60.2969" fill="#ADD1B2" rx="11" ry="11" style="stroke:#181818;stroke-width:1;"/><path d="M173.8071,66.2969 L166.0884,66.2969 L166.0884,53.9063 L173.8071,53.9063 L173.8071,56.0625 L168.5415,56.0625 L168.5415,58.7344 L173.3071,58.7344 L173.3071,60.8906 L168.5415,60.8906 L168.5415,64.1406 L173.8071,64.1406 L173.8071,66.2969 Z " fill="#000000"/><text fill="#000000" font-family="sans-serif" font-size="14" lengthAdjust="spacing" textLength="68.1338" x="183.6978" y="65.1436">Categoria</text><line style="stroke:#181818;stroke-width:0.5;" x1="155.6978" x2="253.8315" y1="76.2969" y2="76.2969"/><ellipse cx="165.6978" cy="89.9453" fill="none" rx="3" ry="3" style="stroke:#038048;stroke-width:1;"/><text fill="#000000" font-family="sans-serif" font-size="14" lengthAdjust="spacing" textLength="54.332" x="174.6978" y="93.292">nombre</text><line style="stroke:#181818;stroke-width:0.5;" x1="155.6978" x2="253.8315" y1="100.5938" y2="100.5938"/></g><!--class Producto--><g class="entity" data-entity="Producto" data-source-line="8" data-uid="ent0003" id="entity_Producto"><rect fill="#F1F1F1" height="96.8906" rx="2.5" ry="2.5" style="stroke:#181818;stroke-width:0.5;" width="97.6748" x="155.6978" y="185.2969"/><ellipse cx="172.2275" cy="201.2969" fill="#ADD1B2" rx="11" ry="11" style="stroke:#181818;stroke-width:1;"/><path d="M176.3369,207.2969 L168.6181,207.2969 L168.6181,194.9063 L176.3369,194.9063 L176.3369,197.0625 L171.0712,197.0625 L171.0712,199.7344 L175.8369,199.7344 L175.8369,201.8906 L171.0712,201.8906 L171.0712,205.1406 L176.3369,205.1406 L176.3369,207.2969 Z " fill="#000000"/><text fill="#000000" font-family="sans-serif" font-size="14" lengthAdjust="spacing" textLength="62.2754" x="186.5674" y="206.1436">Producto</text><line style="stroke:#181818;stroke-width:0.5;" x1="156.6978" x2="252.3726" y1="217.2969" y2="217.2969"/><ellipse cx="166.6978" cy="230.9453" fill="none" rx="3" ry="3" style="stroke:#038048;stroke-width:1;"/><text fill="#000000" font-family="sans-serif" font-size="14" lengthAdjust="spacing" textLength="43.4082" x="175.6978" y="234.292">precio</text><ellipse cx="166.6978" cy="247.2422" fill="none" rx="3" ry="3" style="stroke:#038048;stroke-width:1;"/><text fill="#000000" font-family="sans-serif" font-size="14" lengthAdjust="spacing" textLength="54.332" x="175.6978" y="250.5889">nombre</text><ellipse cx="166.6978" cy="263.5391" fill="none" rx="3" ry="3" style="stroke:#038048;stroke-width:1;"/><text fill="#000000" font-family="sans-serif" font-size="14" lengthAdjust="spacing" textLength="71.6748" x="175.6978" y="266.8857">disponible</text><line style="stroke:#181818;stroke-width:0.5;" x1="156.6978" x2="252.3726" y1="274.1875" y2="274.1875"/></g><!--class Alimento--><g class="entity" data-entity="Alimento" data-source-line="14" data-uid="ent0004" id="entity_Alimento"><rect fill="#F1F1F1" height="80.5938" rx="2.5" ry="2.5" style="stroke:#181818;stroke-width:0.5;" width="113.6777" x="76.6978" y="343.2969"/><ellipse cx="100.3119" cy="359.2969" fill="#ADD1B2" rx="11" ry="11" style="stroke:#181818;stroke-width:1;"/><path d="M104.4213,365.2969 L96.7025,365.2969 L96.7025,352.9063 L104.4213,352.9063 L104.4213,355.0625 L99.1557,355.0625 L99.1557,357.7344 L103.9213,357.7344 L103.9213,359.8906 L99.1557,359.8906 L99.1557,363.1406 L104.4213,363.1406 L104.4213,365.2969 Z " fill="#000000"/><text fill="#000000" font-family="sans-serif" font-size="14" lengthAdjust="spacing" textLength="62.5352" x="116.2262" y="364.1436">Alimento</text><line style="stroke:#181818;stroke-width:0.5;" x1="77.6978" x2="189.3755" y1="375.2969" y2="375.2969"/><ellipse cx="87.6978" cy="388.9453" fill="none" rx="3" ry="3" style="stroke:#038048;stroke-width:1;"/><text fill="#000000" font-family="sans-serif" font-size="14" lengthAdjust="spacing" textLength="80.165" x="96.6978" y="392.292">tipoComida</text><ellipse cx="87.6978" cy="405.2422" fill="none" rx="3" ry="3" style="stroke:#038048;stroke-width:1;"/><text fill="#000000" font-family="sans-serif" font-size="14" lengthAdjust="spacing" textLength="87.6777" x="96.6978" y="408.5889">ingredientes</text><line style="stroke:#181818;stroke-width:0.5;" x1="77.6978" x2="189.3755" y1="415.8906" y2="415.8906"/></g><!--class Bebida--><g class="entity" data-entity="Bebida" data-source-line="19" data-uid="ent0005" id="entity_Bebida"><rect fill="#F1F1F1" height="80.5938" rx="2.5" ry="2.5" style="stroke:#181818;stroke-width:0.5;" width="101.291" x="226.1978" y="343.2969"/><ellipse cx="250.5717" cy="359.2969" fill="#ADD1B2" rx="11" ry="11" style="stroke:#181818;stroke-width:1;"/><path d="M254.6811,365.2969 L246.9624,365.2969 L246.9624,352.9063 L254.6811,352.9063 L254.6811,355.0625 L249.4155,355.0625 L249.4155,357.7344 L254.1811,357.7344 L254.1811,359.8906 L249.4155,359.8906 L249.4155,363.1406 L254.6811,363.1406 L254.6811,365.2969 Z " fill="#000000"/><text fill="#000000" font-family="sans-serif" font-size="14" lengthAdjust="spacing" textLength="48.46" x="266.6548" y="364.1436">Bebida</text><line style="stroke:#181818;stroke-width:0.5;" x1="227.1978" x2="326.4888" y1="375.2969" y2="375.2969"/><ellipse cx="237.1978" cy="388.9453" fill="none" rx="3" ry="3" style="stroke:#038048;stroke-width:1;"/><text fill="#000000" font-family="sans-serif" font-size="14" lengthAdjust="spacing" textLength="75.291" x="246.1978" y="392.292">tipoBebida</text><ellipse cx="237.1978" cy="405.2422" fill="none" rx="3" ry="3" style="stroke:#038048;stroke-width:1;"/><text fill="#000000" font-family="sans-serif" font-size="14" lengthAdjust="spacing" textLength="60.7373" x="246.1978" y="408.5889">volumen</text><line style="stroke:#181818;stroke-width:0.5;" x1="227.1978" x2="326.4888" y1="415.8906" y2="415.8906"/></g><!--link Categoria to Producto--><g class="link" data-entity-1="Categoria" data-entity-2="Producto" data-source-line="25" data-uid="lnk6" id="link_Categoria_Producto"><path codeLine="25" d="M204.6978,108.3869 C204.6978,130.3669 204.6978,160.2469 204.6978,185.2069" fill="none" id="Categoria-Producto" style="stroke:#181818;stroke-width:1;"/><text fill="#000000" font-family="sans-serif" font-size="13" lengthAdjust="spacing" textLength="46.0205" x="205.6978" y="151.3638">agrupa</text></g><!--reverse link Producto to Alimento--><g class="link" data-entity-1="Producto" data-entity-2="Alimento" data-source-line="26" data-uid="lnk7" id="link_Producto_Alimento"><path codeLine="26" d="M174.0572,298.6684 C164.6572,318.2784 161.6678,324.4869 152.7078,343.1769" fill="none" id="Producto-backto-Alimento" style="stroke:#181818;stroke-width:1;"/><polygon fill="none" points="181.8378,282.4369,168.6467,296.0749,179.4677,301.2619,181.8378,282.4369" style="stroke:#181818;stroke-width:1;"/></g><!--reverse link Producto to Bebida--><g class="link" data-entity-1="Producto" data-entity-2="Bebida" data-source-line="27" data-uid="lnk8" id="link_Producto_Bebida"><path codeLine="27" d="M235.7455,298.6264 C245.2755,318.2364 248.3278,324.4869 257.4178,343.1769" fill="none" id="Producto-backto-Bebida" style="stroke:#181818;stroke-width:1;"/><polygon fill="none" points="227.8778,282.4369,230.349,301.2489,241.142,296.0038,227.8778,282.4369" style="stroke:#181818;stroke-width:1;"/></g><!--SRC=[NOynRiCm34LtdOB8ag7m1OfcS9qC1PgsI4uWMuH1G1ODcJPGjBbOrbmij0NNRZJnaVz_YaBY4Oxiq3CuX3qt58WXWoE6snKg3f1BfB8Nxg3mTa1Z30OX-OPDOGLhZcGtO7Kw4_mOWAV0JHdHN1RvLsJNLyAJUeOaRYDMn2kRLewwbWEL_bz8xgdHEeNCa4A4MYxq06T7eb17TAHZxDO1hrYgOhAdSZ4d7cbWtslowDl2JX-S3kzvyVRvSJXFR9PhismvvXbi7VlMch_Eow_Evty-jDE-Em00]--></g></svg>