<?xml version="1.0" encoding="us-ascii" standalone="no"?><svg xmlns="http://www.w3.org/2000/svg" xmlns:xlink="http://www.w3.org/1999/xlink" contentStyleType="text/css" height="478px" preserveAspectRatio="none" style="width:737px;height:478px;background:#FFFFFF;" version="1.1" viewBox="0 0 737 478" width="737px" zoomAndPan="magnify"><defs/><g><!--cluster Inventario--><g id="cluster_Inventario"><path d="M260.5,119 L333.5,119 A3.75,3.75 0 0 1 336,121.5 L343,142.6094 L613.5,142.6094 A2.5,2.5 0 0 1 616,145.1094 L616,468.5 A2.5,2.5 0 0 1 613.5,471 L260.5,471 A2.5,2.5 0 0 1 258,468.5 L258,121.5 A2.5,2.5 0 0 1 260.5,119 " fill="none" style="stroke:#000000;stroke-width:1.5;"/><line style="stroke:#000000;stroke-width:1.5;" x1="258" x2="343" y1="142.6094" y2="142.6094"/><text fill="#000000" font-family="sans-serif" font-size="14" font-weight="bold" lengthAdjust="spacing" textLength="72" x="262" y="135.5332">Inventario</text></g><!--class Inventario--><g id="elem_Inventario"><rect codeLine="6" fill="#F1F1F1" height="48" id="Inventario" rx="2.5" ry="2.5" style="stroke:#181818;stroke-width:0.5;" width="94" x="391" y="155"/><ellipse cx="406" cy="171" fill="#ADD1B2" rx="11" ry="11" style="stroke:#181818;stroke-width:1.0;"/><path d="M408.7656,166.875 Q408.9219,166.6563 409.1094,166.5469 Q409.2969,166.4375 409.5156,166.4375 Q409.8906,166.4375 410.125,166.7031 Q410.3594,166.9531 410.3594,167.5625 L410.3594,169.0156 Q410.3594,169.625 410.125,169.8906 Q409.8906,170.1563 409.5156,170.1563 Q409.1719,170.1563 408.9688,169.9531 Q408.7656,169.7656 408.6563,169.25 Q408.6094,168.8906 408.4219,168.7031 Q408.0938,168.3281 407.4844,168.1094 Q406.875,167.8906 406.25,167.8906 Q405.4844,167.8906 404.8438,168.2188 Q404.2188,168.5469 403.7188,169.2969 Q403.2344,170.0469 403.2344,171.0781 L403.2344,172.1719 Q403.2344,173.4063 404.125,174.2344 Q405.0156,175.0469 406.6094,175.0469 Q407.5469,175.0469 408.2031,174.7969 Q408.5938,174.6406 409.0156,174.2031 Q409.2813,173.9375 409.4219,173.8594 Q409.5781,173.7813 409.7813,173.7813 Q410.1094,173.7813 410.3594,174.0469 Q410.625,174.2969 410.625,174.6406 Q410.625,174.9844 410.2813,175.3906 Q409.7813,175.9688 408.9844,176.2969 Q407.9063,176.75 406.6094,176.75 Q405.0938,176.75 403.8906,176.125 Q402.9063,175.625 402.2188,174.5625 Q401.5313,173.4844 401.5313,172.2031 L401.5313,171.0469 Q401.5313,169.7188 402.1406,168.5781 Q402.7656,167.4219 403.8594,166.8125 Q404.9531,166.1875 406.1875,166.1875 Q406.9219,166.1875 407.5625,166.3594 Q408.2188,166.5156 408.7656,166.875 Z " fill="#000000"/><text fill="#000000" font-family="sans-serif" font-size="14" lengthAdjust="spacing" textLength="62" x="420" y="176.7285">Inventario</text><line style="stroke:#181818;stroke-width:0.5;" x1="392" x2="484" y1="187" y2="187"/><line style="stroke:#181818;stroke-width:0.5;" x1="392" x2="484" y1="195" y2="195"/></g><!--class Categoria--><g id="elem_Categoria"><rect codeLine="9" fill="#F1F1F1" height="48" id="Categoria" rx="2.5" ry="2.5" style="stroke:#181818;stroke-width:0.5;" width="94" x="274" y="281"/><ellipse cx="289" cy="297" fill="#ADD1B2" rx="11" ry="11" style="stroke:#181818;stroke-width:1.0;"/><path d="M291.7656,292.875 Q291.9219,292.6563 292.1094,292.5469 Q292.2969,292.4375 292.5156,292.4375 Q292.8906,292.4375 293.125,292.7031 Q293.3594,292.9531 293.3594,293.5625 L293.3594,295.0156 Q293.3594,295.625 293.125,295.8906 Q292.8906,296.1563 292.5156,296.1563 Q292.1719,296.1563 291.9688,295.9531 Q291.7656,295.7656 291.6563,295.25 Q291.6094,294.8906 291.4219,294.7031 Q291.0938,294.3281 290.4844,294.1094 Q289.875,293.8906 289.25,293.8906 Q288.4844,293.8906 287.8438,294.2188 Q287.2188,294.5469 286.7188,295.2969 Q286.2344,296.0469 286.2344,297.0781 L286.2344,298.1719 Q286.2344,299.4063 287.125,300.2344 Q288.0156,301.0469 289.6094,301.0469 Q290.5469,301.0469 291.2031,300.7969 Q291.5938,300.6406 292.0156,300.2031 Q292.2813,299.9375 292.4219,299.8594 Q292.5781,299.7813 292.7813,299.7813 Q293.1094,299.7813 293.3594,300.0469 Q293.625,300.2969 293.625,300.6406 Q293.625,300.9844 293.2813,301.3906 Q292.7813,301.9688 291.9844,302.2969 Q290.9063,302.75 289.6094,302.75 Q288.0938,302.75 286.8906,302.125 Q285.9063,301.625 285.2188,300.5625 Q284.5313,299.4844 284.5313,298.2031 L284.5313,297.0469 Q284.5313,295.7188 285.1406,294.5781 Q285.7656,293.4219 286.8594,292.8125 Q287.9531,292.1875 289.1875,292.1875 Q289.9219,292.1875 290.5625,292.3594 Q291.2188,292.5156 291.7656,292.875 Z " fill="#000000"/><text fill="#000000" font-family="sans-serif" font-size="14" lengthAdjust="spacing" textLength="62" x="303" y="302.7285">Categoria</text><line style="stroke:#181818;stroke-width:0.5;" x1="275" x2="367" y1="313" y2="313"/><line style="stroke:#181818;stroke-width:0.5;" x1="275" x2="367" y1="321" y2="321"/></g><!--class Producto--><g id="elem_Producto"><rect codeLine="12" fill="#F1F1F1" height="48" id="Producto" rx="2.5" ry="2.5" style="stroke:#181818;stroke-width:0.5;" width="89" x="393.5" y="407"/><ellipse cx="408.5" cy="423" fill="#ADD1B2" rx="11" ry="11" style="stroke:#181818;stroke-width:1.0;"/><path d="M411.2656,418.875 Q411.4219,418.6563 411.6094,418.5469 Q411.7969,418.4375 412.0156,418.4375 Q412.3906,418.4375 412.625,418.7031 Q412.8594,418.9531 412.8594,419.5625 L412.8594,421.0156 Q412.8594,421.625 412.625,421.8906 Q412.3906,422.1563 412.0156,422.1563 Q411.6719,422.1563 411.4688,421.9531 Q411.2656,421.7656 411.1563,421.25 Q411.1094,420.8906 410.9219,420.7031 Q410.5938,420.3281 409.9844,420.1094 Q409.375,419.8906 408.75,419.8906 Q407.9844,419.8906 407.3438,420.2188 Q406.7188,420.5469 406.2188,421.2969 Q405.7344,422.0469 405.7344,423.0781 L405.7344,424.1719 Q405.7344,425.4063 406.625,426.2344 Q407.5156,427.0469 409.1094,427.0469 Q410.0469,427.0469 410.7031,426.7969 Q411.0938,426.6406 411.5156,426.2031 Q411.7813,425.9375 411.9219,425.8594 Q412.0781,425.7813 412.2813,425.7813 Q412.6094,425.7813 412.8594,426.0469 Q413.125,426.2969 413.125,426.6406 Q413.125,426.9844 412.7813,427.3906 Q412.2813,427.9688 411.4844,428.2969 Q410.4063,428.75 409.1094,428.75 Q407.5938,428.75 406.3906,428.125 Q405.4063,427.625 404.7188,426.5625 Q404.0313,425.4844 404.0313,424.2031 L404.0313,423.0469 Q404.0313,421.7188 404.6406,420.5781 Q405.2656,419.4219 406.3594,418.8125 Q407.4531,418.1875 408.6875,418.1875 Q409.4219,418.1875 410.0625,418.3594 Q410.7188,418.5156 411.2656,418.875 Z " fill="#000000"/><text fill="#000000" font-family="sans-serif" font-size="14" lengthAdjust="spacing" textLength="57" x="422.5" y="428.7285">Producto</text><line style="stroke:#181818;stroke-width:0.5;" x1="394.5" x2="481.5" y1="439" y2="439"/><line style="stroke:#181818;stroke-width:0.5;" x1="394.5" x2="481.5" y1="447" y2="447"/></g><!--class Pedido--><g id="elem_Pedido"><rect codeLine="15" fill="#F1F1F1" height="48" id="Pedido" rx="2.5" ry="2.5" style="stroke:#181818;stroke-width:0.5;" width="76" x="524" y="281"/><ellipse cx="539" cy="297" fill="#ADD1B2" rx="11" ry="11" style="stroke:#181818;stroke-width:1.0;"/><path d="M541.7656,292.875 Q541.9219,292.6563 542.1094,292.5469 Q542.2969,292.4375 542.5156,292.4375 Q542.8906,292.4375 543.125,292.7031 Q543.3594,292.9531 543.3594,293.5625 L543.3594,295.0156 Q543.3594,295.625 543.125,295.8906 Q542.8906,296.1563 542.5156,296.1563 Q542.1719,296.1563 541.9688,295.9531 Q541.7656,295.7656 541.6563,295.25 Q541.6094,294.8906 541.4219,294.7031 Q541.0938,294.3281 540.4844,294.1094 Q539.875,293.8906 539.25,293.8906 Q538.4844,293.8906 537.8438,294.2188 Q537.2188,294.5469 536.7188,295.2969 Q536.2344,296.0469 536.2344,297.0781 L536.2344,298.1719 Q536.2344,299.4063 537.125,300.2344 Q538.0156,301.0469 539.6094,301.0469 Q540.5469,301.0469 541.2031,300.7969 Q541.5938,300.6406 542.0156,300.2031 Q542.2813,299.9375 542.4219,299.8594 Q542.5781,299.7813 542.7813,299.7813 Q543.1094,299.7813 543.3594,300.0469 Q543.625,300.2969 543.625,300.6406 Q543.625,300.9844 543.2813,301.3906 Q542.7813,301.9688 541.9844,302.2969 Q540.9063,302.75 539.6094,302.75 Q538.0938,302.75 536.8906,302.125 Q535.9063,301.625 535.2188,300.5625 Q534.5313,299.4844 534.5313,298.2031 L534.5313,297.0469 Q534.5313,295.7188 535.1406,294.5781 Q535.7656,293.4219 536.8594,292.8125 Q537.9531,292.1875 539.1875,292.1875 Q539.9219,292.1875 540.5625,292.3594 Q541.2188,292.5156 541.7656,292.875 Z " fill="#000000"/><text fill="#000000" font-family="sans-serif" font-size="14" lengthAdjust="spacing" textLength="44" x="553" y="302.7285">Pedido</text><line style="stroke:#181818;stroke-width:0.5;" x1="525" x2="599" y1="313" y2="313"/><line style="stroke:#181818;stroke-width:0.5;" x1="525" x2="599" y1="321" y2="321"/></g><!--class Cafeteria--><g id="elem_Cafeteria"><rect codeLine="2" fill="#F1F1F1" height="48" id="Cafeteria" rx="2.5" ry="2.5" style="stroke:#181818;stroke-width:0.5;" width="90" x="138" y="7"/><ellipse cx="153" cy="23" fill="#ADD1B2" rx="11" ry="11" style="stroke:#181818;stroke-width:1.0;"/><path d="M155.7656,18.875 Q155.9219,18.6563 156.1094,18.5469 Q156.2969,18.4375 156.5156,18.4375 Q156.8906,18.4375 157.125,18.7031 Q157.3594,18.9531 157.3594,19.5625 L157.3594,21.0156 Q157.3594,21.625 157.125,21.8906 Q156.8906,22.1563 156.5156,22.1563 Q156.1719,22.1563 155.9688,21.9531 Q155.7656,21.7656 155.6563,21.25 Q155.6094,20.8906 155.4219,20.7031 Q155.0938,20.3281 154.4844,20.1094 Q153.875,19.8906 153.25,19.8906 Q152.4844,19.8906 151.8438,20.2188 Q151.2188,20.5469 150.7188,21.2969 Q150.2344,22.0469 150.2344,23.0781 L150.2344,24.1719 Q150.2344,25.4063 151.125,26.2344 Q152.0156,27.0469 153.6094,27.0469 Q154.5469,27.0469 155.2031,26.7969 Q155.5938,26.6406 156.0156,26.2031 Q156.2813,25.9375 156.4219,25.8594 Q156.5781,25.7813 156.7813,25.7813 Q157.1094,25.7813 157.3594,26.0469 Q157.625,26.2969 157.625,26.6406 Q157.625,26.9844 157.2813,27.3906 Q156.7813,27.9688 155.9844,28.2969 Q154.9063,28.75 153.6094,28.75 Q152.0938,28.75 150.8906,28.125 Q149.9063,27.625 149.2188,26.5625 Q148.5313,25.4844 148.5313,24.2031 L148.5313,23.0469 Q148.5313,21.7188 149.1406,20.5781 Q149.7656,19.4219 150.8594,18.8125 Q151.9531,18.1875 153.1875,18.1875 Q153.9219,18.1875 154.5625,18.3594 Q155.2188,18.5156 155.7656,18.875 Z " fill="#000000"/><text fill="#000000" font-family="sans-serif" font-size="14" lengthAdjust="spacing" textLength="58" x="167" y="28.7285">Cafeteria</text><line style="stroke:#181818;stroke-width:0.5;" x1="139" x2="227" y1="39" y2="39"/><line style="stroke:#181818;stroke-width:0.5;" x1="139" x2="227" y1="47" y2="47"/></g><!--class Proveedor--><g id="elem_Proveedor"><rect codeLine="26" fill="#F1F1F1" height="48" id="Proveedor" rx="2.5" ry="2.5" style="stroke:#181818;stroke-width:0.5;" width="98" x="632" y="155"/><ellipse cx="647" cy="171" fill="#ADD1B2" rx="11" ry="11" style="stroke:#181818;stroke-width:1.0;"/><path d="M649.7656,166.875 Q649.9219,166.6563 650.1094,166.5469 Q650.2969,166.4375 650.5156,166.4375 Q650.8906,166.4375 651.125,166.7031 Q651.3594,166.9531 651.3594,167.5625 L651.3594,169.0156 Q651.3594,169.625 651.125,169.8906 Q650.8906,170.1563 650.5156,170.1563 Q650.1719,170.1563 649.9688,169.9531 Q649.7656,169.7656 649.6563,169.25 Q649.6094,168.8906 649.4219,168.7031 Q649.0938,168.3281 648.4844,168.1094 Q647.875,167.8906 647.25,167.8906 Q646.4844,167.8906 645.8438,168.2188 Q645.2188,168.5469 644.7188,169.2969 Q644.2344,170.0469 644.2344,171.0781 L644.2344,172.1719 Q644.2344,173.4063 645.125,174.2344 Q646.0156,175.0469 647.6094,175.0469 Q648.5469,175.0469 649.2031,174.7969 Q649.5938,174.6406 650.0156,174.2031 Q650.2813,173.9375 650.4219,173.8594 Q650.5781,173.7813 650.7813,173.7813 Q651.1094,173.7813 651.3594,174.0469 Q651.625,174.2969 651.625,174.6406 Q651.625,174.9844 651.2813,175.3906 Q650.7813,175.9688 649.9844,176.2969 Q648.9063,176.75 647.6094,176.75 Q646.0938,176.75 644.8906,176.125 Q643.9063,175.625 643.2188,174.5625 Q642.5313,173.4844 642.5313,172.2031 L642.5313,171.0469 Q642.5313,169.7188 643.1406,168.5781 Q643.7656,167.4219 644.8594,166.8125 Q645.9531,166.1875 647.1875,166.1875 Q647.9219,166.1875 648.5625,166.3594 Q649.2188,166.5156 649.7656,166.875 Z " fill="#000000"/><text fill="#000000" font-family="sans-serif" font-size="14" lengthAdjust="spacing" textLength="66" x="661" y="176.7285">Proveedor</text><line style="stroke:#181818;stroke-width:0.5;" x1="633" x2="729" y1="187" y2="187"/><line style="stroke:#181818;stroke-width:0.5;" x1="633" x2="729" y1="195" y2="195"/></g><!--class Menu--><g id="elem_Menu"><rect codeLine="33" fill="#F1F1F1" height="48" id="Menu" rx="2.5" ry="2.5" style="stroke:#181818;stroke-width:0.5;" width="67" x="149.5" y="155"/><ellipse cx="164.5" cy="171" fill="#ADD1B2" rx="11" ry="11" style="stroke:#181818;stroke-width:1.0;"/><path d="M167.2656,166.875 Q167.4219,166.6563 167.6094,166.5469 Q167.7969,166.4375 168.0156,166.4375 Q168.3906,166.4375 168.625,166.7031 Q168.8594,166.9531 168.8594,167.5625 L168.8594,169.0156 Q168.8594,169.625 168.625,169.8906 Q168.3906,170.1563 168.0156,170.1563 Q167.6719,170.1563 167.4688,169.9531 Q167.2656,169.7656 167.1563,169.25 Q167.1094,168.8906 166.9219,168.7031 Q166.5938,168.3281 165.9844,168.1094 Q165.375,167.8906 164.75,167.8906 Q163.9844,167.8906 163.3438,168.2188 Q162.7188,168.5469 162.2188,169.2969 Q161.7344,170.0469 161.7344,171.0781 L161.7344,172.1719 Q161.7344,173.4063 162.625,174.2344 Q163.5156,175.0469 165.1094,175.0469 Q166.0469,175.0469 166.7031,174.7969 Q167.0938,174.6406 167.5156,174.2031 Q167.7813,173.9375 167.9219,173.8594 Q168.0781,173.7813 168.2813,173.7813 Q168.6094,173.7813 168.8594,174.0469 Q169.125,174.2969 169.125,174.6406 Q169.125,174.9844 168.7813,175.3906 Q168.2813,175.9688 167.4844,176.2969 Q166.4063,176.75 165.1094,176.75 Q163.5938,176.75 162.3906,176.125 Q161.4063,175.625 160.7188,174.5625 Q160.0313,173.4844 160.0313,172.2031 L160.0313,171.0469 Q160.0313,169.7188 160.6406,168.5781 Q161.2656,167.4219 162.3594,166.8125 Q163.4531,166.1875 164.6875,166.1875 Q165.4219,166.1875 166.0625,166.3594 Q166.7188,166.5156 167.2656,166.875 Z " fill="#000000"/><text fill="#000000" font-family="sans-serif" font-size="14" lengthAdjust="spacing" textLength="35" x="178.5" y="176.7285">Menu</text><line style="stroke:#181818;stroke-width:0.5;" x1="150.5" x2="215.5" y1="187" y2="187"/><line style="stroke:#181818;stroke-width:0.5;" x1="150.5" x2="215.5" y1="195" y2="195"/></g><!--class Presupuesto--><g id="elem_Presupuesto"><rect codeLine="37" fill="#F1F1F1" height="48" id="Presupuesto" rx="2.5" ry="2.5" style="stroke:#181818;stroke-width:0.5;" width="112" x="7" y="281"/><ellipse cx="22" cy="297" fill="#ADD1B2" rx="11" ry="11" style="stroke:#181818;stroke-width:1.0;"/><path d="M24.7656,292.875 Q24.9219,292.6563 25.1094,292.5469 Q25.2969,292.4375 25.5156,292.4375 Q25.8906,292.4375 26.125,292.7031 Q26.3594,292.9531 26.3594,293.5625 L26.3594,295.0156 Q26.3594,295.625 26.125,295.8906 Q25.8906,296.1563 25.5156,296.1563 Q25.1719,296.1563 24.9688,295.9531 Q24.7656,295.7656 24.6563,295.25 Q24.6094,294.8906 24.4219,294.7031 Q24.0938,294.3281 23.4844,294.1094 Q22.875,293.8906 22.25,293.8906 Q21.4844,293.8906 20.8438,294.2188 Q20.2188,294.5469 19.7188,295.2969 Q19.2344,296.0469 19.2344,297.0781 L19.2344,298.1719 Q19.2344,299.4063 20.125,300.2344 Q21.0156,301.0469 22.6094,301.0469 Q23.5469,301.0469 24.2031,300.7969 Q24.5938,300.6406 25.0156,300.2031 Q25.2813,299.9375 25.4219,299.8594 Q25.5781,299.7813 25.7813,299.7813 Q26.1094,299.7813 26.3594,300.0469 Q26.625,300.2969 26.625,300.6406 Q26.625,300.9844 26.2813,301.3906 Q25.7813,301.9688 24.9844,302.2969 Q23.9063,302.75 22.6094,302.75 Q21.0938,302.75 19.8906,302.125 Q18.9063,301.625 18.2188,300.5625 Q17.5313,299.4844 17.5313,298.2031 L17.5313,297.0469 Q17.5313,295.7188 18.1406,294.5781 Q18.7656,293.4219 19.8594,292.8125 Q20.9531,292.1875 22.1875,292.1875 Q22.9219,292.1875 23.5625,292.3594 Q24.2188,292.5156 24.7656,292.875 Z " fill="#000000"/><text fill="#000000" font-family="sans-serif" font-size="14" lengthAdjust="spacing" textLength="80" x="36" y="302.7285">Presupuesto</text><line style="stroke:#181818;stroke-width:0.5;" x1="8" x2="118" y1="313" y2="313"/><line style="stroke:#181818;stroke-width:0.5;" x1="8" x2="118" y1="321" y2="321"/></g><!--class Receta--><g id="elem_Receta"><rect codeLine="43" fill="#F1F1F1" height="48" id="Receta" rx="2.5" ry="2.5" style="stroke:#181818;stroke-width:0.5;" width="77" x="156.5" y="281"/><ellipse cx="171.5" cy="297" fill="#ADD1B2" rx="11" ry="11" style="stroke:#181818;stroke-width:1.0;"/><path d="M174.2656,292.875 Q174.4219,292.6563 174.6094,292.5469 Q174.7969,292.4375 175.0156,292.4375 Q175.3906,292.4375 175.625,292.7031 Q175.8594,292.9531 175.8594,293.5625 L175.8594,295.0156 Q175.8594,295.625 175.625,295.8906 Q175.3906,296.1563 175.0156,296.1563 Q174.6719,296.1563 174.4688,295.9531 Q174.2656,295.7656 174.1563,295.25 Q174.1094,294.8906 173.9219,294.7031 Q173.5938,294.3281 172.9844,294.1094 Q172.375,293.8906 171.75,293.8906 Q170.9844,293.8906 170.3438,294.2188 Q169.7188,294.5469 169.2188,295.2969 Q168.7344,296.0469 168.7344,297.0781 L168.7344,298.1719 Q168.7344,299.4063 169.625,300.2344 Q170.5156,301.0469 172.1094,301.0469 Q173.0469,301.0469 173.7031,300.7969 Q174.0938,300.6406 174.5156,300.2031 Q174.7813,299.9375 174.9219,299.8594 Q175.0781,299.7813 175.2813,299.7813 Q175.6094,299.7813 175.8594,300.0469 Q176.125,300.2969 176.125,300.6406 Q176.125,300.9844 175.7813,301.3906 Q175.2813,301.9688 174.4844,302.2969 Q173.4063,302.75 172.1094,302.75 Q170.5938,302.75 169.3906,302.125 Q168.4063,301.625 167.7188,300.5625 Q167.0313,299.4844 167.0313,298.2031 L167.0313,297.0469 Q167.0313,295.7188 167.6406,294.5781 Q168.2656,293.4219 169.3594,292.8125 Q170.4531,292.1875 171.6875,292.1875 Q172.4219,292.1875 173.0625,292.3594 Q173.7188,292.5156 174.2656,292.875 Z " fill="#000000"/><text fill="#000000" font-family="sans-serif" font-size="14" lengthAdjust="spacing" textLength="45" x="185.5" y="302.7285">Receta</text><line style="stroke:#181818;stroke-width:0.5;" x1="157.5" x2="232.5" y1="313" y2="313"/><line style="stroke:#181818;stroke-width:0.5;" x1="157.5" x2="232.5" y1="321" y2="321"/></g><!--reverse link Cafeteria to Inventario--><g id="link_Cafeteria_Inventario"><path codeLine="18" d="M233.8233,61.0935 C281.5633,88.4335 350.12,127.68 397.78,154.97 " fill="none" id="Cafeteria-backto-Inventario" style="stroke:#181818;stroke-width:1.0;"/><polygon fill="#181818" points="223.41,55.13,226.6288,61.5829,233.8233,61.0935,230.6045,54.6407,223.41,55.13" style="stroke:#181818;stroke-width:1.0;"/><text fill="#000000" font-family="sans-serif" font-size="13" lengthAdjust="spacing" textLength="49" x="303" y="99.4951">contiene</text></g><!--reverse link Categoria to Producto--><g id="link_Categoria_Producto"><path codeLine="19" d="M346.3146,338.4478 C357.6446,352.6778 365.4,361.69 380,377 C389.79,387.26 401.2,397.94 411.3,406.99 " fill="none" id="Categoria-backto-Producto" style="stroke:#181818;stroke-width:1.0;"/><polygon fill="none" points="338.84,329.06,339.448,336.2454,346.3146,338.4478,345.7066,331.2624,338.84,329.06" style="stroke:#181818;stroke-width:1.0;"/><text fill="#000000" font-family="sans-serif" font-size="13" lengthAdjust="spacing" textLength="47" x="381" y="373.4951">clasifica</text></g><!--link Inventario to Producto--><g id="link_Inventario_Producto"><path codeLine="20" d="M438,203.07 C438,250.7 438,359.41 438,406.98 " fill="none" id="Inventario-Producto" style="stroke:#181818;stroke-width:1.0;"/><text fill="#000000" font-family="sans-serif" font-size="13" lengthAdjust="spacing" textLength="49" x="439" y="310.4951">contiene</text></g><!--link Inventario to Pedido--><g id="link_Inventario_Pedido"><path codeLine="21" d="M461.03,203.03 C483.17,225.17 512.1974,254.1974 534.4274,276.4274 " fill="none" id="Inventario-to-Pedido" style="stroke:#181818;stroke-width:1.0;"/><polygon fill="#181818" points="538.67,280.67,535.1345,271.4776,535.1345,277.1345,529.4776,277.1345,538.67,280.67" style="stroke:#181818;stroke-width:1.0;"/><text fill="#000000" font-family="sans-serif" font-size="13" lengthAdjust="spacing" textLength="39" x="508" y="247.4951">genera</text></g><!--link Pedido to Producto--><g id="link_Pedido_Producto"><path codeLine="22" d="M538.97,329.03 C516.83,351.17 487.8026,380.1974 465.5726,402.4274 " fill="none" id="Pedido-to-Producto" style="stroke:#181818;stroke-width:1.0;"/><polygon fill="#181818" points="461.33,406.67,470.5224,403.1345,464.8655,403.1345,464.8655,397.4776,461.33,406.67" style="stroke:#181818;stroke-width:1.0;"/><text fill="#000000" font-family="sans-serif" font-size="13" lengthAdjust="spacing" textLength="41" x="508" y="373.4951">incluye</text></g><!--link Proveedor to Pedido--><g id="link_Proveedor_Pedido"><path codeLine="29" d="M646.66,203.18 C635.02,211.84 622.35,222.21 612,233 C598.01,247.58 588.1868,261.2852 578.9268,275.8652 " fill="none" id="Proveedor-to-Pedido" style="stroke:#181818;stroke-width:1.0;"/><polygon fill="#181818" points="575.71,280.93,583.9117,275.4773,578.3906,276.7093,577.1586,271.1883,575.71,280.93" style="stroke:#181818;stroke-width:1.0;"/><text fill="#000000" font-family="sans-serif" font-size="13" lengthAdjust="spacing" textLength="35" x="613" y="247.4951">recibe</text></g><!--link Proveedor to Producto--><g id="link_Proveedor_Producto"><path codeLine="30" d="M675.25,203.11 C666.69,234.15 648.26,289.92 618,329 C583.66,373.34 529.6786,399.1592 488.5186,414.1292 " fill="none" id="Proveedor-to-Producto" style="stroke:#181818;stroke-width:1.0;"/><polygon fill="#181818" points="482.88,416.18,492.7052,416.8629,487.5789,414.471,489.9708,409.3447,482.88,416.18" style="stroke:#181818;stroke-width:1.0;"/><text fill="#000000" font-family="sans-serif" font-size="13" lengthAdjust="spacing" textLength="60" x="646" y="310.4951">suministra</text></g><!--link Menu to Presupuesto--><g id="link_Menu_Presupuesto"><path codeLine="39" d="M160.71,203.03 C139.29,225.17 111.2622,254.1281 89.7522,276.3581 " fill="none" id="Menu-to-Presupuesto" style="stroke:#181818;stroke-width:1.0;"/><polygon fill="#181818" points="85.58,280.67,94.713,276.9837,89.0569,277.0768,88.9638,271.4207,85.58,280.67" style="stroke:#181818;stroke-width:1.0;"/><text fill="#000000" font-family="sans-serif" font-size="13" lengthAdjust="spacing" textLength="35" x="132" y="247.4951">ajusta</text></g><!--reverse link Cafeteria to Presupuesto--><g id="link_Cafeteria_Presupuesto"><path codeLine="40" d="M128.315,61.5151 C107.225,74.8851 94,87.34 81,111 C50.86,165.86 55.01,242.88 59.54,280.91 " fill="none" id="Cafeteria-backto-Presupuesto" style="stroke:#181818;stroke-width:1.0;"/><polygon fill="#181818" points="138.45,55.09,131.2408,54.9242,128.315,61.5151,135.5242,61.6809,138.45,55.09" style="stroke:#181818;stroke-width:1.0;"/><text fill="#000000" font-family="sans-serif" font-size="13" lengthAdjust="spacing" textLength="49" x="82" y="184.4951">gestiona</text></g><!--reverse link Cafeteria to Menu--><g id="link_Cafeteria_Menu"><path codeLine="46" d="M183,67.13 C183,94.47 183,127.68 183,154.97 " fill="none" id="Cafeteria-backto-Menu" style="stroke:#181818;stroke-width:1.0;"/><polygon fill="#181818" points="183,55.13,179,61.13,183,67.13,187,61.13,183,55.13" style="stroke:#181818;stroke-width:1.0;"/><text fill="#000000" font-family="sans-serif" font-size="13" lengthAdjust="spacing" textLength="35" x="184" y="99.4951">ofrece</text></g><!--reverse link Menu to Receta--><g id="link_Menu_Receta"><path codeLine="47" d="M186.3845,214.9743 C188.5245,237.1143 190.59,258.44 192.74,280.67 " fill="none" id="Menu-backto-Receta" style="stroke:#181818;stroke-width:1.0;"/><polygon fill="#181818" points="185.23,203.03,181.8258,209.387,186.3845,214.9743,189.7887,208.6173,185.23,203.03" style="stroke:#181818;stroke-width:1.0;"/><text fill="#000000" font-family="sans-serif" font-size="13" lengthAdjust="spacing" textLength="49" x="191" y="247.4951">contiene</text></g><!--link Receta to Producto--><g id="link_Receta_Producto"><path codeLine="48" d="M233.34,329.02 C257.81,343.41 290.4,361.99 320,377 C343.83,389.09 365.5105,398.9911 387.7705,408.7011 " fill="none" id="Receta-to-Producto" style="stroke:#181818;stroke-width:1.0;"/><polygon fill="#181818" points="393.27,411.1,386.62,403.8352,388.687,409.1009,383.4214,411.1679,393.27,411.1" style="stroke:#181818;stroke-width:1.0;"/><text fill="#000000" font-family="sans-serif" font-size="13" lengthAdjust="spacing" textLength="34" x="321" y="373.4951">utiliza</text></g><!--SRC=[RL8xRiCm3Drr2Y9Z05z0GvTC7Ge4lG4hqmPJLmhq2P0MkNlrSoIxzMBWVKdQQa7du8GJURACy2CUGbnHVU9CS7ZLDz8UBPj3P20-AkiRNk5eQkm9FSscfFqXpzQCGVb_ZMSQUTmnRRJZCFJ54fJHdabJrQsbOAAmzSWSpXChpC8k0lR2Fh3J3SCBhCD9cAF2bgoA9RwBOQsMSATqIV5S-aOq6fllcvoYGTczXbjI_45xjcMxyCMQdOy3hE5lf4FvRiysSk4QoEKhFqGMb9n6IC1BS1x5zi1RoHpVR7JhUYT5llubMsCPGuAPuWgKLyn8ugghEt15Tii5pmj_fxPV]--></g></svg>